%TF.GenerationSoftware,Altium Limited,Altium Designer,21.0.9 (235)*%
G04 Layer_Physical_Order=3*
G04 Layer_Color=36540*
%FSLAX26Y26*%
%MOIN*%
%TF.SameCoordinates,5BE5EA85-216B-4E4C-B8B6-EAA837D7D1E1*%
%TF.FilePolarity,Positive*%
%TF.FileFunction,Copper,L3,Inr,Signal*%
%TF.Part,Single*%
G01*
G75*
%TA.AperFunction,Conductor*%
%ADD96C,0.010000*%
%ADD98C,0.025000*%
%ADD99C,0.012000*%
%ADD100C,0.020000*%
%TA.AperFunction,NonConductor*%
%ADD105C,0.006000*%
%TA.AperFunction,ComponentPad*%
%ADD106R,0.061811X0.061811*%
%ADD107C,0.061811*%
%ADD108C,0.078740*%
%ADD109R,0.078740X0.078740*%
%ADD110C,0.314961*%
%ADD111C,0.061024*%
%ADD112C,0.049213*%
%ADD113C,0.062992*%
%ADD114R,0.062992X0.062992*%
%TA.AperFunction,ViaPad*%
%ADD115C,0.160000*%
%TA.AperFunction,ComponentPad*%
%ADD116C,0.060000*%
%ADD117R,0.062992X0.062992*%
%ADD118R,0.039370X0.039370*%
%ADD119C,0.039370*%
%ADD120R,0.061811X0.061811*%
%TA.AperFunction,ViaPad*%
%ADD121C,0.020000*%
%ADD122C,0.019685*%
%ADD123C,0.050000*%
D96*
X4960630Y5708661D02*
Y6535433D01*
Y5590551D02*
X5000000Y5629921D01*
Y6732283D01*
X7362205Y5071892D02*
Y6220472D01*
X7360496Y5070184D02*
X7362205Y5071892D01*
X7020989Y5144365D02*
X7028628D01*
X7044623Y5128370D01*
X7047244D01*
X7007874Y5157480D02*
X7020989Y5144365D01*
X6923842Y5087000D02*
X6925000Y5088158D01*
X6784000Y5087000D02*
X6923842D01*
X6754000Y5117000D02*
X6784000Y5087000D01*
X7086614Y5000000D02*
Y5669291D01*
X4921260Y5118110D02*
Y6417323D01*
X4842520Y6496063D02*
X4921260Y6417323D01*
X4724409Y6496063D02*
X4842520D01*
X4606299Y5314961D02*
X4645669D01*
X4527559Y5393701D02*
X4606299Y5314961D01*
X4527559Y5393701D02*
Y6377953D01*
X4448819Y6456693D02*
X4527559Y6377953D01*
X4842520Y5669291D02*
Y6377953D01*
X7125984Y5236221D02*
Y5354331D01*
X2992126Y4724409D02*
Y4881890D01*
X3503937Y5393701D01*
X4173228D01*
X4370079Y5196850D01*
X4409449Y5236221D01*
Y5275591D01*
X4488189Y5354331D01*
X3622047Y4960630D02*
Y5078740D01*
X3897638Y5354331D01*
X4055118D01*
X3937008Y4480787D02*
Y5314961D01*
X3821220Y4365000D02*
X3937008Y4480787D01*
X2834646Y4842520D02*
Y5826772D01*
X7322835Y5039370D02*
Y6062992D01*
X4763779Y5236221D02*
Y5748032D01*
X4803150Y5787402D01*
X4566929Y5393701D02*
Y5708661D01*
X4606299Y5748032D01*
Y6141732D01*
X4448819Y5275591D02*
X4488189Y5314961D01*
X4448819Y5157480D02*
Y5275591D01*
X4291339Y5000000D02*
X4448819Y5157480D01*
X4055118Y5000000D02*
X4291339D01*
X7007874Y5157480D02*
Y5866142D01*
X5039370Y5118110D02*
X5118110D01*
X3818898Y5944882D02*
Y6141732D01*
X4330709Y5314961D02*
Y6535433D01*
X4370079Y5275591D02*
Y6496063D01*
X4448819Y6574803D01*
X4645669Y4960630D02*
X4724409Y5039370D01*
X5118110D01*
X5629921Y5551181D01*
X5866142D01*
X4685039Y4921260D02*
X5354331D01*
X5866142Y5433071D01*
X4488189Y5275591D02*
X4724409D01*
X4488189Y5078740D02*
X4566929D01*
X4685039Y5196850D01*
X4763779D01*
X4842520Y5275591D01*
Y5511811D01*
X4803150Y4685039D02*
X5354331D01*
X4724409Y4763779D02*
X4803150Y4685039D01*
X4724409Y4763779D02*
Y4803150D01*
X5005000Y4735000D02*
Y4837520D01*
X4960630Y4881890D02*
X5005000Y4837520D01*
X4435000Y4610000D02*
X4478071Y4566929D01*
X4606299D01*
X4645669Y4606299D01*
Y4763779D01*
X4685039Y5393701D02*
Y6535433D01*
X4763779Y6614173D01*
X4881890D01*
X4724409Y5393701D02*
Y6417323D01*
X5111741Y6029991D02*
X5118110Y6023622D01*
X5111741Y6029991D02*
Y6410953D01*
X5236221Y6535433D01*
X4231221Y4763779D02*
X4335000Y4660000D01*
X4133858Y4763779D02*
X4231221D01*
X4094488Y4724409D02*
X4133858Y4763779D01*
X4094488Y4494488D02*
Y4724409D01*
X4050000Y4450000D02*
X4094488Y4494488D01*
X5947913Y4449913D02*
X5977000Y4479000D01*
X5947913Y4440913D02*
Y4449913D01*
X5946000Y4439000D02*
X5947913Y4440913D01*
D98*
X7677165Y3307087D02*
Y5236221D01*
X4251968Y4094488D02*
X6181102D01*
D99*
X7424000Y5191647D02*
Y5260000D01*
Y5191647D02*
X7462044Y5153603D01*
X4724409Y4488189D02*
X5135669D01*
X5157480Y4510000D01*
X5265000D01*
X4803150Y5433071D02*
Y5551181D01*
X5236221Y5928779D02*
Y6456693D01*
Y5928779D02*
X5300000Y5865000D01*
X6181102Y6338583D02*
X6417323D01*
X7401575Y4803150D02*
X7440945Y4842520D01*
X7244095Y4803150D02*
X7401575D01*
X4015748Y4960630D02*
Y5000000D01*
X4094488Y5078740D01*
X7283465Y4488189D02*
Y4763779D01*
X7244095Y4803150D02*
X7283465Y4763779D01*
X3976378Y4921260D02*
X4015748Y4960630D01*
X3976378Y4623622D02*
Y4921260D01*
Y4623622D02*
X4050000Y4550000D01*
X7245000Y4449724D02*
X7283465Y4488189D01*
X7245000Y4225000D02*
Y4449724D01*
X7125984Y4921260D02*
X7244095Y4803150D01*
X6181102Y4921260D02*
X7125984D01*
X5905512Y5196850D02*
X6181102Y4921260D01*
X5905512Y5196850D02*
Y5551181D01*
X5826772Y5629921D02*
X5905512Y5551181D01*
X5748032Y5629921D02*
X5826772D01*
X6141732Y5590551D02*
X6220472Y5669291D01*
Y5866142D01*
X6062992Y5078740D02*
X6141732Y5157480D01*
Y5590551D01*
D100*
X5394000Y4170000D02*
Y4589000D01*
Y4170000D02*
X5420000Y4144000D01*
X5672000D01*
X5674000Y4142000D01*
D105*
X8451000Y4576000D02*
Y4635981D01*
X8470994Y4615987D01*
X8490987Y4635981D01*
Y4576000D01*
X8510981Y4635981D02*
X8530974D01*
X8520977D01*
Y4576000D01*
X8510981D01*
X8530974D01*
X8560964Y4635981D02*
Y4576000D01*
X8590955D01*
X8600951Y4585997D01*
Y4625984D01*
X8590955Y4635981D01*
X8560964D01*
X8620945Y4576000D02*
X8640939D01*
X8630942D01*
Y4635981D01*
X8620945Y4625984D01*
X8770897D02*
X8760900Y4635981D01*
X8740906D01*
X8730909Y4625984D01*
Y4615987D01*
X8740906Y4605990D01*
X8760900D01*
X8770897Y4595993D01*
Y4585997D01*
X8760900Y4576000D01*
X8740906D01*
X8730909Y4585997D01*
X8790890Y4635981D02*
X8810883D01*
X8800887D01*
Y4576000D01*
X8790890D01*
X8810883D01*
X8880861Y4625984D02*
X8870864Y4635981D01*
X8850871D01*
X8840874Y4625984D01*
Y4585997D01*
X8850871Y4576000D01*
X8870864D01*
X8880861Y4585997D01*
Y4605990D01*
X8860867D01*
X8900854Y4576000D02*
Y4585997D01*
X8910851D01*
Y4576000D01*
X8900854D01*
D106*
X7090000Y4475000D02*
D03*
X5205000Y4735000D02*
D03*
D107*
X6990000Y4475000D02*
D03*
X5105000Y4735000D02*
D03*
X5005000D02*
D03*
X5300000Y5965000D02*
D03*
Y6065000D02*
D03*
X4050000Y4550000D02*
D03*
Y4450000D02*
D03*
D108*
X4453425Y3258425D02*
D03*
X4355000Y2963150D02*
D03*
D109*
X4256575Y3258425D02*
D03*
D110*
X3955000Y2780000D02*
D03*
X4765000Y2790000D02*
D03*
D111*
X6840000Y4210000D02*
D03*
X7245000Y4225000D02*
D03*
X5265000Y4510000D02*
D03*
D112*
X3290000Y3845000D02*
D03*
Y4041850D02*
D03*
X3080000Y3846575D02*
D03*
Y4043425D02*
D03*
X2875000Y3846575D02*
D03*
Y4043425D02*
D03*
D113*
X3740000Y3550000D02*
D03*
X3290000D02*
D03*
X4190000D02*
D03*
X3821220Y4765000D02*
D03*
Y4665000D02*
D03*
Y4465000D02*
D03*
Y4565000D02*
D03*
X5795000Y2870000D02*
D03*
X5825000Y3525000D02*
D03*
X5505000Y3060000D02*
D03*
X5485000Y3315000D02*
D03*
X4640000Y3550000D02*
D03*
X6485000Y4770000D02*
D03*
Y4870000D02*
D03*
Y5170000D02*
D03*
Y5270000D02*
D03*
Y5370000D02*
D03*
Y5570000D02*
D03*
Y5670000D02*
D03*
Y5870000D02*
D03*
Y6070000D02*
D03*
Y6170000D02*
D03*
Y5970000D02*
D03*
Y5770000D02*
D03*
Y5470000D02*
D03*
Y5070000D02*
D03*
Y4970000D02*
D03*
X7880000Y4340000D02*
D03*
Y4843425D02*
D03*
D114*
X3540000Y3550000D02*
D03*
X3090000D02*
D03*
X3990000D02*
D03*
X3821220Y4365000D02*
D03*
X4440000Y3550000D02*
D03*
X6485000Y6270000D02*
D03*
X7880000Y4143150D02*
D03*
Y4646575D02*
D03*
D115*
X7123627Y2950592D02*
D03*
X3561127D02*
D03*
Y6388092D02*
D03*
X7123627D02*
D03*
D116*
X6050000Y2820000D02*
D03*
X6282283Y3560157D02*
D03*
D117*
X5795000Y3070000D02*
D03*
X5825000Y3325000D02*
D03*
X5505000Y2860000D02*
D03*
X5485000Y3515000D02*
D03*
D118*
X4285000Y4610000D02*
D03*
D119*
Y4660000D02*
D03*
X4335000Y4610000D02*
D03*
Y4660000D02*
D03*
X4385000Y4610000D02*
D03*
Y4660000D02*
D03*
X4435000Y4610000D02*
D03*
Y4660000D02*
D03*
X4485000Y4610000D02*
D03*
Y4660000D02*
D03*
X4535000Y4610000D02*
D03*
Y4660000D02*
D03*
X4585000Y4610000D02*
D03*
Y4660000D02*
D03*
D120*
X5300000Y5865000D02*
D03*
X4050000Y4650000D02*
D03*
D121*
X7714000Y4874000D02*
D03*
X4823000Y4346000D02*
D03*
X6365000Y6102000D02*
D03*
X6333000Y6244000D02*
D03*
X5073000Y4655000D02*
D03*
X4947000Y4648000D02*
D03*
X5208000Y5010000D02*
D03*
X3548000Y4570000D02*
D03*
X3556000Y4667000D02*
D03*
X3445000Y5881000D02*
D03*
X2575000Y4075000D02*
D03*
Y4125000D02*
D03*
X6925000Y5088158D02*
D03*
X7249000Y4848000D02*
D03*
X7118000Y4807000D02*
D03*
X6754000Y5117000D02*
D03*
X4958000Y5248000D02*
D03*
X5946000Y4439000D02*
D03*
X5977000Y4479000D02*
D03*
X5911000Y4478000D02*
D03*
X5912000Y4397000D02*
D03*
X5970000D02*
D03*
X6807000Y3880000D02*
D03*
X6741000Y4033000D02*
D03*
X6323000Y3727000D02*
D03*
X4590000Y5576000D02*
D03*
X4475000Y5890000D02*
D03*
X4579000Y5894000D02*
D03*
X6064000Y4324000D02*
D03*
X6118000Y4325000D02*
D03*
X5422000Y4510000D02*
D03*
X5407000Y4691000D02*
D03*
X6278000Y3936000D02*
D03*
X6556000Y3938000D02*
D03*
X6488000Y4572000D02*
D03*
X5769000Y4516000D02*
D03*
X5914000Y4029000D02*
D03*
X5915000Y4141000D02*
D03*
X6468000Y4338000D02*
D03*
X4535000Y4314000D02*
D03*
X4423000Y4389000D02*
D03*
X4795000Y4631000D02*
D03*
X3925000Y4143000D02*
D03*
X3557000Y4091000D02*
D03*
X3700000Y4253000D02*
D03*
X4777000Y3847000D02*
D03*
D122*
X4960630Y5708661D02*
D03*
Y5590551D02*
D03*
X7360496Y5070184D02*
D03*
X7283465Y5236221D02*
D03*
X7047244Y5128370D02*
D03*
X7230000Y4776000D02*
D03*
X6062992Y5195378D02*
D03*
X5748032D02*
D03*
X6259842Y5157480D02*
D03*
X5039370Y5236221D02*
D03*
X7086614Y5000000D02*
D03*
X6692913D02*
D03*
X6771654Y5196850D02*
D03*
X6692913Y5157480D02*
D03*
X4724409Y6496063D02*
D03*
X4921260Y5118110D02*
D03*
X4448819Y6456693D02*
D03*
X4645669Y5314961D02*
D03*
X5944882Y6496063D02*
D03*
X4842520Y6377953D02*
D03*
Y5669291D02*
D03*
X5000000Y6732283D02*
D03*
X7125984Y5354331D02*
D03*
Y5236221D02*
D03*
X4488189Y5354331D02*
D03*
X2992126Y4724409D02*
D03*
X3543307Y4921260D02*
D03*
X4566929Y5157480D02*
D03*
X3503937Y5196850D02*
D03*
X4488189D02*
D03*
X4055118Y5354331D02*
D03*
X3622047Y4960630D02*
D03*
X3937008Y5314961D02*
D03*
X3188976Y4527559D02*
D03*
X4527559Y5118110D02*
D03*
X3503937Y5039370D02*
D03*
X3070866Y5118110D02*
D03*
X5629921Y4803150D02*
D03*
X4842520Y5078740D02*
D03*
X3149606Y4645669D02*
D03*
X2834646Y4842520D02*
D03*
Y5826772D02*
D03*
X5669291Y6220472D02*
D03*
X5708661Y6102362D02*
D03*
X3149606Y5748032D02*
D03*
X7322835Y6062992D02*
D03*
Y5039370D02*
D03*
X7362205Y6220472D02*
D03*
X4803150Y5787402D02*
D03*
X4763779Y5236221D02*
D03*
X4606299Y6141732D02*
D03*
X4566929Y5393701D02*
D03*
X4055118Y5000000D02*
D03*
X4488189Y5314961D02*
D03*
X7559055Y4881890D02*
D03*
X7007874Y5866142D02*
D03*
X6220472Y5511811D02*
D03*
X6102362Y5157480D02*
D03*
X5944882Y5590551D02*
D03*
X4212598Y5275591D02*
D03*
X5866142Y5314961D02*
D03*
X6220472Y6102362D02*
D03*
X5118110Y5118110D02*
D03*
X5039370D02*
D03*
X6889764Y6141732D02*
D03*
X6771654D02*
D03*
X3818898Y5944882D02*
D03*
Y6141732D02*
D03*
X4330709Y5314961D02*
D03*
Y6535433D02*
D03*
X4448819Y6574803D02*
D03*
X4370079Y5275591D02*
D03*
X5866142Y5551181D02*
D03*
X4645669Y4960630D02*
D03*
X5629921Y5511811D02*
D03*
X4645669Y5078740D02*
D03*
X5590551Y5314961D02*
D03*
X4645669Y5118110D02*
D03*
X5866142Y5433071D02*
D03*
X4685039Y4921260D02*
D03*
X5866142Y5354331D02*
D03*
X4803150D02*
D03*
X5039370Y5433071D02*
D03*
X5708661Y5393701D02*
D03*
X5629921D02*
D03*
X4960630D02*
D03*
X4488189Y5275591D02*
D03*
X4724409D02*
D03*
X4842520Y5511811D02*
D03*
X4488189Y5078740D02*
D03*
X4724409Y4803150D02*
D03*
X5354331Y4685039D02*
D03*
X5275591Y5157480D02*
D03*
X4685039D02*
D03*
Y4881890D02*
D03*
X5078740Y4842520D02*
D03*
X4803150Y5275591D02*
D03*
X7401575Y4763779D02*
D03*
X4645669D02*
D03*
X4173228Y4606299D02*
D03*
X4251968Y4566929D02*
D03*
X4685039Y4842520D02*
D03*
X4881890Y5078740D02*
D03*
Y6614173D02*
D03*
X4685039Y5393701D02*
D03*
X4724409Y6417323D02*
D03*
Y5393701D02*
D03*
X4960630Y6535433D02*
D03*
X5236221D02*
D03*
X5118110Y6023622D02*
D03*
X2677165Y4291339D02*
D03*
X4291339Y5236221D02*
D03*
X7086614Y5669291D02*
D03*
X6181102Y6338583D02*
D03*
X4094488Y5078740D02*
D03*
X4803150Y5551181D02*
D03*
X4409449Y5511811D02*
D03*
Y5078740D02*
D03*
X4015748Y4960630D02*
D03*
X4803150Y5433071D02*
D03*
X5787402Y5944882D02*
D03*
X5236221Y6456693D02*
D03*
X6417323Y6338583D02*
D03*
X7283465Y4488189D02*
D03*
X6023622Y6023622D02*
D03*
X6220472Y5866142D02*
D03*
X6062992Y5078740D02*
D03*
X7677165Y5236221D02*
D03*
Y3307087D02*
D03*
X4803150Y4724409D02*
D03*
X5000000Y5118110D02*
D03*
X4251968Y4094488D02*
D03*
X6181102D02*
D03*
X5748032Y5748032D02*
D03*
X3425197Y5944882D02*
D03*
X4881890Y5433071D02*
D03*
X4488189Y5118110D02*
D03*
X4645669Y5354331D02*
D03*
X4409449Y5590551D02*
D03*
X3385827D02*
D03*
X2952756D02*
D03*
X2913386Y5314961D02*
D03*
X3464567Y5196850D02*
D03*
X6102362Y5787402D02*
D03*
X6141732Y6141732D02*
D03*
X3858268Y5433071D02*
D03*
X5905512Y5984252D02*
D03*
X5354331Y6692913D02*
D03*
X6929134Y5826772D02*
D03*
X7559055Y5748032D02*
D03*
X5826772Y5000000D02*
D03*
X4803150Y6456693D02*
D03*
X7244095Y3307087D02*
D03*
X7165354Y4566929D02*
D03*
X5826772Y6692913D02*
D03*
X4803150Y6535433D02*
D03*
X6771654Y4645669D02*
D03*
X4094488Y5275591D02*
D03*
X7165354Y3858268D02*
D03*
X6377953Y5511811D02*
D03*
X4055118Y5157480D02*
D03*
X6811024Y5551181D02*
D03*
X6377953Y5748032D02*
D03*
X6771654Y3307087D02*
D03*
X4960630Y4960630D02*
D03*
X5433071Y5511811D02*
D03*
X6377953Y5905512D02*
D03*
X7795276Y5511811D02*
D03*
X7440945Y4173228D02*
D03*
X6771654Y5275591D02*
D03*
X4881890Y5984252D02*
D03*
X6062992Y6692913D02*
D03*
X4645669Y6299213D02*
D03*
X7165354Y4094488D02*
D03*
X6771654Y4409449D02*
D03*
X3228347Y5708661D02*
D03*
X6456693Y6614173D02*
D03*
X6377953Y4881890D02*
D03*
X6220472Y6614173D02*
D03*
X5511811Y6535433D02*
D03*
X5551181Y4960630D02*
D03*
X4875000Y4210000D02*
D03*
X4904134Y4237165D02*
D03*
Y4182835D02*
D03*
X4845866Y4237165D02*
D03*
Y4182835D02*
D03*
X6930551Y3495000D02*
D03*
X6890000D02*
D03*
X6849449D02*
D03*
X7310551Y3503150D02*
D03*
X7270000D02*
D03*
X7229449D02*
D03*
D123*
X7424000Y5260000D02*
D03*
X7462044Y5153603D02*
D03*
X4724409Y4488189D02*
D03*
X4172000Y3355000D02*
D03*
X4960630Y4881890D02*
D03*
X5748032Y5629921D02*
D03*
X7440945Y4842520D02*
D03*
X6141732Y5590551D02*
D03*
X5035000Y3420000D02*
D03*
X5079000Y2897000D02*
D03*
X5674000Y4142000D02*
D03*
X5394000Y4589000D02*
D03*
%TF.MD5,c4d10a6fae9982ecf26397c9be0e406b*%
M02*
