%TF.GenerationSoftware,Altium Limited,Altium Designer,21.0.9 (235)*%
G04 Layer_Color=65535*
%FSLAX26Y26*%
%MOIN*%
%TF.SameCoordinates,5BE5EA85-216B-4E4C-B8B6-EAA837D7D1E1*%
%TF.FilePolarity,Positive*%
%TF.FileFunction,Legend,Top*%
%TF.Part,Single*%
G01*
G75*
%TA.AperFunction,NonConductor*%
%ADD105C,0.006000*%
%ADD152C,0.003937*%
%ADD153C,0.007874*%
%ADD154C,0.009842*%
%ADD155C,0.015748*%
%ADD156C,0.023622*%
%ADD157C,0.005000*%
%ADD158C,0.005906*%
%ADD159C,0.010000*%
%ADD160C,0.003000*%
G36*
X7182972Y4948606D02*
X7167972D01*
Y4938606D01*
X7182972D01*
Y4948606D01*
D02*
G37*
G36*
X7311709Y5112028D02*
X7321709D01*
Y5097028D01*
X7311709D01*
Y5112028D01*
D02*
G37*
D105*
X5153000Y4309500D02*
X5278409D01*
X5647000Y3815500D02*
Y4309500D01*
X5153000Y3815500D02*
X5278409D01*
X5153000D02*
Y4309500D01*
X5521591D02*
X5647000D01*
X5521591Y3815500D02*
X5647000D01*
X7288740Y5160919D02*
Y5178425D01*
X7271234Y4971575D02*
X7288740D01*
X7121260D02*
Y4989081D01*
Y5160919D02*
Y5178425D01*
X7271234D02*
X7288740D01*
Y4971575D02*
Y4989081D01*
X7121260Y4971575D02*
X7138766D01*
X7121260Y5178425D02*
X7138766D01*
X8451000Y5035981D02*
X8490987D01*
X8470994D01*
Y4976000D01*
X8540971Y5035981D02*
X8520977D01*
X8510981Y5025984D01*
Y4985997D01*
X8520977Y4976000D01*
X8540971D01*
X8550968Y4985997D01*
Y5025984D01*
X8540971Y5035981D01*
X8570961Y4976000D02*
Y5035981D01*
X8600951D01*
X8610948Y5025984D01*
Y5005990D01*
X8600951Y4995993D01*
X8570961D01*
X8730909Y5025984D02*
X8720913Y5035981D01*
X8700919D01*
X8690922Y5025984D01*
Y5015987D01*
X8700919Y5005990D01*
X8720913D01*
X8730909Y4995993D01*
Y4985997D01*
X8720913Y4976000D01*
X8700919D01*
X8690922Y4985997D01*
X8750903Y5035981D02*
X8770897D01*
X8760900D01*
Y4976000D01*
X8750903D01*
X8770897D01*
X8800887Y5035981D02*
Y4976000D01*
X8840874D01*
X8860867Y5035981D02*
Y4976000D01*
Y4995993D01*
X8900854Y5035981D01*
X8870864Y5005990D01*
X8900854Y4976000D01*
X3754291Y4360276D02*
Y4376937D01*
Y4368606D01*
X3704308D01*
X3712638Y4360276D01*
X3704308Y4783362D02*
Y4750039D01*
X3729300D01*
X3720969Y4766701D01*
Y4775031D01*
X3729300Y4783362D01*
X3745961D01*
X3754291Y4775031D01*
Y4758370D01*
X3745961Y4750039D01*
X5407000Y6396000D02*
Y6412661D01*
Y6404331D01*
X5357016D01*
X5365347Y6396000D01*
X5108000Y6410323D02*
Y6377000D01*
X5074677Y6410323D01*
X5066347D01*
X5058016Y6401992D01*
Y6385331D01*
X5066347Y6377000D01*
X5383016Y6721323D02*
Y6688000D01*
X5408008D01*
X5399677Y6704661D01*
Y6712992D01*
X5408008Y6721323D01*
X5424669D01*
X5433000Y6712992D01*
Y6696331D01*
X5424669Y6688000D01*
X5055016Y6721323D02*
X5063347Y6704661D01*
X5080008Y6688000D01*
X5096669D01*
X5105000Y6696331D01*
Y6712992D01*
X5096669Y6721323D01*
X5088339D01*
X5080008Y6712992D01*
Y6688000D01*
X4245000Y6340000D02*
X4261661D01*
X4253331D01*
Y6389984D01*
X4245000Y6381653D01*
X4263323Y6650000D02*
X4230000D01*
X4263323Y6683323D01*
Y6691653D01*
X4254992Y6699984D01*
X4238331D01*
X4230000Y6691653D01*
X4598323Y6389984D02*
X4565000D01*
Y6364992D01*
X4581661Y6373323D01*
X4589992D01*
X4598323Y6364992D01*
Y6348331D01*
X4589992Y6340000D01*
X4573331D01*
X4565000Y6348331D01*
X4598323Y6694984D02*
X4581661Y6686653D01*
X4565000Y6669992D01*
Y6653331D01*
X4573331Y6645000D01*
X4589992D01*
X4598323Y6653331D01*
Y6661661D01*
X4589992Y6669992D01*
X4565000D01*
X6565000Y4785000D02*
Y4768339D01*
Y4776669D01*
X6614984D01*
X6606653Y4785000D01*
X6614984Y4710024D02*
X6606653Y4726685D01*
X6589992Y4743347D01*
X6573331D01*
X6565000Y4735016D01*
Y4718355D01*
X6573331Y4710024D01*
X6581661D01*
X6589992Y4718355D01*
Y4743347D01*
X6560000Y6285000D02*
Y6268339D01*
Y6276669D01*
X6609984D01*
X6601653Y6285000D01*
X6625000Y5770000D02*
X6641661D01*
X6633331D01*
Y5819984D01*
X6625000Y5811653D01*
X6643323Y6070000D02*
X6610000D01*
X6643323Y6103323D01*
Y6111653D01*
X6634992Y6119984D01*
X6618331D01*
X6610000Y6111653D01*
X6963323Y5819984D02*
X6930000D01*
Y5794992D01*
X6946661Y5803323D01*
X6954992D01*
X6963323Y5794992D01*
Y5778331D01*
X6954992Y5770000D01*
X6938331D01*
X6930000Y5778331D01*
X6963323Y6119984D02*
X6946661Y6111653D01*
X6930000Y6094992D01*
Y6078331D01*
X6938331Y6070000D01*
X6954992D01*
X6963323Y6078331D01*
Y6086661D01*
X6954992Y6094992D01*
X6930000D01*
X7693323Y6059984D02*
X7676661Y6051653D01*
X7660000Y6034992D01*
Y6018331D01*
X7668331Y6010000D01*
X7684992D01*
X7693323Y6018331D01*
Y6026661D01*
X7684992Y6034992D01*
X7660000D01*
X7698323Y5759984D02*
X7665000D01*
Y5734992D01*
X7681661Y5743323D01*
X7689992D01*
X7698323Y5734992D01*
Y5718331D01*
X7689992Y5710000D01*
X7673331D01*
X7665000Y5718331D01*
X7368323Y6010000D02*
X7335000D01*
X7368323Y6043323D01*
Y6051653D01*
X7359992Y6059984D01*
X7343331D01*
X7335000Y6051653D01*
X7350000Y5715000D02*
X7366661D01*
X7358331D01*
Y5764984D01*
X7350000Y5756653D01*
D152*
X7470827Y5275512D02*
G03*
X7470827Y5275512I-1968J0D01*
G01*
X7490709Y4219134D02*
G03*
X7490709Y4219134I-1968J0D01*
G01*
X7494488Y4379134D02*
G03*
X7494488Y4379134I-1968J0D01*
G01*
X4834488Y6479134D02*
G03*
X4834488Y6479134I-1968J0D01*
G01*
X4835709Y6579134D02*
G03*
X4835709Y6579134I-1968J0D01*
G01*
X4836929Y6679134D02*
G03*
X4836929Y6679134I-1968J0D01*
G01*
X5604488Y6579134D02*
G03*
X5604488Y6579134I-1968J0D01*
G01*
X5236102Y4991260D02*
G03*
X5236102Y4991260I-1968J0D01*
G01*
X5041102Y4986260D02*
G03*
X5041102Y4986260I-1968J0D01*
G01*
X3579488Y4599134D02*
G03*
X3579488Y4599134I-1968J0D01*
G01*
Y4694134D02*
G03*
X3579488Y4694134I-1968J0D01*
G01*
X6907874Y4759488D02*
G03*
X6907874Y4759488I-1968J0D01*
G01*
D153*
X3013898Y5578976D02*
G03*
X3021772Y5586850I0J7874D01*
G01*
X3006024D02*
G03*
X3013898Y5578976I7874J0D01*
G01*
X4453425Y2990709D02*
G03*
X4249488Y3327323I-97673J170910D01*
G01*
X4190630Y3270236D02*
G03*
X4256575Y2990709I164019J-108848D01*
G01*
X6890000Y4210000D02*
G03*
X6890000Y4210000I-50000J0D01*
G01*
X7295000Y4225000D02*
G03*
X7295000Y4225000I-50000J0D01*
G01*
X5315000Y4510000D02*
G03*
X5315000Y4510000I-50000J0D01*
G01*
X2931220Y5291575D02*
Y5480551D01*
Y4712835D02*
Y4760079D01*
Y4712835D02*
X3013898D01*
X3328858D02*
X3411535D01*
Y4760079D01*
Y5204961D02*
Y5480551D01*
Y5578976D02*
Y5586850D01*
X3021772D02*
X3411535D01*
X2931220D02*
X3006024D01*
X2931220Y5578976D02*
Y5586850D01*
X4612323Y6226221D02*
Y6312835D01*
X4527677Y6226221D02*
Y6312835D01*
X3631929Y4202559D02*
X3657520D01*
X3631929Y4147441D02*
X3657520D01*
X4848425Y4542480D02*
Y4560197D01*
X4901575Y4542480D02*
Y4560197D01*
X4821575Y4542480D02*
Y4560197D01*
X4768425Y4542480D02*
Y4560197D01*
X5121181Y4553307D02*
Y4569055D01*
X5018819Y4553307D02*
Y4569055D01*
X4813976Y4164724D02*
Y4255276D01*
X4936024Y4164724D02*
Y4255276D01*
X5484706Y4565394D02*
X5490423D01*
X5484706Y4614606D02*
X5490423D01*
X5482599Y4485394D02*
X5486535D01*
X5482599Y4534606D02*
X5486535D01*
X5789567Y4169528D02*
X5860433D01*
X5789567Y4110472D02*
X5860433D01*
X5787559Y4054528D02*
X5858425D01*
X5787559Y3995472D02*
X5858425D01*
X6393543Y4387362D02*
X6401417D01*
X6393543Y4432638D02*
X6401417D01*
X6392141Y4514606D02*
X6397859D01*
X6392141Y4465394D02*
X6397859D01*
X5856417Y4339606D02*
X6033583D01*
X5856417Y4540394D02*
X6033583D01*
X6436671Y4066529D02*
Y4129471D01*
X6653329Y4066529D02*
Y4129471D01*
X6171671Y4063529D02*
Y4126471D01*
X6388329Y4063529D02*
Y4126471D01*
X6930158Y4423032D02*
X7149842D01*
X6930158D02*
Y4526968D01*
X7149842D01*
Y4423032D02*
Y4526968D01*
X4414055Y2929685D02*
X4453425D01*
X4256575D02*
X4295945D01*
X4453425D02*
Y2990709D01*
X4256575Y2929685D02*
Y2990709D01*
X4044445Y3265206D02*
Y3284794D01*
X4115555Y3265206D02*
Y3284794D01*
X3994961Y3202599D02*
Y3277402D01*
X3865039Y3202599D02*
Y3277402D01*
X4549606Y3890787D02*
Y3989213D01*
X4750394Y3890787D02*
Y3989213D01*
X3201417Y3801693D02*
X3378583D01*
Y4085157D01*
X3201417D02*
X3378583D01*
X3201417Y3801693D02*
Y4085157D01*
X2991417Y3803268D02*
X3168583D01*
Y4086732D01*
X2991417D02*
X3168583D01*
X2991417Y3803268D02*
Y4086732D01*
X2786417Y3803268D02*
X2963583D01*
Y4086732D01*
X2786417D02*
X2963583D01*
X2786417Y3803268D02*
Y4086732D01*
X3439213Y3634646D02*
X3840787D01*
X3439213Y3654331D02*
X3840787D01*
X3439213Y3477165D02*
X3840787D01*
Y3654331D01*
X3439213Y3477165D02*
Y3654331D01*
X2989213Y3634646D02*
X3390787D01*
X2989213Y3654331D02*
X3390787D01*
X2989213Y3477165D02*
X3390787D01*
Y3654331D01*
X2989213Y3477165D02*
Y3654331D01*
X3889213Y3634646D02*
X4290787D01*
X3889213Y3654331D02*
X4290787D01*
X3889213Y3477165D02*
X4290787D01*
Y3654331D01*
X3889213Y3477165D02*
Y3654331D01*
X6257165Y6242323D02*
X6343779D01*
X6257165Y6157677D02*
X6343779D01*
X5932599Y6058976D02*
X6007402D01*
X5932599Y6181024D02*
X6007402D01*
Y6058976D02*
Y6181024D01*
X5932599Y6058976D02*
Y6181024D01*
X6251693Y5547323D02*
X6338307D01*
X6251693Y5462677D02*
X6338307D01*
X6256221Y6137323D02*
X6342835D01*
X6256221Y6052677D02*
X6342835D01*
X6251221Y5932323D02*
X6337835D01*
X6251221Y5847677D02*
X6337835D01*
X5486693Y5467677D02*
X5573307D01*
X5486693Y5552323D02*
X5573307D01*
X5486693Y5837677D02*
X5573307D01*
X5486693Y5922323D02*
X5573307D01*
X3874173Y4309095D02*
Y4820905D01*
X3768268Y4309095D02*
X3874173D01*
X3768268D02*
Y4820905D01*
X3874173D01*
X4341457Y3387520D02*
X4398542D01*
X4341457Y3452480D02*
X4398542D01*
X4357480Y3999370D02*
Y4056455D01*
X4292520Y3999370D02*
Y4056455D01*
X3637480Y3871457D02*
Y3928542D01*
X3572520Y3871457D02*
Y3928542D01*
X4472482Y3998545D02*
Y4055630D01*
X4407521Y3998545D02*
Y4055630D01*
X4167520Y3996458D02*
Y4053543D01*
X4232480Y3996458D02*
Y4053543D01*
X3812482Y3193545D02*
Y3250630D01*
X3747521Y3193545D02*
Y3250630D01*
X3811458Y3872480D02*
X3868543D01*
X3811458Y3807520D02*
X3868543D01*
X6032283Y2875118D02*
Y3632992D01*
X6300000D01*
Y2745197D02*
Y3503071D01*
X6032283Y2745197D02*
X6300000D01*
X6181457Y3671850D02*
X6238543D01*
X6181457Y3778150D02*
X6238543D01*
X5722165Y3170787D02*
X5899331D01*
X5722165Y2769213D02*
X5899331D01*
X5722165D02*
Y3170787D01*
X5899331Y2769213D02*
Y3170787D01*
X5879646Y2769213D02*
Y3170787D01*
X5720669Y3224213D02*
X5897835D01*
X5720669Y3625787D02*
X5897835D01*
Y3224213D02*
Y3625787D01*
X5720669Y3224213D02*
Y3625787D01*
X5740354Y3224213D02*
Y3625787D01*
X4997482Y3038545D02*
Y3095630D01*
X4932521Y3038545D02*
Y3095630D01*
X5216579Y2933322D02*
Y2966678D01*
X5143421Y2933322D02*
Y2966678D01*
X5351579Y2938322D02*
Y2971678D01*
X5278421Y2938322D02*
Y2971678D01*
X4766457Y3267520D02*
X4823542D01*
X4766457Y3332480D02*
X4823542D01*
X5400669Y2759213D02*
X5577835D01*
X5400669Y3160787D02*
X5577835D01*
Y2759213D02*
Y3160787D01*
X5400669Y2759213D02*
Y3160787D01*
X5420354Y2759213D02*
Y3160787D01*
X5412165Y3615787D02*
X5589331D01*
X5412165Y3214213D02*
X5589331D01*
X5412165D02*
Y3615787D01*
X5589331Y3214213D02*
Y3615787D01*
X5569646Y3214213D02*
Y3615787D01*
X4339213Y3477165D02*
Y3654331D01*
X4740787Y3477165D02*
Y3654331D01*
X4339213Y3477165D02*
X4740787D01*
X4339213Y3654331D02*
X4740787D01*
X4339213Y3634646D02*
X4740787D01*
X6271221Y5082323D02*
X6357835D01*
X6271221Y4997677D02*
X6357835D01*
X3916063Y4985669D02*
X3923937D01*
X3916063Y4944331D02*
X3923937D01*
X7465709Y4116575D02*
X7473583D01*
X7465709Y4063425D02*
X7473583D01*
X3701575Y5538976D02*
Y5661024D01*
X3898425Y5538976D02*
Y5661024D01*
X3718425Y5190709D02*
Y5198583D01*
X3771575Y5190709D02*
Y5198583D01*
X6837141Y5090394D02*
X6842859D01*
X6837141Y5139606D02*
X6842859D01*
X4631575Y5821693D02*
X4674882D01*
X4631575Y6282323D02*
X4674882D01*
X4785118Y5821693D02*
X4828425D01*
X4785118Y6282323D02*
X4828425D01*
X4631575Y5821693D02*
Y6282323D01*
X4828425Y5821693D02*
Y6282323D01*
X6212441Y4740158D02*
X6246890D01*
X6212441Y4830512D02*
Y4859842D01*
Y4740158D02*
Y4769488D01*
Y4859842D02*
X6246890D01*
X6267559Y4793110D02*
Y4806890D01*
X5939882Y4913071D02*
X6050118D01*
X5939882Y5046929D02*
X6050118D01*
X5839961Y5281693D02*
Y5541535D01*
X5985630Y5281693D02*
Y5541535D01*
X5839961D02*
X5985630D01*
X5839961Y5281693D02*
X5985630D01*
X5834961Y5710197D02*
Y5910984D01*
X5980630Y5710197D02*
Y5910984D01*
X5834961D02*
X5980630D01*
X5834961Y5710197D02*
X5980630D01*
X4474409Y5083071D02*
Y5417717D01*
X4809055Y5083071D02*
Y5417717D01*
X4474409D02*
X4809055D01*
X4474409Y5083071D02*
X4809055D01*
X3385157Y6029961D02*
X3418622D01*
Y6010276D02*
Y6029961D01*
X3296575D02*
X3330039D01*
X3296575Y6010276D02*
Y6029961D01*
X4485787Y4355945D02*
Y4474055D01*
X4584213Y4355945D02*
Y4474055D01*
X3380787Y5725945D02*
Y5844055D01*
X3479213Y5725945D02*
Y5844055D01*
X6370787Y6555945D02*
Y6674055D01*
X6469213Y6555945D02*
Y6674055D01*
X6140787Y6565945D02*
Y6684055D01*
X6239213Y6565945D02*
Y6684055D01*
X5940787Y6565945D02*
Y6684055D01*
X6039213Y6565945D02*
Y6684055D01*
X5710787Y6565945D02*
Y6684055D01*
X5809213Y6565945D02*
Y6684055D01*
X3808425Y5190709D02*
Y5198583D01*
X3861575Y5190709D02*
Y5198583D01*
X4071575Y6456063D02*
Y6463937D01*
X4018425Y6456063D02*
Y6463937D01*
X3913425Y5951063D02*
Y5958937D01*
X3966575Y5951063D02*
Y5958937D01*
X5621063Y6182638D02*
X5628937D01*
X5621063Y6137362D02*
X5628937D01*
X5621063Y6092638D02*
X5628937D01*
X5621063Y6047362D02*
X5628937D01*
X6308031Y4966654D02*
X6311968D01*
X6308031Y4923346D02*
X6311968D01*
X5646693Y5055394D02*
X5654567D01*
X5646693Y5104606D02*
X5654567D01*
X7470709Y4413425D02*
X7478583D01*
X7470709Y4466575D02*
X7478583D01*
X5655079Y4877441D02*
X5664921D01*
X5655079Y4932559D02*
X5664921D01*
X4662559Y4440079D02*
Y4449921D01*
X4607441Y4440079D02*
Y4449921D01*
X6281063Y5761575D02*
X6288937D01*
X6281063Y5708425D02*
X6288937D01*
X5416063Y5395669D02*
X5423937D01*
X5416063Y5354331D02*
X5423937D01*
X5416063Y5315669D02*
X5423937D01*
X5416063Y5274331D02*
X5423937D01*
X5407559Y5230669D02*
X5415433D01*
X5407559Y5189331D02*
X5415433D01*
X2589567Y5030669D02*
X2597441D01*
X2589567Y4989331D02*
X2597441D01*
X3124331Y4366063D02*
Y4373937D01*
X3165669Y4366063D02*
Y4373937D01*
X2944331Y4366063D02*
Y4373937D01*
X2985669Y4366063D02*
Y4373937D01*
X3305394Y5813643D02*
Y5819360D01*
X3354606Y5813643D02*
Y5819360D01*
X2591063Y4855669D02*
X2598937D01*
X2591063Y4814331D02*
X2598937D01*
X3181575Y6001417D02*
Y6009291D01*
X3128425Y6001417D02*
Y6009291D01*
X6397362Y6446063D02*
Y6453937D01*
X6442638Y6446063D02*
Y6453937D01*
X6167362Y6446063D02*
Y6453937D01*
X6212638Y6446063D02*
Y6453937D01*
X5967362Y6451063D02*
Y6458937D01*
X6012638Y6451063D02*
Y6458937D01*
X5737362Y6451063D02*
Y6458937D01*
X5782638Y6451063D02*
Y6458937D01*
X5134016Y6397047D02*
X5335984D01*
X5134016D02*
Y6418701D01*
X5335984Y6397047D02*
Y6418701D01*
X5134016Y6702953D02*
X5335984D01*
Y6681299D02*
Y6702953D01*
X5134016Y6681299D02*
Y6702953D01*
X4179764Y6155000D02*
X4190000D01*
X3979764D02*
X4100236D01*
X3790000D02*
X3900236D01*
X3790000D02*
Y6260000D01*
X4079764D02*
X4190000D01*
X3879764D02*
X4000236D01*
X3790000D02*
X3800236D01*
X4190000Y6155000D02*
Y6260000D01*
X4257047Y6414016D02*
Y6615984D01*
X4278701D01*
X4257047Y6414016D02*
X4278701D01*
X4562953D02*
Y6615984D01*
X4541299Y6414016D02*
X4562953D01*
X4541299Y6615984D02*
X4562953D01*
X6432047Y4714095D02*
X6537953D01*
Y6325905D01*
X6432047D02*
X6537953D01*
X6432047Y4714095D02*
Y6325905D01*
X4950079Y4681063D02*
X5259921D01*
X4950079D02*
Y4788937D01*
X5259921D01*
Y4681063D02*
Y4788937D01*
X4249567Y4574567D02*
Y4695433D01*
X4620433D01*
Y4574567D02*
Y4695433D01*
X4249567Y4574567D02*
X4620433D01*
X5246063Y5810079D02*
Y6119921D01*
X5353937D01*
Y5810079D02*
Y6119921D01*
X5246063Y5810079D02*
X5353937D01*
X4103937Y4395079D02*
Y4704921D01*
X3996063Y4395079D02*
X4103937D01*
X3996063D02*
Y4704921D01*
X4103937D01*
X8041417Y4021102D02*
Y4438425D01*
X7718583D02*
X8041417D01*
X7718583Y4021102D02*
Y4438425D01*
Y4021102D02*
X8041417D01*
X5226496Y5408465D02*
X5275709D01*
X5226496Y5341535D02*
X5275709D01*
X5226496Y5328465D02*
X5275709D01*
X5226496Y5261535D02*
X5275709D01*
X5226496Y5243465D02*
X5275709D01*
X5226496Y5176535D02*
X5275709D01*
X2610394Y5056535D02*
X2659606D01*
X2610394Y5123465D02*
X2659606D01*
X3258465Y4386496D02*
Y4435709D01*
X3191535Y4386496D02*
Y4435709D01*
X3093465Y4385394D02*
Y4434606D01*
X3026535Y4385394D02*
Y4434606D01*
X2610394Y4891535D02*
X2659606D01*
X2610394Y4958465D02*
X2659606D01*
X3730394Y4998465D02*
X3779606D01*
X3730394Y4931535D02*
X3779606D01*
X5657047Y4966457D02*
X5662953D01*
X5657047Y5023543D02*
X5662953D01*
X4467323Y4411221D02*
Y4497835D01*
X4382677Y4411221D02*
Y4497835D01*
X4427677Y5786221D02*
Y5872835D01*
X4512323Y5786221D02*
Y5872835D01*
X4532677Y5787165D02*
Y5873779D01*
X4617323Y5787165D02*
Y5873779D01*
X4852677Y5851693D02*
Y5938307D01*
X4937323Y5851693D02*
Y5938307D01*
X4246457Y5832047D02*
Y5837953D01*
X4303543Y5832047D02*
Y5837953D01*
X4327677Y5786221D02*
Y5872835D01*
X4412323Y5786221D02*
Y5872835D01*
X4956457Y5898465D02*
Y5904370D01*
X5013543Y5898465D02*
Y5904370D01*
X5032677Y5851221D02*
Y5937835D01*
X5117323Y5851221D02*
Y5937835D01*
X4120630Y5196457D02*
X4126535D01*
X4120630Y5253543D02*
X4126535D01*
X4086220Y5092677D02*
X4172835D01*
X4086220Y5177323D02*
X4172835D01*
X3278543Y5810630D02*
Y5816535D01*
X3221457Y5810630D02*
Y5816535D01*
X7072677Y5401693D02*
Y5488307D01*
X7157323Y5401693D02*
Y5488307D01*
X6632047Y5844016D02*
Y6045984D01*
X6653701D01*
X6632047Y5844016D02*
X6653701D01*
X6937953D02*
Y6045984D01*
X6916299Y5844016D02*
X6937953D01*
X6916299Y6045984D02*
X6937953D01*
X3586693Y4132323D02*
X3673307D01*
X3586693Y4047677D02*
X3673307D01*
X3815315Y4161024D02*
X3854685D01*
X3815315Y4038976D02*
X3854685D01*
X3815315D02*
Y4161024D01*
X3854685Y4038976D02*
Y4161024D01*
X3823189Y3984449D02*
X3846811D01*
X3823189Y3915551D02*
X3846811D01*
X2648504Y3981376D02*
Y4018624D01*
X2711496Y3981376D02*
Y4018624D01*
X2550551Y3970236D02*
Y3999764D01*
X2619449Y3970236D02*
Y3999764D01*
X7137362Y4681063D02*
Y4688937D01*
X7182638Y4681063D02*
Y4688937D01*
X6801693Y5242323D02*
X6888307D01*
X6801693Y5157677D02*
X6888307D01*
X6797165Y4712323D02*
X6883779D01*
X6797165Y4627677D02*
X6883779D01*
X7586011Y4837375D02*
X7672625D01*
X7586221Y4922323D02*
X7672835D01*
X6756457Y5633465D02*
Y5639370D01*
X6813543Y5633465D02*
Y5639370D01*
X6766142Y4886850D02*
Y4993150D01*
X6705118Y4987047D02*
Y4997087D01*
Y4882913D02*
Y4892953D01*
Y4882913D02*
X6886221D01*
Y4987047D02*
Y4997087D01*
Y4882913D02*
Y4892953D01*
X6705118Y4997087D02*
X6886221D01*
X7059409Y4668032D02*
Y4671968D01*
X7110591Y4668032D02*
Y4671968D01*
X6800315Y5018425D02*
X6839685D01*
X6800315Y5071575D02*
X6839685D01*
X6824370Y4505591D02*
X6828307D01*
X6824370Y4454409D02*
X6828307D01*
X6801431Y5347625D02*
X6888045D01*
X6801221Y5262677D02*
X6887835D01*
X7718583Y4524528D02*
X8041417D01*
X7718583D02*
Y4941850D01*
X8041417D01*
Y4524528D02*
Y4941850D01*
X7514134Y5336929D02*
Y5603071D01*
X7255866D02*
X7514134D01*
X7255866Y5336929D02*
Y5603071D01*
Y5336929D02*
X7514134D01*
X7608858Y5036850D02*
Y5143150D01*
X7669882Y5032913D02*
Y5042953D01*
Y5137047D02*
Y5147087D01*
X7488779D02*
X7669882D01*
X7488779Y5032913D02*
Y5042953D01*
Y5137047D02*
Y5147087D01*
Y5032913D02*
X7669882D01*
X7792480Y5058425D02*
X7831850D01*
X7792480Y5111575D02*
X7831850D01*
X7525640Y5014606D02*
X7531357D01*
X7525640Y4965394D02*
X7531357D01*
X7930945Y5537638D02*
X7955551D01*
X7930945Y5238425D02*
X7955551D01*
X7774449Y5537638D02*
X7799055D01*
X7774449Y5238425D02*
X7799055D01*
X7955551D02*
Y5537638D01*
X7774449Y5238425D02*
Y5537638D01*
X7646299Y5985984D02*
X7667953D01*
X7646299Y5784016D02*
X7667953D01*
Y5985984D01*
X7362047Y5784016D02*
X7383701D01*
X7362047Y5985984D02*
X7383701D01*
X7362047Y5784016D02*
Y5985984D01*
X6990118Y3749449D02*
Y3798661D01*
X6879882Y3749449D02*
Y3798661D01*
X6966496Y3950354D02*
Y3997598D01*
X6903504Y3950354D02*
Y3997598D01*
X6963819Y3425118D02*
Y3578662D01*
X6816181Y3425118D02*
Y3578662D01*
X6767165Y3992677D02*
X6853779D01*
X6767165Y4077323D02*
X6853779D01*
X7234567Y3324528D02*
X7305433D01*
X7234567Y3265472D02*
X7305433D01*
X6845433Y3746417D02*
Y3803504D01*
X6774567Y3746417D02*
Y3803504D01*
X7380118Y3751339D02*
Y3800551D01*
X7269882Y3751339D02*
Y3800551D01*
X7356496Y3952402D02*
Y3999646D01*
X7293504Y3952402D02*
Y3999646D01*
X7343819Y3433268D02*
Y3586811D01*
X7196181Y3433268D02*
Y3586811D01*
X7171693Y4077323D02*
X7258307D01*
X7171693Y3992677D02*
X7258307D01*
X6852559Y3324528D02*
X6923425D01*
X6852559Y3265472D02*
X6923425D01*
X7245433Y3751457D02*
Y3808543D01*
X7174567Y3751457D02*
Y3808543D01*
X4639331Y4590000D02*
X4655992D01*
X4647661D01*
Y4639984D01*
X4639331Y4631653D01*
X4680984D02*
X4689315Y4639984D01*
X4705976D01*
X4714306Y4631653D01*
Y4623323D01*
X4705976Y4614992D01*
X4697645D01*
X4705976D01*
X4714306Y4606661D01*
Y4598331D01*
X4705976Y4590000D01*
X4689315D01*
X4680984Y4598331D01*
X4218071Y4590000D02*
X4234732D01*
X4226401D01*
Y4639984D01*
X4218071Y4631653D01*
D154*
X4948819Y4293661D02*
G03*
X4948819Y4293661I-4921J0D01*
G01*
X6124134Y4363228D02*
G03*
X6124134Y4363228I-4921J0D01*
G01*
X7179764Y4475000D02*
G03*
X7179764Y4475000I-4921J0D01*
G01*
X3418543Y3550000D02*
G03*
X3418543Y3550000I-4921J0D01*
G01*
X2968543D02*
G03*
X2968543Y3550000I-4921J0D01*
G01*
X3868543D02*
G03*
X3868543Y3550000I-4921J0D01*
G01*
X5894213Y6188898D02*
G03*
X5894213Y6188898I-4921J0D01*
G01*
X5799921Y3196378D02*
G03*
X5799921Y3196378I-4921J0D01*
G01*
X5829921Y3198622D02*
G03*
X5829921Y3198622I-4921J0D01*
G01*
X5509921Y2733622D02*
G03*
X5509921Y2733622I-4921J0D01*
G01*
X5489921Y3641378D02*
G03*
X5489921Y3641378I-4921J0D01*
G01*
X4318543Y3550000D02*
G03*
X4318543Y3550000I-4921J0D01*
G01*
X3729921Y5438583D02*
G03*
X3729921Y5438583I-4921J0D01*
G01*
X5902073Y5017402D02*
G03*
X5902073Y5017402I-4921J0D01*
G01*
X5805512Y5556299D02*
G03*
X5805512Y5556299I-4921J0D01*
G01*
X5800512Y5916890D02*
G03*
X5800512Y5916890I-4921J0D01*
G01*
X4428150Y5425591D02*
G03*
X4428150Y5425591I-4921J0D01*
G01*
X3291654Y5965000D02*
G03*
X3291654Y5965000I-4921J0D01*
G01*
X4539921Y4519331D02*
G03*
X4539921Y4519331I-4921J0D01*
G01*
X3434921Y5889331D02*
G03*
X3434921Y5889331I-4921J0D01*
G01*
X6424921Y6719331D02*
G03*
X6424921Y6719331I-4921J0D01*
G01*
X6194921Y6729331D02*
G03*
X6194921Y6729331I-4921J0D01*
G01*
X5994921D02*
G03*
X5994921Y6729331I-4921J0D01*
G01*
X5764921D02*
G03*
X5764921Y6729331I-4921J0D01*
G01*
X3797732Y6295500D02*
G03*
X3797732Y6295500I-4921J0D01*
G01*
X5298898Y4735000D02*
G03*
X5298898Y4735000I-4921J0D01*
G01*
X5304921Y5776024D02*
G03*
X5304921Y5776024I-4921J0D01*
G01*
X4054921Y4738976D02*
G03*
X4054921Y4738976I-4921J0D01*
G01*
X7697913Y4143150D02*
G03*
X7697913Y4143150I-4921J0D01*
G01*
X5132992Y5375000D02*
G03*
X5132992Y5375000I-4921J0D01*
G01*
Y5295000D02*
G03*
X5132992Y5295000I-4921J0D01*
G01*
Y5210000D02*
G03*
X5132992Y5210000I-4921J0D01*
G01*
X2762953Y5090000D02*
G03*
X2762953Y5090000I-4921J0D01*
G01*
X3229921Y4534134D02*
G03*
X3229921Y4534134I-4921J0D01*
G01*
X3064921Y4533032D02*
G03*
X3064921Y4533032I-4921J0D01*
G01*
X2762953Y4925000D02*
G03*
X2762953Y4925000I-4921J0D01*
G01*
X3636890Y4965000D02*
G03*
X3636890Y4965000I-4921J0D01*
G01*
X3789724Y4169882D02*
G03*
X3789724Y4169882I-4921J0D01*
G01*
X6669685Y4940000D02*
G03*
X6669685Y4940000I-4921J0D01*
G01*
X7697913Y4646575D02*
G03*
X7697913Y4646575I-4921J0D01*
G01*
X7715158Y5090000D02*
G03*
X7715158Y5090000I-4921J0D01*
G01*
X6847677Y3406417D02*
G03*
X6847677Y3406417I-4921J0D01*
G01*
X7227677Y3414567D02*
G03*
X7227677Y3414567I-4921J0D01*
G01*
D155*
X5971968Y6149528D02*
G03*
X5971968Y6149528I-7874J0D01*
G01*
X7774449Y5187244D02*
X7955551D01*
D156*
X5891142Y5502165D02*
G03*
X5891142Y5502165I-11811J0D01*
G01*
X5886142Y5871614D02*
G03*
X5886142Y5871614I-11811J0D01*
G01*
X4525591Y5378346D02*
G03*
X4525591Y5378346I-11811J0D01*
G01*
D157*
X7619842Y5167835D02*
Y5173740D01*
X7489921Y5167835D02*
X7619842D01*
X7489921D02*
Y5173740D01*
X7619842Y5291850D02*
Y5297756D01*
X7489921D02*
X7619842D01*
X7489921Y5291850D02*
Y5297756D01*
X5105039Y3411654D02*
X5269606D01*
X5355433Y3221496D02*
Y3411654D01*
X5186141Y3221496D02*
X5355433D01*
X5105039D02*
Y3411654D01*
X6884842Y4737244D02*
Y4743150D01*
X6754921Y4737244D02*
X6884842D01*
X6754921D02*
Y4743150D01*
X6884842Y4861260D02*
Y4867165D01*
X6754921D02*
X6884842D01*
X6754921Y4861260D02*
Y4867165D01*
D158*
X4511221Y5680472D02*
X4538779D01*
X4511221Y5739528D02*
X4538779D01*
D159*
X6403073Y2760000D02*
X6453056D01*
X6463053Y2769997D01*
Y2789990D01*
X6453056Y2799987D01*
X6403073D01*
Y2819981D02*
Y2859968D01*
Y2839974D01*
X6463053D01*
X6403073Y2939942D02*
Y2979929D01*
Y2959935D01*
X6463053D01*
X6403073Y2999922D02*
X6413069D01*
X6433063Y3019916D01*
X6413069Y3039910D01*
X6403073D01*
X6433063Y3019916D02*
X6463053D01*
X6403073Y3059903D02*
X6463053D01*
Y3099890D01*
X6403073Y3159871D02*
Y3119884D01*
X6463053D01*
Y3159871D01*
X6433063Y3119884D02*
Y3139877D01*
X6463053Y3179864D02*
X6403073D01*
Y3209854D01*
X6413069Y3219851D01*
X6433063D01*
X6443060Y3209854D01*
Y3179864D01*
Y3199858D02*
X6463053Y3219851D01*
X6403073Y3299825D02*
X6463053D01*
X6433063D01*
Y3339812D01*
X6403073D01*
X6463053D01*
X6403073Y3399793D02*
Y3359806D01*
X6463053D01*
Y3399793D01*
X6433063Y3359806D02*
Y3379800D01*
X6413069Y3459774D02*
X6403073Y3449777D01*
Y3429783D01*
X6413069Y3419787D01*
X6453056D01*
X6463053Y3429783D01*
Y3449777D01*
X6453056Y3459774D01*
X6463053Y3519754D02*
Y3479767D01*
X6423066Y3519754D01*
X6413069D01*
X6403073Y3509758D01*
Y3489764D01*
X6413069Y3479767D01*
X6559030Y2760000D02*
Y2779994D01*
Y2769997D01*
X6499049D01*
X6509046Y2760000D01*
Y2809984D02*
X6499049Y2819981D01*
Y2839974D01*
X6509046Y2849971D01*
X6519043D01*
X6529039Y2839974D01*
Y2829977D01*
Y2839974D01*
X6539036Y2849971D01*
X6549033D01*
X6559030Y2839974D01*
Y2819981D01*
X6549033Y2809984D01*
X6559030Y2869964D02*
X6549033D01*
Y2879961D01*
X6559030D01*
Y2869964D01*
X6499049Y2959935D02*
Y2919948D01*
X6529039D01*
X6519043Y2939942D01*
Y2949939D01*
X6529039Y2959935D01*
X6549033D01*
X6559030Y2949939D01*
Y2929945D01*
X6549033Y2919948D01*
X6499049Y3019916D02*
X6509046Y2999922D01*
X6529039Y2979929D01*
X6549033D01*
X6559030Y2989926D01*
Y3009919D01*
X6549033Y3019916D01*
X6539036D01*
X6529039Y3009919D01*
Y2979929D01*
X6559030Y3039909D02*
X6499049D01*
X6519043Y3059903D01*
X6499049Y3079896D01*
X6559030D01*
X6499049Y3099890D02*
X6559030D01*
X6529039D01*
Y3139877D01*
X6499049D01*
X6559030D01*
X6519043Y3159871D02*
Y3199858D01*
X6559030Y3159871D01*
Y3199858D01*
Y3279832D02*
X6499049D01*
Y3309822D01*
X6509046Y3319819D01*
X6529039D01*
X6539036Y3309822D01*
Y3279832D01*
Y3299825D02*
X6559030Y3319819D01*
Y3369803D02*
Y3349809D01*
X6549033Y3339812D01*
X6529039D01*
X6519043Y3349809D01*
Y3369803D01*
X6529039Y3379800D01*
X6539036D01*
Y3339812D01*
X6519043Y3439780D02*
Y3409790D01*
X6529039Y3399793D01*
X6549033D01*
X6559030Y3409790D01*
Y3439780D01*
Y3489764D02*
Y3469770D01*
X6549033Y3459774D01*
X6529039D01*
X6519043Y3469770D01*
Y3489764D01*
X6529039Y3499761D01*
X6539036D01*
Y3459774D01*
X6559030Y3519754D02*
Y3539748D01*
Y3529751D01*
X6519043D01*
Y3519754D01*
Y3569738D02*
X6559030Y3589731D01*
X6519043Y3609725D01*
X6559030Y3659709D02*
Y3639715D01*
X6549033Y3629719D01*
X6529039D01*
X6519043Y3639715D01*
Y3659709D01*
X6529039Y3669706D01*
X6539036D01*
Y3629719D01*
X6519043Y3689699D02*
X6559030D01*
X6539036D01*
X6529039Y3699696D01*
X6519043Y3709693D01*
Y3719689D01*
X6595026Y2799987D02*
Y2779994D01*
Y2789990D01*
X6645010D01*
X6655007Y2779994D01*
Y2769997D01*
X6645010Y2760000D01*
X6615019Y2829977D02*
Y2849971D01*
X6625016Y2859968D01*
X6655007D01*
Y2829977D01*
X6645010Y2819981D01*
X6635013Y2829977D01*
Y2859968D01*
X6655007Y2879961D02*
X6615019D01*
Y2909952D01*
X6625016Y2919948D01*
X6655007D01*
X6615019Y2939942D02*
X6645010D01*
X6655007Y2949939D01*
Y2979929D01*
X6615019D01*
Y3009919D02*
Y3029913D01*
X6625016Y3039910D01*
X6655007D01*
Y3009919D01*
X6645010Y2999922D01*
X6635013Y3009919D01*
Y3039910D01*
X6615019Y3059903D02*
X6655007D01*
X6635013D01*
X6625016Y3069900D01*
X6615019Y3079896D01*
Y3089893D01*
Y3119884D02*
X6645010D01*
X6655007Y3129880D01*
Y3159871D01*
X6665003D01*
X6675000Y3149874D01*
Y3139877D01*
X6655007Y3159871D02*
X6615019D01*
X6655007Y3279832D02*
Y3239845D01*
X6615019Y3279832D01*
X6605023D01*
X6595026Y3269835D01*
Y3249842D01*
X6605023Y3239845D01*
Y3299825D02*
X6595026Y3309822D01*
Y3329816D01*
X6605023Y3339812D01*
X6645010D01*
X6655007Y3329816D01*
Y3309822D01*
X6645010Y3299825D01*
X6605023D01*
X6655007Y3399793D02*
Y3359806D01*
X6615019Y3399793D01*
X6605023D01*
X6595026Y3389796D01*
Y3369803D01*
X6605023Y3359806D01*
X6655007Y3419787D02*
Y3439780D01*
Y3429783D01*
X6595026D01*
X6605023Y3419787D01*
X7689260Y5224465D02*
X7655937D01*
X7647606Y5216134D01*
Y5199473D01*
X7655937Y5191142D01*
X7689260D01*
X7697590Y5199473D01*
Y5216134D01*
X7680929Y5207803D02*
X7697590Y5224465D01*
Y5216134D02*
X7689260Y5224465D01*
X7697590Y5274449D02*
Y5241126D01*
X7664267Y5274449D01*
X7655937D01*
X7647606Y5266118D01*
Y5249457D01*
X7655937Y5241126D01*
X4284987Y4789981D02*
X4264993D01*
X4274990D01*
Y4739997D01*
X4264993Y4730000D01*
X4254997D01*
X4245000Y4739997D01*
X4304981Y4789981D02*
X4344968D01*
X4324974D01*
Y4730000D01*
X4364961D02*
Y4769987D01*
X4384955Y4789981D01*
X4404948Y4769987D01*
Y4730000D01*
Y4759990D01*
X4364961D01*
X4464929Y4779984D02*
X4454932Y4789981D01*
X4434939D01*
X4424942Y4779984D01*
Y4739997D01*
X4434939Y4730000D01*
X4454932D01*
X4464929Y4739997D01*
Y4759990D01*
X4444935D01*
X4175000Y2695000D02*
Y2754981D01*
X4204990D01*
X4214987Y2744984D01*
Y2724990D01*
X4204990Y2714994D01*
X4175000D01*
X4194993D02*
X4214987Y2695000D01*
X4234981Y2754981D02*
X4274968Y2695000D01*
Y2754981D02*
X4234981Y2695000D01*
X4394929Y2744984D02*
X4384932Y2754981D01*
X4364939D01*
X4354942Y2744984D01*
Y2704997D01*
X4364939Y2695000D01*
X4384932D01*
X4394929Y2704997D01*
X4444913Y2754981D02*
X4424919D01*
X4414922Y2744984D01*
Y2704997D01*
X4424919Y2695000D01*
X4444913D01*
X4454909Y2704997D01*
Y2744984D01*
X4444913Y2754981D01*
X4474903D02*
X4494896D01*
X4484900D01*
Y2695000D01*
X4474903D01*
X4494896D01*
X4524887Y2754981D02*
Y2695000D01*
X4564874D01*
X8080019Y4545000D02*
X8140000D01*
Y4574990D01*
X8130003Y4584987D01*
X8120007D01*
X8110010Y4574990D01*
Y4545000D01*
Y4574990D01*
X8100013Y4584987D01*
X8090016D01*
X8080019Y4574990D01*
Y4545000D01*
X8140000Y4604981D02*
X8100013D01*
X8080019Y4624974D01*
X8100013Y4644968D01*
X8140000D01*
X8110010D01*
Y4604981D01*
X8080019Y4664961D02*
Y4704948D01*
Y4684955D01*
X8140000D01*
Y4784922D02*
X8080019D01*
Y4814913D01*
X8090016Y4824909D01*
X8110010D01*
X8120007Y4814913D01*
Y4784922D01*
X8080019Y4844903D02*
X8140000D01*
X8120007Y4864896D01*
X8140000Y4884890D01*
X8080019D01*
X8140000Y4904884D02*
X8080019D01*
Y4934874D01*
X8090016Y4944871D01*
X8110010D01*
X8120007Y4934874D01*
Y4904884D01*
Y4924877D02*
X8140000Y4944871D01*
X8085016Y4189987D02*
X8075019Y4179990D01*
Y4159997D01*
X8085016Y4150000D01*
X8095013D01*
X8105010Y4159997D01*
Y4179990D01*
X8115007Y4189987D01*
X8125003D01*
X8135000Y4179990D01*
Y4159997D01*
X8125003Y4150000D01*
X8135000Y4209981D02*
X8075019D01*
X8095013Y4229974D01*
X8075019Y4249968D01*
X8135000D01*
X8075019Y4269961D02*
X8135000D01*
Y4299952D01*
X8125003Y4309948D01*
X8115007D01*
X8105010Y4299952D01*
Y4269961D01*
Y4299952D01*
X8095013Y4309948D01*
X8085016D01*
X8075019Y4299952D01*
Y4269961D01*
X7080000Y4349990D02*
X7119987D01*
X7099993Y4369984D02*
Y4329997D01*
X7139981Y4369984D02*
X7149977Y4379981D01*
X7169971D01*
X7179968Y4369984D01*
Y4359987D01*
X7169971Y4349990D01*
X7159974D01*
X7169971D01*
X7179968Y4339993D01*
Y4329997D01*
X7169971Y4320000D01*
X7149977D01*
X7139981Y4329997D01*
X7199961Y4320000D02*
Y4329997D01*
X7209958D01*
Y4320000D01*
X7199961D01*
X7249945Y4369984D02*
X7259942Y4379981D01*
X7279935D01*
X7289932Y4369984D01*
Y4359987D01*
X7279935Y4349990D01*
X7269939D01*
X7279935D01*
X7289932Y4339993D01*
Y4329997D01*
X7279935Y4320000D01*
X7259942D01*
X7249945Y4329997D01*
X7309926Y4379981D02*
Y4339993D01*
X7329919Y4320000D01*
X7349913Y4339993D01*
Y4379981D01*
X6675000Y4334990D02*
X6714987D01*
X6694993Y4354984D02*
Y4314997D01*
X6774968Y4364981D02*
X6734981D01*
Y4334990D01*
X6754974Y4344987D01*
X6764971D01*
X6774968Y4334990D01*
Y4314997D01*
X6764971Y4305000D01*
X6744977D01*
X6734981Y4314997D01*
X6794961Y4305000D02*
Y4314997D01*
X6804958D01*
Y4305000D01*
X6794961D01*
X6844945Y4354984D02*
X6854942Y4364981D01*
X6874935D01*
X6884932Y4354984D01*
Y4314997D01*
X6874935Y4305000D01*
X6854942D01*
X6844945Y4314997D01*
Y4354984D01*
X6904926Y4364981D02*
Y4324993D01*
X6924919Y4305000D01*
X6944913Y4324993D01*
Y4364981D01*
X5165000Y4624990D02*
X5204987D01*
X5184993Y4644984D02*
Y4604997D01*
X5224981Y4595000D02*
X5244974D01*
X5234977D01*
Y4654981D01*
X5224981Y4644984D01*
X5274964D02*
X5284961Y4654981D01*
X5304955D01*
X5314952Y4644984D01*
Y4634987D01*
X5304955Y4624990D01*
X5314952Y4614993D01*
Y4604997D01*
X5304955Y4595000D01*
X5284961D01*
X5274964Y4604997D01*
Y4614993D01*
X5284961Y4624990D01*
X5274964Y4634987D01*
Y4644984D01*
X5284961Y4624990D02*
X5304955D01*
X5334945Y4654981D02*
Y4614993D01*
X5354939Y4595000D01*
X5374932Y4614993D01*
Y4654981D01*
X3423355Y4145008D02*
Y4194992D01*
X3448347D01*
X3456677Y4186661D01*
Y4170000D01*
X3448347Y4161669D01*
X3423355D01*
X3440016D02*
X3456677Y4145008D01*
X3506661Y4194992D02*
X3473339D01*
Y4170000D01*
X3490000Y4178331D01*
X3498331D01*
X3506661Y4170000D01*
Y4153339D01*
X3498331Y4145008D01*
X3481669D01*
X3473339Y4153339D01*
X3523323Y4194992D02*
X3556645D01*
Y4186661D01*
X3523323Y4153339D01*
Y4145008D01*
X2621677Y4251661D02*
X2613347Y4259992D01*
X2596686D01*
X2588355Y4251661D01*
Y4218339D01*
X2596686Y4210008D01*
X2613347D01*
X2621677Y4218339D01*
X2671661Y4259992D02*
X2638339D01*
Y4235000D01*
X2655000Y4243331D01*
X2663331D01*
X2671661Y4235000D01*
Y4218339D01*
X2663331Y4210008D01*
X2646669D01*
X2638339Y4218339D01*
X2721645Y4259992D02*
X2704984Y4251661D01*
X2688323Y4235000D01*
Y4218339D01*
X2696653Y4210008D01*
X2713314D01*
X2721645Y4218339D01*
Y4226669D01*
X2713314Y4235000D01*
X2688323D01*
X3456677Y4271661D02*
X3448347Y4279992D01*
X3431686D01*
X3423355Y4271661D01*
Y4238339D01*
X3431686Y4230008D01*
X3448347D01*
X3456677Y4238339D01*
X3506661Y4279992D02*
X3473339D01*
Y4255000D01*
X3490000Y4263331D01*
X3498331D01*
X3506661Y4255000D01*
Y4238339D01*
X3498331Y4230008D01*
X3481669D01*
X3473339Y4238339D01*
X3556645Y4279992D02*
X3523323D01*
Y4255000D01*
X3539984Y4263331D01*
X3548314D01*
X3556645Y4255000D01*
Y4238339D01*
X3548314Y4230008D01*
X3531653D01*
X3523323Y4238339D01*
X5198355Y4429992D02*
X5231677D01*
X5215016D01*
Y4380008D01*
X5248339D02*
Y4429992D01*
X5273331D01*
X5281661Y4421661D01*
Y4405000D01*
X5273331Y4396669D01*
X5248339D01*
X5298323Y4421661D02*
X5306653Y4429992D01*
X5323314D01*
X5331645Y4421661D01*
Y4413331D01*
X5323314Y4405000D01*
X5314984D01*
X5323314D01*
X5331645Y4396669D01*
Y4388339D01*
X5323314Y4380008D01*
X5306653D01*
X5298323Y4388339D01*
X7115008Y4143355D02*
Y4176677D01*
Y4160016D01*
X7164992D01*
Y4193339D02*
X7115008D01*
Y4218331D01*
X7123338Y4226661D01*
X7140000D01*
X7148330Y4218331D01*
Y4193339D01*
X7164992Y4276645D02*
Y4243323D01*
X7131669Y4276645D01*
X7123338D01*
X7115008Y4268314D01*
Y4251653D01*
X7123338Y4243323D01*
X6715008Y4146686D02*
Y4180008D01*
Y4163347D01*
X6764992D01*
Y4196669D02*
X6715008D01*
Y4221661D01*
X6723339Y4229992D01*
X6740000D01*
X6748331Y4221661D01*
Y4196669D01*
X6764992Y4246653D02*
Y4263315D01*
Y4254984D01*
X6715008D01*
X6723339Y4246653D01*
X4616677Y3776661D02*
X4608347Y3784992D01*
X4591685D01*
X4583355Y3776661D01*
Y3743339D01*
X4591685Y3735008D01*
X4608347D01*
X4616677Y3743339D01*
X4666661Y3784992D02*
X4633339D01*
Y3760000D01*
X4650000Y3768331D01*
X4658331D01*
X4666661Y3760000D01*
Y3743339D01*
X4658331Y3735008D01*
X4641669D01*
X4633339Y3743339D01*
X4708314Y3735008D02*
Y3784992D01*
X4683323Y3760000D01*
X4716645D01*
X5563355Y4665008D02*
Y4714992D01*
X5588347D01*
X5596677Y4706661D01*
Y4690000D01*
X5588347Y4681669D01*
X5563355D01*
X5580016D02*
X5596677Y4665008D01*
X5646661Y4714992D02*
X5613339D01*
Y4690000D01*
X5630000Y4698331D01*
X5638331D01*
X5646661Y4690000D01*
Y4673339D01*
X5638331Y4665008D01*
X5621669D01*
X5613339Y4673339D01*
X5696645Y4714992D02*
X5679984Y4706661D01*
X5663323Y4690000D01*
Y4673339D01*
X5671653Y4665008D01*
X5688314D01*
X5696645Y4673339D01*
Y4681669D01*
X5688314Y4690000D01*
X5663323D01*
X5665008Y3818347D02*
X5714992D01*
Y3851669D01*
X5673339Y3868331D02*
X5665008Y3876661D01*
Y3893322D01*
X5673339Y3901653D01*
X5681669D01*
X5690000Y3893322D01*
X5698331Y3901653D01*
X5706661D01*
X5714992Y3893322D01*
Y3876661D01*
X5706661Y3868331D01*
X5698331D01*
X5690000Y3876661D01*
X5681669Y3868331D01*
X5673339D01*
X5690000Y3876661D02*
Y3893322D01*
X6231677Y4586661D02*
X6223347Y4594992D01*
X6206685D01*
X6198355Y4586661D01*
Y4553339D01*
X6206685Y4545008D01*
X6223347D01*
X6231677Y4553339D01*
X6281661Y4594992D02*
X6248339D01*
Y4570000D01*
X6265000Y4578331D01*
X6273331D01*
X6281661Y4570000D01*
Y4553339D01*
X6273331Y4545008D01*
X6256669D01*
X6248339Y4553339D01*
X6298323Y4586661D02*
X6306653Y4594992D01*
X6323314D01*
X6331645Y4586661D01*
Y4578331D01*
X6323314Y4570000D01*
X6314984D01*
X6323314D01*
X6331645Y4561669D01*
Y4553339D01*
X6323314Y4545008D01*
X6306653D01*
X6298323Y4553339D01*
X5596677Y4526661D02*
X5588347Y4534992D01*
X5571685D01*
X5563355Y4526661D01*
Y4493339D01*
X5571685Y4485008D01*
X5588347D01*
X5596677Y4493339D01*
X5646661Y4534992D02*
X5613339D01*
Y4510000D01*
X5630000Y4518331D01*
X5638331D01*
X5646661Y4510000D01*
Y4493339D01*
X5638331Y4485008D01*
X5621669D01*
X5613339Y4493339D01*
X5696645Y4485008D02*
X5663323D01*
X5696645Y4518331D01*
Y4526661D01*
X5688314Y4534992D01*
X5671653D01*
X5663323Y4526661D01*
X5950008Y4161661D02*
X5941677Y4169992D01*
X5925016D01*
X5916686Y4161661D01*
Y4128339D01*
X5925016Y4120008D01*
X5941677D01*
X5950008Y4128339D01*
X5999992Y4169992D02*
X5966669D01*
Y4145000D01*
X5983331Y4153331D01*
X5991661D01*
X5999992Y4145000D01*
Y4128339D01*
X5991661Y4120008D01*
X5975000D01*
X5966669Y4128339D01*
X6016653Y4120008D02*
X6033315D01*
X6024984D01*
Y4169992D01*
X6016653Y4161661D01*
X5887520Y4314992D02*
Y4273339D01*
X5895851Y4265008D01*
X5912512D01*
X5920843Y4273339D01*
Y4314992D01*
X5937504Y4265008D02*
X5954165D01*
X5945835D01*
Y4314992D01*
X5937504Y4306661D01*
X6004149Y4265008D02*
Y4314992D01*
X5979157Y4290000D01*
X6012480D01*
X4960008Y4152520D02*
X5001661D01*
X5009992Y4160851D01*
Y4177512D01*
X5001661Y4185843D01*
X4960008D01*
X5009992Y4202504D02*
Y4219165D01*
Y4210834D01*
X4960008D01*
X4968339Y4202504D01*
Y4244157D02*
X4960008Y4252488D01*
Y4269149D01*
X4968339Y4277480D01*
X4976669D01*
X4985000Y4269149D01*
Y4260818D01*
Y4269149D01*
X4993331Y4277480D01*
X5001661D01*
X5009992Y4269149D01*
Y4252488D01*
X5001661Y4244157D01*
X6193355Y4310008D02*
Y4359992D01*
X6218347D01*
X6226677Y4351661D01*
Y4335000D01*
X6218347Y4326669D01*
X6193355D01*
X6210016D02*
X6226677Y4310008D01*
X6276661Y4359992D02*
X6243339D01*
Y4335000D01*
X6260000Y4343331D01*
X6268331D01*
X6276661Y4335000D01*
Y4318339D01*
X6268331Y4310008D01*
X6251669D01*
X6243339Y4318339D01*
X6326645Y4359992D02*
X6293323D01*
Y4335000D01*
X6309984Y4343331D01*
X6318314D01*
X6326645Y4335000D01*
Y4318339D01*
X6318314Y4310008D01*
X6301653D01*
X6293323Y4318339D01*
X5565920Y4570008D02*
Y4619992D01*
X5590912D01*
X5599242Y4611661D01*
Y4595000D01*
X5590912Y4586669D01*
X5565920D01*
X5582581D02*
X5599242Y4570008D01*
X5649226Y4619992D02*
X5615903D01*
Y4595000D01*
X5632565Y4603331D01*
X5640895D01*
X5649226Y4595000D01*
Y4578339D01*
X5640895Y4570008D01*
X5624234D01*
X5615903Y4578339D01*
X5690879Y4570008D02*
Y4619992D01*
X5665887Y4595000D01*
X5699210D01*
X6193355Y4385008D02*
Y4434992D01*
X6218347D01*
X6226677Y4426661D01*
Y4410000D01*
X6218347Y4401669D01*
X6193355D01*
X6210016D02*
X6226677Y4385008D01*
X6276661Y4434992D02*
X6243339D01*
Y4410000D01*
X6260000Y4418331D01*
X6268331D01*
X6276661Y4410000D01*
Y4393339D01*
X6268331Y4385008D01*
X6251669D01*
X6243339Y4393339D01*
X6293323Y4426661D02*
X6301653Y4434992D01*
X6318314D01*
X6326645Y4426661D01*
Y4418331D01*
X6318314Y4410000D01*
X6309984D01*
X6318314D01*
X6326645Y4401669D01*
Y4393339D01*
X6318314Y4385008D01*
X6301653D01*
X6293323Y4393339D01*
X6194857Y4465008D02*
Y4514992D01*
X6219849D01*
X6228179Y4506661D01*
Y4490000D01*
X6219849Y4481669D01*
X6194857D01*
X6211518D02*
X6228179Y4465008D01*
X6278163Y4514992D02*
X6244840D01*
Y4490000D01*
X6261502Y4498331D01*
X6269832D01*
X6278163Y4490000D01*
Y4473339D01*
X6269832Y4465008D01*
X6253171D01*
X6244840Y4473339D01*
X6328147Y4465008D02*
X6294824D01*
X6328147Y4498331D01*
Y4506661D01*
X6319816Y4514992D01*
X6303155D01*
X6294824Y4506661D01*
X4814992Y4364363D02*
X4765008D01*
Y4389355D01*
X4773339Y4397685D01*
X4790000D01*
X4798331Y4389355D01*
Y4364363D01*
Y4381024D02*
X4814992Y4397685D01*
X4765008Y4447669D02*
Y4414347D01*
X4790000D01*
X4781669Y4431008D01*
Y4439338D01*
X4790000Y4447669D01*
X4806661D01*
X4814992Y4439338D01*
Y4422677D01*
X4806661Y4414347D01*
X4814992Y4464330D02*
Y4480992D01*
Y4472661D01*
X4765008D01*
X4773339Y4464330D01*
X4899992Y4344694D02*
X4850008D01*
Y4369685D01*
X4858338Y4378016D01*
X4875000D01*
X4883330Y4369685D01*
Y4344694D01*
Y4361355D02*
X4899992Y4378016D01*
X4850008Y4428000D02*
Y4394677D01*
X4875000D01*
X4866669Y4411339D01*
Y4419669D01*
X4875000Y4428000D01*
X4891661D01*
X4899992Y4419669D01*
Y4403008D01*
X4891661Y4394677D01*
X4858338Y4444661D02*
X4850008Y4452992D01*
Y4469653D01*
X4858338Y4477984D01*
X4891661D01*
X4899992Y4469653D01*
Y4452992D01*
X4891661Y4444661D01*
X4858338D01*
X5946677Y4046661D02*
X5938347Y4054992D01*
X5921685D01*
X5913355Y4046661D01*
Y4013339D01*
X5921685Y4005008D01*
X5938347D01*
X5946677Y4013339D01*
X5996661Y4054992D02*
X5963339D01*
Y4030000D01*
X5980000Y4038331D01*
X5988331D01*
X5996661Y4030000D01*
Y4013339D01*
X5988331Y4005008D01*
X5971669D01*
X5963339Y4013339D01*
X6013323Y4046661D02*
X6021653Y4054992D01*
X6038314D01*
X6046645Y4046661D01*
Y4013339D01*
X6038314Y4005008D01*
X6021653D01*
X6013323Y4013339D01*
Y4046661D01*
X6506677Y3927124D02*
X6498347Y3935454D01*
X6481685D01*
X6473355Y3927124D01*
Y3893801D01*
X6481685Y3885470D01*
X6498347D01*
X6506677Y3893801D01*
X6548331Y3885470D02*
Y3935454D01*
X6523339Y3910462D01*
X6556661D01*
X6573323Y3893801D02*
X6581653Y3885470D01*
X6598314D01*
X6606645Y3893801D01*
Y3927124D01*
X6598314Y3935454D01*
X6581653D01*
X6573323Y3927124D01*
Y3918793D01*
X6581653Y3910462D01*
X6606645D01*
X6246677Y3924199D02*
X6238347Y3932530D01*
X6221685D01*
X6213355Y3924199D01*
Y3890876D01*
X6221685Y3882546D01*
X6238347D01*
X6246677Y3890876D01*
X6288331Y3882546D02*
Y3932530D01*
X6263339Y3907538D01*
X6296661D01*
X6313323Y3924199D02*
X6321653Y3932530D01*
X6338314D01*
X6346645Y3924199D01*
Y3915868D01*
X6338314Y3907538D01*
X6346645Y3899207D01*
Y3890876D01*
X6338314Y3882546D01*
X6321653D01*
X6313323Y3890876D01*
Y3899207D01*
X6321653Y3907538D01*
X6313323Y3915868D01*
Y3924199D01*
X6321653Y3907538D02*
X6338314D01*
X5600260Y4441661D02*
X5591930Y4449992D01*
X5575268D01*
X5566938Y4441661D01*
Y4408339D01*
X5575268Y4400008D01*
X5591930D01*
X5600260Y4408339D01*
X5641913Y4400008D02*
Y4449992D01*
X5616921Y4425000D01*
X5650244D01*
X5666905Y4449992D02*
X5700228D01*
Y4441661D01*
X5666905Y4408339D01*
Y4400008D01*
X5053338Y4371677D02*
X5045008Y4363347D01*
Y4346685D01*
X5053338Y4338355D01*
X5086661D01*
X5094992Y4346685D01*
Y4363347D01*
X5086661Y4371677D01*
X5094992Y4413331D02*
X5045008D01*
X5070000Y4388339D01*
Y4421661D01*
X5045008Y4471645D02*
X5053338Y4454984D01*
X5070000Y4438323D01*
X5086661D01*
X5094992Y4446653D01*
Y4463314D01*
X5086661Y4471645D01*
X5078330D01*
X5070000Y4463314D01*
Y4438323D01*
X4943339Y4374079D02*
X4935008Y4365748D01*
Y4349087D01*
X4943339Y4340756D01*
X4976661D01*
X4984992Y4349087D01*
Y4365748D01*
X4976661Y4374079D01*
X4984992Y4415732D02*
X4935008D01*
X4960000Y4390740D01*
Y4424063D01*
X4935008Y4474047D02*
Y4440724D01*
X4960000D01*
X4951669Y4457385D01*
Y4465716D01*
X4960000Y4474047D01*
X4976661D01*
X4984992Y4465716D01*
Y4449055D01*
X4976661Y4440724D01*
X4316677Y2876661D02*
X4308347Y2884992D01*
X4291685D01*
X4283355Y2876661D01*
Y2843339D01*
X4291685Y2835008D01*
X4308347D01*
X4316677Y2843339D01*
X4358331Y2835008D02*
Y2884992D01*
X4333339Y2860000D01*
X4366661D01*
X4408314Y2835008D02*
Y2884992D01*
X4383323Y2860000D01*
X4416645D01*
X4730441Y3180008D02*
Y3229992D01*
X4755433D01*
X4763764Y3221661D01*
Y3205000D01*
X4755433Y3196669D01*
X4730441D01*
X4747103D02*
X4763764Y3180008D01*
X4805417D02*
Y3229992D01*
X4780425Y3205000D01*
X4813748D01*
X4830409Y3188339D02*
X4838740Y3180008D01*
X4855401D01*
X4863732Y3188339D01*
Y3221661D01*
X4855401Y3229992D01*
X4838740D01*
X4830409Y3221661D01*
Y3213331D01*
X4838740Y3205000D01*
X4863732D01*
X5079993Y3000443D02*
X5030009D01*
Y3025435D01*
X5038340Y3033766D01*
X5055001D01*
X5063332Y3025435D01*
Y3000443D01*
Y3017104D02*
X5079993Y3033766D01*
Y3075419D02*
X5030009D01*
X5055001Y3050427D01*
Y3083749D01*
X5038340Y3100411D02*
X5030009Y3108741D01*
Y3125403D01*
X5038340Y3133733D01*
X5046671D01*
X5055001Y3125403D01*
X5063332Y3133733D01*
X5071663D01*
X5079993Y3125403D01*
Y3108741D01*
X5071663Y3100411D01*
X5063332D01*
X5055001Y3108741D01*
X5046671Y3100411D01*
X5038340D01*
X5055001Y3108741D02*
Y3125403D01*
X3968355Y3815008D02*
Y3864992D01*
X3993347D01*
X4001677Y3856661D01*
Y3840000D01*
X3993347Y3831669D01*
X3968355D01*
X3985016D02*
X4001677Y3815008D01*
X4043331D02*
Y3864992D01*
X4018339Y3840000D01*
X4051661D01*
X4068323Y3864992D02*
X4101645D01*
Y3856661D01*
X4068323Y3823339D01*
Y3815008D01*
X3799993Y2975443D02*
X3750009D01*
Y3000435D01*
X3758340Y3008766D01*
X3775001D01*
X3783332Y3000435D01*
Y2975443D01*
Y2992104D02*
X3799993Y3008766D01*
Y3050419D02*
X3750009D01*
X3775001Y3025427D01*
Y3058749D01*
X3750009Y3108733D02*
X3758340Y3092072D01*
X3775001Y3075411D01*
X3791662D01*
X3799993Y3083741D01*
Y3100403D01*
X3791662Y3108733D01*
X3783332D01*
X3775001Y3100403D01*
Y3075411D01*
X4224992Y3758355D02*
X4175008D01*
Y3783347D01*
X4183338Y3791677D01*
X4200000D01*
X4208330Y3783347D01*
Y3758355D01*
Y3775016D02*
X4224992Y3791677D01*
Y3833331D02*
X4175008D01*
X4200000Y3808339D01*
Y3841661D01*
X4175008Y3891645D02*
Y3858323D01*
X4200000D01*
X4191669Y3874984D01*
Y3883314D01*
X4200000Y3891645D01*
X4216661D01*
X4224992Y3883314D01*
Y3866653D01*
X4216661Y3858323D01*
X4464992Y3768355D02*
X4415008D01*
Y3793347D01*
X4423338Y3801677D01*
X4440000D01*
X4448330Y3793347D01*
Y3768355D01*
Y3785016D02*
X4464992Y3801677D01*
Y3843331D02*
X4415008D01*
X4440000Y3818339D01*
Y3851661D01*
X4464992Y3893314D02*
X4415008D01*
X4440000Y3868323D01*
Y3901645D01*
X4354990Y3764180D02*
X4305007D01*
Y3789172D01*
X4313337Y3797503D01*
X4329999D01*
X4338329Y3789172D01*
Y3764180D01*
Y3780842D02*
X4354990Y3797503D01*
Y3839156D02*
X4305007D01*
X4329999Y3814164D01*
Y3847487D01*
X4313337Y3864148D02*
X4305007Y3872479D01*
Y3889140D01*
X4313337Y3897471D01*
X4321668D01*
X4329999Y3889140D01*
Y3880809D01*
Y3889140D01*
X4338329Y3897471D01*
X4346660D01*
X4354990Y3889140D01*
Y3872479D01*
X4346660Y3864148D01*
X3714992Y3828355D02*
X3665008D01*
Y3853347D01*
X3673338Y3861677D01*
X3690000D01*
X3698330Y3853347D01*
Y3828355D01*
Y3845016D02*
X3714992Y3861677D01*
Y3903331D02*
X3665008D01*
X3690000Y3878339D01*
Y3911661D01*
X3714992Y3961645D02*
Y3928323D01*
X3681669Y3961645D01*
X3673338D01*
X3665008Y3953314D01*
Y3936653D01*
X3673338Y3928323D01*
X4141686Y3395008D02*
Y3444992D01*
X4166677D01*
X4175008Y3436661D01*
Y3420000D01*
X4166677Y3411669D01*
X4141686D01*
X4158347D02*
X4175008Y3395008D01*
X4216661D02*
Y3444992D01*
X4191669Y3420000D01*
X4224992D01*
X4241653Y3395008D02*
X4258315D01*
X4249984D01*
Y3444992D01*
X4241653Y3436661D01*
X5218583Y3176567D02*
Y3126583D01*
X5251905D01*
X5301889Y3176567D02*
X5268567D01*
Y3151575D01*
X5285228Y3159906D01*
X5293559D01*
X5301889Y3151575D01*
Y3134914D01*
X5293559Y3126583D01*
X5276897D01*
X5268567Y3134914D01*
X6058347Y2714992D02*
Y2665008D01*
X6091669D01*
X6133323D02*
Y2714992D01*
X6108331Y2690000D01*
X6141653D01*
X3710008Y2756669D02*
Y2740008D01*
Y2748339D01*
X3751661D01*
X3759992Y2740008D01*
Y2731677D01*
X3751661Y2723347D01*
X3759992Y2798322D02*
X3710008D01*
X3735000Y2773331D01*
Y2806653D01*
X4960008Y2756669D02*
Y2740008D01*
Y2748339D01*
X5001661D01*
X5009992Y2740008D01*
Y2731677D01*
X5001661Y2723347D01*
X5009992Y2806653D02*
Y2773331D01*
X4976669Y2806653D01*
X4968339D01*
X4960008Y2798322D01*
Y2781661D01*
X4968339Y2773331D01*
X5438355Y2704992D02*
Y2655008D01*
X5463347D01*
X5471677Y2663339D01*
Y2696661D01*
X5463347Y2704992D01*
X5438355D01*
X5521661Y2655008D02*
X5488339D01*
X5521661Y2688331D01*
Y2696661D01*
X5513331Y2704992D01*
X5496669D01*
X5488339Y2696661D01*
X5538323D02*
X5546653Y2704992D01*
X5563314D01*
X5571645Y2696661D01*
Y2688331D01*
X5563314Y2680000D01*
X5571645Y2671669D01*
Y2663339D01*
X5563314Y2655008D01*
X5546653D01*
X5538323Y2663339D01*
Y2671669D01*
X5546653Y2680000D01*
X5538323Y2688331D01*
Y2696661D01*
X5546653Y2680000D02*
X5563314D01*
X5423355Y3724992D02*
Y3675008D01*
X5448347D01*
X5456677Y3683339D01*
Y3716661D01*
X5448347Y3724992D01*
X5423355D01*
X5506661Y3675008D02*
X5473339D01*
X5506661Y3708331D01*
Y3716661D01*
X5498331Y3724992D01*
X5481669D01*
X5473339Y3716661D01*
X5523323Y3724992D02*
X5556645D01*
Y3716661D01*
X5523323Y3683339D01*
Y3675008D01*
X5743355Y2729992D02*
Y2680008D01*
X5768347D01*
X5776677Y2688339D01*
Y2721661D01*
X5768347Y2729992D01*
X5743355D01*
X5826661Y2680008D02*
X5793339D01*
X5826661Y2713331D01*
Y2721661D01*
X5818331Y2729992D01*
X5801669D01*
X5793339Y2721661D01*
X5876645Y2729992D02*
X5859984Y2721661D01*
X5843323Y2705000D01*
Y2688339D01*
X5851653Y2680008D01*
X5868314D01*
X5876645Y2688339D01*
Y2696669D01*
X5868314Y2705000D01*
X5843323D01*
X5743355Y3709992D02*
Y3660008D01*
X5768347D01*
X5776677Y3668339D01*
Y3701661D01*
X5768347Y3709992D01*
X5743355D01*
X5826661Y3660008D02*
X5793339D01*
X5826661Y3693331D01*
Y3701661D01*
X5818331Y3709992D01*
X5801669D01*
X5793339Y3701661D01*
X5876645Y3709992D02*
X5843323D01*
Y3685000D01*
X5859984Y3693331D01*
X5868314D01*
X5876645Y3685000D01*
Y3668339D01*
X5868314Y3660008D01*
X5851653D01*
X5843323Y3668339D01*
X5298338Y2726677D02*
X5290008Y2718347D01*
Y2701686D01*
X5298338Y2693355D01*
X5331661D01*
X5339992Y2701686D01*
Y2718347D01*
X5331661Y2726677D01*
X5339992Y2768331D02*
X5290008D01*
X5315000Y2743339D01*
Y2776661D01*
X5298338Y2793323D02*
X5290008Y2801653D01*
Y2818314D01*
X5298338Y2826645D01*
X5306669D01*
X5315000Y2818314D01*
Y2809984D01*
Y2818314D01*
X5323330Y2826645D01*
X5331661D01*
X5339992Y2818314D01*
Y2801653D01*
X5331661Y2793323D01*
X5028339Y3240260D02*
X5020008Y3231929D01*
Y3215268D01*
X5028339Y3206938D01*
X5061661D01*
X5069992Y3215268D01*
Y3231929D01*
X5061661Y3240260D01*
X5069992Y3281913D02*
X5020008D01*
X5045000Y3256921D01*
Y3290244D01*
X5069992Y3340228D02*
Y3306905D01*
X5036669Y3340228D01*
X5028339D01*
X5020008Y3331897D01*
Y3315236D01*
X5028339Y3306905D01*
X5158339Y2740008D02*
X5150008Y2731677D01*
Y2715016D01*
X5158339Y2706686D01*
X5191661D01*
X5199992Y2715016D01*
Y2731677D01*
X5191661Y2740008D01*
X5199992Y2781661D02*
X5150008D01*
X5175000Y2756669D01*
Y2789992D01*
X5199992Y2806653D02*
Y2823314D01*
Y2814984D01*
X5150008D01*
X5158339Y2806653D01*
X5981677Y3736661D02*
X5973347Y3744992D01*
X5956685D01*
X5948355Y3736661D01*
Y3703339D01*
X5956685Y3695008D01*
X5973347D01*
X5981677Y3703339D01*
X6023331Y3695008D02*
Y3744992D01*
X5998339Y3720000D01*
X6031661D01*
X6048323Y3736661D02*
X6056653Y3744992D01*
X6073314D01*
X6081645Y3736661D01*
Y3703339D01*
X6073314Y3695008D01*
X6056653D01*
X6048323Y3703339D01*
Y3736661D01*
X3990182Y4940008D02*
Y4989992D01*
X4015173D01*
X4023504Y4981661D01*
Y4965000D01*
X4015173Y4956669D01*
X3990182D01*
X4006843D02*
X4023504Y4940008D01*
X4040165D02*
X4056827D01*
X4048496D01*
Y4989992D01*
X4040165Y4981661D01*
X6938347Y4545008D02*
Y4594992D01*
X6963339D01*
X6971669Y4586661D01*
Y4570000D01*
X6963339Y4561669D01*
X6938347D01*
X7021653Y4594992D02*
X7004992Y4586661D01*
X6988331Y4570000D01*
Y4553339D01*
X6996661Y4545008D01*
X7013323D01*
X7021653Y4553339D01*
Y4561669D01*
X7013323Y4570000D01*
X6988331D01*
X3786677Y4835008D02*
Y4884992D01*
X3811669D01*
X3820000Y4876661D01*
Y4860000D01*
X3811669Y4851669D01*
X3786677D01*
X3836661Y4835008D02*
X3853323D01*
X3844992D01*
Y4884992D01*
X3836661Y4876661D01*
X6136205Y6111661D02*
X6127874Y6119992D01*
X6111213D01*
X6102882Y6111661D01*
Y6078339D01*
X6111213Y6070008D01*
X6127874D01*
X6136205Y6078339D01*
X6152866Y6111661D02*
X6161197Y6119992D01*
X6177858D01*
X6186189Y6111661D01*
Y6103331D01*
X6177858Y6095000D01*
X6169528D01*
X6177858D01*
X6186189Y6086669D01*
Y6078339D01*
X6177858Y6070008D01*
X6161197D01*
X6152866Y6078339D01*
X6202850D02*
X6211181Y6070008D01*
X6227842D01*
X6236173Y6078339D01*
Y6111661D01*
X6227842Y6119992D01*
X6211181D01*
X6202850Y6111661D01*
Y6103331D01*
X6211181Y6095000D01*
X6236173D01*
X6126205Y5906661D02*
X6117874Y5914992D01*
X6101213D01*
X6092882Y5906661D01*
Y5873339D01*
X6101213Y5865008D01*
X6117874D01*
X6126205Y5873339D01*
X6142866Y5906661D02*
X6151197Y5914992D01*
X6167858D01*
X6176189Y5906661D01*
Y5898331D01*
X6167858Y5890000D01*
X6159528D01*
X6167858D01*
X6176189Y5881669D01*
Y5873339D01*
X6167858Y5865008D01*
X6151197D01*
X6142866Y5873339D01*
X6192850Y5906661D02*
X6201181Y5914992D01*
X6217842D01*
X6226173Y5906661D01*
Y5898331D01*
X6217842Y5890000D01*
X6226173Y5881669D01*
Y5873339D01*
X6217842Y5865008D01*
X6201181D01*
X6192850Y5873339D01*
Y5881669D01*
X6201181Y5890000D01*
X6192850Y5898331D01*
Y5906661D01*
X6201181Y5890000D02*
X6217842D01*
X5626677Y5896661D02*
X5618347Y5904992D01*
X5601685D01*
X5593355Y5896661D01*
Y5863339D01*
X5601685Y5855008D01*
X5618347D01*
X5626677Y5863339D01*
X5643339Y5896661D02*
X5651669Y5904992D01*
X5668331D01*
X5676661Y5896661D01*
Y5888331D01*
X5668331Y5880000D01*
X5660000D01*
X5668331D01*
X5676661Y5871669D01*
Y5863339D01*
X5668331Y5855008D01*
X5651669D01*
X5643339Y5863339D01*
X5693323Y5904992D02*
X5726645D01*
Y5896661D01*
X5693323Y5863339D01*
Y5855008D01*
X6122150Y5526661D02*
X6113819Y5534992D01*
X6097158D01*
X6088827Y5526661D01*
Y5493339D01*
X6097158Y5485008D01*
X6113819D01*
X6122150Y5493339D01*
X6138811Y5526661D02*
X6147142Y5534992D01*
X6163803D01*
X6172134Y5526661D01*
Y5518331D01*
X6163803Y5510000D01*
X6155472D01*
X6163803D01*
X6172134Y5501669D01*
Y5493339D01*
X6163803Y5485008D01*
X6147142D01*
X6138811Y5493339D01*
X6222118Y5534992D02*
X6205456Y5526661D01*
X6188795Y5510000D01*
Y5493339D01*
X6197126Y5485008D01*
X6213787D01*
X6222118Y5493339D01*
Y5501669D01*
X6213787Y5510000D01*
X6188795D01*
X5626677Y5526661D02*
X5618347Y5534992D01*
X5601685D01*
X5593355Y5526661D01*
Y5493339D01*
X5601685Y5485008D01*
X5618347D01*
X5626677Y5493339D01*
X5643339Y5526661D02*
X5651669Y5534992D01*
X5668331D01*
X5676661Y5526661D01*
Y5518331D01*
X5668331Y5510000D01*
X5660000D01*
X5668331D01*
X5676661Y5501669D01*
Y5493339D01*
X5668331Y5485008D01*
X5651669D01*
X5643339Y5493339D01*
X5726645Y5534992D02*
X5693323D01*
Y5510000D01*
X5709984Y5518331D01*
X5718314D01*
X5726645Y5510000D01*
Y5493339D01*
X5718314Y5485008D01*
X5701653D01*
X5693323Y5493339D01*
X6146677Y5061661D02*
X6138347Y5069992D01*
X6121685D01*
X6113355Y5061661D01*
Y5028339D01*
X6121685Y5020008D01*
X6138347D01*
X6146677Y5028339D01*
X6163339Y5061661D02*
X6171669Y5069992D01*
X6188331D01*
X6196661Y5061661D01*
Y5053331D01*
X6188331Y5045000D01*
X6180000D01*
X6188331D01*
X6196661Y5036669D01*
Y5028339D01*
X6188331Y5020008D01*
X6171669D01*
X6163339Y5028339D01*
X6238314Y5020008D02*
Y5069992D01*
X6213323Y5045000D01*
X6246645D01*
X6136677Y6211661D02*
X6128347Y6219992D01*
X6111685D01*
X6103355Y6211661D01*
Y6178339D01*
X6111685Y6170008D01*
X6128347D01*
X6136677Y6178339D01*
X6153339Y6211661D02*
X6161669Y6219992D01*
X6178331D01*
X6186661Y6211661D01*
Y6203331D01*
X6178331Y6195000D01*
X6170000D01*
X6178331D01*
X6186661Y6186669D01*
Y6178339D01*
X6178331Y6170008D01*
X6161669D01*
X6153339Y6178339D01*
X6203323Y6211661D02*
X6211653Y6219992D01*
X6228314D01*
X6236645Y6211661D01*
Y6203331D01*
X6228314Y6195000D01*
X6219984D01*
X6228314D01*
X6236645Y6186669D01*
Y6178339D01*
X6228314Y6170008D01*
X6211653D01*
X6203323Y6178339D01*
X4495890Y5659992D02*
Y5651661D01*
X4512551Y5635000D01*
X4529213Y5651661D01*
Y5659992D01*
X4512551Y5635000D02*
Y5610008D01*
X4545874D02*
X4562535D01*
X4554204D01*
Y5659992D01*
X4545874Y5651661D01*
X4856677Y6269992D02*
X4890000Y6220008D01*
Y6269992D02*
X4856677Y6220008D01*
X4906661D02*
X4923323D01*
X4914992D01*
Y6269992D01*
X4906661Y6261661D01*
X7125008Y3442520D02*
X7166661D01*
X7174992Y3450851D01*
Y3467512D01*
X7166661Y3475843D01*
X7125008D01*
X7174992Y3492504D02*
Y3509165D01*
Y3500834D01*
X7125008D01*
X7133339Y3492504D01*
X7174992Y3567480D02*
Y3534157D01*
X7141669Y3567480D01*
X7133339D01*
X7125008Y3559149D01*
Y3542488D01*
X7133339Y3534157D01*
X6740008Y3445851D02*
X6781661D01*
X6789992Y3454181D01*
Y3470843D01*
X6781661Y3479173D01*
X6740008D01*
X6789992Y3495835D02*
Y3512496D01*
Y3504165D01*
X6740008D01*
X6748339Y3495835D01*
X6789992Y3537488D02*
Y3554149D01*
Y3545818D01*
X6740008D01*
X6748339Y3537488D01*
X3767520Y4244992D02*
Y4203339D01*
X3775851Y4195008D01*
X3792512D01*
X3800843Y4203339D01*
Y4244992D01*
X3817504Y4195008D02*
X3834165D01*
X3825835D01*
Y4244992D01*
X3817504Y4236661D01*
X3859157D02*
X3867488Y4244992D01*
X3884149D01*
X3892480Y4236661D01*
Y4203339D01*
X3884149Y4195008D01*
X3867488D01*
X3859157Y4203339D01*
Y4236661D01*
X7159481Y5254834D02*
Y5213181D01*
X7167811Y5204851D01*
X7184473D01*
X7192803Y5213181D01*
Y5254834D01*
X7209465Y5213181D02*
X7217795Y5204851D01*
X7234456D01*
X7242787Y5213181D01*
Y5246504D01*
X7234456Y5254834D01*
X7217795D01*
X7209465Y5246504D01*
Y5238173D01*
X7217795Y5229842D01*
X7242787D01*
X3630008Y5558347D02*
X3671661D01*
X3679992Y5566677D01*
Y5583339D01*
X3671661Y5591669D01*
X3630008D01*
X3638339Y5608331D02*
X3630008Y5616661D01*
Y5633322D01*
X3638339Y5641653D01*
X3646669D01*
X3655000Y5633322D01*
X3663331Y5641653D01*
X3671661D01*
X3679992Y5633322D01*
Y5616661D01*
X3671661Y5608331D01*
X3663331D01*
X3655000Y5616661D01*
X3646669Y5608331D01*
X3638339D01*
X3655000Y5616661D02*
Y5633322D01*
X5933347Y6259992D02*
Y6218339D01*
X5941677Y6210008D01*
X5958339D01*
X5966669Y6218339D01*
Y6259992D01*
X5983331D02*
X6016653D01*
Y6251661D01*
X5983331Y6218339D01*
Y6210008D01*
X6310008Y4758347D02*
X6351661D01*
X6359992Y4766677D01*
Y4783339D01*
X6351661Y4791669D01*
X6310008D01*
Y4841653D02*
X6318339Y4824992D01*
X6335000Y4808331D01*
X6351661D01*
X6359992Y4816661D01*
Y4833322D01*
X6351661Y4841653D01*
X6343331D01*
X6335000Y4833322D01*
Y4808331D01*
X5952433Y5129992D02*
Y5088339D01*
X5960764Y5080008D01*
X5977425D01*
X5985756Y5088339D01*
Y5129992D01*
X6035739D02*
X6002417D01*
Y5105000D01*
X6019078Y5113331D01*
X6027409D01*
X6035739Y5105000D01*
Y5088339D01*
X6027409Y5080008D01*
X6010747D01*
X6002417Y5088339D01*
X5863937Y5610583D02*
Y5568929D01*
X5872268Y5560599D01*
X5888929D01*
X5897260Y5568929D01*
Y5610583D01*
X5938913Y5560599D02*
Y5610583D01*
X5913921Y5585591D01*
X5947244D01*
X5866142Y5985582D02*
Y5943929D01*
X5874473Y5935599D01*
X5891134D01*
X5899465Y5943929D01*
Y5985582D01*
X5916126Y5977252D02*
X5924457Y5985582D01*
X5941118D01*
X5949449Y5977252D01*
Y5968921D01*
X5941118Y5960591D01*
X5932787D01*
X5941118D01*
X5949449Y5952260D01*
Y5943929D01*
X5941118Y5935599D01*
X5924457D01*
X5916126Y5943929D01*
X4365079Y5510386D02*
Y5468732D01*
X4373410Y5460402D01*
X4390071D01*
X4398402Y5468732D01*
Y5510386D01*
X4448386Y5460402D02*
X4415063D01*
X4448386Y5493724D01*
Y5502055D01*
X4440055Y5510386D01*
X4423394D01*
X4415063Y5502055D01*
X3210008Y5941677D02*
X3251661D01*
X3259992Y5950008D01*
Y5966669D01*
X3251661Y5975000D01*
X3210008D01*
X3259992Y5991661D02*
Y6008323D01*
Y5999992D01*
X3210008D01*
X3218339Y5991661D01*
X4518338Y4211677D02*
X4510008Y4203347D01*
Y4186685D01*
X4518338Y4178355D01*
X4526669D01*
X4535000Y4186685D01*
Y4203347D01*
X4543330Y4211677D01*
X4551661D01*
X4559992Y4203347D01*
Y4186685D01*
X4551661Y4178355D01*
X4510008Y4228339D02*
X4559992D01*
X4543330Y4245000D01*
X4559992Y4261661D01*
X4510008D01*
Y4311645D02*
X4518338Y4294984D01*
X4535000Y4278323D01*
X4551661D01*
X4559992Y4286653D01*
Y4303314D01*
X4551661Y4311645D01*
X4543330D01*
X4535000Y4303314D01*
Y4278323D01*
X3518338Y5741677D02*
X3510008Y5733347D01*
Y5716685D01*
X3518338Y5708355D01*
X3526669D01*
X3535000Y5716685D01*
Y5733347D01*
X3543330Y5741677D01*
X3551661D01*
X3559992Y5733347D01*
Y5716685D01*
X3551661Y5708355D01*
X3510008Y5758339D02*
X3559992D01*
X3543330Y5775000D01*
X3559992Y5791661D01*
X3510008D01*
Y5841645D02*
Y5808323D01*
X3535000D01*
X3526669Y5824984D01*
Y5833314D01*
X3535000Y5841645D01*
X3551661D01*
X3559992Y5833314D01*
Y5816653D01*
X3551661Y5808323D01*
X6513338Y6586677D02*
X6505008Y6578347D01*
Y6561685D01*
X6513338Y6553355D01*
X6521669D01*
X6530000Y6561685D01*
Y6578347D01*
X6538330Y6586677D01*
X6546661D01*
X6554992Y6578347D01*
Y6561685D01*
X6546661Y6553355D01*
X6505008Y6603339D02*
X6554992D01*
X6538330Y6620000D01*
X6554992Y6636661D01*
X6505008D01*
X6554992Y6678314D02*
X6505008D01*
X6530000Y6653323D01*
Y6686645D01*
X6283338Y6596677D02*
X6275008Y6588347D01*
Y6571685D01*
X6283338Y6563355D01*
X6291669D01*
X6300000Y6571685D01*
Y6588347D01*
X6308330Y6596677D01*
X6316661D01*
X6324992Y6588347D01*
Y6571685D01*
X6316661Y6563355D01*
X6275008Y6613339D02*
X6324992D01*
X6308330Y6630000D01*
X6324992Y6646661D01*
X6275008D01*
X6283338Y6663323D02*
X6275008Y6671653D01*
Y6688314D01*
X6283338Y6696645D01*
X6291669D01*
X6300000Y6688314D01*
Y6679984D01*
Y6688314D01*
X6308330Y6696645D01*
X6316661D01*
X6324992Y6688314D01*
Y6671653D01*
X6316661Y6663323D01*
X6073338Y6596677D02*
X6065008Y6588347D01*
Y6571685D01*
X6073338Y6563355D01*
X6081669D01*
X6090000Y6571685D01*
Y6588347D01*
X6098330Y6596677D01*
X6106661D01*
X6114992Y6588347D01*
Y6571685D01*
X6106661Y6563355D01*
X6065008Y6613339D02*
X6114992D01*
X6098330Y6630000D01*
X6114992Y6646661D01*
X6065008D01*
X6114992Y6696645D02*
Y6663323D01*
X6081669Y6696645D01*
X6073338D01*
X6065008Y6688314D01*
Y6671653D01*
X6073338Y6663323D01*
X5838339Y6600008D02*
X5830008Y6591677D01*
Y6575016D01*
X5838339Y6566686D01*
X5846669D01*
X5855000Y6575016D01*
Y6591677D01*
X5863331Y6600008D01*
X5871661D01*
X5879992Y6591677D01*
Y6575016D01*
X5871661Y6566686D01*
X5830008Y6616669D02*
X5879992D01*
X5863331Y6633331D01*
X5879992Y6649992D01*
X5830008D01*
X5879992Y6666653D02*
Y6683315D01*
Y6674984D01*
X5830008D01*
X5838339Y6666653D01*
X7900520Y5055008D02*
Y5104992D01*
X7925512D01*
X7933843Y5096661D01*
Y5080000D01*
X7925512Y5071669D01*
X7900520D01*
X7917181D02*
X7933843Y5055008D01*
X7983827Y5096661D02*
X7975496Y5104992D01*
X7958835D01*
X7950504Y5096661D01*
Y5088331D01*
X7958835Y5080000D01*
X7975496D01*
X7983827Y5071669D01*
Y5063339D01*
X7975496Y5055008D01*
X7958835D01*
X7950504Y5063339D01*
X8033810Y5055008D02*
X8000488D01*
X8033810Y5088331D01*
Y5096661D01*
X8025480Y5104992D01*
X8008818D01*
X8000488Y5096661D01*
X6918686Y5018008D02*
Y5067992D01*
X6943677D01*
X6952008Y5059661D01*
Y5043000D01*
X6943677Y5034669D01*
X6918686D01*
X6935347D02*
X6952008Y5018008D01*
X7001992Y5059661D02*
X6993661Y5067992D01*
X6977000D01*
X6968669Y5059661D01*
Y5051331D01*
X6977000Y5043000D01*
X6993661D01*
X7001992Y5034669D01*
Y5026339D01*
X6993661Y5018008D01*
X6977000D01*
X6968669Y5026339D01*
X7018653Y5018008D02*
X7035315D01*
X7026984D01*
Y5067992D01*
X7018653Y5059661D01*
X2609992Y3753355D02*
X2560008D01*
Y3778347D01*
X2568338Y3786677D01*
X2585000D01*
X2593330Y3778347D01*
Y3753355D01*
Y3770016D02*
X2609992Y3786677D01*
Y3828331D02*
X2560008D01*
X2585000Y3803339D01*
Y3836661D01*
X2568338Y3853323D02*
X2560008Y3861653D01*
Y3878314D01*
X2568338Y3886645D01*
X2601661D01*
X2609992Y3878314D01*
Y3861653D01*
X2601661Y3853323D01*
X2568338D01*
X2704992Y3758273D02*
X2655008D01*
Y3783265D01*
X2663338Y3791595D01*
X2680000D01*
X2688330Y3783265D01*
Y3758273D01*
Y3774934D02*
X2704992Y3791595D01*
X2663338Y3808257D02*
X2655008Y3816587D01*
Y3833249D01*
X2663338Y3841579D01*
X2671669D01*
X2680000Y3833249D01*
Y3824918D01*
Y3833249D01*
X2688330Y3841579D01*
X2696661D01*
X2704992Y3833249D01*
Y3816587D01*
X2696661Y3808257D01*
Y3858240D02*
X2704992Y3866571D01*
Y3883232D01*
X2696661Y3891563D01*
X2663338D01*
X2655008Y3883232D01*
Y3866571D01*
X2663338Y3858240D01*
X2671669D01*
X2680000Y3866571D01*
Y3891563D01*
X3953355Y3925008D02*
Y3974992D01*
X3978347D01*
X3986677Y3966661D01*
Y3950000D01*
X3978347Y3941669D01*
X3953355D01*
X3970016D02*
X3986677Y3925008D01*
X4003339Y3966661D02*
X4011669Y3974992D01*
X4028331D01*
X4036661Y3966661D01*
Y3958331D01*
X4028331Y3950000D01*
X4020000D01*
X4028331D01*
X4036661Y3941669D01*
Y3933339D01*
X4028331Y3925008D01*
X4011669D01*
X4003339Y3933339D01*
X4053323Y3966661D02*
X4061653Y3974992D01*
X4078314D01*
X4086645Y3966661D01*
Y3958331D01*
X4078314Y3950000D01*
X4086645Y3941669D01*
Y3933339D01*
X4078314Y3925008D01*
X4061653D01*
X4053323Y3933339D01*
Y3941669D01*
X4061653Y3950000D01*
X4053323Y3958331D01*
Y3966661D01*
X4061653Y3950000D02*
X4078314D01*
X7324502Y6122829D02*
X7274518D01*
Y6147821D01*
X7282848Y6156152D01*
X7299510D01*
X7307840Y6147821D01*
Y6122829D01*
Y6139490D02*
X7324502Y6156152D01*
X7282848Y6172813D02*
X7274518Y6181143D01*
Y6197805D01*
X7282848Y6206135D01*
X7291179D01*
X7299510Y6197805D01*
Y6189474D01*
Y6197805D01*
X7307840Y6206135D01*
X7316171D01*
X7324502Y6197805D01*
Y6181143D01*
X7316171Y6172813D01*
X7274518Y6222797D02*
Y6256119D01*
X7282848D01*
X7316171Y6222797D01*
X7324502D01*
X7333355Y4965008D02*
Y5014992D01*
X7358347D01*
X7366677Y5006661D01*
Y4990000D01*
X7358347Y4981669D01*
X7333355D01*
X7350016D02*
X7366677Y4965008D01*
X7383339Y5006661D02*
X7391669Y5014992D01*
X7408331D01*
X7416661Y5006661D01*
Y4998331D01*
X7408331Y4990000D01*
X7400000D01*
X7408331D01*
X7416661Y4981669D01*
Y4973339D01*
X7408331Y4965008D01*
X7391669D01*
X7383339Y4973339D01*
X7466645Y5014992D02*
X7449984Y5006661D01*
X7433323Y4990000D01*
Y4973339D01*
X7441653Y4965008D01*
X7458314D01*
X7466645Y4973339D01*
Y4981669D01*
X7458314Y4990000D01*
X7433323D01*
X6834992Y6191741D02*
X6785008D01*
Y6216733D01*
X6793338Y6225063D01*
X6810000D01*
X6818330Y6216733D01*
Y6191741D01*
Y6208402D02*
X6834992Y6225063D01*
X6793338Y6241725D02*
X6785008Y6250055D01*
Y6266716D01*
X6793338Y6275047D01*
X6801669D01*
X6810000Y6266716D01*
Y6258386D01*
Y6266716D01*
X6818330Y6275047D01*
X6826661D01*
X6834992Y6266716D01*
Y6250055D01*
X6826661Y6241725D01*
X6785008Y6325031D02*
Y6291708D01*
X6810000D01*
X6801669Y6308370D01*
Y6316700D01*
X6810000Y6325031D01*
X6826661D01*
X6834992Y6316700D01*
Y6300039D01*
X6826661Y6291708D01*
X6604694Y4455008D02*
Y4504992D01*
X6629685D01*
X6638016Y4496661D01*
Y4480000D01*
X6629685Y4471669D01*
X6604694D01*
X6621355D02*
X6638016Y4455008D01*
X6654677Y4496661D02*
X6663008Y4504992D01*
X6679669D01*
X6688000Y4496661D01*
Y4488331D01*
X6679669Y4480000D01*
X6671339D01*
X6679669D01*
X6688000Y4471669D01*
Y4463339D01*
X6679669Y4455008D01*
X6663008D01*
X6654677Y4463339D01*
X6729653Y4455008D02*
Y4504992D01*
X6704661Y4480000D01*
X6737984D01*
X6918355Y5090008D02*
Y5139992D01*
X6943347D01*
X6951677Y5131661D01*
Y5115000D01*
X6943347Y5106669D01*
X6918355D01*
X6935016D02*
X6951677Y5090008D01*
X6968339Y5131661D02*
X6976669Y5139992D01*
X6993331D01*
X7001661Y5131661D01*
Y5123331D01*
X6993331Y5115000D01*
X6985000D01*
X6993331D01*
X7001661Y5106669D01*
Y5098339D01*
X6993331Y5090008D01*
X6976669D01*
X6968339Y5098339D01*
X7018323Y5131661D02*
X7026653Y5139992D01*
X7043314D01*
X7051645Y5131661D01*
Y5123331D01*
X7043314Y5115000D01*
X7034984D01*
X7043314D01*
X7051645Y5106669D01*
Y5098339D01*
X7043314Y5090008D01*
X7026653D01*
X7018323Y5098339D01*
X7109992Y4747016D02*
X7060008D01*
Y4772008D01*
X7068338Y4780339D01*
X7085000D01*
X7093330Y4772008D01*
Y4747016D01*
Y4763678D02*
X7109992Y4780339D01*
X7068338Y4797000D02*
X7060008Y4805331D01*
Y4821992D01*
X7068338Y4830323D01*
X7076669D01*
X7085000Y4821992D01*
Y4813661D01*
Y4821992D01*
X7093330Y4830323D01*
X7101661D01*
X7109992Y4821992D01*
Y4805331D01*
X7101661Y4797000D01*
X7109992Y4880306D02*
Y4846984D01*
X7076669Y4880306D01*
X7068338D01*
X7060008Y4871976D01*
Y4855315D01*
X7068338Y4846984D01*
X7394992Y4751686D02*
X7345008D01*
Y4776677D01*
X7353339Y4785008D01*
X7370000D01*
X7378331Y4776677D01*
Y4751686D01*
Y4768347D02*
X7394992Y4785008D01*
X7353339Y4801669D02*
X7345008Y4810000D01*
Y4826661D01*
X7353339Y4834992D01*
X7361669D01*
X7370000Y4826661D01*
Y4818331D01*
Y4826661D01*
X7378331Y4834992D01*
X7386661D01*
X7394992Y4826661D01*
Y4810000D01*
X7386661Y4801669D01*
X7394992Y4851653D02*
Y4868315D01*
Y4859984D01*
X7345008D01*
X7353339Y4851653D01*
X7324992Y4751741D02*
X7275008D01*
Y4776733D01*
X7283338Y4785063D01*
X7300000D01*
X7308330Y4776733D01*
Y4751741D01*
Y4768402D02*
X7324992Y4785063D01*
X7283338Y4801725D02*
X7275008Y4810055D01*
Y4826716D01*
X7283338Y4835047D01*
X7291669D01*
X7300000Y4826716D01*
Y4818386D01*
Y4826716D01*
X7308330Y4835047D01*
X7316661D01*
X7324992Y4826716D01*
Y4810055D01*
X7316661Y4801725D01*
X7283338Y4851708D02*
X7275008Y4860039D01*
Y4876700D01*
X7283338Y4885031D01*
X7316661D01*
X7324992Y4876700D01*
Y4860039D01*
X7316661Y4851708D01*
X7283338D01*
X7259992Y4748355D02*
X7210008D01*
Y4773347D01*
X7218338Y4781677D01*
X7235000D01*
X7243330Y4773347D01*
Y4748355D01*
Y4765016D02*
X7259992Y4781677D01*
Y4831661D02*
Y4798339D01*
X7226669Y4831661D01*
X7218338D01*
X7210008Y4823331D01*
Y4806669D01*
X7218338Y4798339D01*
X7251661Y4848323D02*
X7259992Y4856653D01*
Y4873314D01*
X7251661Y4881645D01*
X7218338D01*
X7210008Y4873314D01*
Y4856653D01*
X7218338Y4848323D01*
X7226669D01*
X7235000Y4856653D01*
Y4881645D01*
X7184992Y4748355D02*
X7135008D01*
Y4773347D01*
X7143338Y4781677D01*
X7160000D01*
X7168330Y4773347D01*
Y4748355D01*
Y4765016D02*
X7184992Y4781677D01*
Y4831661D02*
Y4798339D01*
X7151669Y4831661D01*
X7143338D01*
X7135008Y4823331D01*
Y4806669D01*
X7143338Y4798339D01*
Y4848323D02*
X7135008Y4856653D01*
Y4873314D01*
X7143338Y4881645D01*
X7151669D01*
X7160000Y4873314D01*
X7168330Y4881645D01*
X7176661D01*
X7184992Y4873314D01*
Y4856653D01*
X7176661Y4848323D01*
X7168330D01*
X7160000Y4856653D01*
X7151669Y4848323D01*
X7143338D01*
X7160000Y4856653D02*
Y4873314D01*
X3774992Y5278001D02*
X3725008D01*
Y5302992D01*
X3733339Y5311323D01*
X3750000D01*
X3758331Y5302992D01*
Y5278001D01*
Y5294662D02*
X3774992Y5311323D01*
Y5361307D02*
Y5327984D01*
X3741669Y5361307D01*
X3733339D01*
X3725008Y5352976D01*
Y5336315D01*
X3733339Y5327984D01*
X3725008Y5377968D02*
Y5411291D01*
X3733339D01*
X3766661Y5377968D01*
X3774992D01*
X3864992Y5278355D02*
X3815008D01*
Y5303347D01*
X3823338Y5311677D01*
X3840000D01*
X3848330Y5303347D01*
Y5278355D01*
Y5295016D02*
X3864992Y5311677D01*
Y5361661D02*
Y5328339D01*
X3831669Y5361661D01*
X3823338D01*
X3815008Y5353331D01*
Y5336669D01*
X3823338Y5328339D01*
X3815008Y5411645D02*
X3823338Y5394984D01*
X3840000Y5378323D01*
X3856661D01*
X3864992Y5386653D01*
Y5403314D01*
X3856661Y5411645D01*
X3848330D01*
X3840000Y5403314D01*
Y5378323D01*
X4149992Y6393001D02*
X4100008D01*
Y6417992D01*
X4108339Y6426323D01*
X4125000D01*
X4133331Y6417992D01*
Y6393001D01*
Y6409662D02*
X4149992Y6426323D01*
Y6476307D02*
Y6442984D01*
X4116669Y6476307D01*
X4108339D01*
X4100008Y6467976D01*
Y6451315D01*
X4108339Y6442984D01*
X4100008Y6526291D02*
Y6492968D01*
X4125000D01*
X4116669Y6509629D01*
Y6517960D01*
X4125000Y6526291D01*
X4141661D01*
X4149992Y6517960D01*
Y6501299D01*
X4141661Y6492968D01*
X3884992Y5888355D02*
X3835008D01*
Y5913347D01*
X3843338Y5921677D01*
X3860000D01*
X3868330Y5913347D01*
Y5888355D01*
Y5905016D02*
X3884992Y5921677D01*
Y5971661D02*
Y5938339D01*
X3851669Y5971661D01*
X3843338D01*
X3835008Y5963331D01*
Y5946669D01*
X3843338Y5938339D01*
X3884992Y6013314D02*
X3835008D01*
X3860000Y5988323D01*
Y6021645D01*
X5698788Y6135008D02*
Y6184992D01*
X5723780D01*
X5732111Y6176661D01*
Y6160000D01*
X5723780Y6151669D01*
X5698788D01*
X5715449D02*
X5732111Y6135008D01*
X5782094D02*
X5748772D01*
X5782094Y6168331D01*
Y6176661D01*
X5773764Y6184992D01*
X5757102D01*
X5748772Y6176661D01*
X5798756D02*
X5807086Y6184992D01*
X5823748D01*
X5832078Y6176661D01*
Y6168331D01*
X5823748Y6160000D01*
X5815417D01*
X5823748D01*
X5832078Y6151669D01*
Y6143339D01*
X5823748Y6135008D01*
X5807086D01*
X5798756Y6143339D01*
X5698355Y6045008D02*
Y6094992D01*
X5723347D01*
X5731677Y6086661D01*
Y6070000D01*
X5723347Y6061669D01*
X5698355D01*
X5715016D02*
X5731677Y6045008D01*
X5781661D02*
X5748339D01*
X5781661Y6078331D01*
Y6086661D01*
X5773331Y6094992D01*
X5756669D01*
X5748339Y6086661D01*
X5831645Y6045008D02*
X5798323D01*
X5831645Y6078331D01*
Y6086661D01*
X5823314Y6094992D01*
X5806653D01*
X5798323Y6086661D01*
X6121686Y4920008D02*
Y4969992D01*
X6146677D01*
X6155008Y4961661D01*
Y4945000D01*
X6146677Y4936669D01*
X6121686D01*
X6138347D02*
X6155008Y4920008D01*
X6204992D02*
X6171669D01*
X6204992Y4953331D01*
Y4961661D01*
X6196661Y4969992D01*
X6180000D01*
X6171669Y4961661D01*
X6221653Y4920008D02*
X6238315D01*
X6229984D01*
Y4969992D01*
X6221653Y4961661D01*
X5733355Y5060008D02*
Y5109992D01*
X5758347D01*
X5766677Y5101661D01*
Y5085000D01*
X5758347Y5076669D01*
X5733355D01*
X5750016D02*
X5766677Y5060008D01*
X5816661D02*
X5783339D01*
X5816661Y5093331D01*
Y5101661D01*
X5808331Y5109992D01*
X5791669D01*
X5783339Y5101661D01*
X5833323D02*
X5841653Y5109992D01*
X5858314D01*
X5866645Y5101661D01*
Y5068339D01*
X5858314Y5060008D01*
X5841653D01*
X5833323Y5068339D01*
Y5101661D01*
X7557166Y4415008D02*
Y4464992D01*
X7582158D01*
X7590488Y4456661D01*
Y4440000D01*
X7582158Y4431669D01*
X7557166D01*
X7573827D02*
X7590488Y4415008D01*
X7607150D02*
X7623811D01*
X7615480D01*
Y4464992D01*
X7607150Y4456661D01*
X7648803Y4423339D02*
X7657133Y4415008D01*
X7673795D01*
X7682125Y4423339D01*
Y4456661D01*
X7673795Y4464992D01*
X7657133D01*
X7648803Y4456661D01*
Y4448331D01*
X7657133Y4440000D01*
X7682125D01*
X7551811Y4065008D02*
Y4114992D01*
X7576803D01*
X7585134Y4106661D01*
Y4090000D01*
X7576803Y4081669D01*
X7551811D01*
X7568473D02*
X7585134Y4065008D01*
X7601795D02*
X7618457D01*
X7610126D01*
Y4114992D01*
X7601795Y4106661D01*
X7643449D02*
X7651779Y4114992D01*
X7668440D01*
X7676771Y4106661D01*
Y4098331D01*
X7668440Y4090000D01*
X7676771Y4081669D01*
Y4073339D01*
X7668440Y4065008D01*
X7651779D01*
X7643449Y4073339D01*
Y4081669D01*
X7651779Y4090000D01*
X7643449Y4098331D01*
Y4106661D01*
X7651779Y4090000D02*
X7668440D01*
X5737520Y4880008D02*
Y4929992D01*
X5762512D01*
X5770843Y4921661D01*
Y4905000D01*
X5762512Y4896669D01*
X5737520D01*
X5754181D02*
X5770843Y4880008D01*
X5787504D02*
X5804165D01*
X5795835D01*
Y4929992D01*
X5787504Y4921661D01*
X5829157Y4929992D02*
X5862480D01*
Y4921661D01*
X5829157Y4888339D01*
Y4880008D01*
X4659992Y4242520D02*
X4610008D01*
Y4267512D01*
X4618339Y4275843D01*
X4635000D01*
X4643331Y4267512D01*
Y4242520D01*
Y4259181D02*
X4659992Y4275843D01*
Y4292504D02*
Y4309165D01*
Y4300834D01*
X4610008D01*
X4618339Y4292504D01*
X4610008Y4367480D02*
X4618339Y4350818D01*
X4635000Y4334157D01*
X4651661D01*
X4659992Y4342488D01*
Y4359149D01*
X4651661Y4367480D01*
X4643331D01*
X4635000Y4359149D01*
Y4334157D01*
X6072874Y5715008D02*
Y5764992D01*
X6097866D01*
X6106197Y5756661D01*
Y5740000D01*
X6097866Y5731669D01*
X6072874D01*
X6089536D02*
X6106197Y5715008D01*
X6122858D02*
X6139520D01*
X6131189D01*
Y5764992D01*
X6122858Y5756661D01*
X6197834Y5764992D02*
X6164511D01*
Y5740000D01*
X6181173Y5748331D01*
X6189503D01*
X6197834Y5740000D01*
Y5723339D01*
X6189503Y5715008D01*
X6172842D01*
X6164511Y5723339D01*
X5485679Y5350888D02*
X5486381Y5400867D01*
X5511371Y5400516D01*
X5519584Y5392069D01*
X5519350Y5375409D01*
X5510903Y5367197D01*
X5485913Y5367548D01*
X5502573Y5367314D02*
X5518999Y5350420D01*
X5535658Y5350186D02*
X5552318Y5349952D01*
X5543988Y5350069D01*
X5544690Y5400048D01*
X5536243Y5391835D01*
X5602297Y5349250D02*
X5602999Y5399229D01*
X5577658Y5374591D01*
X5610978Y5374123D01*
X5487854Y5269190D02*
X5487198Y5319170D01*
X5512187Y5319498D01*
X5520627Y5311277D01*
X5520845Y5294617D01*
X5512625Y5286178D01*
X5487635Y5285850D01*
X5504295Y5286069D02*
X5521173Y5269628D01*
X5537833Y5269846D02*
X5554493Y5270065D01*
X5546163Y5269956D01*
X5545507Y5319935D01*
X5537286Y5311496D01*
X5578936Y5312043D02*
X5587157Y5320482D01*
X5603816Y5320700D01*
X5612256Y5312480D01*
X5612365Y5304150D01*
X5604144Y5295711D01*
X5595815Y5295601D01*
X5604144Y5295711D01*
X5612584Y5287490D01*
X5612693Y5279160D01*
X5604472Y5270721D01*
X5587813Y5270502D01*
X5579373Y5278723D01*
X5476991Y5186373D02*
X5478078Y5236345D01*
X5503065Y5235801D01*
X5511212Y5227292D01*
X5510850Y5210634D01*
X5502340Y5202487D01*
X5477354Y5203030D01*
X5494011Y5202668D02*
X5510306Y5185648D01*
X5526963Y5185286D02*
X5543621Y5184923D01*
X5535292Y5185105D01*
X5536379Y5235077D01*
X5527869Y5226929D01*
X5601921Y5183655D02*
X5568607Y5184380D01*
X5602646Y5216970D01*
X5602827Y5225298D01*
X5594680Y5233808D01*
X5578022Y5234171D01*
X5569513Y5226023D01*
X2659355Y4980008D02*
Y5029992D01*
X2684347D01*
X2692677Y5021661D01*
Y5005000D01*
X2684347Y4996669D01*
X2659355D01*
X2676016D02*
X2692677Y4980008D01*
X2709339D02*
X2726000D01*
X2717669D01*
Y5029992D01*
X2709339Y5021661D01*
X2750992Y4980008D02*
X2767653D01*
X2759322D01*
Y5029992D01*
X2750992Y5021661D01*
X3169992Y4441024D02*
X3120008D01*
Y4466016D01*
X3128339Y4474347D01*
X3145000D01*
X3153331Y4466016D01*
Y4441024D01*
Y4457685D02*
X3169992Y4474347D01*
Y4491008D02*
Y4507669D01*
Y4499338D01*
X3120008D01*
X3128339Y4491008D01*
Y4532661D02*
X3120008Y4540992D01*
Y4557653D01*
X3128339Y4565984D01*
X3161661D01*
X3169992Y4557653D01*
Y4540992D01*
X3161661Y4532661D01*
X3128339D01*
X2989992Y4438347D02*
X2940008D01*
Y4463339D01*
X2948339Y4471669D01*
X2965000D01*
X2973331Y4463339D01*
Y4438347D01*
Y4455008D02*
X2989992Y4471669D01*
X2981661Y4488331D02*
X2989992Y4496661D01*
Y4513322D01*
X2981661Y4521653D01*
X2948339D01*
X2940008Y4513322D01*
Y4496661D01*
X2948339Y4488331D01*
X2956669D01*
X2965000Y4496661D01*
Y4521653D01*
X3354992Y5664849D02*
X3305008D01*
Y5689840D01*
X3313338Y5698171D01*
X3330000D01*
X3338330Y5689840D01*
Y5664849D01*
Y5681510D02*
X3354992Y5698171D01*
X3313338Y5714832D02*
X3305008Y5723163D01*
Y5739824D01*
X3313338Y5748155D01*
X3321669D01*
X3330000Y5739824D01*
X3338330Y5748155D01*
X3346661D01*
X3354992Y5739824D01*
Y5723163D01*
X3346661Y5714832D01*
X3338330D01*
X3330000Y5723163D01*
X3321669Y5714832D01*
X3313338D01*
X3330000Y5723163D02*
Y5739824D01*
X2666851Y4810008D02*
Y4859992D01*
X2691843D01*
X2700173Y4851661D01*
Y4835000D01*
X2691843Y4826669D01*
X2666851D01*
X2683512D02*
X2700173Y4810008D01*
X2716835Y4859992D02*
X2750157D01*
Y4851661D01*
X2716835Y4818339D01*
Y4810008D01*
X3174992Y5838347D02*
X3125008D01*
Y5863339D01*
X3133339Y5871669D01*
X3150000D01*
X3158331Y5863339D01*
Y5838347D01*
Y5855008D02*
X3174992Y5871669D01*
X3125008Y5921653D02*
X3133339Y5904992D01*
X3150000Y5888331D01*
X3166661D01*
X3174992Y5896661D01*
Y5913322D01*
X3166661Y5921653D01*
X3158331D01*
X3150000Y5913322D01*
Y5888331D01*
X6534992Y6413347D02*
X6485008D01*
Y6438339D01*
X6493339Y6446669D01*
X6510000D01*
X6518331Y6438339D01*
Y6413347D01*
Y6430008D02*
X6534992Y6446669D01*
X6485008Y6496653D02*
Y6463331D01*
X6510000D01*
X6501669Y6479992D01*
Y6488322D01*
X6510000Y6496653D01*
X6526661D01*
X6534992Y6488322D01*
Y6471661D01*
X6526661Y6463331D01*
X6313482Y6413863D02*
X6263498D01*
Y6438855D01*
X6271829Y6447186D01*
X6288490D01*
X6296821Y6438855D01*
Y6413863D01*
Y6430524D02*
X6313482Y6447186D01*
Y6488839D02*
X6263498D01*
X6288490Y6463847D01*
Y6497169D01*
X6099992Y6418347D02*
X6050008D01*
Y6443339D01*
X6058339Y6451669D01*
X6075000D01*
X6083331Y6443339D01*
Y6418347D01*
Y6435008D02*
X6099992Y6451669D01*
X6058339Y6468331D02*
X6050008Y6476661D01*
Y6493322D01*
X6058339Y6501653D01*
X6066669D01*
X6075000Y6493322D01*
Y6484992D01*
Y6493322D01*
X6083331Y6501653D01*
X6091661D01*
X6099992Y6493322D01*
Y6476661D01*
X6091661Y6468331D01*
X5854992Y6413347D02*
X5805008D01*
Y6438339D01*
X5813339Y6446669D01*
X5830000D01*
X5838331Y6438339D01*
Y6413347D01*
Y6430008D02*
X5854992Y6446669D01*
Y6496653D02*
Y6463331D01*
X5821669Y6496653D01*
X5813339D01*
X5805008Y6488322D01*
Y6471661D01*
X5813339Y6463331D01*
X6958827Y4807205D02*
X6925504D01*
X6917173Y4798874D01*
Y4782213D01*
X6925504Y4773882D01*
X6958827D01*
X6967157Y4782213D01*
Y4798874D01*
X6950496Y4790543D02*
X6967157Y4807205D01*
Y4798874D02*
X6958827Y4807205D01*
X6967157Y4823866D02*
Y4840527D01*
Y4832197D01*
X6917173D01*
X6925504Y4823866D01*
X5193347Y6325008D02*
Y6374992D01*
X5218339D01*
X5226669Y6366661D01*
Y6350000D01*
X5218339Y6341669D01*
X5193347D01*
X5243331Y6333339D02*
X5251661Y6325008D01*
X5268323D01*
X5276653Y6333339D01*
Y6366661D01*
X5268323Y6374992D01*
X5251661D01*
X5243331Y6366661D01*
Y6358331D01*
X5251661Y6350000D01*
X5276653D01*
X3769992Y6168347D02*
X3720008D01*
Y6193339D01*
X3728339Y6201669D01*
X3745000D01*
X3753331Y6193339D01*
Y6168347D01*
X3728339Y6218331D02*
X3720008Y6226661D01*
Y6243322D01*
X3728339Y6251653D01*
X3736669D01*
X3745000Y6243322D01*
X3753331Y6251653D01*
X3761661D01*
X3769992Y6243322D01*
Y6226661D01*
X3761661Y6218331D01*
X3753331D01*
X3745000Y6226661D01*
X3736669Y6218331D01*
X3728339D01*
X3745000Y6226661D02*
Y6243322D01*
X4634992Y6473347D02*
X4585008D01*
Y6498339D01*
X4593339Y6506669D01*
X4610000D01*
X4618331Y6498339D01*
Y6473347D01*
X4585008Y6523331D02*
Y6556653D01*
X4593339D01*
X4626661Y6523331D01*
X4634992D01*
X6443347Y4640008D02*
Y4689992D01*
X6468339D01*
X6476669Y4681661D01*
Y4665000D01*
X6468339Y4656669D01*
X6443347D01*
X6526653Y4689992D02*
X6493331D01*
Y4665000D01*
X6509992Y4673331D01*
X6518323D01*
X6526653Y4665000D01*
Y4648339D01*
X6518323Y4640008D01*
X6501661D01*
X6493331Y4648339D01*
X4924992Y4693347D02*
X4875008D01*
Y4718339D01*
X4883339Y4726669D01*
X4900000D01*
X4908331Y4718339D01*
Y4693347D01*
X4924992Y4768322D02*
X4875008D01*
X4900000Y4743331D01*
Y4776653D01*
X4253347Y4500008D02*
Y4549992D01*
X4278339D01*
X4286669Y4541661D01*
Y4525000D01*
X4278339Y4516669D01*
X4253347D01*
X4303331Y4541661D02*
X4311661Y4549992D01*
X4328323D01*
X4336653Y4541661D01*
Y4533331D01*
X4328323Y4525000D01*
X4319992D01*
X4328323D01*
X4336653Y4516669D01*
Y4508339D01*
X4328323Y4500008D01*
X4311661D01*
X4303331Y4508339D01*
X5256831Y6162498D02*
Y6212482D01*
X5281823D01*
X5290153Y6204152D01*
Y6187490D01*
X5281823Y6179160D01*
X5256831D01*
X5340137Y6162498D02*
X5306814D01*
X5340137Y6195821D01*
Y6204152D01*
X5331806Y6212482D01*
X5315145D01*
X5306814Y6204152D01*
X2881367Y5472353D02*
X2831383D01*
X2848044Y5489014D01*
X2831383Y5505675D01*
X2881367D01*
X2831383Y5522337D02*
X2881367D01*
Y5547328D01*
X2873036Y5555659D01*
X2839714D01*
X2831383Y5547328D01*
Y5522337D01*
X2881367Y5572320D02*
Y5588982D01*
Y5580651D01*
X2831383D01*
X2839714Y5572320D01*
X7380008Y3943347D02*
X7429992D01*
Y3976669D01*
X7388339Y3993331D02*
X7380008Y4001661D01*
Y4018322D01*
X7388339Y4026653D01*
X7396669D01*
X7405000Y4018322D01*
Y4009992D01*
Y4018322D01*
X7413331Y4026653D01*
X7421661D01*
X7429992Y4018322D01*
Y4001661D01*
X7421661Y3993331D01*
X6995008Y3933347D02*
X7044992D01*
Y3966669D01*
Y4016653D02*
Y3983331D01*
X7011669Y4016653D01*
X7003339D01*
X6995008Y4008322D01*
Y3991661D01*
X7003339Y3983331D01*
X7536677Y5389992D02*
Y5340008D01*
X7570000D01*
X7586661D02*
X7603323D01*
X7594992D01*
Y5389992D01*
X7586661Y5381661D01*
X7280008Y5841677D02*
Y5825016D01*
Y5833347D01*
X7321661D01*
X7329992Y5825016D01*
Y5816685D01*
X7321661Y5808355D01*
X7329992Y5858339D02*
X7280008D01*
Y5883331D01*
X7288338Y5891661D01*
X7305000D01*
X7313330Y5883331D01*
Y5858339D01*
X7280008Y5941645D02*
Y5908323D01*
X7305000D01*
X7296669Y5924984D01*
Y5933314D01*
X7305000Y5941645D01*
X7321661D01*
X7329992Y5933314D01*
Y5916653D01*
X7321661Y5908323D01*
X6562008Y5896677D02*
Y5880016D01*
Y5888347D01*
X6603661D01*
X6611992Y5880016D01*
Y5871685D01*
X6603661Y5863355D01*
X6611992Y5913339D02*
X6562008D01*
Y5938331D01*
X6570338Y5946661D01*
X6587000D01*
X6595330Y5938331D01*
Y5913339D01*
X6611992Y5988314D02*
X6562008D01*
X6587000Y5963323D01*
Y5996645D01*
X4025008Y4369992D02*
X4008347D01*
X4016677D01*
Y4328339D01*
X4008347Y4320008D01*
X4000016D01*
X3991686Y4328339D01*
X4041669Y4320008D02*
Y4369992D01*
X4066661D01*
X4074992Y4361661D01*
Y4345000D01*
X4066661Y4336669D01*
X4041669D01*
X4091653Y4320008D02*
X4108315D01*
X4099984D01*
Y4369992D01*
X4091653Y4361661D01*
X7756669Y5022992D02*
X7740008D01*
X7748339D01*
Y4981339D01*
X7740008Y4973008D01*
X7731677D01*
X7723347Y4981339D01*
X7773331Y5014661D02*
X7781661Y5022992D01*
X7798323D01*
X7806653Y5014661D01*
Y5006331D01*
X7798323Y4998000D01*
X7789992D01*
X7798323D01*
X7806653Y4989669D01*
Y4981339D01*
X7798323Y4973008D01*
X7781661D01*
X7773331Y4981339D01*
X8015000Y3996567D02*
X7998339D01*
X8006669D01*
Y3954914D01*
X7998339Y3946583D01*
X7990008D01*
X7981677Y3954914D01*
X8031661Y3946583D02*
X8048323D01*
X8039992D01*
Y3996567D01*
X8031661Y3988236D01*
X7400008Y3771669D02*
Y3738347D01*
X7425000D01*
Y3755008D01*
Y3738347D01*
X7449992D01*
Y3821653D02*
Y3788331D01*
X7416669Y3821653D01*
X7408339D01*
X7400008Y3813322D01*
Y3796661D01*
X7408339Y3788331D01*
X7010008Y3785000D02*
Y3751677D01*
X7035000D01*
Y3768339D01*
Y3751677D01*
X7059992D01*
Y3801661D02*
Y3818323D01*
Y3809992D01*
X7010008D01*
X7018339Y3801661D01*
X3893355Y3729992D02*
Y3680008D01*
X3918347D01*
X3926677Y3688339D01*
Y3721661D01*
X3918347Y3729992D01*
X3893355D01*
X3976661Y3680008D02*
X3943339D01*
X3976661Y3713331D01*
Y3721661D01*
X3968331Y3729992D01*
X3951669D01*
X3943339Y3721661D01*
X4018314Y3680008D02*
Y3729992D01*
X3993323Y3705000D01*
X4026645D01*
X3448355Y3734992D02*
Y3685008D01*
X3473347D01*
X3481677Y3693339D01*
Y3726661D01*
X3473347Y3734992D01*
X3448355D01*
X3531661Y3685008D02*
X3498339D01*
X3531661Y3718331D01*
Y3726661D01*
X3523331Y3734992D01*
X3506669D01*
X3498339Y3726661D01*
X3548323D02*
X3556653Y3734992D01*
X3573314D01*
X3581645Y3726661D01*
Y3718331D01*
X3573314Y3710000D01*
X3564984D01*
X3573314D01*
X3581645Y3701669D01*
Y3693339D01*
X3573314Y3685008D01*
X3556653D01*
X3548323Y3693339D01*
X2988355Y3724992D02*
Y3675008D01*
X3013347D01*
X3021677Y3683339D01*
Y3716661D01*
X3013347Y3724992D01*
X2988355D01*
X3071661Y3675008D02*
X3038339D01*
X3071661Y3708331D01*
Y3716661D01*
X3063331Y3724992D01*
X3046669D01*
X3038339Y3716661D01*
X3121645Y3675008D02*
X3088323D01*
X3121645Y3708331D01*
Y3716661D01*
X3113314Y3724992D01*
X3096653D01*
X3088323Y3716661D01*
X4346686Y3719992D02*
Y3670008D01*
X4371677D01*
X4380008Y3678339D01*
Y3711661D01*
X4371677Y3719992D01*
X4346686D01*
X4429992Y3670008D02*
X4396669D01*
X4429992Y3703331D01*
Y3711661D01*
X4421661Y3719992D01*
X4405000D01*
X4396669Y3711661D01*
X4446653Y3670008D02*
X4463315D01*
X4454984D01*
Y3719992D01*
X4446653Y3711661D01*
X7321355Y5085992D02*
Y5036008D01*
X7346347D01*
X7354677Y5044339D01*
Y5077661D01*
X7346347Y5085992D01*
X7321355D01*
X7404661Y5036008D02*
X7371339D01*
X7404661Y5069331D01*
Y5077661D01*
X7396331Y5085992D01*
X7379669D01*
X7371339Y5077661D01*
X7421323D02*
X7429653Y5085992D01*
X7446314D01*
X7454645Y5077661D01*
Y5044339D01*
X7446314Y5036008D01*
X7429653D01*
X7421323Y5044339D01*
Y5077661D01*
X6921520Y4966992D02*
Y4917008D01*
X6946512D01*
X6954843Y4925339D01*
Y4958661D01*
X6946512Y4966992D01*
X6921520D01*
X6971504Y4917008D02*
X6988165D01*
X6979835D01*
Y4966992D01*
X6971504Y4958661D01*
X7013157Y4925339D02*
X7021488Y4917008D01*
X7038149D01*
X7046480Y4925339D01*
Y4958661D01*
X7038149Y4966992D01*
X7021488D01*
X7013157Y4958661D01*
Y4950331D01*
X7021488Y4942000D01*
X7046480D01*
X7556300Y4379992D02*
Y4330008D01*
X7581292D01*
X7589622Y4338339D01*
Y4371661D01*
X7581292Y4379992D01*
X7556300D01*
X7606283Y4330008D02*
X7622945D01*
X7614614D01*
Y4379992D01*
X7606283Y4371661D01*
X7647937D02*
X7656267Y4379992D01*
X7672929D01*
X7681259Y4371661D01*
Y4363331D01*
X7672929Y4355000D01*
X7681259Y4346669D01*
Y4338339D01*
X7672929Y4330008D01*
X7656267D01*
X7647937Y4338339D01*
Y4346669D01*
X7656267Y4355000D01*
X7647937Y4363331D01*
Y4371661D01*
X7656267Y4355000D02*
X7672929D01*
X7547520Y4214992D02*
Y4165008D01*
X7572512D01*
X7580843Y4173339D01*
Y4206661D01*
X7572512Y4214992D01*
X7547520D01*
X7597504Y4165008D02*
X7614165D01*
X7605835D01*
Y4214992D01*
X7597504Y4206661D01*
X7639157Y4214992D02*
X7672480D01*
Y4206661D01*
X7639157Y4173339D01*
Y4165008D01*
X4891300Y6474992D02*
Y6425008D01*
X4916292D01*
X4924622Y6433339D01*
Y6466661D01*
X4916292Y6474992D01*
X4891300D01*
X4941283Y6425008D02*
X4957945D01*
X4949614D01*
Y6474992D01*
X4941283Y6466661D01*
X5016259Y6474992D02*
X4999598Y6466661D01*
X4982937Y6450000D01*
Y6433339D01*
X4991267Y6425008D01*
X5007929D01*
X5016259Y6433339D01*
Y6441669D01*
X5007929Y6450000D01*
X4982937D01*
X4892520Y6574992D02*
Y6525008D01*
X4917512D01*
X4925843Y6533339D01*
Y6566661D01*
X4917512Y6574992D01*
X4892520D01*
X4942504Y6525008D02*
X4959165D01*
X4950835D01*
Y6574992D01*
X4942504Y6566661D01*
X5017480Y6574992D02*
X4984157D01*
Y6550000D01*
X5000819Y6558331D01*
X5009149D01*
X5017480Y6550000D01*
Y6533339D01*
X5009149Y6525008D01*
X4992488D01*
X4984157Y6533339D01*
X4893741Y6674992D02*
Y6625008D01*
X4918733D01*
X4927063Y6633339D01*
Y6666661D01*
X4918733Y6674992D01*
X4893741D01*
X4943724Y6625008D02*
X4960386D01*
X4952055D01*
Y6674992D01*
X4943724Y6666661D01*
X5010369Y6625008D02*
Y6674992D01*
X4985378Y6650000D01*
X5018700D01*
X5451300Y6574992D02*
Y6525008D01*
X5476292D01*
X5484622Y6533339D01*
Y6566661D01*
X5476292Y6574992D01*
X5451300D01*
X5501283Y6525008D02*
X5517945D01*
X5509614D01*
Y6574992D01*
X5501283Y6566661D01*
X5542937D02*
X5551267Y6574992D01*
X5567929D01*
X5576259Y6566661D01*
Y6558331D01*
X5567929Y6550000D01*
X5559598D01*
X5567929D01*
X5576259Y6541669D01*
Y6533339D01*
X5567929Y6525008D01*
X5551267D01*
X5542937Y6533339D01*
X5180008Y4807520D02*
X5229992D01*
Y4832512D01*
X5221661Y4840843D01*
X5188339D01*
X5180008Y4832512D01*
Y4807520D01*
X5229992Y4857504D02*
Y4874165D01*
Y4865834D01*
X5180008D01*
X5188339Y4857504D01*
X5229992Y4932480D02*
Y4899157D01*
X5196669Y4932480D01*
X5188339D01*
X5180008Y4924149D01*
Y4907488D01*
X5188339Y4899157D01*
X4975008Y4815851D02*
X5024992D01*
Y4840843D01*
X5016661Y4849173D01*
X4983339D01*
X4975008Y4840843D01*
Y4815851D01*
X5024992Y4865835D02*
Y4882496D01*
Y4874165D01*
X4975008D01*
X4983339Y4865835D01*
X5024992Y4907488D02*
Y4924149D01*
Y4915818D01*
X4975008D01*
X4983339Y4907488D01*
X4977520Y5399992D02*
Y5350008D01*
X5002512D01*
X5010843Y5358339D01*
Y5391661D01*
X5002512Y5399992D01*
X4977520D01*
X5027504Y5350008D02*
X5044165D01*
X5035835D01*
Y5399992D01*
X5027504Y5391661D01*
X5069157D02*
X5077488Y5399992D01*
X5094149D01*
X5102480Y5391661D01*
Y5358339D01*
X5094149Y5350008D01*
X5077488D01*
X5069157Y5358339D01*
Y5391661D01*
X5013347Y5319992D02*
Y5270008D01*
X5038339D01*
X5046669Y5278339D01*
Y5311661D01*
X5038339Y5319992D01*
X5013347D01*
X5063331Y5278339D02*
X5071661Y5270008D01*
X5088323D01*
X5096653Y5278339D01*
Y5311661D01*
X5088323Y5319992D01*
X5071661D01*
X5063331Y5311661D01*
Y5303331D01*
X5071661Y5295000D01*
X5096653D01*
X5008347Y5239992D02*
Y5190008D01*
X5033339D01*
X5041669Y5198339D01*
Y5231661D01*
X5033339Y5239992D01*
X5008347D01*
X5058331Y5231661D02*
X5066661Y5239992D01*
X5083323D01*
X5091653Y5231661D01*
Y5223331D01*
X5083323Y5215000D01*
X5091653Y5206669D01*
Y5198339D01*
X5083323Y5190008D01*
X5066661D01*
X5058331Y5198339D01*
Y5206669D01*
X5066661Y5215000D01*
X5058331Y5223331D01*
Y5231661D01*
X5066661Y5215000D02*
X5083323D01*
X2788347Y5114992D02*
Y5065008D01*
X2813339D01*
X2821669Y5073339D01*
Y5106661D01*
X2813339Y5114992D01*
X2788347D01*
X2838331D02*
X2871653D01*
Y5106661D01*
X2838331Y5073339D01*
Y5065008D01*
X3200008Y4554449D02*
X3249992D01*
Y4579441D01*
X3241661Y4587772D01*
X3208339D01*
X3200008Y4579441D01*
Y4554449D01*
Y4637756D02*
X3208339Y4621094D01*
X3225000Y4604433D01*
X3241661D01*
X3249992Y4612764D01*
Y4629425D01*
X3241661Y4637756D01*
X3233331D01*
X3225000Y4629425D01*
Y4604433D01*
X3035008Y4558347D02*
X3084992D01*
Y4583339D01*
X3076661Y4591669D01*
X3043339D01*
X3035008Y4583339D01*
Y4558347D01*
Y4641653D02*
Y4608331D01*
X3060000D01*
X3051669Y4624992D01*
Y4633322D01*
X3060000Y4641653D01*
X3076661D01*
X3084992Y4633322D01*
Y4616661D01*
X3076661Y4608331D01*
X3642126Y4594992D02*
Y4545008D01*
X3667118D01*
X3675449Y4553339D01*
Y4586661D01*
X3667118Y4594992D01*
X3642126D01*
X3717102Y4545008D02*
Y4594992D01*
X3692110Y4570000D01*
X3725433D01*
X3642126Y4689992D02*
Y4640008D01*
X3667118D01*
X3675449Y4648339D01*
Y4681661D01*
X3667118Y4689992D01*
X3642126D01*
X3692110Y4681661D02*
X3700441Y4689992D01*
X3717102D01*
X3725433Y4681661D01*
Y4673331D01*
X3717102Y4665000D01*
X3708771D01*
X3717102D01*
X3725433Y4656669D01*
Y4648339D01*
X3717102Y4640008D01*
X3700441D01*
X3692110Y4648339D01*
X2783347Y4949992D02*
Y4900008D01*
X2808339D01*
X2816669Y4908339D01*
Y4941661D01*
X2808339Y4949992D01*
X2783347D01*
X2866653Y4900008D02*
X2833331D01*
X2866653Y4933331D01*
Y4941661D01*
X2858323Y4949992D01*
X2841661D01*
X2833331Y4941661D01*
X3537780Y4989992D02*
Y4940008D01*
X3562772D01*
X3571102Y4948339D01*
Y4981661D01*
X3562772Y4989992D01*
X3537780D01*
X3587764Y4940008D02*
X3604425D01*
X3596094D01*
Y4989992D01*
X3587764Y4981661D01*
X7141661Y3808322D02*
X7149992Y3816653D01*
Y3833314D01*
X7141661Y3841645D01*
X7108339D01*
X7100008Y3833314D01*
Y3816653D01*
X7108339Y3808322D01*
X7141661Y3791661D02*
X7149992Y3783331D01*
Y3766669D01*
X7141661Y3758338D01*
X7133331D01*
X7125000Y3766669D01*
Y3775000D01*
Y3766669D01*
X7116669Y3758338D01*
X7108339D01*
X7100008Y3766669D01*
Y3783331D01*
X7108339Y3791661D01*
X7100008Y3708355D02*
Y3741677D01*
X7133331Y3708355D01*
X7141661D01*
X7149992Y3716685D01*
Y3733347D01*
X7141661Y3741677D01*
X6870008Y3231661D02*
X6861677Y3239992D01*
X6845016D01*
X6836686Y3231661D01*
Y3198339D01*
X6845016Y3190008D01*
X6861677D01*
X6870008Y3198339D01*
X6886669Y3231661D02*
X6895000Y3239992D01*
X6911661D01*
X6919992Y3231661D01*
Y3223331D01*
X6911661Y3215000D01*
X6903331D01*
X6911661D01*
X6919992Y3206669D01*
Y3198339D01*
X6911661Y3190008D01*
X6895000D01*
X6886669Y3198339D01*
X6936653Y3190008D02*
X6953315D01*
X6944984D01*
Y3239992D01*
X6936653Y3231661D01*
X7166677Y3961661D02*
X7158347Y3969992D01*
X7141685D01*
X7133355Y3961661D01*
Y3928339D01*
X7141685Y3920008D01*
X7158347D01*
X7166677Y3928339D01*
X7183339Y3961661D02*
X7191669Y3969992D01*
X7208331D01*
X7216661Y3961661D01*
Y3953331D01*
X7208331Y3945000D01*
X7200000D01*
X7208331D01*
X7216661Y3936669D01*
Y3928339D01*
X7208331Y3920008D01*
X7191669D01*
X7183339Y3928339D01*
X7233323Y3961661D02*
X7241653Y3969992D01*
X7258314D01*
X7266645Y3961661D01*
Y3928339D01*
X7258314Y3920008D01*
X7241653D01*
X7233323Y3928339D01*
Y3961661D01*
X6703338Y3736677D02*
X6695008Y3728347D01*
Y3711686D01*
X6703338Y3703355D01*
X6736661D01*
X6744992Y3711686D01*
Y3728347D01*
X6736661Y3736677D01*
X6744992Y3786661D02*
Y3753339D01*
X6711669Y3786661D01*
X6703338D01*
X6695008Y3778331D01*
Y3761669D01*
X6703338Y3753339D01*
X6736661Y3803323D02*
X6744992Y3811653D01*
Y3828314D01*
X6736661Y3836645D01*
X6703338D01*
X6695008Y3828314D01*
Y3811653D01*
X6703338Y3803323D01*
X6711669D01*
X6720000Y3811653D01*
Y3836645D01*
X7236677Y3221661D02*
X7228347Y3229992D01*
X7211685D01*
X7203355Y3221661D01*
Y3188339D01*
X7211685Y3180008D01*
X7228347D01*
X7236677Y3188339D01*
X7286661Y3180008D02*
X7253339D01*
X7286661Y3213331D01*
Y3221661D01*
X7278331Y3229992D01*
X7261669D01*
X7253339Y3221661D01*
X7303323D02*
X7311653Y3229992D01*
X7328314D01*
X7336645Y3221661D01*
Y3213331D01*
X7328314Y3205000D01*
X7336645Y3196669D01*
Y3188339D01*
X7328314Y3180008D01*
X7311653D01*
X7303323Y3188339D01*
Y3196669D01*
X7311653Y3205000D01*
X7303323Y3213331D01*
Y3221661D01*
X7311653Y3205000D02*
X7328314D01*
X6772150Y3961661D02*
X6763819Y3969992D01*
X6747158D01*
X6738827Y3961661D01*
Y3928339D01*
X6747158Y3920008D01*
X6763819D01*
X6772150Y3928339D01*
X6822134Y3920008D02*
X6788811D01*
X6822134Y3953331D01*
Y3961661D01*
X6813803Y3969992D01*
X6797142D01*
X6788811Y3961661D01*
X6838795Y3969992D02*
X6872118D01*
Y3961661D01*
X6838795Y3928339D01*
Y3920008D01*
X3891677Y3091661D02*
X3883347Y3099992D01*
X3866686D01*
X3858355Y3091661D01*
Y3058339D01*
X3866686Y3050008D01*
X3883347D01*
X3891677Y3058339D01*
X3941661Y3050008D02*
X3908339D01*
X3941661Y3083331D01*
Y3091661D01*
X3933331Y3099992D01*
X3916669D01*
X3908339Y3091661D01*
X3991645Y3099992D02*
X3974984Y3091661D01*
X3958323Y3075000D01*
Y3058339D01*
X3966653Y3050008D01*
X3983314D01*
X3991645Y3058339D01*
Y3066669D01*
X3983314Y3075000D01*
X3958323D01*
X4058338Y3076677D02*
X4050008Y3068347D01*
Y3051686D01*
X4058338Y3043355D01*
X4091661D01*
X4099992Y3051686D01*
Y3068347D01*
X4091661Y3076677D01*
X4099992Y3126661D02*
Y3093339D01*
X4066669Y3126661D01*
X4058338D01*
X4050008Y3118331D01*
Y3101669D01*
X4058338Y3093339D01*
X4050008Y3176645D02*
Y3143323D01*
X4075000D01*
X4066669Y3159984D01*
Y3168314D01*
X4075000Y3176645D01*
X4091661D01*
X4099992Y3168314D01*
Y3151653D01*
X4091661Y3143323D01*
X2828677Y4146661D02*
X2820347Y4154992D01*
X2803686D01*
X2795355Y4146661D01*
Y4113339D01*
X2803686Y4105008D01*
X2820347D01*
X2828677Y4113339D01*
X2878661Y4105008D02*
X2845339D01*
X2878661Y4138331D01*
Y4146661D01*
X2870331Y4154992D01*
X2853669D01*
X2845339Y4146661D01*
X2920314Y4105008D02*
Y4154992D01*
X2895323Y4130000D01*
X2928645D01*
X3061677Y4146661D02*
X3053347Y4154992D01*
X3036686D01*
X3028355Y4146661D01*
Y4113339D01*
X3036686Y4105008D01*
X3053347D01*
X3061677Y4113339D01*
X3111661Y4105008D02*
X3078339D01*
X3111661Y4138331D01*
Y4146661D01*
X3103331Y4154992D01*
X3086669D01*
X3078339Y4146661D01*
X3128323D02*
X3136653Y4154992D01*
X3153314D01*
X3161645Y4146661D01*
Y4138331D01*
X3153314Y4130000D01*
X3144984D01*
X3153314D01*
X3161645Y4121669D01*
Y4113339D01*
X3153314Y4105008D01*
X3136653D01*
X3128323Y4113339D01*
X3266677Y4146661D02*
X3258347Y4154992D01*
X3241686D01*
X3233355Y4146661D01*
Y4113339D01*
X3241686Y4105008D01*
X3258347D01*
X3266677Y4113339D01*
X3316661Y4105008D02*
X3283339D01*
X3316661Y4138331D01*
Y4146661D01*
X3308331Y4154992D01*
X3291669D01*
X3283339Y4146661D01*
X3366645Y4105008D02*
X3333323D01*
X3366645Y4138331D01*
Y4146661D01*
X3358314Y4154992D01*
X3341653D01*
X3333323Y4146661D01*
X3470008Y4106661D02*
X3461677Y4114992D01*
X3445016D01*
X3436686Y4106661D01*
Y4073339D01*
X3445016Y4065008D01*
X3461677D01*
X3470008Y4073339D01*
X3519992Y4065008D02*
X3486669D01*
X3519992Y4098331D01*
Y4106661D01*
X3511661Y4114992D01*
X3495000D01*
X3486669Y4106661D01*
X3536653Y4065008D02*
X3553314D01*
X3544984D01*
Y4114992D01*
X3536653Y4106661D01*
X8008339Y5249709D02*
X8000008Y5241378D01*
Y5224717D01*
X8008339Y5216386D01*
X8041661D01*
X8049992Y5224717D01*
Y5241378D01*
X8041661Y5249709D01*
X8049992Y5299693D02*
Y5266370D01*
X8016669Y5299693D01*
X8008339D01*
X8000008Y5291362D01*
Y5274701D01*
X8008339Y5266370D01*
Y5316354D02*
X8000008Y5324685D01*
Y5341346D01*
X8008339Y5349676D01*
X8041661D01*
X8049992Y5341346D01*
Y5324685D01*
X8041661Y5316354D01*
X8008339D01*
X7103339Y5291315D02*
X7095008Y5282984D01*
Y5266323D01*
X7103339Y5257993D01*
X7136661D01*
X7144992Y5266323D01*
Y5282984D01*
X7136661Y5291315D01*
X7144992Y5307976D02*
Y5324638D01*
Y5316307D01*
X7095008D01*
X7103339Y5307976D01*
X7136661Y5349630D02*
X7144992Y5357960D01*
Y5374621D01*
X7136661Y5382952D01*
X7103339D01*
X7095008Y5374621D01*
Y5357960D01*
X7103339Y5349630D01*
X7111669D01*
X7120000Y5357960D01*
Y5382952D01*
X6940843Y5321661D02*
X6932512Y5329992D01*
X6915851D01*
X6907520Y5321661D01*
Y5288339D01*
X6915851Y5280008D01*
X6932512D01*
X6940843Y5288339D01*
X6957504Y5280008D02*
X6974165D01*
X6965835D01*
Y5329992D01*
X6957504Y5321661D01*
X6999157D02*
X7007488Y5329992D01*
X7024149D01*
X7032480Y5321661D01*
Y5313331D01*
X7024149Y5305000D01*
X7032480Y5296669D01*
Y5288339D01*
X7024149Y5280008D01*
X7007488D01*
X6999157Y5288339D01*
Y5296669D01*
X7007488Y5305000D01*
X6999157Y5313331D01*
Y5321661D01*
X7007488Y5305000D02*
X7024149D01*
X6945843Y5221661D02*
X6937512Y5229992D01*
X6920851D01*
X6912520Y5221661D01*
Y5188339D01*
X6920851Y5180008D01*
X6937512D01*
X6945843Y5188339D01*
X6962504Y5180008D02*
X6979165D01*
X6970835D01*
Y5229992D01*
X6962504Y5221661D01*
X7004157Y5229992D02*
X7037480D01*
Y5221661D01*
X7004157Y5188339D01*
Y5180008D01*
X6941315Y4686661D02*
X6932984Y4694992D01*
X6916323D01*
X6907993Y4686661D01*
Y4653339D01*
X6916323Y4645008D01*
X6932984D01*
X6941315Y4653339D01*
X6957976Y4645008D02*
X6974638D01*
X6966307D01*
Y4694992D01*
X6957976Y4686661D01*
X7032952Y4694992D02*
X7016291Y4686661D01*
X6999630Y4670000D01*
Y4653339D01*
X7007960Y4645008D01*
X7024622D01*
X7032952Y4653339D01*
Y4661669D01*
X7024622Y4670000D01*
X6999630D01*
X7475843Y4896661D02*
X7467512Y4904992D01*
X7450851D01*
X7442520Y4896661D01*
Y4863339D01*
X7450851Y4855008D01*
X7467512D01*
X7475843Y4863339D01*
X7492504Y4855008D02*
X7509165D01*
X7500835D01*
Y4904992D01*
X7492504Y4896661D01*
X7567480Y4904992D02*
X7534157D01*
Y4880000D01*
X7550819Y4888331D01*
X7559149D01*
X7567480Y4880000D01*
Y4863339D01*
X7559149Y4855008D01*
X7542488D01*
X7534157Y4863339D01*
X6688338Y5602260D02*
X6680008Y5593929D01*
Y5577268D01*
X6688338Y5568938D01*
X6721661D01*
X6729992Y5577268D01*
Y5593929D01*
X6721661Y5602260D01*
X6729992Y5618921D02*
Y5635583D01*
Y5627252D01*
X6680008D01*
X6688338Y5618921D01*
X6729992Y5685566D02*
X6680008D01*
X6705000Y5660574D01*
Y5693897D01*
X5767260Y5006661D02*
X5758929Y5014992D01*
X5742268D01*
X5733938Y5006661D01*
Y4973339D01*
X5742268Y4965008D01*
X5758929D01*
X5767260Y4973339D01*
X5783921Y4965008D02*
X5800583D01*
X5792252D01*
Y5014992D01*
X5783921Y5006661D01*
X5825574D02*
X5833905Y5014992D01*
X5850566D01*
X5858897Y5006661D01*
Y4998331D01*
X5850566Y4990000D01*
X5842236D01*
X5850566D01*
X5858897Y4981669D01*
Y4973339D01*
X5850566Y4965008D01*
X5833905D01*
X5825574Y4973339D01*
X4413339Y4290370D02*
X4405008Y4282040D01*
Y4265378D01*
X4413339Y4257048D01*
X4446661D01*
X4454992Y4265378D01*
Y4282040D01*
X4446661Y4290370D01*
X4454992Y4307032D02*
Y4323693D01*
Y4315362D01*
X4405008D01*
X4413339Y4307032D01*
X4454992Y4382007D02*
Y4348685D01*
X4421669Y4382007D01*
X4413339D01*
X4405008Y4373677D01*
Y4357015D01*
X4413339Y4348685D01*
X4448339Y5928701D02*
X4440008Y5920370D01*
Y5903709D01*
X4448339Y5895378D01*
X4481661D01*
X4489992Y5903709D01*
Y5920370D01*
X4481661Y5928701D01*
X4489992Y5945362D02*
Y5962024D01*
Y5953693D01*
X4440008D01*
X4448339Y5945362D01*
X4489992Y5987016D02*
Y6003677D01*
Y5995346D01*
X4440008D01*
X4448339Y5987016D01*
X4563339Y5926315D02*
X4555008Y5917984D01*
Y5901323D01*
X4563339Y5892993D01*
X4596661D01*
X4604992Y5901323D01*
Y5917984D01*
X4596661Y5926315D01*
X4604992Y5942976D02*
Y5959638D01*
Y5951307D01*
X4555008D01*
X4563339Y5942976D01*
Y5984630D02*
X4555008Y5992960D01*
Y6009621D01*
X4563339Y6017952D01*
X4596661D01*
X4604992Y6009621D01*
Y5992960D01*
X4596661Y5984630D01*
X4563339D01*
X4553339Y6151197D02*
X4545008Y6142866D01*
Y6126205D01*
X4553339Y6117874D01*
X4586661D01*
X4594992Y6126205D01*
Y6142866D01*
X4586661Y6151197D01*
Y6167858D02*
X4594992Y6176189D01*
Y6192850D01*
X4586661Y6201181D01*
X4553339D01*
X4545008Y6192850D01*
Y6176189D01*
X4553339Y6167858D01*
X4561669D01*
X4570000Y6176189D01*
Y6201181D01*
X4911661Y5783803D02*
X4919992Y5792134D01*
Y5808795D01*
X4911661Y5817126D01*
X4878339D01*
X4870008Y5808795D01*
Y5792134D01*
X4878339Y5783803D01*
X4911661Y5767142D02*
X4919992Y5758811D01*
Y5742150D01*
X4911661Y5733819D01*
X4903331D01*
X4895000Y5742150D01*
X4886669Y5733819D01*
X4878339D01*
X4870008Y5742150D01*
Y5758811D01*
X4878339Y5767142D01*
X4886669D01*
X4895000Y5758811D01*
X4903331Y5767142D01*
X4911661D01*
X4895000Y5758811D02*
Y5742150D01*
X4273338Y5705252D02*
X4265008Y5696921D01*
Y5680260D01*
X4273338Y5671930D01*
X4306661D01*
X4314992Y5680260D01*
Y5696921D01*
X4306661Y5705252D01*
X4265008Y5721913D02*
Y5755236D01*
X4273338D01*
X4306661Y5721913D01*
X4314992D01*
X4353339Y5715725D02*
X4345008Y5707394D01*
Y5690733D01*
X4353339Y5682402D01*
X4386661D01*
X4394992Y5690733D01*
Y5707394D01*
X4386661Y5715725D01*
X4345008Y5765708D02*
X4353339Y5749047D01*
X4370000Y5732386D01*
X4386661D01*
X4394992Y5740716D01*
Y5757378D01*
X4386661Y5765708D01*
X4378331D01*
X4370000Y5757378D01*
Y5732386D01*
X4973339Y5776669D02*
X4965008Y5768339D01*
Y5751677D01*
X4973339Y5743347D01*
X5006661D01*
X5014992Y5751677D01*
Y5768339D01*
X5006661Y5776669D01*
X4965008Y5826653D02*
Y5793331D01*
X4990000D01*
X4981669Y5809992D01*
Y5818322D01*
X4990000Y5826653D01*
X5006661D01*
X5014992Y5818322D01*
Y5801661D01*
X5006661Y5793331D01*
X5058339Y5781197D02*
X5050008Y5772866D01*
Y5756205D01*
X5058339Y5747874D01*
X5091661D01*
X5099992Y5756205D01*
Y5772866D01*
X5091661Y5781197D01*
X5099992Y5822850D02*
X5050008D01*
X5075000Y5797858D01*
Y5831181D01*
X4233835Y5236661D02*
X4225504Y5244992D01*
X4208843D01*
X4200512Y5236661D01*
Y5203339D01*
X4208843Y5195008D01*
X4225504D01*
X4233835Y5203339D01*
X4250496Y5236661D02*
X4258827Y5244992D01*
X4275488D01*
X4283819Y5236661D01*
Y5228331D01*
X4275488Y5220000D01*
X4267157D01*
X4275488D01*
X4283819Y5211669D01*
Y5203339D01*
X4275488Y5195008D01*
X4258827D01*
X4250496Y5203339D01*
X4236197Y5151661D02*
X4227866Y5159992D01*
X4211205D01*
X4202874Y5151661D01*
Y5118339D01*
X4211205Y5110008D01*
X4227866D01*
X4236197Y5118339D01*
X4286181Y5110008D02*
X4252858D01*
X4286181Y5143331D01*
Y5151661D01*
X4277850Y5159992D01*
X4261189D01*
X4252858Y5151661D01*
X3228339Y5713583D02*
X3220008Y5705252D01*
Y5688591D01*
X3228339Y5680260D01*
X3261661D01*
X3269992Y5688591D01*
Y5705252D01*
X3261661Y5713583D01*
X3269992Y5730244D02*
Y5746905D01*
Y5738575D01*
X3220008D01*
X3228339Y5730244D01*
D160*
X5127000Y4255347D02*
X5093677Y4288669D01*
X5127000D02*
X5093677Y4255347D01*
X5127000Y4272008D02*
X5093677D01*
X5110339Y4288669D02*
Y4255347D01*
X7070000Y5201653D02*
X7103323Y5168331D01*
X7070000D02*
X7103323Y5201653D01*
X7070000Y5184992D02*
X7103323D01*
X7086661Y5168331D02*
Y5201653D01*
%TF.MD5,a41719ff0a3946449b6bf9617114ffc8*%
M02*
