M48
;Layer_Color=9474304
;FILE_FORMAT=2:5
INCH,LZ
;TYPE=PLATED
T1F00S00C0.00787
T2F00S00C0.00800
T3F00S00C0.02362
T4F00S00C0.02800
T5F00S00C0.02953
T6F00S00C0.03937
T7F00S00C0.04000
T8F00S00C0.04016
T9F00S00C0.04331
T10F00S00C0.05118
T11F00S00C0.12500
T12F00S00C0.15748
%
T01
X0267717Y0429134
X0318898Y0452756
X0314961Y0464567
X0417323Y046063
X0425197Y0456693
Y0409449
X0484587Y0418284
Y0423716
X04875Y0421
X0490413Y0423716
Y0418284
X0535433Y0468504
X061811Y0409449
X0677165Y0440945
Y0464567
X0716535Y0456693
X0728346Y0448819
X0744095Y0417323
X0716535Y0409449
Y0385827
X0722945Y0350315
X0727
X0731055
X0724409Y0330709
X0767717
X0677165
X0684945Y03495
X0689
X0693055
X0723Y04776
X0740158Y0476378
X0755905Y0488189
X073605Y0507018
X0732283Y0503937
X0728346Y0523622
X0712598
Y0535433
X0704724Y0512837
X0708661Y05
X0669291
Y0515748
X0677165Y0519685
Y0527559
X0681102Y0555118
X0708661Y0566929
X0700787Y0586614
X0692913Y0582677
X0688976Y0614173
X0677165
X0637795Y0590551
Y0574803
Y0551181
X0625984Y0515748
X0637795Y0488189
X0767717Y0523622
X0779528Y0551181
X0755905Y0574803
X0732283Y0606299
X0736221Y0622047
X0622047Y0610236
X0614173Y0614173
X0602362Y0602362
X0590551Y0598425
X057874Y0594488
X0570866Y0610236
X0566929Y0622047
X0574803Y0574803
X0586614Y0555118
Y0543307
Y0535433
Y0531496
X0570866Y053937
X0562992
Y0551181
X0543307
X0559055Y0531496
X0574803Y0519538
X0582677Y05
X0606299Y0507874
Y0519538
X0610236Y0515748
X0622047Y0551181
X0594488Y0559055
X0610236Y057874
X0622047Y0586614
X0511811Y0602362
X0488189Y0598425
X0480315Y057874
X0484252Y0566929
X0496063Y0570866
Y0559055
Y053937
X0488189Y0543307
X0480315
Y0535433
Y0527559
X0476378Y0523622
X0472441Y0527559
Y053937
X0484252Y0551181
X0480315Y0555118
X0503937Y0543307
Y0523622
Y0511811
X05
X0492126
X0488189Y0507874
X0484252
X0496063Y0496063
X0507874Y0484252
X0511811Y0511811
X0527559Y0515748
X0555118Y0496063
X0562992Y0480315
X0472441
X0480315Y0472441
X0464567Y0476378
X0468504Y0484252
Y0488189
Y0492126
X0464567Y0496063
Y0507874
Y0511811
X0468504Y0515748
X0456693
X0452756Y0511811
X0448819
Y0507874
X0440945
X0448819Y0519685
Y0527559
Y0531496
Y0535433
X0456693Y053937
X0468504
X0464567Y0535433
Y0531496
X0433071
X0437008Y0527559
X0429134Y0523622
X042126Y0527559
X0409449
X0405512Y0535433
X0393701Y0531496
X0385827Y0543307
X0405512Y0515748
X0409449Y0507874
X0405512Y05
X0401575Y0496063
X0362205
X0354331Y0492126
X0350394Y0503937
Y0519685
X0346457
X0338583Y0559055
X0322835Y0570866
X0314961Y0574803
X034252Y0594488
X038189
Y0614173
X046063
X0440945Y0559055
Y0551181
X0295276Y0559055
X0291339Y0531496
X0307087Y0511811
X0299213Y0472441
X0283465Y0484252
Y0582677
X0433071Y0653543
X0444882Y065748
Y0645669
X0464567Y0629921
X0472441Y0641732
Y0649606
X0480315Y0645669
Y0653543
X0488189Y0661417
X0496063Y0653543
X05Y0673228
X0535433Y0669291
X0523622Y0653543
Y0645669
X0551181Y0653543
X0594488Y0649606
X0582677Y0669291
X0606299
X0622047Y0661417
X061811Y0633858
X0484252Y0637795
X0641732Y0633858
X0645669Y0661417
T02
X02575Y04075
Y04125
X03557Y04091
X037Y04253
X03925Y04143
X04423Y04389
X04535Y04314
X03548Y0457
X03556Y04667
X04795Y04631
X04947Y04648
X05073Y04655
X05422Y0451
X05769Y04516
X05911Y04478
X05977Y04479
X05946Y04439
X0597Y04397
X05912
X06064Y04324
X06118Y04325
X05915Y04141
X05914Y04029
X04777Y03847
X04823Y04346
X06468Y04338
X06488Y04572
X06556Y03938
X06741Y04033
X06807Y0388
X06278Y03936
X06323Y03727
X06754Y05117
X06925Y0508816
X07118Y04807
X07249Y04848
X07714Y04874
X06365Y06102
X06333Y06244
X05208Y0501
X04958Y05248
X05407Y04691
X0459Y05576
X04579Y05894
X04475Y0589
X03445Y05881
T03
X04285Y0461
Y0466
X04335
Y0461
X04385
Y0466
X04435
Y0461
X04485
Y0466
X04535
Y0461
X04585
Y0466
T04
X05079Y02897
X04172Y03355
X05035Y0342
X05674Y04142
X05394Y04589
X0472441Y0448819
X0744095Y0484252
X0746204Y051536
X07424Y0526
X0614173Y0559055
X0574803Y0562992
X0496063Y0488189
T05
X02875Y0384658
Y0404343
X0308
Y0384658
X0329Y03845
Y0404185
T06
X05505Y0286
Y0306
X05795Y0307
Y0287
X0309Y0355
X0329
X0354
X0374
X0399
X0419
X0444
X0464
X05485Y03515
Y03315
X05825Y03325
Y03525
T07
X05265Y0451
X0684Y0421
X07245Y04225
T08
X0405Y0445
Y0455
Y0465
X0699Y04475
X0709
X05205Y04735
X05105
X05005
X053Y05865
Y05965
Y06065
T09
X0605Y0282
X0382122Y04365
Y04465
Y04565
Y04665
X0628228Y0356016
X0788Y0414315
Y0434
Y0464657
Y0484342
X06485Y0487
Y0477
Y0497
Y0507
Y0517
Y0527
Y0537
Y0547
Y0557
Y0567
Y0577
Y0587
Y0597
Y0607
Y0617
X0382122Y04765
X06485Y0627
T10
X04355Y0296315
X0445342Y0325842
X0425658
T11
X0712363Y0295059
X0356113
Y0638809
X0712363
T12
X04765Y0279
X03955Y0278
M30
