%TF.GenerationSoftware,Altium Limited,Altium Designer,21.0.9 (235)*%
G04 Layer_Color=16711935*
%FSLAX26Y26*%
%MOIN*%
%TF.SameCoordinates,5BE5EA85-216B-4E4C-B8B6-EAA837D7D1E1*%
%TF.FilePolarity,Positive*%
%TF.FileFunction,Other,Mechanical_1*%
%TF.Part,Single*%
G01*
G75*
%TA.AperFunction,NonConductor*%
%ADD105C,0.006000*%
%ADD152C,0.003937*%
%ADD159C,0.010000*%
%ADD209C,0.000500*%
%ADD210C,0.007000*%
%ADD211C,0.002362*%
D105*
X5081456Y2089010D02*
X5101450D01*
X5091453D01*
Y2148990D01*
X5081456Y2138994D01*
X5161431Y2089010D02*
Y2148990D01*
X5131440Y2119000D01*
X5171427D01*
X5221411Y2089010D02*
Y2148990D01*
X5191421Y2119000D01*
X5231408D01*
X5251401Y2089010D02*
Y2099006D01*
X5261398D01*
Y2089010D01*
X5251401D01*
X5301385Y2138994D02*
X5311382Y2148990D01*
X5331376D01*
X5341372Y2138994D01*
Y2128997D01*
X5331376Y2119000D01*
X5341372Y2109003D01*
Y2099006D01*
X5331376Y2089010D01*
X5311382D01*
X5301385Y2099006D01*
Y2109003D01*
X5311382Y2119000D01*
X5301385Y2128997D01*
Y2138994D01*
X5311382Y2119000D02*
X5331376D01*
X5401353Y2089010D02*
X5361366D01*
X5401353Y2128997D01*
Y2138994D01*
X5391356Y2148990D01*
X5371363D01*
X5361366Y2138994D01*
X5421346Y2089010D02*
X5441340D01*
X5431343D01*
Y2148990D01*
X5421346Y2138994D01*
X5471330Y2089010D02*
Y2128997D01*
X5481327D01*
X5491324Y2119000D01*
Y2089010D01*
Y2119000D01*
X5501320Y2128997D01*
X5511317Y2119000D01*
Y2089010D01*
X5531311D02*
Y2128997D01*
X5541308D01*
X5551304Y2119000D01*
Y2089010D01*
Y2119000D01*
X5561301Y2128997D01*
X5571298Y2119000D01*
Y2089010D01*
X2003990Y4408422D02*
Y4428415D01*
Y4418418D01*
X1944010D01*
X1954006Y4408422D01*
Y4458405D02*
X1944010Y4468402D01*
Y4488396D01*
X1954006Y4498392D01*
X1993994D01*
X2003990Y4488396D01*
Y4468402D01*
X1993994Y4458405D01*
X1954006D01*
X1944010Y4558373D02*
X1954006Y4538379D01*
X1974000Y4518386D01*
X1993994D01*
X2003990Y4528383D01*
Y4548376D01*
X1993994Y4558373D01*
X1983997D01*
X1974000Y4548376D01*
Y4518386D01*
X2003990Y4578367D02*
X1993994D01*
Y4588363D01*
X2003990D01*
Y4578367D01*
X1944010Y4628350D02*
Y4668337D01*
X1954006D01*
X1993994Y4628350D01*
X2003990D01*
Y4728318D02*
Y4688331D01*
X1964003Y4728318D01*
X1954006D01*
X1944010Y4718321D01*
Y4698328D01*
X1954006Y4688331D01*
X2003990Y4748311D02*
Y4768305D01*
Y4758308D01*
X1944010D01*
X1954006Y4748311D01*
X2003990Y4798295D02*
X1964003D01*
Y4808292D01*
X1974000Y4818289D01*
X2003990D01*
X1974000D01*
X1964003Y4828286D01*
X1974000Y4838282D01*
X2003990D01*
Y4858276D02*
X1964003D01*
Y4868273D01*
X1974000Y4878269D01*
X2003990D01*
X1974000D01*
X1964003Y4888266D01*
X1974000Y4898263D01*
X2003990D01*
D152*
X6030315Y2747165D02*
Y3632992D01*
X6301968D01*
Y2747165D02*
Y3632992D01*
X6030315Y2747165D02*
X6301968D01*
X4914984Y4265000D02*
X4873331D01*
X4865000Y4256669D01*
Y4240008D01*
X4873331Y4231677D01*
X4914984D01*
X4865000Y4215016D02*
Y4198355D01*
Y4206686D01*
X4914984D01*
X4906653Y4215016D01*
Y4173363D02*
X4914984Y4165032D01*
Y4148371D01*
X4906653Y4140040D01*
X4898323D01*
X4889992Y4148371D01*
Y4156702D01*
Y4148371D01*
X4881661Y4140040D01*
X4873331D01*
X4865000Y4148371D01*
Y4165032D01*
X4873331Y4173363D01*
D159*
X8193178Y2115000D02*
Y3394690D01*
X2491577Y2115000D02*
Y3394690D01*
X5587298Y2125000D02*
X8193178D01*
X2491577D02*
X5065456D01*
X8133178Y2145000D02*
X8193178Y2125000D01*
X8133178Y2105000D02*
X8193178Y2125000D01*
X2491577D02*
X2551577Y2105000D01*
X2491577Y2125000D02*
X2551577Y2145000D01*
X1958000Y2568542D02*
X3324719D01*
X1958000Y6770143D02*
X3324719D01*
X1968000Y2568542D02*
Y4392422D01*
Y4914263D02*
Y6770143D01*
Y2568542D02*
X1988000Y2628542D01*
X1948000D02*
X1968000Y2568542D01*
X1948000Y6710143D02*
X1968000Y6770143D01*
X1988000Y6710143D01*
D209*
X2616577Y6058744D02*
G03*
X2491577Y5933744I0J-125000D01*
G01*
X2814968Y6058744D02*
G03*
X3209969Y6453745I0J395001D01*
G01*
X3334969Y6770143D02*
G03*
X3209969Y6645143I0J-125000D01*
G01*
X7474785D02*
G03*
X7349785Y6770143I-125000J0D01*
G01*
X7474785Y6453745D02*
G03*
X7869786Y6058744I395001J0D01*
G01*
X8193178Y5933744D02*
G03*
X8068178Y6058744I-125000J0D01*
G01*
Y3279940D02*
G03*
X8193178Y3404940I0J125000D01*
G01*
X7869786Y3279940D02*
G03*
X7474785Y2884940I0J-395001D01*
G01*
X7349785Y2568542D02*
G03*
X7474785Y2693542I0J125000D01*
G01*
X3209969D02*
G03*
X3334969Y2568542I125000J0D01*
G01*
X3209969Y2884940D02*
G03*
X2814968Y3279940I-395001J0D01*
G01*
X2491577Y3404940D02*
G03*
X2616577Y3279940I125000J0D01*
G01*
X7873627Y3575592D02*
G03*
X7873627Y3575592I-62500J0D01*
G01*
X7186127Y6388092D02*
G03*
X7186127Y6388092I-62500J0D01*
G01*
X3623627Y2950592D02*
G03*
X3623627Y2950592I-62500J0D01*
G01*
X2936127Y5763092D02*
G03*
X2936127Y5763092I-62500J0D01*
G01*
X3623627Y6388092D02*
G03*
X3623627Y6388092I-62500J0D01*
G01*
X2936127Y3575592D02*
G03*
X2936127Y3575592I-62500J0D01*
G01*
X7186127Y2950592D02*
G03*
X7186127Y2950592I-62500J0D01*
G01*
X7873627Y5763092D02*
G03*
X7873627Y5763092I-62500J0D01*
G01*
X2616577Y6058744D02*
X2814968D01*
X3209969Y6453745D02*
Y6645143D01*
X3334969Y6770143D02*
X7349785D01*
X7474785Y6453745D02*
Y6645143D01*
X7869786Y6058744D02*
X8068178D01*
X8193178Y3404940D02*
Y5933744D01*
X7869786Y3279940D02*
X8068178D01*
X7474785Y2693542D02*
Y2884940D01*
X3334969Y2568542D02*
X7349785D01*
X3209969Y2693542D02*
Y2884940D01*
X2616577Y3279940D02*
X2814968D01*
X2491577Y3404940D02*
Y5933744D01*
D210*
X5852795Y5441598D02*
Y5399945D01*
X5861126Y5391614D01*
X5877787D01*
X5886118Y5399945D01*
Y5441598D01*
X5927771Y5391614D02*
Y5441598D01*
X5902779Y5416606D01*
X5936102D01*
X5847795Y5840574D02*
Y5798921D01*
X5856126Y5790591D01*
X5872787D01*
X5881118Y5798921D01*
Y5840574D01*
X5897779Y5832244D02*
X5906110Y5840574D01*
X5922771D01*
X5931102Y5832244D01*
Y5823913D01*
X5922771Y5815582D01*
X5914440D01*
X5922771D01*
X5931102Y5807252D01*
Y5798921D01*
X5922771Y5790591D01*
X5906110D01*
X5897779Y5798921D01*
D211*
X3810000Y4139984D02*
Y4098331D01*
X3818331Y4090000D01*
X3834992D01*
X3843323Y4098331D01*
Y4139984D01*
X3859984Y4090000D02*
X3876645D01*
X3868314D01*
Y4139984D01*
X3859984Y4131653D01*
X3901637D02*
X3909968Y4139984D01*
X3926629D01*
X3934960Y4131653D01*
Y4098331D01*
X3926629Y4090000D01*
X3909968D01*
X3901637Y4098331D01*
Y4131653D01*
%TF.MD5,090f85859f10fac4cd5d99d1908d67c7*%
M02*
