%TF.GenerationSoftware,Altium Limited,Altium Designer,21.0.9 (235)*%
G04 Layer_Color=128*
%FSLAX26Y26*%
%MOIN*%
%TF.SameCoordinates,5BE5EA85-216B-4E4C-B8B6-EAA837D7D1E1*%
%TF.FilePolarity,Positive*%
%TF.FileFunction,Drillmap*%
%TF.Part,Single*%
G01*
G75*
%TA.AperFunction,NonConductor*%
%ADD157C,0.005000*%
D157*
X7069921Y4475000D02*
X7110079D01*
X7090000Y4454921D02*
Y4495079D01*
X6969921Y4475000D02*
X7010079D01*
X6990000Y4454921D02*
Y4495079D01*
X4427835Y3258425D02*
X4479016D01*
X4453425Y3232835D02*
Y3284016D01*
X4230984Y3258425D02*
X4282165D01*
X4256575Y3232835D02*
Y3284016D01*
X4329409Y2963150D02*
X4380591D01*
X4355000Y2937559D02*
Y2988740D01*
X3876260Y2780000D02*
X4033740D01*
X3955000Y2701260D02*
Y2858740D01*
X6820000Y4210000D02*
X6860000D01*
X6840000Y4190000D02*
Y4230000D01*
X7225000Y4225000D02*
X7265000D01*
X7245000Y4205000D02*
Y4245000D01*
X5245000Y4510000D02*
X5285000D01*
X5265000Y4490000D02*
Y4530000D01*
X3275236Y3845000D02*
X3304764D01*
X3290000Y3830236D02*
Y3859764D01*
X3275236Y4041850D02*
X3304764D01*
X3290000Y4027087D02*
Y4056614D01*
X3065236Y3846575D02*
X3094764D01*
X3080000Y3831811D02*
Y3861339D01*
X3065236Y4043425D02*
X3094764D01*
X3080000Y4028661D02*
Y4058189D01*
X2860236Y3846575D02*
X2889764D01*
X2875000Y3831811D02*
Y3861339D01*
X2860236Y4043425D02*
X2889764D01*
X2875000Y4028661D02*
Y4058189D01*
X3720315Y3550000D02*
X3759685D01*
X3740000Y3530315D02*
Y3569685D01*
X3520315Y3550000D02*
X3559685D01*
X3540000Y3530315D02*
Y3569685D01*
X3270315Y3550000D02*
X3309685D01*
X3290000Y3530315D02*
Y3569685D01*
X3070315Y3550000D02*
X3109685D01*
X3090000Y3530315D02*
Y3569685D01*
X4170315Y3550000D02*
X4209685D01*
X4190000Y3530315D02*
Y3569685D01*
X3970315Y3550000D02*
X4009685D01*
X3990000Y3530315D02*
Y3569685D01*
X7061127Y2950592D02*
X7186127D01*
X7123627Y2888092D02*
Y3013092D01*
X3498627Y2950592D02*
X3623627D01*
X3561127Y2888092D02*
Y3013092D01*
X3498627Y6388092D02*
X3623627D01*
X3561127Y6325592D02*
Y6450592D01*
X3799567Y4765000D02*
X3842874D01*
X3821220Y4743346D02*
Y4786654D01*
X3799567Y4665000D02*
X3842874D01*
X3821220Y4643346D02*
Y4686654D01*
X3799567Y4465000D02*
X3842874D01*
X3821220Y4443346D02*
Y4486654D01*
X3799567Y4365000D02*
X3842874D01*
X3821220Y4343346D02*
Y4386654D01*
X3799567Y4565000D02*
X3842874D01*
X3821220Y4543346D02*
Y4586654D01*
X7061127Y6388092D02*
X7186127D01*
X7123627Y6325592D02*
Y6450592D01*
X4686260Y2790000D02*
X4843740D01*
X4765000Y2711260D02*
Y2868740D01*
X6028346Y2820000D02*
X6071654D01*
X6050000Y2798347D02*
Y2841653D01*
X6260630Y3560157D02*
X6303937D01*
X6282283Y3538504D02*
Y3581811D01*
X5775315Y3070000D02*
X5814685D01*
X5795000Y3050315D02*
Y3089685D01*
X5775315Y2870000D02*
X5814685D01*
X5795000Y2850315D02*
Y2889685D01*
X5805315Y3325000D02*
X5844685D01*
X5825000Y3305315D02*
Y3344685D01*
X5805315Y3525000D02*
X5844685D01*
X5825000Y3505315D02*
Y3544685D01*
X5485315Y2860000D02*
X5524685D01*
X5505000Y2840315D02*
Y2879685D01*
X5485315Y3060000D02*
X5524685D01*
X5505000Y3040315D02*
Y3079685D01*
X5465315Y3515000D02*
X5504685D01*
X5485000Y3495315D02*
Y3534685D01*
X5465315Y3315000D02*
X5504685D01*
X5485000Y3295315D02*
Y3334685D01*
X4420315Y3550000D02*
X4459685D01*
X4440000Y3530315D02*
Y3569685D01*
X4620315Y3550000D02*
X4659685D01*
X4640000Y3530315D02*
Y3569685D01*
X6463346Y4770000D02*
X6506654D01*
X6485000Y4748346D02*
Y4791654D01*
X6463346Y4870000D02*
X6506654D01*
X6485000Y4848346D02*
Y4891654D01*
X6463346Y5170000D02*
X6506654D01*
X6485000Y5148346D02*
Y5191654D01*
X6463346Y5270000D02*
X6506654D01*
X6485000Y5248346D02*
Y5291654D01*
X6463346Y5370000D02*
X6506654D01*
X6485000Y5348346D02*
Y5391654D01*
X6463346Y5570000D02*
X6506654D01*
X6485000Y5548346D02*
Y5591654D01*
X6463346Y5670000D02*
X6506654D01*
X6485000Y5648346D02*
Y5691654D01*
X6463346Y5870000D02*
X6506654D01*
X6485000Y5848346D02*
Y5891654D01*
X6463346Y6070000D02*
X6506654D01*
X6485000Y6048346D02*
Y6091654D01*
X6463346Y6270000D02*
X6506654D01*
X6485000Y6248346D02*
Y6291654D01*
X6463346Y6170000D02*
X6506654D01*
X6485000Y6148346D02*
Y6191654D01*
X6463346Y5970000D02*
X6506654D01*
X6485000Y5948346D02*
Y5991654D01*
X6463346Y5770000D02*
X6506654D01*
X6485000Y5748346D02*
Y5791654D01*
X6463346Y5470000D02*
X6506654D01*
X6485000Y5448346D02*
Y5491654D01*
X6463346Y5070000D02*
X6506654D01*
X6485000Y5048346D02*
Y5091654D01*
X6463346Y4970000D02*
X6506654D01*
X6485000Y4948346D02*
Y4991654D01*
X5184921Y4735000D02*
X5225079D01*
X5205000Y4714921D02*
Y4755079D01*
X5084921Y4735000D02*
X5125079D01*
X5105000Y4714921D02*
Y4755079D01*
X4984921Y4735000D02*
X5025079D01*
X5005000Y4714921D02*
Y4755079D01*
X4273189Y4610000D02*
X4296811D01*
X4285000Y4598189D02*
Y4621811D01*
X4273189Y4660000D02*
X4296811D01*
X4285000Y4648189D02*
Y4671811D01*
X4323189Y4610000D02*
X4346811D01*
X4335000Y4598189D02*
Y4621811D01*
X4323189Y4660000D02*
X4346811D01*
X4335000Y4648189D02*
Y4671811D01*
X4373189Y4610000D02*
X4396811D01*
X4385000Y4598189D02*
Y4621811D01*
X4373189Y4660000D02*
X4396811D01*
X4385000Y4648189D02*
Y4671811D01*
X4423189Y4610000D02*
X4446811D01*
X4435000Y4598189D02*
Y4621811D01*
X4423189Y4660000D02*
X4446811D01*
X4435000Y4648189D02*
Y4671811D01*
X4473189Y4610000D02*
X4496811D01*
X4485000Y4598189D02*
Y4621811D01*
X4473189Y4660000D02*
X4496811D01*
X4485000Y4648189D02*
Y4671811D01*
X4523189Y4610000D02*
X4546811D01*
X4535000Y4598189D02*
Y4621811D01*
X4523189Y4660000D02*
X4546811D01*
X4535000Y4648189D02*
Y4671811D01*
X4573189Y4610000D02*
X4596811D01*
X4585000Y4598189D02*
Y4621811D01*
X4573189Y4660000D02*
X4596811D01*
X4585000Y4648189D02*
Y4671811D01*
X5279921Y5865000D02*
X5320079D01*
X5300000Y5844921D02*
Y5885079D01*
X5279921Y5965000D02*
X5320079D01*
X5300000Y5944921D02*
Y5985079D01*
X5279921Y6065000D02*
X5320079D01*
X5300000Y6044921D02*
Y6085079D01*
X4029921Y4650000D02*
X4070079D01*
X4050000Y4629921D02*
Y4670079D01*
X4029921Y4550000D02*
X4070079D01*
X4050000Y4529921D02*
Y4570079D01*
X4029921Y4450000D02*
X4070079D01*
X4050000Y4429921D02*
Y4470079D01*
X7858346Y4340000D02*
X7901654D01*
X7880000Y4318346D02*
Y4361654D01*
X7858346Y4143150D02*
X7901654D01*
X7880000Y4121496D02*
Y4164803D01*
X7858346Y4646575D02*
X7901654D01*
X7880000Y4624921D02*
Y4668228D01*
X7858346Y4843425D02*
X7901654D01*
X7880000Y4821772D02*
Y4865079D01*
X7710000Y4874000D02*
X7718000D01*
X7714000Y4870000D02*
Y4878000D01*
X4819000Y4346000D02*
X4827000D01*
X4823000Y4342000D02*
Y4350000D01*
X6361000Y6102000D02*
X6369000D01*
X6365000Y6098000D02*
Y6106000D01*
X6329000Y6244000D02*
X6337000D01*
X6333000Y6240000D02*
Y6248000D01*
X5069000Y4655000D02*
X5077000D01*
X5073000Y4651000D02*
Y4659000D01*
X4943000Y4648000D02*
X4951000D01*
X4947000Y4644000D02*
Y4652000D01*
X5204000Y5010000D02*
X5212000D01*
X5208000Y5006000D02*
Y5014000D01*
X3544000Y4570000D02*
X3552000D01*
X3548000Y4566000D02*
Y4574000D01*
X3552000Y4667000D02*
X3560000D01*
X3556000Y4663000D02*
Y4671000D01*
X3441000Y5881000D02*
X3449000D01*
X3445000Y5877000D02*
Y5885000D01*
X4956693Y5708661D02*
X4964567D01*
X4960630Y5704724D02*
Y5712598D01*
X4956693Y5590551D02*
X4964567D01*
X4960630Y5586614D02*
Y5594488D01*
X2571000Y4075000D02*
X2579000D01*
X2575000Y4071000D02*
Y4079000D01*
X2571000Y4125000D02*
X2579000D01*
X2575000Y4121000D02*
Y4129000D01*
X7410000Y5260000D02*
X7438000D01*
X7424000Y5246000D02*
Y5274000D01*
X7448044Y5153603D02*
X7476044D01*
X7462044Y5139603D02*
Y5167603D01*
X7356559Y5070184D02*
X7364433D01*
X7360496Y5066247D02*
Y5074120D01*
X7279528Y5236221D02*
X7287402D01*
X7283465Y5232283D02*
Y5240158D01*
X7043307Y5128370D02*
X7051181D01*
X7047244Y5124433D02*
Y5132307D01*
X6921000Y5088158D02*
X6929000D01*
X6925000Y5084158D02*
Y5092158D01*
X7245000Y4848000D02*
X7253000D01*
X7249000Y4844000D02*
Y4852000D01*
X7114000Y4807000D02*
X7122000D01*
X7118000Y4803000D02*
Y4811000D01*
X7226063Y4776000D02*
X7233937D01*
X7230000Y4772063D02*
Y4779937D01*
X6059055Y5195378D02*
X6066929D01*
X6062992Y5191441D02*
Y5199315D01*
X5744095Y5195378D02*
X5751968D01*
X5748032Y5191441D02*
Y5199315D01*
X6255905Y5157480D02*
X6263779D01*
X6259842Y5153543D02*
Y5161417D01*
X5035433Y5236221D02*
X5043307D01*
X5039370Y5232283D02*
Y5240158D01*
X7082677Y5000000D02*
X7090551D01*
X7086614Y4996063D02*
Y5003937D01*
X6688976Y5000000D02*
X6696850D01*
X6692913Y4996063D02*
Y5003937D01*
X6767717Y5196850D02*
X6775591D01*
X6771654Y5192913D02*
Y5200787D01*
X6750000Y5117000D02*
X6758000D01*
X6754000Y5113000D02*
Y5121000D01*
X6688976Y5157480D02*
X6696850D01*
X6692913Y5153543D02*
Y5161417D01*
X4954000Y5248000D02*
X4962000D01*
X4958000Y5244000D02*
Y5252000D01*
X4710409Y4488189D02*
X4738409D01*
X4724409Y4474189D02*
Y4502189D01*
X4720472Y6496063D02*
X4728346D01*
X4724409Y6492126D02*
Y6500000D01*
X4917323Y5118110D02*
X4925197D01*
X4921260Y5114173D02*
Y5122047D01*
X4444882Y6456693D02*
X4452756D01*
X4448819Y6452756D02*
Y6460630D01*
X4641732Y5314961D02*
X4649606D01*
X4645669Y5311024D02*
Y5318898D01*
X5940945Y6496063D02*
X5948819D01*
X5944882Y6492126D02*
Y6500000D01*
X4838583Y6377953D02*
X4846457D01*
X4842520Y6374016D02*
Y6381890D01*
X4838583Y5669291D02*
X4846457D01*
X4842520Y5665354D02*
Y5673228D01*
X4996063Y6732283D02*
X5003937D01*
X5000000Y6728346D02*
Y6736221D01*
X7122047Y5354331D02*
X7129921D01*
X7125984Y5350394D02*
Y5358268D01*
X7122047Y5236221D02*
X7129921D01*
X7125984Y5232283D02*
Y5240158D01*
X4484252Y5354331D02*
X4492126D01*
X4488189Y5350394D02*
Y5358268D01*
X2988189Y4724409D02*
X2996063D01*
X2992126Y4720472D02*
Y4728346D01*
X3539370Y4921260D02*
X3547244D01*
X3543307Y4917323D02*
Y4925197D01*
X4562992Y5157480D02*
X4570866D01*
X4566929Y5153543D02*
Y5161417D01*
X3500000Y5196850D02*
X3507874D01*
X3503937Y5192913D02*
Y5200787D01*
X4484252Y5196850D02*
X4492126D01*
X4488189Y5192913D02*
Y5200787D01*
X4051181Y5354331D02*
X4059055D01*
X4055118Y5350394D02*
Y5358268D01*
X3618110Y4960630D02*
X3625984D01*
X3622047Y4956693D02*
Y4964567D01*
X3933071Y5314961D02*
X3940945D01*
X3937008Y5311024D02*
Y5318898D01*
X3185039Y4527559D02*
X3192913D01*
X3188976Y4523622D02*
Y4531496D01*
X4523622Y5118110D02*
X4531496D01*
X4527559Y5114173D02*
Y5122047D01*
X3500000Y5039370D02*
X3507874D01*
X3503937Y5035433D02*
Y5043307D01*
X3066929Y5118110D02*
X3074803D01*
X3070866Y5114173D02*
Y5122047D01*
X5625984Y4803150D02*
X5633858D01*
X5629921Y4799213D02*
Y4807087D01*
X4838583Y5078740D02*
X4846457D01*
X4842520Y5074803D02*
Y5082677D01*
X3145669Y4645669D02*
X3153543D01*
X3149606Y4641732D02*
Y4649606D01*
X2830709Y4842520D02*
X2838583D01*
X2834646Y4838583D02*
Y4846457D01*
X2830709Y5826772D02*
X2838583D01*
X2834646Y5822835D02*
Y5830709D01*
X5665354Y6220472D02*
X5673228D01*
X5669291Y6216535D02*
Y6224409D01*
X5704724Y6102362D02*
X5712598D01*
X5708661Y6098425D02*
Y6106299D01*
X3145669Y5748032D02*
X3153543D01*
X3149606Y5744095D02*
Y5751968D01*
X7318898Y6062992D02*
X7326772D01*
X7322835Y6059055D02*
Y6066929D01*
X7318898Y5039370D02*
X7326772D01*
X7322835Y5035433D02*
Y5043307D01*
X7358268Y6220472D02*
X7366142D01*
X7362205Y6216535D02*
Y6224409D01*
X4799213Y5787402D02*
X4807087D01*
X4803150Y5783465D02*
Y5791339D01*
X4759842Y5236221D02*
X4767717D01*
X4763779Y5232283D02*
Y5240158D01*
X4602362Y6141732D02*
X4610236D01*
X4606299Y6137795D02*
Y6145669D01*
X4562992Y5393701D02*
X4570866D01*
X4566929Y5389764D02*
Y5397638D01*
X4051181Y5000000D02*
X4059055D01*
X4055118Y4996063D02*
Y5003937D01*
X4484252Y5314961D02*
X4492126D01*
X4488189Y5311024D02*
Y5318898D01*
X7555118Y4881890D02*
X7562992D01*
X7559055Y4877953D02*
Y4885827D01*
X7003937Y5866142D02*
X7011811D01*
X7007874Y5862205D02*
Y5870079D01*
X6216535Y5511811D02*
X6224409D01*
X6220472Y5507874D02*
Y5515748D01*
X6098425Y5157480D02*
X6106299D01*
X6102362Y5153543D02*
Y5161417D01*
X5940945Y5590551D02*
X5948819D01*
X5944882Y5586614D02*
Y5594488D01*
X4208661Y5275591D02*
X4216535D01*
X4212598Y5271654D02*
Y5279528D01*
X5862205Y5314961D02*
X5870079D01*
X5866142Y5311024D02*
Y5318898D01*
X6216535Y6102362D02*
X6224409D01*
X6220472Y6098425D02*
Y6106299D01*
X5114173Y5118110D02*
X5122047D01*
X5118110Y5114173D02*
Y5122047D01*
X5035433Y5118110D02*
X5043307D01*
X5039370Y5114173D02*
Y5122047D01*
X4158000Y3355000D02*
X4186000D01*
X4172000Y3341000D02*
Y3369000D01*
X6885827Y6141732D02*
X6893701D01*
X6889764Y6137795D02*
Y6145669D01*
X6767717Y6141732D02*
X6775591D01*
X6771654Y6137795D02*
Y6145669D01*
X3814961Y5944882D02*
X3822835D01*
X3818898Y5940945D02*
Y5948819D01*
X3814961Y6141732D02*
X3822835D01*
X3818898Y6137795D02*
Y6145669D01*
X4326772Y5314961D02*
X4334646D01*
X4330709Y5311024D02*
Y5318898D01*
X4326772Y6535433D02*
X4334646D01*
X4330709Y6531496D02*
Y6539370D01*
X4444882Y6574803D02*
X4452756D01*
X4448819Y6570866D02*
Y6578740D01*
X4366142Y5275591D02*
X4374016D01*
X4370079Y5271654D02*
Y5279528D01*
X5862205Y5551181D02*
X5870079D01*
X5866142Y5547244D02*
Y5555118D01*
X4641732Y4960630D02*
X4649606D01*
X4645669Y4956693D02*
Y4964567D01*
X5625984Y5511811D02*
X5633858D01*
X5629921Y5507874D02*
Y5515748D01*
X4641732Y5078740D02*
X4649606D01*
X4645669Y5074803D02*
Y5082677D01*
X5586614Y5314961D02*
X5594488D01*
X5590551Y5311024D02*
Y5318898D01*
X4641732Y5118110D02*
X4649606D01*
X4645669Y5114173D02*
Y5122047D01*
X5862205Y5433071D02*
X5870079D01*
X5866142Y5429134D02*
Y5437008D01*
X4681102Y4921260D02*
X4688976D01*
X4685039Y4917323D02*
Y4925197D01*
X5862205Y5354331D02*
X5870079D01*
X5866142Y5350394D02*
Y5358268D01*
X4799213Y5354331D02*
X4807087D01*
X4803150Y5350394D02*
Y5358268D01*
X5035433Y5433071D02*
X5043307D01*
X5039370Y5429134D02*
Y5437008D01*
X5704724Y5393701D02*
X5712598D01*
X5708661Y5389764D02*
Y5397638D01*
X5625984Y5393701D02*
X5633858D01*
X5629921Y5389764D02*
Y5397638D01*
X4956693Y5393701D02*
X4964567D01*
X4960630Y5389764D02*
Y5397638D01*
X4484252Y5275591D02*
X4492126D01*
X4488189Y5271654D02*
Y5279528D01*
X4720472Y5275591D02*
X4728346D01*
X4724409Y5271654D02*
Y5279528D01*
X4838583Y5511811D02*
X4846457D01*
X4842520Y5507874D02*
Y5515748D01*
X4484252Y5078740D02*
X4492126D01*
X4488189Y5074803D02*
Y5082677D01*
X4720472Y4803150D02*
X4728346D01*
X4724409Y4799213D02*
Y4807087D01*
X5350394Y4685039D02*
X5358268D01*
X5354331Y4681102D02*
Y4688976D01*
X5271654Y5157480D02*
X5279528D01*
X5275591Y5153543D02*
Y5161417D01*
X4681102Y5157480D02*
X4688976D01*
X4685039Y5153543D02*
Y5161417D01*
X4681102Y4881890D02*
X4688976D01*
X4685039Y4877953D02*
Y4885827D01*
X4946630Y4881890D02*
X4974630D01*
X4960630Y4867890D02*
Y4895890D01*
X5074803Y4842520D02*
X5082677D01*
X5078740Y4838583D02*
Y4846457D01*
X4799213Y5275591D02*
X4807087D01*
X4803150Y5271654D02*
Y5279528D01*
X7397638Y4763779D02*
X7405512D01*
X7401575Y4759842D02*
Y4767717D01*
X4641732Y4763779D02*
X4649606D01*
X4645669Y4759842D02*
Y4767717D01*
X4169291Y4606299D02*
X4177165D01*
X4173228Y4602362D02*
Y4610236D01*
X4248032Y4566929D02*
X4255905D01*
X4251968Y4562992D02*
Y4570866D01*
X4681102Y4842520D02*
X4688976D01*
X4685039Y4838583D02*
Y4846457D01*
X4877953Y5078740D02*
X4885827D01*
X4881890Y5074803D02*
Y5082677D01*
X4877953Y6614173D02*
X4885827D01*
X4881890Y6610236D02*
Y6618110D01*
X4681102Y5393701D02*
X4688976D01*
X4685039Y5389764D02*
Y5397638D01*
X4720472Y6417323D02*
X4728346D01*
X4724409Y6413386D02*
Y6421260D01*
X4720472Y5393701D02*
X4728346D01*
X4724409Y5389764D02*
Y5397638D01*
X4956693Y6535433D02*
X4964567D01*
X4960630Y6531496D02*
Y6539370D01*
X5232283Y6535433D02*
X5240158D01*
X5236221Y6531496D02*
Y6539370D01*
X5114173Y6023622D02*
X5122047D01*
X5118110Y6019685D02*
Y6027559D01*
X2673228Y4291339D02*
X2681102D01*
X2677165Y4287402D02*
Y4295276D01*
X4287402Y5236221D02*
X4295276D01*
X4291339Y5232283D02*
Y5240158D01*
X7082677Y5669291D02*
X7090551D01*
X7086614Y5665354D02*
Y5673228D01*
X5734032Y5629921D02*
X5762032D01*
X5748032Y5615921D02*
Y5643921D01*
X6177165Y6338583D02*
X6185039D01*
X6181102Y6334646D02*
Y6342520D01*
X4090551Y5078740D02*
X4098425D01*
X4094488Y5074803D02*
Y5082677D01*
X4799213Y5551181D02*
X4807087D01*
X4803150Y5547244D02*
Y5555118D01*
X4405512Y5511811D02*
X4413386D01*
X4409449Y5507874D02*
Y5515748D01*
X4405512Y5078740D02*
X4413386D01*
X4409449Y5074803D02*
Y5082677D01*
X4011811Y4960630D02*
X4019685D01*
X4015748Y4956693D02*
Y4964567D01*
X4799213Y5433071D02*
X4807087D01*
X4803150Y5429134D02*
Y5437008D01*
X5783465Y5944882D02*
X5791339D01*
X5787402Y5940945D02*
Y5948819D01*
X5232283Y6456693D02*
X5240158D01*
X5236221Y6452756D02*
Y6460630D01*
X6413386Y6338583D02*
X6421260D01*
X6417323Y6334646D02*
Y6342520D01*
X7426945Y4842520D02*
X7454945D01*
X7440945Y4828520D02*
Y4856520D01*
X7279528Y4488189D02*
X7287402D01*
X7283465Y4484252D02*
Y4492126D01*
X6019685Y6023622D02*
X6027559D01*
X6023622Y6019685D02*
Y6027559D01*
X6216535Y5866142D02*
X6224409D01*
X6220472Y5862205D02*
Y5870079D01*
X6127732Y5590551D02*
X6155732D01*
X6141732Y5576551D02*
Y5604551D01*
X6059055Y5078740D02*
X6066929D01*
X6062992Y5074803D02*
Y5082677D01*
X7673228Y5236221D02*
X7681102D01*
X7677165Y5232283D02*
Y5240158D01*
X7673228Y3307087D02*
X7681102D01*
X7677165Y3303150D02*
Y3311024D01*
X4799213Y4724409D02*
X4807087D01*
X4803150Y4720472D02*
Y4728346D01*
X4996063Y5118110D02*
X5003937D01*
X5000000Y5114173D02*
Y5122047D01*
X5021000Y3420000D02*
X5049000D01*
X5035000Y3406000D02*
Y3434000D01*
X5065000Y2897000D02*
X5093000D01*
X5079000Y2883000D02*
Y2911000D01*
X4248032Y4094488D02*
X4255905D01*
X4251968Y4090551D02*
Y4098425D01*
X6177165Y4094488D02*
X6185039D01*
X6181102Y4090551D02*
Y4098425D01*
X5660000Y4142000D02*
X5688000D01*
X5674000Y4128000D02*
Y4156000D01*
X5380000Y4589000D02*
X5408000D01*
X5394000Y4575000D02*
Y4603000D01*
X5942000Y4439000D02*
X5950000D01*
X5946000Y4435000D02*
Y4443000D01*
X5973000Y4479000D02*
X5981000D01*
X5977000Y4475000D02*
Y4483000D01*
X5907000Y4478000D02*
X5915000D01*
X5911000Y4474000D02*
Y4482000D01*
X5908000Y4397000D02*
X5916000D01*
X5912000Y4393000D02*
Y4401000D01*
X5966000Y4397000D02*
X5974000D01*
X5970000Y4393000D02*
Y4401000D01*
X6803000Y3880000D02*
X6811000D01*
X6807000Y3876000D02*
Y3884000D01*
X6737000Y4033000D02*
X6745000D01*
X6741000Y4029000D02*
Y4037000D01*
X6319000Y3727000D02*
X6327000D01*
X6323000Y3723000D02*
Y3731000D01*
X4586000Y5576000D02*
X4594000D01*
X4590000Y5572000D02*
Y5580000D01*
X4471000Y5890000D02*
X4479000D01*
X4475000Y5886000D02*
Y5894000D01*
X4575000D02*
X4583000D01*
X4579000Y5890000D02*
Y5898000D01*
X6060000Y4324000D02*
X6068000D01*
X6064000Y4320000D02*
Y4328000D01*
X6114000Y4325000D02*
X6122000D01*
X6118000Y4321000D02*
Y4329000D01*
X5418000Y4510000D02*
X5426000D01*
X5422000Y4506000D02*
Y4514000D01*
X5403000Y4691000D02*
X5411000D01*
X5407000Y4687000D02*
Y4695000D01*
X6274000Y3936000D02*
X6282000D01*
X6278000Y3932000D02*
Y3940000D01*
X6552000Y3938000D02*
X6560000D01*
X6556000Y3934000D02*
Y3942000D01*
X6484000Y4572000D02*
X6492000D01*
X6488000Y4568000D02*
Y4576000D01*
X5765000Y4516000D02*
X5773000D01*
X5769000Y4512000D02*
Y4520000D01*
X5910000Y4029000D02*
X5918000D01*
X5914000Y4025000D02*
Y4033000D01*
X5911000Y4141000D02*
X5919000D01*
X5915000Y4137000D02*
Y4145000D01*
X6464000Y4338000D02*
X6472000D01*
X6468000Y4334000D02*
Y4342000D01*
X4531000Y4314000D02*
X4539000D01*
X4535000Y4310000D02*
Y4318000D01*
X4419000Y4389000D02*
X4427000D01*
X4423000Y4385000D02*
Y4393000D01*
X4791000Y4631000D02*
X4799000D01*
X4795000Y4627000D02*
Y4635000D01*
X3921000Y4143000D02*
X3929000D01*
X3925000Y4139000D02*
Y4147000D01*
X3553000Y4091000D02*
X3561000D01*
X3557000Y4087000D02*
Y4095000D01*
X3696000Y4253000D02*
X3704000D01*
X3700000Y4249000D02*
Y4257000D01*
X4773000Y3847000D02*
X4781000D01*
X4777000Y3843000D02*
Y3851000D01*
X5744095Y5748032D02*
X5751968D01*
X5748032Y5744095D02*
Y5751968D01*
X3421260Y5944882D02*
X3429134D01*
X3425197Y5940945D02*
Y5948819D01*
X4877953Y5433071D02*
X4885827D01*
X4881890Y5429134D02*
Y5437008D01*
X4484252Y5118110D02*
X4492126D01*
X4488189Y5114173D02*
Y5122047D01*
X4641732Y5354331D02*
X4649606D01*
X4645669Y5350394D02*
Y5358268D01*
X4405512Y5590551D02*
X4413386D01*
X4409449Y5586614D02*
Y5594488D01*
X3381890Y5590551D02*
X3389764D01*
X3385827Y5586614D02*
Y5594488D01*
X2948819Y5590551D02*
X2956693D01*
X2952756Y5586614D02*
Y5594488D01*
X2909449Y5314961D02*
X2917323D01*
X2913386Y5311024D02*
Y5318898D01*
X3460630Y5196850D02*
X3468504D01*
X3464567Y5192913D02*
Y5200787D01*
X6098425Y5787402D02*
X6106299D01*
X6102362Y5783465D02*
Y5791339D01*
X6137795Y6141732D02*
X6145669D01*
X6141732Y6137795D02*
Y6145669D01*
X3854331Y5433071D02*
X3862205D01*
X3858268Y5429134D02*
Y5437008D01*
X5901575Y5984252D02*
X5909449D01*
X5905512Y5980315D02*
Y5988189D01*
X5350394Y6692913D02*
X5358268D01*
X5354331Y6688976D02*
Y6696850D01*
X6925197Y5826772D02*
X6933071D01*
X6929134Y5822835D02*
Y5830709D01*
X7555118Y5748032D02*
X7562992D01*
X7559055Y5744095D02*
Y5751968D01*
X5822835Y5000000D02*
X5830709D01*
X5826772Y4996063D02*
Y5003937D01*
X4799213Y6456693D02*
X4807087D01*
X4803150Y6452756D02*
Y6460630D01*
X7240158Y3307087D02*
X7248032D01*
X7244095Y3303150D02*
Y3311024D01*
X7161417Y4566929D02*
X7169291D01*
X7165354Y4562992D02*
Y4570866D01*
X5822835Y6692913D02*
X5830709D01*
X5826772Y6688976D02*
Y6696850D01*
X4799213Y6535433D02*
X4807087D01*
X4803150Y6531496D02*
Y6539370D01*
X6767717Y4645669D02*
X6775591D01*
X6771654Y4641732D02*
Y4649606D01*
X4090551Y5275591D02*
X4098425D01*
X4094488Y5271654D02*
Y5279528D01*
X7161417Y3858268D02*
X7169291D01*
X7165354Y3854331D02*
Y3862205D01*
X6374016Y5511811D02*
X6381890D01*
X6377953Y5507874D02*
Y5515748D01*
X4051181Y5157480D02*
X4059055D01*
X4055118Y5153543D02*
Y5161417D01*
X6807087Y5551181D02*
X6814961D01*
X6811024Y5547244D02*
Y5555118D01*
X6374016Y5748032D02*
X6381890D01*
X6377953Y5744095D02*
Y5751968D01*
X6767717Y3307087D02*
X6775591D01*
X6771654Y3303150D02*
Y3311024D01*
X4956693Y4960630D02*
X4964567D01*
X4960630Y4956693D02*
Y4964567D01*
X5429134Y5511811D02*
X5437008D01*
X5433071Y5507874D02*
Y5515748D01*
X6374016Y5905512D02*
X6381890D01*
X6377953Y5901575D02*
Y5909449D01*
X7791339Y5511811D02*
X7799213D01*
X7795276Y5507874D02*
Y5515748D01*
X7437008Y4173228D02*
X7444882D01*
X7440945Y4169291D02*
Y4177165D01*
X6767717Y5275591D02*
X6775591D01*
X6771654Y5271654D02*
Y5279528D01*
X4877953Y5984252D02*
X4885827D01*
X4881890Y5980315D02*
Y5988189D01*
X6059055Y6692913D02*
X6066929D01*
X6062992Y6688976D02*
Y6696850D01*
X4641732Y6299213D02*
X4649606D01*
X4645669Y6295276D02*
Y6303150D01*
X7161417Y4094488D02*
X7169291D01*
X7165354Y4090551D02*
Y4098425D01*
X6767717Y4409449D02*
X6775591D01*
X6771654Y4405512D02*
Y4413386D01*
X3224410Y5708661D02*
X3232284D01*
X3228347Y5704724D02*
Y5712598D01*
X6452756Y6614173D02*
X6460630D01*
X6456693Y6610236D02*
Y6618110D01*
X6374016Y4881890D02*
X6381890D01*
X6377953Y4877953D02*
Y4885827D01*
X6216535Y6614173D02*
X6224409D01*
X6220472Y6610236D02*
Y6618110D01*
X5507874Y6535433D02*
X5515748D01*
X5511811Y6531496D02*
Y6539370D01*
X5547244Y4960630D02*
X5555118D01*
X5551181Y4956693D02*
Y4964567D01*
X4871063Y4210000D02*
X4878937D01*
X4875000Y4206063D02*
Y4213937D01*
X4900197Y4237165D02*
X4908071D01*
X4904134Y4233228D02*
Y4241102D01*
X4900197Y4182835D02*
X4908071D01*
X4904134Y4178898D02*
Y4186772D01*
X4841929Y4237165D02*
X4849803D01*
X4845866Y4233228D02*
Y4241102D01*
X4841929Y4182835D02*
X4849803D01*
X4845866Y4178898D02*
Y4186772D01*
X6926614Y3495000D02*
X6934488D01*
X6930551Y3491063D02*
Y3498937D01*
X6886063Y3495000D02*
X6893937D01*
X6890000Y3491063D02*
Y3498937D01*
X6845512Y3495000D02*
X6853386D01*
X6849449Y3491063D02*
Y3498937D01*
X7306614Y3503150D02*
X7314488D01*
X7310551Y3499213D02*
Y3507087D01*
X7266063Y3503150D02*
X7273937D01*
X7270000Y3499213D02*
Y3507087D01*
X7225512Y3503150D02*
X7233386D01*
X7229449Y3499213D02*
Y3507087D01*
%TF.MD5,61af7866582fe059a79c0cd4d95fc6f2*%
M02*
