%TF.GenerationSoftware,Altium Limited,Altium Designer,21.0.9 (235)*%
G04 Layer_Physical_Order=2*
G04 Layer_Color=32768*
%FSLAX26Y26*%
%MOIN*%
%TF.SameCoordinates,5BE5EA85-216B-4E4C-B8B6-EAA837D7D1E1*%
%TF.FilePolarity,Negative*%
%TF.FileFunction,Copper,L2,Inr,Plane*%
%TF.Part,Single*%
G01*
G75*
%TA.AperFunction,NonConductor*%
%ADD105C,0.006000*%
%ADD124C,0.040000*%
%TA.AperFunction,ComponentPad*%
%ADD125C,0.080157*%
%ADD126C,0.091181*%
%ADD127C,0.197480*%
%ADD128C,0.080000*%
%ADD129C,0.069528*%
G04:AMPARAMS|DCode=130|XSize=89.528mil|YSize=89.528mil|CornerRadius=0mil|HoleSize=0mil|Usage=FLASHONLY|Rotation=0.000|XOffset=0mil|YOffset=0mil|HoleType=Round|Shape=Relief|Width=10mil|Gap=10mil|Entries=4|*
%AMTHD130*
7,0,0,0.089528,0.069528,0.010000,45*
%
%ADD130THD130*%
%ADD131C,0.079370*%
G04:AMPARAMS|DCode=132|XSize=99.37mil|YSize=99.37mil|CornerRadius=0mil|HoleSize=0mil|Usage=FLASHONLY|Rotation=0.000|XOffset=0mil|YOffset=0mil|HoleType=Round|Shape=Relief|Width=10mil|Gap=10mil|Entries=4|*
%AMTHD132*
7,0,0,0.099370,0.079370,0.010000,45*
%
%ADD132THD132*%
%TA.AperFunction,ViaPad*%
%ADD133C,0.165000*%
%TA.AperFunction,ComponentPad*%
G04:AMPARAMS|DCode=134|XSize=103.307mil|YSize=103.307mil|CornerRadius=0mil|HoleSize=0mil|Usage=FLASHONLY|Rotation=0.000|XOffset=0mil|YOffset=0mil|HoleType=Round|Shape=Relief|Width=10mil|Gap=10mil|Entries=4|*
%AMTHD134*
7,0,0,0.103307,0.083307,0.010000,45*
%
%ADD134THD134*%
%ADD135C,0.083307*%
G04:AMPARAMS|DCode=136|XSize=100.157mil|YSize=100.157mil|CornerRadius=0mil|HoleSize=0mil|Usage=FLASHONLY|Rotation=0.000|XOffset=0mil|YOffset=0mil|HoleType=Round|Shape=Relief|Width=10mil|Gap=10mil|Entries=4|*
%AMTHD136*
7,0,0,0.100157,0.080157,0.010000,45*
%
%ADD136THD136*%
%ADD137C,0.063622*%
G04:AMPARAMS|DCode=138|XSize=83.622mil|YSize=83.622mil|CornerRadius=0mil|HoleSize=0mil|Usage=FLASHONLY|Rotation=0.000|XOffset=0mil|YOffset=0mil|HoleType=Round|Shape=Relief|Width=10mil|Gap=10mil|Entries=4|*
%AMTHD138*
7,0,0,0.083622,0.063622,0.010000,45*
%
%ADD138THD138*%
%TA.AperFunction,ViaPad*%
%ADD139C,0.047874*%
%ADD140C,0.068000*%
%ADD141C,0.048000*%
D105*
X8490987Y4725984D02*
X8480990Y4735981D01*
X8460997D01*
X8451000Y4725984D01*
Y4685997D01*
X8460997Y4676000D01*
X8480990D01*
X8490987Y4685997D01*
Y4705990D01*
X8470994D01*
X8510981Y4676000D02*
Y4735981D01*
X8550968Y4676000D01*
Y4735981D01*
X8570961D02*
Y4676000D01*
X8600951D01*
X8610948Y4685997D01*
Y4725984D01*
X8600951Y4735981D01*
X8570961D01*
X8690922Y4676000D02*
Y4735981D01*
X8720913D01*
X8730909Y4725984D01*
Y4705990D01*
X8720913Y4695993D01*
X8690922D01*
X8750903Y4735981D02*
Y4676000D01*
X8790890D01*
X8810884D02*
Y4715987D01*
X8830877Y4735981D01*
X8850871Y4715987D01*
Y4676000D01*
Y4705990D01*
X8810884D01*
X8870864Y4676000D02*
Y4735981D01*
X8910851Y4676000D01*
Y4735981D01*
X8970832D02*
X8930845D01*
Y4676000D01*
X8970832D01*
X8930845Y4705990D02*
X8950838D01*
D124*
X3209969Y2884940D02*
G03*
X2814968Y3279940I-395001J0D01*
G01*
X3209969Y2693542D02*
G03*
X3334969Y2568542I125000J0D01*
G01*
X7349785D02*
G03*
X7474785Y2693542I0J125000D01*
G01*
X7869786Y3279940D02*
G03*
X7474785Y2884940I0J-395001D01*
G01*
X8068178Y3279940D02*
G03*
X8193178Y3404940I0J125000D01*
G01*
Y5933744D02*
G03*
X8068178Y6058744I-125000J0D01*
G01*
X7474785Y6453745D02*
G03*
X7869786Y6058744I395001J0D01*
G01*
X7474785Y6645143D02*
G03*
X7349785Y6770143I-125000J0D01*
G01*
X3334969D02*
G03*
X3209969Y6645143I0J-125000D01*
G01*
X2814968Y6058744D02*
G03*
X3209969Y6453745I0J395001D01*
G01*
X2616577Y6058744D02*
G03*
X2491577Y5933744I0J-125000D01*
G01*
Y3404940D02*
G03*
X2616577Y3279940I125000J0D01*
G01*
X3209969Y2693542D02*
Y2884940D01*
X3334969Y2568542D02*
X7349785D01*
X7474785Y2693542D02*
Y2884940D01*
X7869786Y3279940D02*
X8068178D01*
X8193178Y3404940D02*
Y5933744D01*
X7869786Y6058744D02*
X8068178D01*
X7474785Y6453745D02*
Y6645143D01*
X3334969Y6770143D02*
X7349785D01*
X3209969Y6453745D02*
Y6645143D01*
X2616577Y6058744D02*
X2814968D01*
X2491577Y5933744D02*
X2491577Y5933744D01*
X2491577Y3404940D02*
Y5933744D01*
Y3404940D02*
X2491577D01*
X2616577Y3279940D02*
X2814968D01*
D125*
X7090000Y4475000D02*
D03*
X6990000D02*
D03*
X5205000Y4735000D02*
D03*
X5005000D02*
D03*
X5300000Y5865000D02*
D03*
Y6065000D02*
D03*
X4050000Y4650000D02*
D03*
Y4550000D02*
D03*
Y4450000D02*
D03*
D126*
X4453425Y3258425D02*
D03*
X4256575D02*
D03*
X4355000Y2963150D02*
D03*
D127*
X3955000Y2780000D02*
D03*
X4765000Y2790000D02*
D03*
D128*
X6840000Y4210000D02*
D03*
X7245000Y4225000D02*
D03*
X5265000Y4510000D02*
D03*
D129*
X3290000Y3845000D02*
D03*
X3080000Y3846575D02*
D03*
X2875000D02*
D03*
D130*
X3290000Y4041850D02*
D03*
X3080000Y4043425D02*
D03*
X2875000D02*
D03*
D131*
X3740000Y3550000D02*
D03*
X3540000D02*
D03*
X3290000D02*
D03*
X3090000D02*
D03*
X3990000D02*
D03*
X5795000Y3070000D02*
D03*
Y2870000D02*
D03*
X5825000Y3325000D02*
D03*
Y3525000D02*
D03*
X5505000Y2860000D02*
D03*
X5485000Y3515000D02*
D03*
X4440000Y3550000D02*
D03*
D132*
X4190000D02*
D03*
X5505000Y3060000D02*
D03*
X5485000Y3315000D02*
D03*
X4640000Y3550000D02*
D03*
D133*
X7123627Y2950592D02*
D03*
X3561127D02*
D03*
Y6388092D02*
D03*
X7123627D02*
D03*
D134*
X3821220Y4765000D02*
D03*
X6485000Y6270000D02*
D03*
X7880000Y4843425D02*
D03*
D135*
X3821220Y4665000D02*
D03*
Y4465000D02*
D03*
Y4365000D02*
D03*
Y4565000D02*
D03*
X6050000Y2820000D02*
D03*
X6282283Y3560157D02*
D03*
X6485000Y4770000D02*
D03*
Y4870000D02*
D03*
Y5170000D02*
D03*
Y5270000D02*
D03*
Y5370000D02*
D03*
Y5570000D02*
D03*
Y5670000D02*
D03*
Y5870000D02*
D03*
Y6070000D02*
D03*
Y6170000D02*
D03*
Y5970000D02*
D03*
Y5770000D02*
D03*
Y5470000D02*
D03*
Y5070000D02*
D03*
Y4970000D02*
D03*
X7880000Y4340000D02*
D03*
Y4143150D02*
D03*
Y4646575D02*
D03*
D136*
X5105000Y4735000D02*
D03*
X5300000Y5965000D02*
D03*
D137*
X4285000Y4610000D02*
D03*
Y4660000D02*
D03*
X4335000Y4610000D02*
D03*
Y4660000D02*
D03*
X4385000Y4610000D02*
D03*
Y4660000D02*
D03*
X4435000Y4610000D02*
D03*
Y4660000D02*
D03*
X4485000D02*
D03*
X4535000Y4610000D02*
D03*
Y4660000D02*
D03*
X4585000Y4610000D02*
D03*
Y4660000D02*
D03*
D138*
X4485000Y4610000D02*
D03*
D139*
X4960630Y5708661D02*
D03*
Y5590551D02*
D03*
X7360496Y5070184D02*
D03*
X7047244Y5128370D02*
D03*
X7230000Y4776000D02*
D03*
X5748032Y5195378D02*
D03*
X6259842Y5157480D02*
D03*
X5039370Y5236221D02*
D03*
X7086614Y5000000D02*
D03*
X6692913D02*
D03*
Y5157480D02*
D03*
X4724409Y6496063D02*
D03*
X4921260Y5118110D02*
D03*
X4448819Y6456693D02*
D03*
X4645669Y5314961D02*
D03*
X5944882Y6496063D02*
D03*
X4842520Y6377953D02*
D03*
Y5669291D02*
D03*
X5000000Y6732283D02*
D03*
X7125984Y5354331D02*
D03*
Y5236221D02*
D03*
X4488189Y5354331D02*
D03*
X2992126Y4724409D02*
D03*
X3543307Y4921260D02*
D03*
X4566929Y5157480D02*
D03*
X3503937Y5196850D02*
D03*
X4488189D02*
D03*
X4055118Y5354331D02*
D03*
X3622047Y4960630D02*
D03*
X3937008Y5314961D02*
D03*
X3188976Y4527559D02*
D03*
X4527559Y5118110D02*
D03*
X3503937Y5039370D02*
D03*
X3070866Y5118110D02*
D03*
X5629921Y4803150D02*
D03*
X4842520Y5078740D02*
D03*
X3149606Y4645669D02*
D03*
X2834646Y4842520D02*
D03*
Y5826772D02*
D03*
X5669291Y6220472D02*
D03*
X5708661Y6102362D02*
D03*
X3149606Y5748032D02*
D03*
X7322835Y6062992D02*
D03*
Y5039370D02*
D03*
X7362205Y6220472D02*
D03*
X4803150Y5787402D02*
D03*
X4763779Y5236221D02*
D03*
X4606299Y6141732D02*
D03*
X4566929Y5393701D02*
D03*
X4055118Y5000000D02*
D03*
X4488189Y5314961D02*
D03*
X7559055Y4881890D02*
D03*
X7007874Y5866142D02*
D03*
X6220472Y5511811D02*
D03*
X6102362Y5157480D02*
D03*
X5944882Y5590551D02*
D03*
X4212598Y5275591D02*
D03*
X5866142Y5314961D02*
D03*
X6220472Y6102362D02*
D03*
X5118110Y5118110D02*
D03*
X5039370D02*
D03*
X6889764Y6141732D02*
D03*
X6771654D02*
D03*
X3818898Y5944882D02*
D03*
Y6141732D02*
D03*
X4330709Y5314961D02*
D03*
Y6535433D02*
D03*
X4448819Y6574803D02*
D03*
X4370079Y5275591D02*
D03*
X5866142Y5551181D02*
D03*
X4645669Y4960630D02*
D03*
X5629921Y5511811D02*
D03*
X4645669Y5078740D02*
D03*
X5590551Y5314961D02*
D03*
X4645669Y5118110D02*
D03*
X5866142Y5433071D02*
D03*
X4685039Y4921260D02*
D03*
X5866142Y5354331D02*
D03*
X4803150D02*
D03*
X5039370Y5433071D02*
D03*
X5708661Y5393701D02*
D03*
X5629921D02*
D03*
X4960630D02*
D03*
X4488189Y5275591D02*
D03*
X4724409D02*
D03*
X4842520Y5511811D02*
D03*
X4488189Y5078740D02*
D03*
X4724409Y4803150D02*
D03*
X5354331Y4685039D02*
D03*
X5275591Y5157480D02*
D03*
X4685039D02*
D03*
Y4881890D02*
D03*
X5078740Y4842520D02*
D03*
X4803150Y5275591D02*
D03*
X7401575Y4763779D02*
D03*
X4645669D02*
D03*
X4173228Y4606299D02*
D03*
X4251968Y4566929D02*
D03*
X4685039Y4842520D02*
D03*
X4881890Y5078740D02*
D03*
Y6614173D02*
D03*
X4685039Y5393701D02*
D03*
X4724409Y6417323D02*
D03*
Y5393701D02*
D03*
X4960630Y6535433D02*
D03*
X5236221D02*
D03*
X5118110Y6023622D02*
D03*
X2677165Y4291339D02*
D03*
X4291339Y5236221D02*
D03*
X7086614Y5669291D02*
D03*
X6181102Y6338583D02*
D03*
X4094488Y5078740D02*
D03*
X4803150Y5551181D02*
D03*
X4409449Y5511811D02*
D03*
Y5078740D02*
D03*
X4015748Y4960630D02*
D03*
X4803150Y5433071D02*
D03*
X5787402Y5944882D02*
D03*
X5236221Y6456693D02*
D03*
X6417323Y6338583D02*
D03*
X7283465Y4488189D02*
D03*
X6023622Y6023622D02*
D03*
X6220472Y5866142D02*
D03*
X6062992Y5078740D02*
D03*
X7677165Y5236221D02*
D03*
Y3307087D02*
D03*
X4803150Y4724409D02*
D03*
X5000000Y5118110D02*
D03*
X4251968Y4094488D02*
D03*
X6181102D02*
D03*
D140*
X7424000Y5260000D02*
D03*
X7462044Y5153603D02*
D03*
X4724409Y4488189D02*
D03*
X4172000Y3355000D02*
D03*
X4960630Y4881890D02*
D03*
X5748032Y5629921D02*
D03*
X7440945Y4842520D02*
D03*
X6141732Y5590551D02*
D03*
X5035000Y3420000D02*
D03*
X5079000Y2897000D02*
D03*
X5674000Y4142000D02*
D03*
X5394000Y4589000D02*
D03*
D141*
X6925000Y5088158D02*
D03*
X7249000Y4848000D02*
D03*
X7118000Y4807000D02*
D03*
X6754000Y5117000D02*
D03*
X4958000Y5248000D02*
D03*
%TF.MD5,986c7a04398f47e94e4ce576c5fd2ea7*%
M02*
