%TF.GenerationSoftware,Altium Limited,Altium Designer,21.0.9 (235)*%
G04 Layer_Color=8421504*
%FSLAX26Y26*%
%MOIN*%
%TF.SameCoordinates,5BE5EA85-216B-4E4C-B8B6-EAA837D7D1E1*%
%TF.FilePolarity,Positive*%
%TF.FileFunction,Paste,Top*%
%TF.Part,Single*%
G01*
G75*
%TA.AperFunction,SMDPad,CuDef*%
%ADD11R,0.027559X0.016535*%
%ADD12R,0.059055X0.027559*%
%ADD13R,0.027559X0.059055*%
%ADD14R,0.053150X0.037402*%
%ADD15R,0.035433X0.047244*%
%ADD16R,0.041339X0.053150*%
%ADD17R,0.059055X0.055118*%
%ADD18R,0.047244X0.035433*%
%ADD19R,0.110236X0.055118*%
G04:AMPARAMS|DCode=20|XSize=74.016mil|YSize=77.953mil|CornerRadius=1.85mil|HoleSize=0mil|Usage=FLASHONLY|Rotation=270.000|XOffset=0mil|YOffset=0mil|HoleType=Round|Shape=RoundedRectangle|*
%AMROUNDEDRECTD20*
21,1,0.074016,0.074252,0,0,270.0*
21,1,0.070315,0.077953,0,0,270.0*
1,1,0.003701,-0.037126,-0.035157*
1,1,0.003701,-0.037126,0.035157*
1,1,0.003701,0.037126,0.035157*
1,1,0.003701,0.037126,-0.035157*
%
%ADD20ROUNDEDRECTD20*%
G04:AMPARAMS|DCode=21|XSize=17.716mil|YSize=45.276mil|CornerRadius=1.949mil|HoleSize=0mil|Usage=FLASHONLY|Rotation=0.000|XOffset=0mil|YOffset=0mil|HoleType=Round|Shape=RoundedRectangle|*
%AMROUNDEDRECTD21*
21,1,0.017716,0.041378,0,0,0.0*
21,1,0.013819,0.045276,0,0,0.0*
1,1,0.003898,0.006910,-0.020689*
1,1,0.003898,-0.006910,-0.020689*
1,1,0.003898,-0.006910,0.020689*
1,1,0.003898,0.006910,0.020689*
%
%ADD21ROUNDEDRECTD21*%
%ADD22R,0.045276X0.057087*%
%ADD23R,0.039626X0.055442*%
%ADD24R,0.061024X0.061024*%
%ADD25R,0.021654X0.066929*%
%ADD26R,0.033465X0.053150*%
%ADD27R,0.037402X0.053150*%
%ADD28R,0.047244X0.055118*%
%ADD29R,0.031752X0.051505*%
%ADD30R,0.070079X0.016535*%
%ADD31R,0.118110X0.122047*%
%ADD32R,0.216658X0.098512*%
%ADD33R,0.071110X0.059226*%
%ADD34R,0.137795X0.062992*%
%ADD35R,0.208661X0.062992*%
%ADD36R,0.217000X0.118000*%
%ADD37R,0.037402X0.053150*%
%ADD38O,0.055118X0.017716*%
%ADD39R,0.049213X0.059055*%
%ADD40R,0.059055X0.049213*%
%ADD41R,0.043307X0.080709*%
%ADD42R,0.058268X0.203150*%
%ADD43R,0.073158X0.059272*%
%ADD44R,0.061024X0.059055*%
%ADD45R,0.031496X0.049213*%
%ADD46R,0.015748X0.027559*%
%ADD47R,0.049213X0.061024*%
G04:AMPARAMS|DCode=48|XSize=61.024mil|YSize=23.622mil|CornerRadius=2.008mil|HoleSize=0mil|Usage=FLASHONLY|Rotation=90.000|XOffset=0mil|YOffset=0mil|HoleType=Round|Shape=RoundedRectangle|*
%AMROUNDEDRECTD48*
21,1,0.061024,0.019606,0,0,90.0*
21,1,0.057008,0.023622,0,0,90.0*
1,1,0.004016,0.009803,0.028504*
1,1,0.004016,0.009803,-0.028504*
1,1,0.004016,-0.009803,-0.028504*
1,1,0.004016,-0.009803,0.028504*
%
%ADD48ROUNDEDRECTD48*%
%ADD49R,0.061024X0.049213*%
%ADD50R,0.104331X0.143701*%
%ADD51R,0.007843X0.035685*%
%ADD52R,0.035685X0.007843*%
G04:AMPARAMS|DCode=53|XSize=39.37mil|YSize=70.866mil|CornerRadius=3.937mil|HoleSize=0mil|Usage=FLASHONLY|Rotation=180.000|XOffset=0mil|YOffset=0mil|HoleType=Round|Shape=RoundedRectangle|*
%AMROUNDEDRECTD53*
21,1,0.039370,0.062992,0,0,180.0*
21,1,0.031496,0.070866,0,0,180.0*
1,1,0.007874,-0.015748,0.031496*
1,1,0.007874,0.015748,0.031496*
1,1,0.007874,0.015748,-0.031496*
1,1,0.007874,-0.015748,-0.031496*
%
%ADD53ROUNDEDRECTD53*%
%ADD54R,0.078740X0.216535*%
%ADD55R,0.035433X0.031496*%
%ADD56R,0.064499X0.024329*%
G04:AMPARAMS|DCode=57|XSize=64.499mil|YSize=24.329mil|CornerRadius=12.165mil|HoleSize=0mil|Usage=FLASHONLY|Rotation=0.000|XOffset=0mil|YOffset=0mil|HoleType=Round|Shape=RoundedRectangle|*
%AMROUNDEDRECTD57*
21,1,0.064499,0.000000,0,0,0.0*
21,1,0.040170,0.024329,0,0,0.0*
1,1,0.024329,0.020085,0.000000*
1,1,0.024329,-0.020085,0.000000*
1,1,0.024329,-0.020085,0.000000*
1,1,0.024329,0.020085,0.000000*
%
%ADD57ROUNDEDRECTD57*%
G04:AMPARAMS|DCode=58|XSize=15.748mil|YSize=47.244mil|CornerRadius=1.968mil|HoleSize=0mil|Usage=FLASHONLY|Rotation=90.000|XOffset=0mil|YOffset=0mil|HoleType=Round|Shape=RoundedRectangle|*
%AMROUNDEDRECTD58*
21,1,0.015748,0.043307,0,0,90.0*
21,1,0.011811,0.047244,0,0,90.0*
1,1,0.003937,0.021654,0.005906*
1,1,0.003937,0.021654,-0.005906*
1,1,0.003937,-0.021654,-0.005906*
1,1,0.003937,-0.021654,0.005906*
%
%ADD58ROUNDEDRECTD58*%
%ADD59O,0.057087X0.011811*%
%ADD60O,0.011811X0.057087*%
%ADD61R,0.023622X0.059055*%
%ADD62R,0.066929X0.031496*%
%ADD63R,0.039370X0.053150*%
%ADD64R,0.033465X0.051181*%
%ADD65R,0.047244X0.057087*%
%ADD66R,0.037402X0.057087*%
%ADD67R,0.057087X0.037402*%
%ADD68R,0.049213X0.031496*%
%ADD69R,0.051505X0.031752*%
%ADD70R,0.053150X0.039370*%
%ADD71R,0.122047X0.039370*%
%ADD72R,0.050000X0.135000*%
%ADD73R,0.039370X0.122047*%
%ADD74R,0.027559X0.015748*%
%ADD75R,0.059055X0.059055*%
%ADD76R,0.059055X0.059055*%
%ADD77R,0.037402X0.055118*%
%ADD78R,0.055118X0.037402*%
G04:AMPARAMS|DCode=79|XSize=21.654mil|YSize=31.496mil|CornerRadius=1.949mil|HoleSize=0mil|Usage=FLASHONLY|Rotation=90.000|XOffset=0mil|YOffset=0mil|HoleType=Round|Shape=RoundedRectangle|*
%AMROUNDEDRECTD79*
21,1,0.021654,0.027599,0,0,90.0*
21,1,0.017756,0.031496,0,0,90.0*
1,1,0.003898,0.013799,0.008878*
1,1,0.003898,0.013799,-0.008878*
1,1,0.003898,-0.013799,-0.008878*
1,1,0.003898,-0.013799,0.008878*
%
%ADD79ROUNDEDRECTD79*%
%ADD80R,0.062992X0.076772*%
%ADD81R,0.073158X0.053388*%
%ADD82R,0.068898X0.045276*%
%ADD83R,0.053150X0.033465*%
%ADD84R,0.057087X0.053150*%
%ADD85R,0.055118X0.064567*%
%ADD86R,0.059055X0.047244*%
%ADD87R,0.035433X0.061024*%
%ADD88R,0.047244X0.059055*%
%ADD89R,0.056299X0.216535*%
%ADD90R,0.100394X0.116142*%
%ADD91R,0.098425X0.039370*%
%ADD92R,0.055118X0.043307*%
G04:AMPARAMS|DCode=94|XSize=25.591mil|YSize=11.811mil|CornerRadius=1.949mil|HoleSize=0mil|Usage=FLASHONLY|Rotation=90.000|XOffset=0mil|YOffset=0mil|HoleType=Round|Shape=RoundedRectangle|*
%AMROUNDEDRECTD94*
21,1,0.025591,0.007913,0,0,90.0*
21,1,0.021693,0.011811,0,0,90.0*
1,1,0.003898,0.003957,0.010847*
1,1,0.003898,0.003957,-0.010847*
1,1,0.003898,-0.003957,-0.010847*
1,1,0.003898,-0.003957,0.010847*
%
%ADD94ROUNDEDRECTD94*%
%ADD95R,0.053150X0.043307*%
%TA.AperFunction,NonConductor*%
%ADD105C,0.006000*%
G36*
X7623779Y5262913D02*
X7606063D01*
Y5279449D01*
X7623779D01*
Y5262913D01*
D02*
G37*
G36*
Y5237323D02*
X7606063D01*
Y5253858D01*
X7623779D01*
Y5237323D01*
D02*
G37*
G36*
Y5211732D02*
X7606063D01*
Y5228268D01*
X7623779D01*
Y5211732D01*
D02*
G37*
G36*
X7593760Y5203268D02*
X7551437D01*
Y5262323D01*
X7593760D01*
Y5203268D01*
D02*
G37*
G36*
X7623779Y5186142D02*
X7606063D01*
Y5202677D01*
X7623779D01*
Y5186142D01*
D02*
G37*
G36*
X6768701Y4832323D02*
X6750984D01*
Y4848858D01*
X6768701D01*
Y4832323D01*
D02*
G37*
G36*
Y4806732D02*
X6750984D01*
Y4823268D01*
X6768701D01*
Y4806732D01*
D02*
G37*
G36*
Y4781142D02*
X6750984D01*
Y4797677D01*
X6768701D01*
Y4781142D01*
D02*
G37*
G36*
X6823327Y4772677D02*
X6781004D01*
Y4831732D01*
X6823327D01*
Y4772677D01*
D02*
G37*
G36*
X6768701Y4755551D02*
X6750984D01*
Y4772087D01*
X6768701D01*
Y4755551D01*
D02*
G37*
G36*
X7326095Y3516630D02*
X7326649Y3516076D01*
X7326949Y3515352D01*
Y3514961D01*
Y3491339D01*
Y3490947D01*
X7326649Y3490224D01*
X7326095Y3489670D01*
X7325372Y3489370D01*
X7295730D01*
X7295007Y3489670D01*
X7294453Y3490224D01*
X7294154Y3490947D01*
Y3491339D01*
Y3514961D01*
Y3515352D01*
X7294453Y3516076D01*
X7295007Y3516630D01*
X7295730Y3516929D01*
X7325372D01*
X7326095Y3516630D01*
D02*
G37*
G36*
X7285544D02*
X7286098Y3516076D01*
X7286398Y3515352D01*
Y3514961D01*
Y3491339D01*
Y3490947D01*
X7286098Y3490224D01*
X7285544Y3489670D01*
X7284821Y3489370D01*
X7255179D01*
X7254456Y3489670D01*
X7253902Y3490224D01*
X7253602Y3490947D01*
Y3491339D01*
Y3514961D01*
Y3515352D01*
X7253902Y3516076D01*
X7254456Y3516630D01*
X7255179Y3516929D01*
X7284821D01*
X7285544Y3516630D01*
D02*
G37*
G36*
X7244993D02*
X7245547Y3516076D01*
X7245846Y3515352D01*
Y3514961D01*
Y3491339D01*
Y3490947D01*
X7245547Y3490224D01*
X7244993Y3489670D01*
X7244270Y3489370D01*
X7214628D01*
X7213905Y3489670D01*
X7213351Y3490224D01*
X7213051Y3490947D01*
Y3491339D01*
Y3514961D01*
Y3515352D01*
X7213351Y3516076D01*
X7213905Y3516630D01*
X7214628Y3516929D01*
X7244270D01*
X7244993Y3516630D01*
D02*
G37*
G36*
X6946095Y3508480D02*
X6946649Y3507926D01*
X6946949Y3507203D01*
Y3506811D01*
Y3483189D01*
Y3482797D01*
X6946649Y3482074D01*
X6946095Y3481520D01*
X6945372Y3481220D01*
X6915730D01*
X6915007Y3481520D01*
X6914453Y3482074D01*
X6914154Y3482797D01*
Y3483189D01*
Y3506811D01*
Y3507203D01*
X6914453Y3507926D01*
X6915007Y3508480D01*
X6915730Y3508780D01*
X6945372D01*
X6946095Y3508480D01*
D02*
G37*
G36*
X6905544D02*
X6906098Y3507926D01*
X6906398Y3507203D01*
Y3506811D01*
Y3483189D01*
Y3482797D01*
X6906098Y3482074D01*
X6905544Y3481520D01*
X6904821Y3481220D01*
X6875179D01*
X6874456Y3481520D01*
X6873902Y3482074D01*
X6873602Y3482797D01*
Y3483189D01*
Y3506811D01*
Y3507203D01*
X6873902Y3507926D01*
X6874456Y3508480D01*
X6875179Y3508780D01*
X6904821D01*
X6905544Y3508480D01*
D02*
G37*
G36*
X6864993D02*
X6865547Y3507926D01*
X6865846Y3507203D01*
Y3506811D01*
Y3483189D01*
Y3482797D01*
X6865547Y3482074D01*
X6864993Y3481520D01*
X6864270Y3481220D01*
X6834628D01*
X6833905Y3481520D01*
X6833351Y3482074D01*
X6833051Y3482797D01*
Y3483189D01*
Y3506811D01*
Y3507203D01*
X6833351Y3507926D01*
X6833905Y3508480D01*
X6834628Y3508780D01*
X6864270D01*
X6864993Y3508480D01*
D02*
G37*
D11*
X7499764Y5194409D02*
D03*
Y5220000D02*
D03*
Y5245591D02*
D03*
Y5271181D02*
D03*
X6875000Y4763819D02*
D03*
Y4789409D02*
D03*
Y4815000D02*
D03*
Y4840591D02*
D03*
D12*
X2945000Y5264843D02*
D03*
X3397756Y5178228D02*
D03*
X2945000Y5048307D02*
D03*
Y5091614D02*
D03*
Y4788465D02*
D03*
Y4831772D02*
D03*
Y5134921D02*
D03*
Y4961693D02*
D03*
Y5221535D02*
D03*
X3397756Y5134921D02*
D03*
X2945000Y5178228D02*
D03*
Y4918386D02*
D03*
Y5005000D02*
D03*
X3397756Y4875079D02*
D03*
Y5048307D02*
D03*
Y5091614D02*
D03*
X2945000Y4875079D02*
D03*
X3397756Y4918386D02*
D03*
Y4961693D02*
D03*
Y5005000D02*
D03*
Y4831772D02*
D03*
Y4788465D02*
D03*
Y5508937D02*
D03*
Y5552244D02*
D03*
X2945315Y5508937D02*
D03*
Y5552244D02*
D03*
D13*
X3301299Y4727441D02*
D03*
X3257992D02*
D03*
X3084764D02*
D03*
X3214685D02*
D03*
X3171378D02*
D03*
X3128071D02*
D03*
X3041457D02*
D03*
D14*
X4570000Y6299055D02*
D03*
Y6240000D02*
D03*
X4425000Y4484055D02*
D03*
Y4425000D02*
D03*
X4470000Y5800000D02*
D03*
Y5859055D02*
D03*
X4575000Y5800945D02*
D03*
Y5860000D02*
D03*
X4895000Y5865472D02*
D03*
Y5924528D02*
D03*
X4370000Y5800000D02*
D03*
Y5859055D02*
D03*
X5075000Y5865000D02*
D03*
Y5924055D02*
D03*
X7115000Y5415472D02*
D03*
Y5474528D02*
D03*
D15*
X3599449Y4175000D02*
D03*
X3690000D02*
D03*
D16*
X3600472Y4255000D02*
D03*
X3659528D02*
D03*
X2684055Y4160000D02*
D03*
X2625000D02*
D03*
D17*
X4955000Y4594803D02*
D03*
Y4520000D02*
D03*
D18*
X4875000Y4510000D02*
D03*
Y4592677D02*
D03*
X4795000D02*
D03*
Y4510000D02*
D03*
D19*
X5070000Y4612362D02*
D03*
Y4510000D02*
D03*
D20*
X4875000Y4210000D02*
D03*
D21*
X4836614Y4126339D02*
D03*
X4862205D02*
D03*
X4887795D02*
D03*
X4913386D02*
D03*
X4836614Y4293661D02*
D03*
X4862205D02*
D03*
X4887795D02*
D03*
X4913386D02*
D03*
D22*
X5519449Y4690000D02*
D03*
X5450551D02*
D03*
X5520000Y4510000D02*
D03*
X5449134D02*
D03*
D23*
X5525000Y4590000D02*
D03*
X5450129D02*
D03*
D24*
X5442165Y4430000D02*
D03*
X5515000D02*
D03*
D25*
X5762992Y4140000D02*
D03*
X5887008D02*
D03*
X5760984Y4025000D02*
D03*
X5885000D02*
D03*
X7207992Y3295000D02*
D03*
X7332008D02*
D03*
X6825984D02*
D03*
X6950000D02*
D03*
D26*
X6429961Y4410000D02*
D03*
X6365000D02*
D03*
D27*
Y4335000D02*
D03*
X6426024D02*
D03*
D28*
X6438465Y4570000D02*
D03*
X6371535D02*
D03*
D29*
X6361502Y4490000D02*
D03*
X6428498D02*
D03*
X6873498Y5115000D02*
D03*
X6806502D02*
D03*
X7495000Y4990000D02*
D03*
X7561997D02*
D03*
D30*
X6061929Y4363228D02*
D03*
Y4388819D02*
D03*
Y4414409D02*
D03*
Y4440000D02*
D03*
Y4465591D02*
D03*
Y4491181D02*
D03*
Y4516772D02*
D03*
X5828071D02*
D03*
Y4491181D02*
D03*
Y4465591D02*
D03*
Y4440000D02*
D03*
Y4414409D02*
D03*
Y4388819D02*
D03*
Y4363228D02*
D03*
D31*
X5945000Y4440000D02*
D03*
D32*
X6545000Y4190538D02*
D03*
Y4005462D02*
D03*
X6280000Y4187538D02*
D03*
Y4002462D02*
D03*
D33*
X4080000Y3326218D02*
D03*
Y3223782D02*
D03*
D34*
X3930000Y3324646D02*
D03*
Y3155354D02*
D03*
D35*
X4650000Y3844528D02*
D03*
Y4035472D02*
D03*
D36*
X5400000Y3875000D02*
D03*
Y4250000D02*
D03*
D37*
X6270945Y6200000D02*
D03*
X6330000D02*
D03*
X6265472Y5505000D02*
D03*
X6324528D02*
D03*
X6270000Y6095000D02*
D03*
X6329055D02*
D03*
X6265000Y5890000D02*
D03*
X6324055D02*
D03*
X5559528Y5510000D02*
D03*
X5500472D02*
D03*
X5559528Y5880000D02*
D03*
X5500472D02*
D03*
X6285000Y5040000D02*
D03*
X6344055D02*
D03*
X4159055Y5135000D02*
D03*
X4100000D02*
D03*
X3600472Y4090000D02*
D03*
X3659528D02*
D03*
X6815472Y5200000D02*
D03*
X6874528D02*
D03*
X6810945Y4670000D02*
D03*
X6870000D02*
D03*
X7659055Y4880000D02*
D03*
X7600000D02*
D03*
X6815000Y5305000D02*
D03*
X6874055D02*
D03*
X6840000Y4035000D02*
D03*
X6780945D02*
D03*
X7185472D02*
D03*
X7244528D02*
D03*
D38*
X6050709Y6081614D02*
D03*
Y6107205D02*
D03*
Y6132795D02*
D03*
Y6158386D02*
D03*
X5889291Y6081614D02*
D03*
Y6107205D02*
D03*
Y6132795D02*
D03*
Y6158386D02*
D03*
D39*
X4437912Y3420001D02*
D03*
X4302087Y3420000D02*
D03*
X3772088Y3839999D02*
D03*
X3907913Y3840000D02*
D03*
X4862912Y3300001D02*
D03*
X4727087Y3300000D02*
D03*
D40*
X4324999Y4095825D02*
D03*
X4325000Y3960000D02*
D03*
X3604999Y3967912D02*
D03*
X3605000Y3832087D02*
D03*
X4440000Y4095000D02*
D03*
X4440001Y3959175D02*
D03*
X4200001Y3957088D02*
D03*
X4200000Y4092913D02*
D03*
X3780000Y3290000D02*
D03*
X3780001Y3154175D02*
D03*
X4965000Y3135000D02*
D03*
X4965001Y2999175D02*
D03*
D41*
X6274961Y3725000D02*
D03*
X6145039D02*
D03*
D42*
X5315472Y3368150D02*
D03*
X5145000Y3265000D02*
D03*
D43*
X5180000Y2891876D02*
D03*
Y3008124D02*
D03*
X5315000Y2896876D02*
D03*
Y3013124D02*
D03*
D44*
X4965000Y3233583D02*
D03*
Y3306417D02*
D03*
D45*
X3888504Y4965000D02*
D03*
X3951496D02*
D03*
X5388504Y5375000D02*
D03*
X5451496D02*
D03*
X5388504Y5295000D02*
D03*
X5451496D02*
D03*
X5380000Y5210000D02*
D03*
X5442992D02*
D03*
X2562008Y5010000D02*
D03*
X2625000D02*
D03*
X2563504Y4835000D02*
D03*
X2626496D02*
D03*
D46*
X7496221Y4190000D02*
D03*
X7523780D02*
D03*
X7527559Y4350000D02*
D03*
X7500000D02*
D03*
X4867559Y6450000D02*
D03*
X4840000D02*
D03*
X4868780Y6550000D02*
D03*
X4841221D02*
D03*
X4870000Y6650000D02*
D03*
X4842441D02*
D03*
X5637559Y6550000D02*
D03*
X5610000D02*
D03*
X3612559Y4570000D02*
D03*
X3585000D02*
D03*
X3612559Y4665000D02*
D03*
X3585000D02*
D03*
D47*
X7429291Y4090000D02*
D03*
X7510000D02*
D03*
X7515000Y4440000D02*
D03*
X7434291D02*
D03*
X6244646Y5735000D02*
D03*
X6325354D02*
D03*
D48*
X3725000Y5493701D02*
D03*
X3775000D02*
D03*
X3825000D02*
D03*
X3875000D02*
D03*
Y5706299D02*
D03*
X3825000D02*
D03*
X3775000D02*
D03*
X3725000D02*
D03*
D49*
X3745000Y5154291D02*
D03*
Y5235000D02*
D03*
X3835000Y5154291D02*
D03*
Y5235000D02*
D03*
X4045000Y6500354D02*
D03*
Y6419646D02*
D03*
X3940000Y5914646D02*
D03*
Y5995354D02*
D03*
X3155000Y6045709D02*
D03*
Y5965000D02*
D03*
D50*
X7205000Y5075000D02*
D03*
D51*
X7155787Y5173551D02*
D03*
X7175472D02*
D03*
X7195158D02*
D03*
X7214842D02*
D03*
X7234528D02*
D03*
X7254213D02*
D03*
Y4976449D02*
D03*
X7234528D02*
D03*
X7214842D02*
D03*
X7195158D02*
D03*
X7175472D02*
D03*
X7155787D02*
D03*
D52*
X7283866Y5143898D02*
D03*
Y5124213D02*
D03*
Y5104528D02*
D03*
Y5084842D02*
D03*
Y5065158D02*
D03*
Y5045472D02*
D03*
Y5025787D02*
D03*
Y5006102D02*
D03*
X7126134D02*
D03*
Y5025787D02*
D03*
Y5045472D02*
D03*
Y5065158D02*
D03*
Y5084842D02*
D03*
Y5104528D02*
D03*
Y5124213D02*
D03*
Y5143898D02*
D03*
D53*
X4574213Y5710000D02*
D03*
X4475787D02*
D03*
D54*
X4730000Y6239016D02*
D03*
Y5865000D02*
D03*
D55*
X6279370Y4762598D02*
D03*
Y4837402D02*
D03*
X6200630Y4800000D02*
D03*
D56*
X5949086Y5017402D02*
D03*
D57*
Y4980000D02*
D03*
Y4942598D02*
D03*
X6040914D02*
D03*
Y5017402D02*
D03*
D58*
X5800591Y5526772D02*
D03*
Y5501181D02*
D03*
Y5475591D02*
D03*
Y5450000D02*
D03*
Y5424409D02*
D03*
Y5398819D02*
D03*
Y5373228D02*
D03*
Y5347638D02*
D03*
Y5322047D02*
D03*
Y5296457D02*
D03*
X6025000Y5526772D02*
D03*
Y5501181D02*
D03*
Y5475591D02*
D03*
Y5450000D02*
D03*
Y5424409D02*
D03*
Y5398819D02*
D03*
Y5373228D02*
D03*
Y5347638D02*
D03*
Y5322047D02*
D03*
Y5296457D02*
D03*
X5795591Y5887362D02*
D03*
Y5861772D02*
D03*
Y5836181D02*
D03*
Y5810591D02*
D03*
Y5785000D02*
D03*
Y5759409D02*
D03*
Y5733819D02*
D03*
X6020000Y5887362D02*
D03*
Y5861772D02*
D03*
Y5836181D02*
D03*
Y5810591D02*
D03*
Y5785000D02*
D03*
Y5759409D02*
D03*
Y5733819D02*
D03*
D59*
X4416339Y5398032D02*
D03*
Y5378346D02*
D03*
Y5358661D02*
D03*
Y5338976D02*
D03*
Y5319291D02*
D03*
Y5299606D02*
D03*
Y5279921D02*
D03*
Y5260236D02*
D03*
Y5240551D02*
D03*
Y5220866D02*
D03*
Y5201181D02*
D03*
Y5181496D02*
D03*
Y5161811D02*
D03*
Y5142126D02*
D03*
Y5122441D02*
D03*
Y5102756D02*
D03*
X4867126D02*
D03*
Y5122441D02*
D03*
Y5142126D02*
D03*
Y5161811D02*
D03*
Y5181496D02*
D03*
Y5201181D02*
D03*
Y5220866D02*
D03*
Y5240551D02*
D03*
Y5260236D02*
D03*
Y5279921D02*
D03*
Y5299606D02*
D03*
Y5319291D02*
D03*
Y5338976D02*
D03*
Y5358661D02*
D03*
Y5378346D02*
D03*
Y5398032D02*
D03*
D60*
X4494095Y5025000D02*
D03*
X4513779D02*
D03*
X4533465D02*
D03*
X4553150D02*
D03*
X4572835D02*
D03*
X4592520D02*
D03*
X4612205D02*
D03*
X4631890D02*
D03*
X4651575D02*
D03*
X4671260D02*
D03*
X4690945D02*
D03*
X4710630D02*
D03*
X4730315D02*
D03*
X4750000D02*
D03*
X4769685D02*
D03*
X4789370D02*
D03*
Y5475787D02*
D03*
X4769685D02*
D03*
X4750000D02*
D03*
X4730315D02*
D03*
X4710630D02*
D03*
X4690945D02*
D03*
X4671260D02*
D03*
X4651575D02*
D03*
X4631890D02*
D03*
X4612205D02*
D03*
X4592520D02*
D03*
X4572835D02*
D03*
X4553150D02*
D03*
X4533465D02*
D03*
X4513779D02*
D03*
X4494095D02*
D03*
D61*
X3357599Y6039803D02*
D03*
X3395000Y5965000D02*
D03*
X3320197D02*
D03*
D62*
X4535000Y4348071D02*
D03*
Y4481929D02*
D03*
X3430000Y5718071D02*
D03*
Y5851929D02*
D03*
X6420000Y6548071D02*
D03*
Y6681929D02*
D03*
X6190000Y6558071D02*
D03*
Y6691929D02*
D03*
X5990000Y6558071D02*
D03*
Y6691929D02*
D03*
X5760000Y6558071D02*
D03*
Y6691929D02*
D03*
D63*
X5589567Y6160000D02*
D03*
X5660433D02*
D03*
X5589567Y6070000D02*
D03*
X5660433D02*
D03*
D64*
X6276535Y4945000D02*
D03*
X6343465D02*
D03*
D65*
X5690000Y5080000D02*
D03*
X5611260D02*
D03*
D66*
X5698386Y4905000D02*
D03*
X5621614D02*
D03*
D67*
X4635000Y4483386D02*
D03*
Y4406614D02*
D03*
D68*
X3145000Y4338504D02*
D03*
Y4401496D02*
D03*
X2965000Y4338504D02*
D03*
Y4401496D02*
D03*
D69*
X3330000Y5783003D02*
D03*
Y5850000D02*
D03*
D70*
X6420000Y6414567D02*
D03*
Y6485433D02*
D03*
X6190000Y6414567D02*
D03*
Y6485433D02*
D03*
X5990000Y6419567D02*
D03*
Y6490433D02*
D03*
X5760000Y6419567D02*
D03*
Y6490433D02*
D03*
D71*
X5128701Y6650000D02*
D03*
Y6550000D02*
D03*
X5341299Y6650000D02*
D03*
Y6550000D02*
D03*
X5128701Y6450000D02*
D03*
X5341299D02*
D03*
D72*
X3840000Y6265000D02*
D03*
X3940000Y6150000D02*
D03*
X4040000Y6265000D02*
D03*
X4140000Y6150000D02*
D03*
D73*
X4510000Y6621299D02*
D03*
X4410000D02*
D03*
X4510000Y6408701D02*
D03*
X4410000D02*
D03*
X4310000Y6621299D02*
D03*
Y6408701D02*
D03*
X6885000Y6051299D02*
D03*
X6785000D02*
D03*
X6885000Y5838701D02*
D03*
X6785000D02*
D03*
X6685000Y6051299D02*
D03*
Y5838701D02*
D03*
X7415000Y5778701D02*
D03*
Y5991299D02*
D03*
X7515000Y5778701D02*
D03*
X7615000D02*
D03*
X7515000Y5991299D02*
D03*
X7615000D02*
D03*
D74*
X5205000Y4956220D02*
D03*
Y4983779D02*
D03*
X5010000Y4951220D02*
D03*
Y4978779D02*
D03*
D75*
X5182205Y5375000D02*
D03*
X5320000D02*
D03*
X5182205Y5295000D02*
D03*
X5320000D02*
D03*
X5182205Y5210000D02*
D03*
X5320000D02*
D03*
X2703898Y5090000D02*
D03*
X2566102D02*
D03*
X2703898Y4925000D02*
D03*
X2566102D02*
D03*
X3686102Y4965000D02*
D03*
X3823898D02*
D03*
D76*
X3225000Y4480000D02*
D03*
Y4342205D02*
D03*
X3060000Y4478898D02*
D03*
Y4341102D02*
D03*
D77*
X5696417Y4995000D02*
D03*
X5623583D02*
D03*
X4160000Y5225000D02*
D03*
X4087165D02*
D03*
D78*
X4275000Y5798583D02*
D03*
Y5871417D02*
D03*
X4985000Y5865000D02*
D03*
Y5937835D02*
D03*
X3250000Y5850000D02*
D03*
Y5777165D02*
D03*
X6785000Y5600000D02*
D03*
Y5672835D02*
D03*
D79*
X3784803Y4137402D02*
D03*
Y4100000D02*
D03*
Y4062599D02*
D03*
X3885197D02*
D03*
Y4137402D02*
D03*
D80*
X3775945Y3950000D02*
D03*
X3894055D02*
D03*
D81*
X2680000Y3939918D02*
D03*
Y4060082D02*
D03*
D82*
X2585000Y3932835D02*
D03*
Y4037165D02*
D03*
D83*
X7160000Y4652520D02*
D03*
Y4717480D02*
D03*
D84*
X7375000Y4710000D02*
D03*
Y4633228D02*
D03*
X7300000Y4708386D02*
D03*
Y4631614D02*
D03*
X7230000Y4708386D02*
D03*
Y4631614D02*
D03*
X6885000Y6215000D02*
D03*
Y6291772D02*
D03*
X7410000Y6146614D02*
D03*
Y6223386D02*
D03*
D85*
X6875000Y4940000D02*
D03*
X6716339D02*
D03*
X7500000Y5090000D02*
D03*
X7658661D02*
D03*
D86*
X7085000Y4628661D02*
D03*
Y4711339D02*
D03*
D87*
X6872165Y5045000D02*
D03*
X6767835D02*
D03*
X7864331Y5085000D02*
D03*
X7760000D02*
D03*
D88*
X6785000Y4480000D02*
D03*
X6867677D02*
D03*
D89*
X7305472Y5470000D02*
D03*
X7464528D02*
D03*
D90*
X7865000Y5511063D02*
D03*
Y5265000D02*
D03*
D91*
X6935000Y3833110D02*
D03*
Y3715000D02*
D03*
X7325000Y3835000D02*
D03*
Y3716890D02*
D03*
D92*
X6935000Y4035000D02*
D03*
Y3912953D02*
D03*
X7325000Y4037047D02*
D03*
Y3915000D02*
D03*
D94*
X6842756Y3561929D02*
D03*
X6866378D02*
D03*
X6890000D02*
D03*
X6913622D02*
D03*
X6937244D02*
D03*
X6842756Y3441850D02*
D03*
X6866378D02*
D03*
X6890000D02*
D03*
X6913622D02*
D03*
X6937244D02*
D03*
X7222756Y3570079D02*
D03*
X7246378D02*
D03*
X7270000D02*
D03*
X7293622D02*
D03*
X7317244D02*
D03*
Y3450000D02*
D03*
X7293622D02*
D03*
X7270000D02*
D03*
X7246378D02*
D03*
X7222756D02*
D03*
D95*
X6810000Y3839921D02*
D03*
Y3710000D02*
D03*
X7210000Y3844961D02*
D03*
Y3715039D02*
D03*
D105*
X8451000Y5135981D02*
X8490987D01*
X8470994D01*
Y5076000D01*
X8540971Y5135981D02*
X8520977D01*
X8510981Y5125984D01*
Y5085997D01*
X8520977Y5076000D01*
X8540971D01*
X8550968Y5085997D01*
Y5125984D01*
X8540971Y5135981D01*
X8570961Y5076000D02*
Y5135981D01*
X8600951D01*
X8610948Y5125984D01*
Y5105990D01*
X8600951Y5095993D01*
X8570961D01*
X8690922Y5076000D02*
Y5135981D01*
X8720913D01*
X8730909Y5125984D01*
Y5105990D01*
X8720913Y5095993D01*
X8690922D01*
X8790890Y5125984D02*
X8780893Y5135981D01*
X8760900D01*
X8750903Y5125984D01*
Y5115987D01*
X8760900Y5105990D01*
X8780893D01*
X8790890Y5095993D01*
Y5085997D01*
X8780893Y5076000D01*
X8760900D01*
X8750903Y5085997D01*
X8810884Y5135981D02*
X8850871D01*
X8830877D01*
Y5076000D01*
%TF.MD5,0df7a08e29eadd3895fb2d8b47201e1e*%
M02*
