%TF.GenerationSoftware,Altium Limited,Altium Designer,21.0.9 (235)*%
G04 Layer_Color=16711935*
%FSLAX26Y26*%
%MOIN*%
%TF.SameCoordinates,5BE5EA85-216B-4E4C-B8B6-EAA837D7D1E1*%
%TF.FilePolarity,Negative*%
%TF.FileFunction,Soldermask,Bot*%
%TF.Part,Single*%
G01*
G75*
%TA.AperFunction,NonConductor*%
%ADD105C,0.006000*%
%TA.AperFunction,ComponentPad*%
%ADD106R,0.061811X0.061811*%
%ADD107C,0.061811*%
%ADD108C,0.078740*%
%ADD109R,0.078740X0.078740*%
%ADD120R,0.061811X0.061811*%
%ADD142C,0.320961*%
%ADD143C,0.067024*%
%ADD144C,0.055213*%
%ADD145C,0.068992*%
%ADD146R,0.068992X0.068992*%
%TA.AperFunction,ViaPad*%
%ADD147C,0.166000*%
%TA.AperFunction,ComponentPad*%
%ADD148C,0.066000*%
%ADD149R,0.068992X0.068992*%
%ADD150R,0.045370X0.045370*%
%ADD151C,0.045370*%
D105*
X8451000Y4435981D02*
Y4376000D01*
X8480990D01*
X8490987Y4385997D01*
Y4395993D01*
X8480990Y4405990D01*
X8451000D01*
X8480990D01*
X8490987Y4415987D01*
Y4425984D01*
X8480990Y4435981D01*
X8451000D01*
X8510981Y4376000D02*
Y4435981D01*
X8530974Y4415987D01*
X8550968Y4435981D01*
Y4376000D01*
X8570961D02*
Y4415987D01*
X8590955Y4435981D01*
X8610948Y4415987D01*
Y4376000D01*
Y4405990D01*
X8570961D01*
X8670929Y4425984D02*
X8660932Y4435981D01*
X8640939D01*
X8630942Y4425984D01*
Y4415987D01*
X8640939Y4405990D01*
X8660932D01*
X8670929Y4395993D01*
Y4385997D01*
X8660932Y4376000D01*
X8640939D01*
X8630942Y4385997D01*
X8690922Y4435981D02*
Y4376000D01*
Y4395993D01*
X8730909Y4435981D01*
X8700919Y4405990D01*
X8730909Y4376000D01*
D106*
X7090000Y4475000D02*
D03*
X5205000Y4735000D02*
D03*
D107*
X6990000Y4475000D02*
D03*
X5105000Y4735000D02*
D03*
X5005000D02*
D03*
X5300000Y5965000D02*
D03*
Y6065000D02*
D03*
X4050000Y4550000D02*
D03*
Y4450000D02*
D03*
D108*
X4453425Y3258425D02*
D03*
X4355000Y2963150D02*
D03*
D109*
X4256575Y3258425D02*
D03*
D120*
X5300000Y5865000D02*
D03*
X4050000Y4650000D02*
D03*
D142*
X3955000Y2780000D02*
D03*
X4765000Y2790000D02*
D03*
D143*
X6840000Y4210000D02*
D03*
X7245000Y4225000D02*
D03*
X5265000Y4510000D02*
D03*
D144*
X3290000Y3845000D02*
D03*
Y4041850D02*
D03*
X3080000Y3846575D02*
D03*
Y4043425D02*
D03*
X2875000Y3846575D02*
D03*
Y4043425D02*
D03*
D145*
X3740000Y3550000D02*
D03*
X3290000D02*
D03*
X4190000D02*
D03*
X3821220Y4765000D02*
D03*
Y4665000D02*
D03*
Y4465000D02*
D03*
Y4565000D02*
D03*
X5795000Y2870000D02*
D03*
X5825000Y3525000D02*
D03*
X5505000Y3060000D02*
D03*
X5485000Y3315000D02*
D03*
X4640000Y3550000D02*
D03*
X6485000Y4770000D02*
D03*
Y4870000D02*
D03*
Y5170000D02*
D03*
Y5270000D02*
D03*
Y5370000D02*
D03*
Y5570000D02*
D03*
Y5670000D02*
D03*
Y5870000D02*
D03*
Y6070000D02*
D03*
Y6170000D02*
D03*
Y5970000D02*
D03*
Y5770000D02*
D03*
Y5470000D02*
D03*
Y5070000D02*
D03*
Y4970000D02*
D03*
X7880000Y4340000D02*
D03*
Y4843425D02*
D03*
D146*
X3540000Y3550000D02*
D03*
X3090000D02*
D03*
X3990000D02*
D03*
X3821220Y4365000D02*
D03*
X4440000Y3550000D02*
D03*
X6485000Y6270000D02*
D03*
X7880000Y4143150D02*
D03*
Y4646575D02*
D03*
D147*
X7123627Y2950592D02*
D03*
X3561127D02*
D03*
Y6388092D02*
D03*
X7123627D02*
D03*
D148*
X6050000Y2820000D02*
D03*
X6282283Y3560157D02*
D03*
D149*
X5795000Y3070000D02*
D03*
X5825000Y3325000D02*
D03*
X5505000Y2860000D02*
D03*
X5485000Y3515000D02*
D03*
D150*
X4285000Y4610000D02*
D03*
D151*
Y4660000D02*
D03*
X4335000Y4610000D02*
D03*
Y4660000D02*
D03*
X4385000Y4610000D02*
D03*
Y4660000D02*
D03*
X4435000Y4610000D02*
D03*
Y4660000D02*
D03*
X4485000Y4610000D02*
D03*
Y4660000D02*
D03*
X4535000Y4610000D02*
D03*
Y4660000D02*
D03*
X4585000Y4610000D02*
D03*
Y4660000D02*
D03*
%TF.MD5,d0bfabe3e4df6d56cea46635fe54de60*%
M02*
