%TF.GenerationSoftware,Altium Limited,Altium Designer,21.0.9 (235)*%
G04 Layer_Color=128*
%FSLAX26Y26*%
%MOIN*%
%TF.SameCoordinates,5BE5EA85-216B-4E4C-B8B6-EAA837D7D1E1*%
%TF.FilePolarity,Positive*%
%TF.FileFunction,Paste,Bot*%
%TF.Part,Single*%
G01*
G75*
%TA.AperFunction,NonConductor*%
%ADD105C,0.006000*%
D105*
X8454000Y4228981D02*
Y4169000D01*
X8483990D01*
X8493987Y4178997D01*
Y4188993D01*
X8483990Y4198990D01*
X8454000D01*
X8483990D01*
X8493987Y4208987D01*
Y4218984D01*
X8483990Y4228981D01*
X8454000D01*
X8543971D02*
X8523977D01*
X8513981Y4218984D01*
Y4178997D01*
X8523977Y4169000D01*
X8543971D01*
X8553968Y4178997D01*
Y4218984D01*
X8543971Y4228981D01*
X8573961D02*
X8613948D01*
X8593955D01*
Y4169000D01*
X8693922D02*
Y4228981D01*
X8723913D01*
X8733909Y4218984D01*
Y4198990D01*
X8723913Y4188993D01*
X8693922D01*
X8793890Y4218984D02*
X8783893Y4228981D01*
X8763900D01*
X8753903Y4218984D01*
Y4208987D01*
X8763900Y4198990D01*
X8783893D01*
X8793890Y4188993D01*
Y4178997D01*
X8783893Y4169000D01*
X8763900D01*
X8753903Y4178997D01*
X8813884Y4228981D02*
X8853871D01*
X8833877D01*
Y4169000D01*
%TF.MD5,91c329d68783438332c116e4fffd2f9e*%
M02*
