%TF.GenerationSoftware,Altium Limited,Altium Designer,21.0.9 (235)*%
G04 Layer_Physical_Order=4*
G04 Layer_Color=16711680*
%FSLAX26Y26*%
%MOIN*%
%TF.SameCoordinates,5BE5EA85-216B-4E4C-B8B6-EAA837D7D1E1*%
%TF.FilePolarity,Positive*%
%TF.FileFunction,Copper,L4,Bot,Signal*%
%TF.Part,Single*%
G01*
G75*
%TA.AperFunction,Conductor*%
%ADD96C,0.010000*%
%ADD98C,0.025000*%
%ADD99C,0.012000*%
%ADD104C,0.050000*%
%TA.AperFunction,NonConductor*%
%ADD105C,0.006000*%
%TA.AperFunction,ComponentPad*%
%ADD106R,0.061811X0.061811*%
%ADD107C,0.061811*%
%ADD108C,0.078740*%
%ADD109R,0.078740X0.078740*%
%ADD110C,0.314961*%
%ADD111C,0.061024*%
%ADD112C,0.049213*%
%ADD113C,0.062992*%
%ADD114R,0.062992X0.062992*%
%TA.AperFunction,ViaPad*%
%ADD115C,0.160000*%
%TA.AperFunction,ComponentPad*%
%ADD116C,0.060000*%
%ADD117R,0.062992X0.062992*%
%ADD118R,0.039370X0.039370*%
%ADD119C,0.039370*%
%ADD120R,0.061811X0.061811*%
%TA.AperFunction,ViaPad*%
%ADD121C,0.020000*%
%ADD122C,0.019685*%
%ADD123C,0.050000*%
D96*
X7391315Y5128370D02*
X7559055Y4960630D01*
X7047244Y5128370D02*
X7391315D01*
X6685458Y4942630D02*
X6780519D01*
X6875148Y4848000D01*
X7118000Y4804294D02*
Y4807000D01*
X7115905Y4802199D02*
X7118000Y4804294D01*
X6495253Y4921260D02*
X6586513Y4830000D01*
X5196850Y4921260D02*
X6495253D01*
X6586513Y4830000D02*
X7176000D01*
X6603087Y5025000D02*
X6685458Y4942630D01*
X7115905Y4500905D02*
Y4802199D01*
X6267147Y5025000D02*
X6603087D01*
X6289842Y4970000D02*
X6485000D01*
X7176000Y4830000D02*
X7230000Y4776000D01*
X6875148Y4848000D02*
X7249000D01*
X7204724Y4960630D02*
X7401575Y4763779D01*
X6692913Y4960630D02*
X7204724D01*
X5000000Y5118110D02*
X5196850Y4921260D01*
X6535433Y5118110D02*
X6692913Y4960630D01*
X4724409Y5236221D02*
X4765252Y5195378D01*
X6073926Y5218221D02*
X6267147Y5025000D01*
X5596860Y5218221D02*
X6073926D01*
X5592018Y5213378D02*
X5596860Y5218221D01*
X4987458Y5248000D02*
X5022080Y5213378D01*
X4958000Y5248000D02*
X4987458D01*
X5022080Y5213378D02*
X5592018D01*
X4765252Y5195378D02*
X5748032D01*
X6347323Y5070000D02*
X6485000D01*
X6259842Y5157480D02*
X6347323Y5070000D01*
X6417323Y5118110D02*
X6535433D01*
X5039370Y5236221D02*
X6299213D01*
X6692913Y5000000D02*
Y5055913D01*
X6299213Y5236221D02*
X6417323Y5118110D01*
Y5275591D02*
X6456693Y5314961D01*
X4803150Y5275591D02*
X6417323D01*
X6692913Y5055913D02*
X6754000Y5117000D01*
X4763779Y6496063D02*
X5944882D01*
X4724409Y6456693D02*
X4763779Y6496063D01*
X4448819Y6456693D02*
X4724409D01*
X4566929Y5000000D02*
Y5157480D01*
X4488189Y4921260D02*
X4566929Y5000000D01*
X3543307Y4921260D02*
X4488189D01*
X3503937Y5196850D02*
X4488189D01*
X3188976Y4527559D02*
X3351535Y4365000D01*
X3821220D01*
X3503937Y5039370D02*
X4488189D01*
X4527559Y5078740D01*
Y5118110D01*
X5629921Y4566929D02*
Y4803150D01*
X5354331Y4291339D02*
X5629921Y4566929D01*
X4685039Y4291339D02*
X5354331D01*
X4606299Y4212598D02*
X4685039Y4291339D01*
X3228347Y4212598D02*
X4606299D01*
X3070866Y4370079D02*
X3228347Y4212598D01*
X3070866Y4370079D02*
Y5118110D01*
X3149606Y4448819D02*
Y4645669D01*
Y4448819D02*
X3307087Y4291339D01*
X4409449D01*
X4842520Y4724409D01*
Y5078740D01*
X4960630Y6220472D02*
X5669291D01*
X4566929Y5826772D02*
X4960630Y6220472D01*
X2834646Y5826772D02*
X4566929D01*
X3149606Y5748032D02*
X4881890D01*
X5157480Y6023622D01*
Y6062992D01*
X5236221Y6141732D01*
X5669291D01*
X5708661Y6102362D01*
X7559055Y4881890D02*
Y4960630D01*
X6278661Y5570000D02*
X6485000D01*
X6220472Y5511811D02*
X6278661Y5570000D01*
X6102362Y5157480D02*
X6289842Y4970000D01*
X4212598Y5275591D02*
Y5354331D01*
X4488189Y5629921D01*
X5551181D01*
X5590551Y5590551D01*
X5944882D01*
X5866142Y5314961D02*
X5944882Y5393701D01*
Y5590551D01*
X6252835Y6070000D02*
X6485000D01*
X6220472Y6102362D02*
X6252835Y6070000D01*
X6771654Y6141732D02*
X6889764D01*
X7090000Y4475000D02*
X7115905Y4500905D01*
X4606299Y5118110D02*
X4645669Y5078740D01*
X4606299Y5118110D02*
Y5393701D01*
X4685039Y5472441D01*
X5590551D01*
X5629921Y5511811D01*
X4645669Y5118110D02*
Y5236221D01*
X4724409Y5314961D01*
X5590551D01*
X4803150Y5354331D02*
X5866142D01*
X5669291Y5433071D02*
X5708661Y5393701D01*
X5039370Y5433071D02*
X5669291D01*
X4960630Y5393701D02*
X5629921D01*
X4724409Y5236221D02*
Y5275591D01*
X4685039Y5157480D02*
X5275591D01*
X3779528Y4881890D02*
X4685039D01*
X3700787Y4803150D02*
X3779528Y4881890D01*
X3700787Y4685433D02*
Y4803150D01*
Y4685433D02*
X3821220Y4565000D01*
X5078740Y4842520D02*
X5866142D01*
X6377953Y4330709D01*
Y4251968D02*
Y4330709D01*
Y4251968D02*
X6653543Y3976378D01*
X7834646D01*
X7992126Y4133858D01*
Y4227874D01*
X7880000Y4340000D02*
X7992126Y4227874D01*
X6456693Y5314961D02*
X7637795D01*
X7773382Y5179374D01*
Y4249767D02*
Y5179374D01*
Y4249767D02*
X7880000Y4143150D01*
X4281299Y4606299D02*
X4285000Y4610000D01*
X4173228Y4606299D02*
X4281299D01*
X4341929Y4566929D02*
X4385000Y4610000D01*
X4251968Y4566929D02*
X4341929D01*
X3998740Y4842520D02*
X4685039D01*
X3821220Y4665000D02*
X3998740Y4842520D01*
X4881890Y4881890D02*
Y5078740D01*
Y4881890D02*
X4960630Y4803150D01*
X5136850D01*
X5205000Y4735000D01*
X2952756Y5236221D02*
X4291339D01*
X2677165Y4960630D02*
X2952756Y5236221D01*
X2677165Y4291339D02*
Y4960630D01*
X4212598Y4660000D02*
X4285000D01*
X4202598Y4650000D02*
X4212598Y4660000D01*
X4050000Y4650000D02*
X4202598D01*
X4645669Y4566929D02*
X4803150Y4724409D01*
X4578071Y4566929D02*
X4645669D01*
X4535000Y4610000D02*
X4578071Y4566929D01*
X5911500Y4397500D02*
X5912000Y4397000D01*
X5911000Y4478000D02*
X5911500Y4477500D01*
D98*
X6694146Y5158713D02*
X7402807D01*
X6692913Y5157480D02*
X6694146Y5158713D01*
X7402807D02*
X7480315Y5236221D01*
X3290000Y3845000D02*
X3385827D01*
X3540000Y3690827D01*
Y3550000D02*
Y3690827D01*
X7480315Y5236221D02*
X7677165D01*
D99*
X5786260Y5865000D02*
X5787402Y5866142D01*
X5300000Y5865000D02*
X5786260D01*
X4409449Y5511811D02*
X4488189D01*
X4527559Y5472441D01*
X3994905Y4494905D02*
X4050000Y4550000D01*
X3851126Y4494905D02*
X3994905D01*
X3821220Y4465000D02*
X3851126Y4494905D01*
X4094488Y5078740D02*
X4409449D01*
X4527559Y5472441D02*
X4606299Y5551181D01*
X4803150D01*
X4409449Y5078740D02*
X4527559Y5196850D01*
Y5472441D01*
X5787402Y5866142D02*
Y5944882D01*
Y5669291D02*
Y5866142D01*
X5748032Y5629921D02*
X5787402Y5669291D01*
X6181102Y6062992D02*
Y6102362D01*
X6248740Y6170000D01*
X6485000D01*
X6141732Y6023622D02*
X6181102Y6062992D01*
X6023622Y6023622D02*
X6141732D01*
X6181102Y5905512D02*
Y6062992D01*
Y5905512D02*
X6220472Y5866142D01*
X5300000Y6065000D02*
X5982244D01*
X6023622Y6023622D01*
D104*
X4172000Y3020000D02*
Y3355000D01*
Y3020000D02*
X4228850Y2963150D01*
X4355000D01*
X5035000Y2941000D02*
X5079000Y2897000D01*
X5035000Y2941000D02*
Y3420000D01*
X3290000Y3550000D02*
X3292486Y3547514D01*
Y3479289D02*
Y3547514D01*
Y3479289D02*
X3321775Y3450000D01*
X4358000D01*
X4360000Y3452000D01*
X4400711D01*
X4430000Y3481289D01*
Y3491000D01*
X4433504Y3494504D01*
Y3543504D01*
X4440000Y3550000D01*
D105*
X8451000Y4535981D02*
Y4476000D01*
X8480990D01*
X8490987Y4485997D01*
Y4495993D01*
X8480990Y4505990D01*
X8451000D01*
X8480990D01*
X8490987Y4515987D01*
Y4525984D01*
X8480990Y4535981D01*
X8451000D01*
X8540971D02*
X8520977D01*
X8510981Y4525984D01*
Y4485997D01*
X8520977Y4476000D01*
X8540971D01*
X8550968Y4485997D01*
Y4525984D01*
X8540971Y4535981D01*
X8570961D02*
X8610948D01*
X8590955D01*
Y4476000D01*
D106*
X7090000Y4475000D02*
D03*
X5205000Y4735000D02*
D03*
D107*
X6990000Y4475000D02*
D03*
X5105000Y4735000D02*
D03*
X5005000D02*
D03*
X5300000Y5965000D02*
D03*
Y6065000D02*
D03*
X4050000Y4550000D02*
D03*
Y4450000D02*
D03*
D108*
X4453425Y3258425D02*
D03*
X4355000Y2963150D02*
D03*
D109*
X4256575Y3258425D02*
D03*
D110*
X3955000Y2780000D02*
D03*
X4765000Y2790000D02*
D03*
D111*
X6840000Y4210000D02*
D03*
X7245000Y4225000D02*
D03*
X5265000Y4510000D02*
D03*
D112*
X3290000Y3845000D02*
D03*
Y4041850D02*
D03*
X3080000Y3846575D02*
D03*
Y4043425D02*
D03*
X2875000Y3846575D02*
D03*
Y4043425D02*
D03*
D113*
X3740000Y3550000D02*
D03*
X3290000D02*
D03*
X4190000D02*
D03*
X3821220Y4765000D02*
D03*
Y4665000D02*
D03*
Y4465000D02*
D03*
Y4565000D02*
D03*
X5795000Y2870000D02*
D03*
X5825000Y3525000D02*
D03*
X5505000Y3060000D02*
D03*
X5485000Y3315000D02*
D03*
X4640000Y3550000D02*
D03*
X6485000Y4770000D02*
D03*
Y4870000D02*
D03*
Y5170000D02*
D03*
Y5270000D02*
D03*
Y5370000D02*
D03*
Y5570000D02*
D03*
Y5670000D02*
D03*
Y5870000D02*
D03*
Y6070000D02*
D03*
Y6170000D02*
D03*
Y5970000D02*
D03*
Y5770000D02*
D03*
Y5470000D02*
D03*
Y5070000D02*
D03*
Y4970000D02*
D03*
X7880000Y4340000D02*
D03*
Y4843425D02*
D03*
D114*
X3540000Y3550000D02*
D03*
X3090000D02*
D03*
X3990000D02*
D03*
X3821220Y4365000D02*
D03*
X4440000Y3550000D02*
D03*
X6485000Y6270000D02*
D03*
X7880000Y4143150D02*
D03*
Y4646575D02*
D03*
D115*
X7123627Y2950592D02*
D03*
X3561127D02*
D03*
Y6388092D02*
D03*
X7123627D02*
D03*
D116*
X6050000Y2820000D02*
D03*
X6282283Y3560157D02*
D03*
D117*
X5795000Y3070000D02*
D03*
X5825000Y3325000D02*
D03*
X5505000Y2860000D02*
D03*
X5485000Y3515000D02*
D03*
D118*
X4285000Y4610000D02*
D03*
D119*
Y4660000D02*
D03*
X4335000Y4610000D02*
D03*
Y4660000D02*
D03*
X4385000Y4610000D02*
D03*
Y4660000D02*
D03*
X4435000Y4610000D02*
D03*
Y4660000D02*
D03*
X4485000Y4610000D02*
D03*
Y4660000D02*
D03*
X4535000Y4610000D02*
D03*
Y4660000D02*
D03*
X4585000Y4610000D02*
D03*
Y4660000D02*
D03*
D120*
X5300000Y5865000D02*
D03*
X4050000Y4650000D02*
D03*
D121*
X7714000Y4874000D02*
D03*
X4823000Y4346000D02*
D03*
X6365000Y6102000D02*
D03*
X6333000Y6244000D02*
D03*
X5073000Y4655000D02*
D03*
X4947000Y4648000D02*
D03*
X5208000Y5010000D02*
D03*
X3548000Y4570000D02*
D03*
X3556000Y4667000D02*
D03*
X3445000Y5881000D02*
D03*
X2575000Y4075000D02*
D03*
Y4125000D02*
D03*
X6925000Y5088158D02*
D03*
X7249000Y4848000D02*
D03*
X7118000Y4807000D02*
D03*
X6754000Y5117000D02*
D03*
X4958000Y5248000D02*
D03*
X5946000Y4439000D02*
D03*
X5977000Y4479000D02*
D03*
X5911000Y4478000D02*
D03*
X5912000Y4397000D02*
D03*
X5970000D02*
D03*
X6807000Y3880000D02*
D03*
X6741000Y4033000D02*
D03*
X6323000Y3727000D02*
D03*
X4590000Y5576000D02*
D03*
X4475000Y5890000D02*
D03*
X4579000Y5894000D02*
D03*
X6064000Y4324000D02*
D03*
X6118000Y4325000D02*
D03*
X5422000Y4510000D02*
D03*
X5407000Y4691000D02*
D03*
X6278000Y3936000D02*
D03*
X6556000Y3938000D02*
D03*
X6488000Y4572000D02*
D03*
X5769000Y4516000D02*
D03*
X5914000Y4029000D02*
D03*
X5915000Y4141000D02*
D03*
X6468000Y4338000D02*
D03*
X4535000Y4314000D02*
D03*
X4423000Y4389000D02*
D03*
X4795000Y4631000D02*
D03*
X3925000Y4143000D02*
D03*
X3557000Y4091000D02*
D03*
X3700000Y4253000D02*
D03*
X4777000Y3847000D02*
D03*
D122*
X4960630Y5708661D02*
D03*
Y5590551D02*
D03*
X7360496Y5070184D02*
D03*
X7283465Y5236221D02*
D03*
X7047244Y5128370D02*
D03*
X7230000Y4776000D02*
D03*
X6062992Y5195378D02*
D03*
X5748032D02*
D03*
X6259842Y5157480D02*
D03*
X5039370Y5236221D02*
D03*
X7086614Y5000000D02*
D03*
X6692913D02*
D03*
X6771654Y5196850D02*
D03*
X6692913Y5157480D02*
D03*
X4724409Y6496063D02*
D03*
X4921260Y5118110D02*
D03*
X4448819Y6456693D02*
D03*
X4645669Y5314961D02*
D03*
X5944882Y6496063D02*
D03*
X4842520Y6377953D02*
D03*
Y5669291D02*
D03*
X5000000Y6732283D02*
D03*
X7125984Y5354331D02*
D03*
Y5236221D02*
D03*
X4488189Y5354331D02*
D03*
X2992126Y4724409D02*
D03*
X3543307Y4921260D02*
D03*
X4566929Y5157480D02*
D03*
X3503937Y5196850D02*
D03*
X4488189D02*
D03*
X4055118Y5354331D02*
D03*
X3622047Y4960630D02*
D03*
X3937008Y5314961D02*
D03*
X3188976Y4527559D02*
D03*
X4527559Y5118110D02*
D03*
X3503937Y5039370D02*
D03*
X3070866Y5118110D02*
D03*
X5629921Y4803150D02*
D03*
X4842520Y5078740D02*
D03*
X3149606Y4645669D02*
D03*
X2834646Y4842520D02*
D03*
Y5826772D02*
D03*
X5669291Y6220472D02*
D03*
X5708661Y6102362D02*
D03*
X3149606Y5748032D02*
D03*
X7322835Y6062992D02*
D03*
Y5039370D02*
D03*
X7362205Y6220472D02*
D03*
X4803150Y5787402D02*
D03*
X4763779Y5236221D02*
D03*
X4606299Y6141732D02*
D03*
X4566929Y5393701D02*
D03*
X4055118Y5000000D02*
D03*
X4488189Y5314961D02*
D03*
X7559055Y4881890D02*
D03*
X7007874Y5866142D02*
D03*
X6220472Y5511811D02*
D03*
X6102362Y5157480D02*
D03*
X5944882Y5590551D02*
D03*
X4212598Y5275591D02*
D03*
X5866142Y5314961D02*
D03*
X6220472Y6102362D02*
D03*
X5118110Y5118110D02*
D03*
X5039370D02*
D03*
X6889764Y6141732D02*
D03*
X6771654D02*
D03*
X3818898Y5944882D02*
D03*
Y6141732D02*
D03*
X4330709Y5314961D02*
D03*
Y6535433D02*
D03*
X4448819Y6574803D02*
D03*
X4370079Y5275591D02*
D03*
X5866142Y5551181D02*
D03*
X4645669Y4960630D02*
D03*
X5629921Y5511811D02*
D03*
X4645669Y5078740D02*
D03*
X5590551Y5314961D02*
D03*
X4645669Y5118110D02*
D03*
X5866142Y5433071D02*
D03*
X4685039Y4921260D02*
D03*
X5866142Y5354331D02*
D03*
X4803150D02*
D03*
X5039370Y5433071D02*
D03*
X5708661Y5393701D02*
D03*
X5629921D02*
D03*
X4960630D02*
D03*
X4488189Y5275591D02*
D03*
X4724409D02*
D03*
X4842520Y5511811D02*
D03*
X4488189Y5078740D02*
D03*
X4724409Y4803150D02*
D03*
X5354331Y4685039D02*
D03*
X5275591Y5157480D02*
D03*
X4685039D02*
D03*
Y4881890D02*
D03*
X5078740Y4842520D02*
D03*
X4803150Y5275591D02*
D03*
X7401575Y4763779D02*
D03*
X4645669D02*
D03*
X4173228Y4606299D02*
D03*
X4251968Y4566929D02*
D03*
X4685039Y4842520D02*
D03*
X4881890Y5078740D02*
D03*
Y6614173D02*
D03*
X4685039Y5393701D02*
D03*
X4724409Y6417323D02*
D03*
Y5393701D02*
D03*
X4960630Y6535433D02*
D03*
X5236221D02*
D03*
X5118110Y6023622D02*
D03*
X2677165Y4291339D02*
D03*
X4291339Y5236221D02*
D03*
X7086614Y5669291D02*
D03*
X6181102Y6338583D02*
D03*
X4094488Y5078740D02*
D03*
X4803150Y5551181D02*
D03*
X4409449Y5511811D02*
D03*
Y5078740D02*
D03*
X4015748Y4960630D02*
D03*
X4803150Y5433071D02*
D03*
X5787402Y5944882D02*
D03*
X5236221Y6456693D02*
D03*
X6417323Y6338583D02*
D03*
X7283465Y4488189D02*
D03*
X6023622Y6023622D02*
D03*
X6220472Y5866142D02*
D03*
X6062992Y5078740D02*
D03*
X7677165Y5236221D02*
D03*
Y3307087D02*
D03*
X4803150Y4724409D02*
D03*
X5000000Y5118110D02*
D03*
X4251968Y4094488D02*
D03*
X6181102D02*
D03*
X5748032Y5748032D02*
D03*
X3425197Y5944882D02*
D03*
X4881890Y5433071D02*
D03*
X4488189Y5118110D02*
D03*
X4645669Y5354331D02*
D03*
X4409449Y5590551D02*
D03*
X3385827D02*
D03*
X2952756D02*
D03*
X2913386Y5314961D02*
D03*
X3464567Y5196850D02*
D03*
X6102362Y5787402D02*
D03*
X6141732Y6141732D02*
D03*
X3858268Y5433071D02*
D03*
X5905512Y5984252D02*
D03*
X5354331Y6692913D02*
D03*
X6929134Y5826772D02*
D03*
X7559055Y5748032D02*
D03*
X5826772Y5000000D02*
D03*
X4803150Y6456693D02*
D03*
X7244095Y3307087D02*
D03*
X7165354Y4566929D02*
D03*
X5826772Y6692913D02*
D03*
X4803150Y6535433D02*
D03*
X6771654Y4645669D02*
D03*
X4094488Y5275591D02*
D03*
X7165354Y3858268D02*
D03*
X6377953Y5511811D02*
D03*
X4055118Y5157480D02*
D03*
X6811024Y5551181D02*
D03*
X6377953Y5748032D02*
D03*
X6771654Y3307087D02*
D03*
X4960630Y4960630D02*
D03*
X5433071Y5511811D02*
D03*
X6377953Y5905512D02*
D03*
X7795276Y5511811D02*
D03*
X7440945Y4173228D02*
D03*
X6771654Y5275591D02*
D03*
X4881890Y5984252D02*
D03*
X6062992Y6692913D02*
D03*
X4645669Y6299213D02*
D03*
X7165354Y4094488D02*
D03*
X6771654Y4409449D02*
D03*
X3228347Y5708661D02*
D03*
X6456693Y6614173D02*
D03*
X6377953Y4881890D02*
D03*
X6220472Y6614173D02*
D03*
X5511811Y6535433D02*
D03*
X5551181Y4960630D02*
D03*
X4875000Y4210000D02*
D03*
X4904134Y4237165D02*
D03*
Y4182835D02*
D03*
X4845866Y4237165D02*
D03*
Y4182835D02*
D03*
X6930551Y3495000D02*
D03*
X6890000D02*
D03*
X6849449D02*
D03*
X7310551Y3503150D02*
D03*
X7270000D02*
D03*
X7229449D02*
D03*
D123*
X7424000Y5260000D02*
D03*
X7462044Y5153603D02*
D03*
X4724409Y4488189D02*
D03*
X4172000Y3355000D02*
D03*
X4960630Y4881890D02*
D03*
X5748032Y5629921D02*
D03*
X7440945Y4842520D02*
D03*
X6141732Y5590551D02*
D03*
X5035000Y3420000D02*
D03*
X5079000Y2897000D02*
D03*
X5674000Y4142000D02*
D03*
X5394000Y4589000D02*
D03*
%TF.MD5,16b1c1a69117133eeb92e7f50b7bcd4b*%
M02*
