%TF.GenerationSoftware,Altium Limited,Altium Designer,21.0.9 (235)*%
G04 Layer_Physical_Order=3*
G04 Layer_Color=36540*
%FSLAX26Y26*%
%MOIN*%
%TF.SameCoordinates,617CA12B-F850-4EA5-9EC3-0E5FEE419536*%
%TF.FilePolarity,Positive*%
%TF.FileFunction,Copper,L3,Inr,Signal*%
%TF.Part,Single*%
G01*
G75*
%TA.AperFunction,Conductor*%
%ADD72C,0.012000*%
%ADD73C,0.010000*%
%ADD76C,0.022000*%
%TA.AperFunction,NonConductor*%
%ADD84C,0.006000*%
%TA.AperFunction,ComponentPad*%
%ADD85C,0.061024*%
%ADD86C,0.061654*%
%ADD87R,0.061654X0.061654*%
%TA.AperFunction,ViaPad*%
%ADD88C,0.160000*%
%TA.AperFunction,ComponentPad*%
%ADD89R,0.061024X0.061024*%
%ADD90C,0.062992*%
%ADD91R,0.062992X0.062992*%
%ADD92R,0.061811X0.061811*%
%ADD93C,0.061811*%
%ADD94C,0.086614*%
%ADD95C,0.106299*%
%ADD96O,0.059055X0.106299*%
%ADD97O,0.125984X0.043307*%
%ADD98C,0.314961*%
%ADD99C,0.039370*%
%ADD100R,0.039370X0.039370*%
%ADD101C,0.078740*%
%ADD102R,0.078740X0.078740*%
%TA.AperFunction,ViaPad*%
%ADD103C,0.020000*%
%ADD104C,0.028000*%
%ADD105C,0.019685*%
%ADD106C,0.015748*%
D72*
X1811024Y4055118D02*
Y4094488D01*
X2677165Y3394370D02*
Y3464567D01*
Y3394370D02*
X2716535Y3355000D01*
X2770000D01*
X3897638Y5157480D02*
X4015748Y5039370D01*
Y4960630D02*
Y5039370D01*
X3976378Y4921260D02*
X4015748Y4960630D01*
X3937008Y4921260D02*
X3976378D01*
X3858268Y4842520D02*
X3937008Y4921260D01*
X3858268Y4685039D02*
Y4842520D01*
X2598425Y3543307D02*
X2677165Y3464567D01*
X2538307Y3543307D02*
X2598425D01*
X2455000Y3460000D02*
X2538307Y3543307D01*
X4251968Y4488189D02*
X4448819Y4291339D01*
X4251968Y4488189D02*
Y4527559D01*
X4448819Y3937008D02*
Y4291339D01*
X3070866Y3937008D02*
Y4251968D01*
X3110236Y4291339D01*
X3149606D01*
X1653543Y3346457D02*
X1655000Y3345000D01*
Y2820000D02*
Y3345000D01*
X2677165Y3464567D02*
Y3740157D01*
X2834646Y3897638D01*
X4448819Y4291339D02*
X4488189Y4330709D01*
X4606299D01*
X4645669Y4370079D01*
X4763779D01*
X4842520Y4291339D01*
Y4240874D02*
Y4291339D01*
Y4240874D02*
X4881890Y4201504D01*
X5020874D01*
X5039370Y4220000D01*
X5135000D01*
D73*
X4133858Y3818898D02*
Y4212598D01*
X3622047D02*
X4133858D01*
X3622047D02*
Y4251968D01*
X1968504Y4094488D02*
X2559055D01*
X3543307Y3267716D02*
Y3740157D01*
X3346457Y4291339D02*
Y4330709D01*
X3307087Y4370079D02*
X3346457Y4330709D01*
X2637795Y4370079D02*
X3307087D01*
X2559055Y4448819D02*
X2637795Y4370079D01*
X2559055Y4448819D02*
Y4527559D01*
X2519685D02*
X2559055D01*
X1855000Y2820000D02*
Y3705394D01*
X1929134Y3779528D01*
X2244095D01*
X2322835Y4055118D02*
X2992126D01*
X2244095Y3976378D02*
X2992126D01*
X4724409Y3502480D02*
Y3976378D01*
Y3502480D02*
X4881890Y3345000D01*
X4930000D01*
X4724409Y3976378D02*
Y4291339D01*
X3818898D02*
X4015748D01*
X3937008Y3661417D02*
Y3858268D01*
Y3661417D02*
X3976378Y3622047D01*
X4094488D01*
X4133858Y3661417D01*
Y3740157D01*
X3622047Y3307087D02*
Y3976378D01*
Y3307087D02*
X3700787Y3228347D01*
X4008347D01*
X4060000Y3280000D01*
X3661417Y3537480D02*
Y3976378D01*
Y3537480D02*
X3818898Y3380000D01*
X4060000D01*
X3145000Y3346457D02*
Y3400000D01*
X3031496Y3346457D02*
X3145000D01*
X3031496D02*
Y3661417D01*
X3149606Y3779528D01*
X3245000Y3369173D02*
Y3400000D01*
Y3369173D02*
X3267716Y3346457D01*
X3464567D01*
Y3503937D01*
X3245000Y3450000D02*
Y3481220D01*
X3267716Y3503937D01*
X3346457D01*
X3425197Y3582677D01*
Y3700787D01*
X3740157Y5000000D02*
X3976378D01*
X3582677Y4842520D02*
X3740157Y5000000D01*
X3582677Y4291339D02*
Y4842520D01*
X3543307Y4251968D02*
X3582677Y4291339D01*
X3425197Y4251968D02*
X3543307D01*
X3425197Y4212598D02*
Y4251968D01*
Y3976378D02*
Y4212598D01*
X2834646Y4133858D02*
X2913386D01*
X2952756Y4173228D01*
Y4251968D01*
X3031496Y4330709D01*
X3267716D01*
Y4251968D02*
Y4330709D01*
Y4251968D02*
X3307087Y4212598D01*
X3425197D01*
X2480315Y4173228D02*
Y4566929D01*
X3425197D01*
Y4291339D02*
Y4566929D01*
X3464567Y4448819D02*
Y4960630D01*
X4488189Y3543307D02*
Y3700787D01*
X3188976Y3937008D02*
Y4055118D01*
Y3937008D02*
X3267716Y3858268D01*
X3385827D01*
X3464567Y3779528D01*
Y3622047D02*
Y3779528D01*
X2401575Y2677165D02*
X2913386D01*
X2952756Y2716535D01*
Y2795276D01*
X2992126Y2834646D01*
X3228347D01*
X3503937Y3110236D01*
Y4133858D01*
X3464567D02*
X3503937D01*
X2874016Y2755905D02*
Y3818898D01*
X2952756Y3897638D01*
X3110236D01*
Y4094488D01*
X3385827D01*
X3661417Y4251968D02*
X4133858D01*
X4094488Y3858268D02*
Y4015748D01*
X3937008Y4173228D02*
X4094488Y4015748D01*
X3503937Y4173228D02*
X3937008D01*
X3464567Y4212598D02*
X3503937Y4173228D01*
X4133858Y3818898D02*
X4173228Y3779528D01*
X4448819D01*
D76*
X6015394Y2520079D02*
Y2607220D01*
X6015000Y2519685D02*
X6015394Y2520079D01*
X6015000Y2395000D02*
Y2519685D01*
X6565000Y3955000D02*
Y4151850D01*
D84*
X7256000Y3931000D02*
Y3990981D01*
X7275993Y3970987D01*
X7295987Y3990981D01*
Y3931000D01*
X7315981Y3990981D02*
X7335974D01*
X7325977D01*
Y3931000D01*
X7315981D01*
X7335974D01*
X7365964Y3990981D02*
Y3931000D01*
X7395955D01*
X7405952Y3940997D01*
Y3980984D01*
X7395955Y3990981D01*
X7365964D01*
X7425945Y3931000D02*
X7445939D01*
X7435942D01*
Y3990981D01*
X7425945Y3980984D01*
X7575896D02*
X7565900Y3990981D01*
X7545906D01*
X7535909Y3980984D01*
Y3970987D01*
X7545906Y3960990D01*
X7565900D01*
X7575896Y3950994D01*
Y3940997D01*
X7565900Y3931000D01*
X7545906D01*
X7535909Y3940997D01*
X7595890Y3990981D02*
X7615883D01*
X7605887D01*
Y3931000D01*
X7595890D01*
X7615883D01*
X7685861Y3980984D02*
X7675864Y3990981D01*
X7655871D01*
X7645874Y3980984D01*
Y3940997D01*
X7655871Y3931000D01*
X7675864D01*
X7685861Y3940997D01*
Y3960990D01*
X7665867D01*
X7705854Y3931000D02*
Y3940997D01*
X7715851D01*
Y3931000D01*
X7705854D01*
D85*
X6015000Y2395000D02*
D03*
X5135000Y4220000D02*
D03*
X5130000Y4650000D02*
D03*
X2765000Y2555000D02*
D03*
X6015394Y2607220D02*
D03*
D86*
X1955000Y2820000D02*
D03*
X1855000D02*
D03*
X1755000D02*
D03*
X1655000D02*
D03*
D87*
X1555000D02*
D03*
D88*
X5778627Y1510592D02*
D03*
Y4948092D02*
D03*
X2216127D02*
D03*
Y1510592D02*
D03*
D89*
X6415000Y2521000D02*
D03*
D90*
X4930000Y3245000D02*
D03*
Y3345000D02*
D03*
Y3645000D02*
D03*
Y3745000D02*
D03*
Y3845000D02*
D03*
Y4045000D02*
D03*
Y4145000D02*
D03*
Y4345000D02*
D03*
Y4545000D02*
D03*
Y4645000D02*
D03*
Y4445000D02*
D03*
Y4245000D02*
D03*
Y3945000D02*
D03*
Y3545000D02*
D03*
Y3445000D02*
D03*
D91*
Y4745000D02*
D03*
D92*
X4060000Y3280000D02*
D03*
X4040000Y3899832D02*
D03*
X2770000Y3455000D02*
D03*
X2455000Y3460000D02*
D03*
D93*
X4060000Y3380000D02*
D03*
Y3480000D02*
D03*
X4040000Y3799832D02*
D03*
Y3699832D02*
D03*
X2770000Y3255000D02*
D03*
Y3355000D02*
D03*
X2455000Y3260000D02*
D03*
Y3360000D02*
D03*
D94*
X6702795Y4151850D02*
D03*
Y3955000D02*
D03*
D95*
Y4360512D02*
D03*
Y3746339D02*
D03*
D96*
X6781535Y4053425D02*
D03*
D97*
X6368150Y4360512D02*
D03*
Y3746339D02*
D03*
X6565000Y4151850D02*
D03*
Y3955000D02*
D03*
X6421299Y4167598D02*
D03*
Y3939252D02*
D03*
D98*
X4360000Y1365000D02*
D03*
X5030000D02*
D03*
X2685000D02*
D03*
X3385000Y1370000D02*
D03*
D99*
X3395000Y3450000D02*
D03*
Y3400000D02*
D03*
X3345000Y3450000D02*
D03*
Y3400000D02*
D03*
X3295000Y3450000D02*
D03*
Y3400000D02*
D03*
X3245000Y3450000D02*
D03*
Y3400000D02*
D03*
X3195000Y3450000D02*
D03*
Y3400000D02*
D03*
X3145000Y3450000D02*
D03*
Y3400000D02*
D03*
X3095000Y3450000D02*
D03*
D100*
Y3400000D02*
D03*
D101*
X5818425Y2093425D02*
D03*
X5720000Y1798150D02*
D03*
X3758425Y2033425D02*
D03*
X3660000Y1738150D02*
D03*
D102*
X5621575Y2093425D02*
D03*
X3561575Y2033425D02*
D03*
D103*
X4766000Y4498000D02*
D03*
X4704000Y4847000D02*
D03*
X4408000Y4869000D02*
D03*
X4604000Y4875000D02*
D03*
X3243000Y3144000D02*
D03*
X3933000Y3196000D02*
D03*
X4171000Y3132000D02*
D03*
X4168000Y3353000D02*
D03*
X2716535Y2283465D02*
D03*
X4173228Y2244095D02*
D03*
X3543307Y3267716D02*
D03*
Y3740157D02*
D03*
X2519685Y4527559D02*
D03*
X3346457Y4291339D02*
D03*
X2244095Y3779528D02*
D03*
X3385827Y3661417D02*
D03*
X3346457Y3740157D02*
D03*
X2283465D02*
D03*
X3346457Y3700787D02*
D03*
X3464567Y4094488D02*
D03*
X3818898D02*
D03*
X1692913Y3937008D02*
D03*
X4685039Y3425197D02*
D03*
X1299213Y3307087D02*
D03*
X1732284Y3622047D02*
D03*
X1929134D02*
D03*
X3385827Y3976378D02*
D03*
X2992126Y4055118D02*
D03*
X2322835D02*
D03*
X2244095Y3937008D02*
D03*
X3149606Y4055118D02*
D03*
X2992126Y3976378D02*
D03*
X2244095D02*
D03*
Y4133858D02*
D03*
X3188976D02*
D03*
X1811024Y4173228D02*
D03*
Y4094488D02*
D03*
X3149606Y4291339D02*
D03*
X3070866Y3937008D02*
D03*
X1456693Y3346457D02*
D03*
X1496063D02*
D03*
X1653543D02*
D03*
X4251968Y4527559D02*
D03*
X2834646Y3897638D02*
D03*
X4448819Y3937008D02*
D03*
X3858268Y4685039D02*
D03*
X3464567Y4409449D02*
D03*
X1811024Y4055118D02*
D03*
X1299213Y3346457D02*
D03*
X4251968Y3858268D02*
D03*
X1889764Y3031496D02*
D03*
X3346457Y3228347D02*
D03*
X3897638Y5157480D02*
D03*
X1181102Y4173228D02*
D03*
X4724409Y4291339D02*
D03*
Y3976378D02*
D03*
X4291339Y3149606D02*
D03*
X1535433Y3188976D02*
D03*
X3818898Y4291339D02*
D03*
X4015748D02*
D03*
X4133858Y3740157D02*
D03*
X3937008Y3858268D02*
D03*
X2125984Y3661417D02*
D03*
X1535433Y4055118D02*
D03*
X5861000Y2706000D02*
D03*
X5107000Y3794000D02*
D03*
X2913386Y4212598D02*
D03*
X3149606D02*
D03*
X2598425Y4527559D02*
D03*
X3307087D02*
D03*
X3346457D02*
D03*
X2716535Y4606299D02*
D03*
X3622047Y3976378D02*
D03*
X3661417D02*
D03*
X2598425Y4094488D02*
D03*
X2283465Y4015748D02*
D03*
X2992126Y3385827D02*
D03*
X3149606Y3779528D02*
D03*
X3464567Y3503937D02*
D03*
X3425197Y3700787D02*
D03*
X4566929Y4370079D02*
D03*
X4685039Y4330709D02*
D03*
X4645669Y4015748D02*
D03*
X4685039Y3858268D02*
D03*
X3976378Y5000000D02*
D03*
X3425197Y3976378D02*
D03*
X2834646Y4133858D02*
D03*
X3425197Y4291339D02*
D03*
X2480315Y4173228D02*
D03*
X3464567Y4448819D02*
D03*
X2716535Y4291339D02*
D03*
X3464567Y4960630D02*
D03*
X2992126Y4173228D02*
D03*
X2519685D02*
D03*
X3385827Y4527559D02*
D03*
X2834646Y4330709D02*
D03*
X2559055D02*
D03*
X3188976Y4173228D02*
D03*
X4488189Y3700787D02*
D03*
X4566929Y4291339D02*
D03*
X3228347Y4055118D02*
D03*
X4488189Y3543307D02*
D03*
X3464567Y3622047D02*
D03*
X3188976Y4055118D02*
D03*
X2992126Y4094488D02*
D03*
X4173228Y4173228D02*
D03*
X3228347Y4015748D02*
D03*
X4606299Y4173228D02*
D03*
X3228347Y3582677D02*
D03*
X4330709Y4133858D02*
D03*
X3307087Y4055118D02*
D03*
Y3818898D02*
D03*
X4330709Y3976378D02*
D03*
X3307087Y3779528D02*
D03*
X4291339Y3858268D02*
D03*
X3346457Y4015748D02*
D03*
X4488189D02*
D03*
X3464567Y4133858D02*
D03*
X2401575Y2677165D02*
D03*
X3385827Y4094488D02*
D03*
X2874016Y2755905D02*
D03*
X3661417Y4251968D02*
D03*
X4133858D02*
D03*
X3464567Y4212598D02*
D03*
X4094488Y3858268D02*
D03*
X4448819Y3779528D02*
D03*
X3622047Y4251968D02*
D03*
X2165354Y3661417D02*
D03*
X2559055Y4094488D02*
D03*
X1968504D02*
D03*
X4916000Y2389000D02*
D03*
X4876000Y2274000D02*
D03*
X4975000Y2240000D02*
D03*
X5648000Y2346000D02*
D03*
X5105000Y2458000D02*
D03*
X3141000Y4522000D02*
D03*
X5133000Y3521000D02*
D03*
Y3704000D02*
D03*
X5125000Y3889000D02*
D03*
X5381000Y4663000D02*
D03*
X5879000Y4701000D02*
D03*
X5869000Y4473000D02*
D03*
X5875000Y4525000D02*
D03*
X6103000Y4522000D02*
D03*
X5382000Y4337000D02*
D03*
X6107000Y4196000D02*
D03*
X5894000Y4351000D02*
D03*
X5890000Y4113000D02*
D03*
X5897000Y4163000D02*
D03*
X6634000Y3315000D02*
D03*
X6638000Y3468000D02*
D03*
X6648000Y3598000D02*
D03*
X6281000Y3809000D02*
D03*
X6275000Y3700000D02*
D03*
X6287000Y3620000D02*
D03*
X5484000Y3690000D02*
D03*
X4930000Y2026000D02*
D03*
X4099000Y2140000D02*
D03*
X3916000Y2302000D02*
D03*
X3299000Y2289000D02*
D03*
X2912905Y2222095D02*
D03*
X2980000Y2095000D02*
D03*
X3060000Y2103000D02*
D03*
X4298000Y2141000D02*
D03*
X4194000Y2147000D02*
D03*
X2931000Y2455000D02*
D03*
X3011000Y2392000D02*
D03*
X2980000Y2354000D02*
D03*
X2061000Y2086000D02*
D03*
X2180000Y2088000D02*
D03*
X2285000Y2090000D02*
D03*
X3543307Y4330709D02*
D03*
X3228347Y4291339D02*
D03*
X3149606Y4015748D02*
D03*
X3307087Y4448819D02*
D03*
X1732284Y4251968D02*
D03*
X1692913Y4448819D02*
D03*
X2204724Y4409449D02*
D03*
Y4173228D02*
D03*
X1732284Y4566929D02*
D03*
X2204724D02*
D03*
X4645669Y3622047D02*
D03*
X4409449Y4251968D02*
D03*
X1417323Y3228347D02*
D03*
X2913386Y2834646D02*
D03*
X1574803Y3385827D02*
D03*
X2834646Y2755905D02*
D03*
X2559055Y2598425D02*
D03*
X2519685Y4960630D02*
D03*
X4488189Y3228347D02*
D03*
X2440945Y2834646D02*
D03*
X4409449Y4960630D02*
D03*
X3228347Y4881890D02*
D03*
X3622047Y5118110D02*
D03*
X3937008Y3937008D02*
D03*
X3149606Y4881890D02*
D03*
X3031496Y4842520D02*
D03*
X3385827Y2598425D02*
D03*
X2559055Y5196850D02*
D03*
X4094488Y2913386D02*
D03*
X4173228Y4881890D02*
D03*
X3307087Y3622047D02*
D03*
X4015748Y4881890D02*
D03*
X2519685Y4488189D02*
D03*
X3385827Y3622047D02*
D03*
X3700787Y4724409D02*
D03*
X3543307Y4803150D02*
D03*
X4173228Y4488189D02*
D03*
X3385827Y2677165D02*
D03*
X2755905Y2834646D02*
D03*
X2677165Y4409449D02*
D03*
X4881890Y2913386D02*
D03*
X4094488Y2795276D02*
D03*
X2913386Y4803150D02*
D03*
X1338583Y3937008D02*
D03*
X3779528Y4803150D02*
D03*
X2519685Y4448819D02*
D03*
X1338583Y4488189D02*
D03*
X2677165Y4015748D02*
D03*
X4645669Y3543307D02*
D03*
X1732284Y3464567D02*
D03*
X4842520Y2795276D02*
D03*
X5708661Y3385827D02*
D03*
X4763779Y4015748D02*
D03*
X4566929Y3543307D02*
D03*
X4173228Y3858268D02*
D03*
X3464567Y3149606D02*
D03*
X2598425Y3858268D02*
D03*
X1535433Y4212598D02*
D03*
X3858268Y3464567D02*
D03*
D104*
X5949000Y4055000D02*
D03*
D105*
X5685000Y3724770D02*
D03*
X5667283Y3701148D02*
D03*
Y3748392D02*
D03*
X5702717D02*
D03*
Y3701148D02*
D03*
X5780000Y4241551D02*
D03*
Y4201000D02*
D03*
Y4160449D02*
D03*
X5765000Y4602102D02*
D03*
Y4561551D02*
D03*
Y4521000D02*
D03*
D106*
X3024685Y2712191D02*
D03*
X2985315D02*
D03*
X3024685Y2751561D02*
D03*
X2985315D02*
D03*
%TF.MD5,a150b571f6c5cb8e2e28ba5f6ce78533*%
M02*
