M48
;Layer_Color=9474304
;FILE_FORMAT=2:5
INCH,LZ
;TYPE=PLATED
T1F00S00C0.00787
T2F00S00C0.00800
T3F00S00C0.01400
T4F00S00C0.02362
T6F00S00C0.03937
T8F00S00C0.04000
T9F00S00C0.04016
T10F00S00C0.04331
T11F00S00C0.05118
T12F00S00C0.06693
T13F00S00C0.08661
T14F00S00C0.12500
T15F00S00C0.15748
%
T01
X0298532Y0271219
X0302468
Y0275156
X0298532
X0566728Y0370115
X0570272
X05685Y0372477
X0566728Y0374839
X0570272
X0578Y0416045
Y04201
Y0424155
X05765Y04521
Y0456155
Y046021
T02
X0493Y02026
X04975Y0224
X04876Y02274
X04916Y02389
X05105Y02458
X0484252Y0279528
X0488189Y0291339
X05861Y02706
X05648Y02346
X04298Y02141
X04194Y02147
X04099Y0214
X0417323Y022441
X03916Y02302
X03299Y02289
X0338583Y0259842
Y0267717
X0409449Y0279528
Y0291339
X0291339Y0283465
X0287402Y027559
X0283465
X027559Y0283465
X0244094
X0240158Y0267717
X0255906Y0259842
X0271654Y0228346
X029129Y022221
X0298Y02095
X0306Y02103
X0298Y02354
X03011Y02392
X02931Y02455
X02285Y0209
X0218Y02088
X02061Y02086
X0188976Y030315
X0153543Y0318898
X0141732Y0322835
X0145669Y0334646
X0149606
X0129921
Y0330709
X0133858Y0393701
X0153543Y0405512
Y042126
X011811Y0417323
X0133858Y0448819
X0169291Y0444882
X0173228Y0456693
Y0425197
X0181102Y0417323
Y0409449
Y0405512
X019685Y0409449
X0220472Y0417323
X022441Y0413386
X0232283Y0405512
X0228346Y0401575
X022441Y0397638
Y0393701
Y0377953
X0228346Y0374016
X0216535Y0366142
X0212598
X0192913Y0362205
X0173228
Y0346457
X0165354Y0334646
X015748Y0338583
X0169291Y0393701
X0220472Y0440945
Y0456693
X0251969Y0452756
Y0448819
Y0444882
X0255906Y0433071
X0271654Y0429134
X0267717Y0440945
X0259842Y0452756
X0271654Y046063
X0283465Y0433071
X0291339Y042126
X0299213Y0417323
Y0409449
Y0405512
Y0397638
X0307087Y0393701
X0283465Y0389764
Y0413386
X0259842Y0409449
X0255906
X0251969Y0417323
X0248031
X0267717Y0401575
X0259842Y0385827
X0299213Y0338583
X0322835Y0358268
X0330709Y0362205
X0338583
Y0366142
X0334646Y0370079
Y0374016
X0330709Y0377953
Y038189
X0314961Y0377953
Y0401575
Y0405512
X0318898
X0322835
Y0401575
X0330709Y0405512
X0334646Y0401575
X0338583Y0397638
X034252
X0346457Y0409449
Y0413386
Y042126
X034252Y0429134
X0334646
X0322835
X0314961
Y042126
X0318898Y0417323
Y0413386
X0338583Y0409449
X0362205Y0397638
X0366142
X038189Y0409449
Y0429134
X0401575
X0413386Y0425197
X0417323Y0417323
X0433071Y0413386
Y0397638
X0444882Y0393701
X0448819Y0401575
X0464567
X0468504Y0385827
X0464567Y0362205
Y0354331
X0456693
X0448819
Y0370079
X0444882Y0377953
X0429134Y0385827
X0425197
X0417323
X0409449
X0413386Y0374016
X0393701Y0385827
Y0393701
X0385827Y0346457
X03933Y03196
X04171Y03132
X0429134Y0314961
X0448819Y0322835
X0468504Y034252
X04168Y03353
X0354331Y0326772
X0346457Y0314961
X0334646Y0322835
X03243Y03144
X0346457Y0350394
Y0362205
X034252Y0370079
X0354331Y0374016
X0362205Y0425197
X0366142
X0354331Y0433071
X0346457Y0440945
Y0444882
X0338583Y0452756
X0334646
X0330709
Y0444882
X03141Y04522
X0385827Y0468504
X0417323Y0448819
X0425197Y0452756
X0440945Y0425197
X0456693Y0429134
Y0437008
X0468504Y0433071
X046063Y0417323
X0472441Y0429134
X04766Y04498
X0476378Y0401575
X0472441Y0397638
X05125Y03889
X05107Y03794
X05133Y03704
Y03521
X05484Y0369
X0570866Y0338583
X0589Y04113
X05897Y04163
X05894Y04351
X05869Y04473
X05875Y04525
X06103Y04522
X06107Y04196
X05382Y04337
X05381Y04663
X06281Y03809
X06275Y037
X06287Y0362
X06648Y03598
X06638Y03468
X06634Y03315
X05879Y04701
X04704Y04847
X04604Y04875
X04408Y04869
X0440945Y0496063
X0417323Y0488189
X0401575
X0397638Y05
X0389764Y0515748
X0362205Y0511811
X0346457Y0496063
X0354331Y0480315
X0370079Y0472441
X0377953Y0480315
X0322835Y0488189
X0314961
X030315Y0484252
X0291339Y0480315
X0251969Y0496063
X0255906Y0519685
T03
X05949Y04055
T04
X03095Y034
Y0345
X03145
X03195
X03245
X03295
X03345
X03395
Y034
X03345
X03295
X03245
X03195
X03145
T06
X06415Y02521
X0601539Y0260722
T08
X06015Y02395
X02765Y02555
X01955Y0282
X01855
X01755
X01655
X01555
X05135Y0422
X0513Y0465
T09
X02455Y0326
Y0336
Y0346
X0277Y03455
Y03355
Y03255
X0406Y0328
Y0338
Y0348
X0404Y0369983
Y0379983
Y0389983
T10
X0493Y03245
Y03345
Y03445
Y03545
Y03645
Y03745
Y03845
Y03945
Y04045
Y04145
Y04245
Y04345
Y04445
Y04545
Y04645
Y04745
T11
X0572Y0179815
X0581843Y0209343
X0562157
X0375842Y0203343
X0356157
X0366Y0173815
T12
X067028Y03955
Y0415185
T13
X067028Y0374634
Y0436051
T14
X0221613Y0151059
X0577863
Y0494809
X0221613
T15
X02685Y01365
X03385Y0137
X0436Y01365
X0503
M30
