%TF.GenerationSoftware,Altium Limited,Altium Designer,21.0.9 (235)*%
G04 Layer_Color=128*
%FSLAX26Y26*%
%MOIN*%
%TF.SameCoordinates,617CA12B-F850-4EA5-9EC3-0E5FEE419536*%
%TF.FilePolarity,Positive*%
%TF.FileFunction,Paste,Bot*%
%TF.Part,Single*%
G01*
G75*
%TA.AperFunction,NonConductor*%
%ADD84C,0.006000*%
D84*
X7259000Y3583981D02*
Y3524000D01*
X7288990D01*
X7298987Y3533997D01*
Y3543994D01*
X7288990Y3553990D01*
X7259000D01*
X7288990D01*
X7298987Y3563987D01*
Y3573984D01*
X7288990Y3583981D01*
X7259000D01*
X7348971D02*
X7328977D01*
X7318981Y3573984D01*
Y3533997D01*
X7328977Y3524000D01*
X7348971D01*
X7358968Y3533997D01*
Y3573984D01*
X7348971Y3583981D01*
X7378961D02*
X7418948D01*
X7398955D01*
Y3524000D01*
X7498922D02*
Y3583981D01*
X7528913D01*
X7538909Y3573984D01*
Y3553990D01*
X7528913Y3543994D01*
X7498922D01*
X7598890Y3573984D02*
X7588893Y3583981D01*
X7568900D01*
X7558903Y3573984D01*
Y3563987D01*
X7568900Y3553990D01*
X7588893D01*
X7598890Y3543994D01*
Y3533997D01*
X7588893Y3524000D01*
X7568900D01*
X7558903Y3533997D01*
X7618884Y3583981D02*
X7658871D01*
X7638877D01*
Y3524000D01*
%TF.MD5,9225ecf0c4d960233d5a3f436b971efc*%
M02*
