%TF.GenerationSoftware,Altium Limited,Altium Designer,21.0.9 (235)*%
G04 Layer_Color=16711935*
%FSLAX26Y26*%
%MOIN*%
%TF.SameCoordinates,617CA12B-F850-4EA5-9EC3-0E5FEE419536*%
%TF.FilePolarity,Positive*%
%TF.FileFunction,Other,Mechanical_1*%
%TF.Part,Single*%
G01*
G75*
%TA.AperFunction,NonConductor*%
%ADD84C,0.006000*%
%ADD148C,0.003937*%
%ADD152C,0.010000*%
%ADD200C,0.000500*%
%ADD201C,0.007000*%
D84*
X3736456Y518010D02*
X3756450D01*
X3746453D01*
Y577990D01*
X3736456Y567994D01*
X3816430Y518010D02*
Y577990D01*
X3786440Y548000D01*
X3826427D01*
X3876411Y518010D02*
Y577990D01*
X3846421Y548000D01*
X3886408D01*
X3906401Y518010D02*
Y528006D01*
X3916398D01*
Y518010D01*
X3906401D01*
X3956385Y567994D02*
X3966382Y577990D01*
X3986376D01*
X3996372Y567994D01*
Y557997D01*
X3986376Y548000D01*
X3996372Y538003D01*
Y528006D01*
X3986376Y518010D01*
X3966382D01*
X3956385Y528006D01*
Y538003D01*
X3966382Y548000D01*
X3956385Y557997D01*
Y567994D01*
X3966382Y548000D02*
X3986376D01*
X4056353Y518010D02*
X4016366D01*
X4056353Y557997D01*
Y567994D01*
X4046356Y577990D01*
X4026363D01*
X4016366Y567994D01*
X4076346Y518010D02*
X4096340D01*
X4086343D01*
Y577990D01*
X4076346Y567994D01*
X4126330Y518010D02*
Y557997D01*
X4136327D01*
X4146324Y548000D01*
Y518010D01*
Y548000D01*
X4156320Y557997D01*
X4166317Y548000D01*
Y518010D01*
X4186311D02*
Y557997D01*
X4196308D01*
X4206304Y548000D01*
Y518010D01*
Y548000D01*
X4216301Y557997D01*
X4226298Y548000D01*
Y518010D01*
X776594Y2993571D02*
Y3013565D01*
Y3003568D01*
X716614D01*
X726610Y2993571D01*
Y3043555D02*
X716614Y3053552D01*
Y3073545D01*
X726610Y3083542D01*
X766597D01*
X776594Y3073545D01*
Y3053552D01*
X766597Y3043555D01*
X726610D01*
X716614Y3143523D02*
X726610Y3123529D01*
X746604Y3103535D01*
X766597D01*
X776594Y3113532D01*
Y3133526D01*
X766597Y3143523D01*
X756601D01*
X746604Y3133526D01*
Y3103535D01*
X776594Y3163516D02*
X766597D01*
Y3173513D01*
X776594D01*
Y3163516D01*
X716614Y3213500D02*
Y3253487D01*
X726610D01*
X766597Y3213500D01*
X776594D01*
X716614Y3313468D02*
X726610Y3293474D01*
X746604Y3273481D01*
X766597D01*
X776594Y3283477D01*
Y3303471D01*
X766597Y3313468D01*
X756601D01*
X746604Y3303471D01*
Y3273481D01*
X776594Y3333461D02*
X736607D01*
Y3343458D01*
X746604Y3353455D01*
X776594D01*
X746604D01*
X736607Y3363451D01*
X746604Y3373448D01*
X776594D01*
Y3393442D02*
X736607D01*
Y3403439D01*
X746604Y3413435D01*
X776594D01*
X746604D01*
X736607Y3423432D01*
X746604Y3433429D01*
X776594D01*
D148*
X5740000Y3684786D02*
Y3726440D01*
X5731669Y3734770D01*
X5715008D01*
X5706677Y3726440D01*
Y3684786D01*
X5690016Y3693117D02*
X5681686Y3684786D01*
X5665024D01*
X5656694Y3693117D01*
Y3701448D01*
X5665024Y3709778D01*
X5656694Y3718109D01*
Y3726440D01*
X5665024Y3734770D01*
X5681686D01*
X5690016Y3726440D01*
Y3718109D01*
X5681686Y3709778D01*
X5690016Y3701448D01*
Y3693117D01*
X5681686Y3709778D02*
X5665024D01*
D152*
X1146577Y554000D02*
X1206577Y574000D01*
X1146577Y554000D02*
X1206577Y534000D01*
X6788178D02*
X6848178Y554000D01*
X6788178Y574000D02*
X6848178Y554000D01*
X1146577D02*
X3720456D01*
X4242298D02*
X6848178D01*
X1146577Y544000D02*
Y1954940D01*
X6848178Y544000D02*
Y1954690D01*
X740604Y5331000D02*
X760604Y5271000D01*
X720604D02*
X740604Y5331000D01*
X720604Y1188000D02*
X740604Y1128000D01*
X760604Y1188000D01*
X740604Y3449429D02*
Y5331000D01*
Y1128000D02*
Y2977571D01*
X730604Y5331000D02*
X2025000D01*
X730604Y1128000D02*
X2102000D01*
D200*
X1271577Y4618744D02*
G03*
X1146577Y4493744I0J-125000D01*
G01*
X1469968Y4618744D02*
G03*
X1864969Y5013745I0J395001D01*
G01*
X1989969Y5330143D02*
G03*
X1864969Y5205143I0J-125000D01*
G01*
X6129785D02*
G03*
X6004785Y5330143I-125000J0D01*
G01*
X6129785Y5013745D02*
G03*
X6524786Y4618744I395001J0D01*
G01*
X6848178Y4493744D02*
G03*
X6723178Y4618744I-125000J0D01*
G01*
Y1839940D02*
G03*
X6848178Y1964940I0J125000D01*
G01*
X6524786Y1839940D02*
G03*
X6129785Y1444940I0J-395001D01*
G01*
X6004785Y1128542D02*
G03*
X6129785Y1253542I0J125000D01*
G01*
X1864969D02*
G03*
X1989969Y1128542I125000J0D01*
G01*
X1864969Y1444940D02*
G03*
X1469968Y1839940I-395001J0D01*
G01*
X1146577Y1964940D02*
G03*
X1271577Y1839940I125000J0D01*
G01*
X6528627Y2135592D02*
G03*
X6528627Y2135592I-62500J0D01*
G01*
X5841127Y4948092D02*
G03*
X5841127Y4948092I-62500J0D01*
G01*
X2278627Y1510592D02*
G03*
X2278627Y1510592I-62500J0D01*
G01*
X1591127Y4323092D02*
G03*
X1591127Y4323092I-62500J0D01*
G01*
X2278627Y4948092D02*
G03*
X2278627Y4948092I-62500J0D01*
G01*
X1591127Y2135592D02*
G03*
X1591127Y2135592I-62500J0D01*
G01*
X5841127Y1510592D02*
G03*
X5841127Y1510592I-62500J0D01*
G01*
X6528627Y4323092D02*
G03*
X6528627Y4323092I-62500J0D01*
G01*
X6524786Y4618744D02*
X6723178D01*
X1271577D02*
X1469968D01*
X1864969Y5013745D02*
Y5205143D01*
X1989969Y5330143D02*
X6004785D01*
X6129785Y5013745D02*
Y5205143D01*
X6848178Y1964940D02*
Y4493744D01*
X6524786Y1839940D02*
X6723178D01*
X6129785Y1253542D02*
Y1444940D01*
X1989969Y1128542D02*
X6004785D01*
X1864969Y1253542D02*
Y1444940D01*
X1271577Y1839940D02*
X1469968D01*
X1146576Y1964940D02*
Y4493744D01*
D201*
X4455000Y3852001D02*
Y3810348D01*
X4463331Y3802018D01*
X4479992D01*
X4488323Y3810348D01*
Y3852001D01*
X4529976Y3802018D02*
Y3852001D01*
X4504984Y3827010D01*
X4538306D01*
X4440000Y4389984D02*
Y4348331D01*
X4448331Y4340000D01*
X4464992D01*
X4473323Y4348331D01*
Y4389984D01*
X4489984Y4381653D02*
X4498314Y4389984D01*
X4514976D01*
X4523306Y4381653D01*
Y4373323D01*
X4514976Y4364992D01*
X4506645D01*
X4514976D01*
X4523306Y4356661D01*
Y4348331D01*
X4514976Y4340000D01*
X4498314D01*
X4489984Y4348331D01*
%TF.MD5,6e9948c688e7c1f3d7704148132de160*%
M02*
