%TF.GenerationSoftware,Altium Limited,Altium Designer,21.0.9 (235)*%
G04 Layer_Color=8421504*
%FSLAX26Y26*%
%MOIN*%
%TF.SameCoordinates,617CA12B-F850-4EA5-9EC3-0E5FEE419536*%
%TF.FilePolarity,Positive*%
%TF.FileFunction,Paste,Top*%
%TF.Part,Single*%
G01*
G75*
%TA.AperFunction,SMDPad,CuDef*%
%ADD12R,0.033465X0.053150*%
%ADD13O,0.011811X0.057087*%
%ADD14O,0.057087X0.011811*%
%ADD15R,0.059055X0.027559*%
%ADD16R,0.027559X0.059055*%
%ADD17R,0.053150X0.037402*%
%ADD18R,0.037402X0.053150*%
%ADD19R,0.059055X0.059055*%
%ADD20R,0.031496X0.049213*%
G04:AMPARAMS|DCode=21|XSize=61.811mil|YSize=74.016mil|CornerRadius=1.854mil|HoleSize=0mil|Usage=FLASHONLY|Rotation=180.000|XOffset=0mil|YOffset=0mil|HoleType=Round|Shape=RoundedRectangle|*
%AMROUNDEDRECTD21*
21,1,0.061811,0.070307,0,0,180.0*
21,1,0.058102,0.074016,0,0,180.0*
1,1,0.003709,-0.029051,0.035154*
1,1,0.003709,0.029051,0.035154*
1,1,0.003709,0.029051,-0.035154*
1,1,0.003709,-0.029051,-0.035154*
%
%ADD21ROUNDEDRECTD21*%
G04:AMPARAMS|DCode=22|XSize=11.811mil|YSize=53.15mil|CornerRadius=1.949mil|HoleSize=0mil|Usage=FLASHONLY|Rotation=270.000|XOffset=0mil|YOffset=0mil|HoleType=Round|Shape=RoundedRectangle|*
%AMROUNDEDRECTD22*
21,1,0.011811,0.049252,0,0,270.0*
21,1,0.007913,0.053150,0,0,270.0*
1,1,0.003898,-0.024626,-0.003957*
1,1,0.003898,-0.024626,0.003957*
1,1,0.003898,0.024626,0.003957*
1,1,0.003898,0.024626,-0.003957*
%
%ADD22ROUNDEDRECTD22*%
%ADD23R,0.039370X0.098425*%
%ADD24R,0.035433X0.047244*%
G04:AMPARAMS|DCode=25|XSize=25.591mil|YSize=11.811mil|CornerRadius=1.949mil|HoleSize=0mil|Usage=FLASHONLY|Rotation=180.000|XOffset=0mil|YOffset=0mil|HoleType=Round|Shape=RoundedRectangle|*
%AMROUNDEDRECTD25*
21,1,0.025591,0.007913,0,0,180.0*
21,1,0.021693,0.011811,0,0,180.0*
1,1,0.003898,-0.010847,0.003957*
1,1,0.003898,0.010847,0.003957*
1,1,0.003898,0.010847,-0.003957*
1,1,0.003898,-0.010847,-0.003957*
%
%ADD25ROUNDEDRECTD25*%
%ADD27R,0.043307X0.055118*%
%ADD28R,0.015748X0.027559*%
%ADD29R,0.027559X0.015748*%
%ADD30R,0.049213X0.061024*%
%ADD31R,0.122047X0.039370*%
%ADD32R,0.039370X0.122047*%
G04:AMPARAMS|DCode=33|XSize=15.748mil|YSize=47.244mil|CornerRadius=1.968mil|HoleSize=0mil|Usage=FLASHONLY|Rotation=90.000|XOffset=0mil|YOffset=0mil|HoleType=Round|Shape=RoundedRectangle|*
%AMROUNDEDRECTD33*
21,1,0.015748,0.043307,0,0,90.0*
21,1,0.011811,0.047244,0,0,90.0*
1,1,0.003937,0.021654,0.005906*
1,1,0.003937,0.021654,-0.005906*
1,1,0.003937,-0.021654,-0.005906*
1,1,0.003937,-0.021654,0.005906*
%
%ADD33ROUNDEDRECTD33*%
%ADD34R,0.037402X0.057087*%
%ADD35R,0.037402X0.055118*%
%ADD36R,0.035433X0.031496*%
%ADD37R,0.064499X0.024329*%
G04:AMPARAMS|DCode=38|XSize=64.499mil|YSize=24.329mil|CornerRadius=12.165mil|HoleSize=0mil|Usage=FLASHONLY|Rotation=180.000|XOffset=0mil|YOffset=0mil|HoleType=Round|Shape=RoundedRectangle|*
%AMROUNDEDRECTD38*
21,1,0.064499,0.000000,0,0,180.0*
21,1,0.040170,0.024329,0,0,180.0*
1,1,0.024329,-0.020085,0.000000*
1,1,0.024329,0.020085,0.000000*
1,1,0.024329,0.020085,0.000000*
1,1,0.024329,-0.020085,0.000000*
%
%ADD38ROUNDEDRECTD38*%
%ADD39O,0.055118X0.017716*%
%ADD40R,0.053150X0.039370*%
%ADD41R,0.033465X0.051181*%
%ADD42R,0.047244X0.057087*%
%ADD43R,0.078740X0.137795*%
%ADD44R,0.074803X0.173228*%
%ADD45R,0.066929X0.031496*%
%ADD46R,0.059055X0.059055*%
%ADD47R,0.059843X0.125984*%
%ADD48R,0.029528X0.106299*%
%ADD49R,0.021654X0.066929*%
%ADD50R,0.043307X0.053150*%
%ADD51R,0.041659X0.053627*%
%ADD52R,0.061024X0.049213*%
%ADD53R,0.059055X0.023622*%
%ADD54R,0.051505X0.031752*%
%ADD55R,0.055118X0.037402*%
%ADD56R,0.049213X0.031496*%
G04:AMPARAMS|DCode=57|XSize=39.37mil|YSize=70.866mil|CornerRadius=3.937mil|HoleSize=0mil|Usage=FLASHONLY|Rotation=180.000|XOffset=0mil|YOffset=0mil|HoleType=Round|Shape=RoundedRectangle|*
%AMROUNDEDRECTD57*
21,1,0.039370,0.062992,0,0,180.0*
21,1,0.031496,0.070866,0,0,180.0*
1,1,0.007874,-0.015748,0.031496*
1,1,0.007874,0.015748,0.031496*
1,1,0.007874,0.015748,-0.031496*
1,1,0.007874,-0.015748,-0.031496*
%
%ADD57ROUNDEDRECTD57*%
%ADD58R,0.078740X0.216535*%
%ADD59R,0.057087X0.037402*%
%ADD60R,0.122992X0.127992*%
%ADD61R,0.066929X0.021654*%
%ADD62R,0.137795X0.062992*%
%ADD63R,0.125000X0.049000*%
%ADD64O,0.049213X0.017716*%
%ADD65R,0.068110X0.072835*%
%ADD66R,0.062992X0.059055*%
%ADD67R,0.040000X0.060000*%
%ADD68R,0.060000X0.040000*%
%ADD69R,0.031496X0.023622*%
%ADD70R,0.055118X0.059055*%
%TA.AperFunction,BGAPad,CuDef*%
%ADD71C,0.012992*%
%TA.AperFunction,NonConductor*%
%ADD84C,0.006000*%
%TA.AperFunction,SMDPad,SMDef*%
G04:AMPARAMS|DCode=154|XSize=9.094mil|YSize=8.858mil|CornerRadius=1.28mil|HoleSize=0mil|Usage=FLASHONLY|Rotation=270.000|XOffset=0mil|YOffset=0mil|HoleType=Round|Shape=RoundedRectangle|*
%AMROUNDEDRECTD154*
21,1,0.009094,0.006299,0,0,270.0*
21,1,0.006535,0.008858,0,0,270.0*
1,1,0.002559,-0.003150,-0.003268*
1,1,0.002559,-0.003150,0.003268*
1,1,0.002559,0.003150,0.003268*
1,1,0.002559,0.003150,-0.003268*
%
%ADD154ROUNDEDRECTD154*%
G04:AMPARAMS|DCode=155|XSize=9.094mil|YSize=26.811mil|CornerRadius=1.338mil|HoleSize=0mil|Usage=FLASHONLY|Rotation=90.000|XOffset=0mil|YOffset=0mil|HoleType=Round|Shape=RoundedRectangle|*
%AMROUNDEDRECTD155*
21,1,0.009094,0.024134,0,0,90.0*
21,1,0.006417,0.026811,0,0,90.0*
1,1,0.002677,0.012067,0.003209*
1,1,0.002677,0.012067,-0.003209*
1,1,0.002677,-0.012067,-0.003209*
1,1,0.002677,-0.012067,0.003209*
%
%ADD155ROUNDEDRECTD155*%
G36*
X5766220Y4146020D02*
Y4174878D01*
Y4175270D01*
X5766520Y4175993D01*
X5767074Y4176547D01*
X5767797Y4176846D01*
X5768189D01*
D01*
X5791811D01*
X5792203D01*
X5792926Y4176547D01*
X5793480Y4175993D01*
X5793779Y4175270D01*
Y4174878D01*
D01*
Y4146020D01*
Y4145628D01*
X5793480Y4144905D01*
X5792926Y4144351D01*
X5792203Y4144051D01*
X5791811D01*
D01*
X5768189D01*
X5767797D01*
X5767074Y4144351D01*
X5766520Y4144905D01*
X5766220Y4145628D01*
Y4146020D01*
D01*
D02*
G37*
G36*
X5791811Y4217398D02*
X5792203D01*
X5792926Y4217098D01*
X5793480Y4216544D01*
X5793779Y4215821D01*
Y4215429D01*
D01*
Y4186571D01*
Y4186179D01*
X5793480Y4185456D01*
X5792926Y4184902D01*
X5792203Y4184602D01*
X5791811D01*
D01*
X5768189D01*
X5767797D01*
X5767074Y4184902D01*
X5766520Y4185456D01*
X5766220Y4186179D01*
Y4186571D01*
D01*
Y4215429D01*
Y4215821D01*
X5766520Y4216544D01*
X5767074Y4217098D01*
X5767797Y4217398D01*
X5768189D01*
D01*
X5791811D01*
D02*
G37*
G36*
X5766220Y4227122D02*
Y4255980D01*
Y4256372D01*
X5766520Y4257095D01*
X5767074Y4257649D01*
X5767797Y4257949D01*
X5768189D01*
D01*
X5791811D01*
X5792203D01*
X5792926Y4257649D01*
X5793480Y4257095D01*
X5793779Y4256372D01*
Y4255980D01*
D01*
Y4227122D01*
Y4226730D01*
X5793480Y4226007D01*
X5792926Y4225453D01*
X5792203Y4225154D01*
X5791811D01*
D01*
X5768189D01*
X5767797D01*
X5767074Y4225453D01*
X5766520Y4226007D01*
X5766220Y4226730D01*
Y4227122D01*
D01*
D02*
G37*
G36*
X5751220Y4506571D02*
Y4535429D01*
Y4535821D01*
X5751520Y4536544D01*
X5752074Y4537098D01*
X5752797Y4537398D01*
X5753189D01*
D01*
X5776811D01*
X5777203D01*
X5777926Y4537098D01*
X5778480Y4536544D01*
X5778779Y4535821D01*
Y4535429D01*
D01*
Y4506571D01*
Y4506179D01*
X5778480Y4505456D01*
X5777926Y4504902D01*
X5777203Y4504602D01*
X5776811D01*
D01*
X5753189D01*
X5752797D01*
X5752074Y4504902D01*
X5751520Y4505456D01*
X5751220Y4506179D01*
Y4506571D01*
D01*
D02*
G37*
G36*
X5776811Y4577949D02*
X5777203D01*
X5777926Y4577649D01*
X5778480Y4577095D01*
X5778779Y4576372D01*
Y4575980D01*
D01*
Y4547122D01*
Y4546730D01*
X5778480Y4546007D01*
X5777926Y4545453D01*
X5777203Y4545154D01*
X5776811D01*
D01*
X5753189D01*
X5752797D01*
X5752074Y4545453D01*
X5751520Y4546007D01*
X5751220Y4546730D01*
Y4547122D01*
D01*
Y4575980D01*
Y4576372D01*
X5751520Y4577095D01*
X5752074Y4577649D01*
X5752797Y4577949D01*
X5753189D01*
D01*
X5776811D01*
D02*
G37*
G36*
X5751220Y4587673D02*
Y4616532D01*
Y4616923D01*
X5751520Y4617646D01*
X5752074Y4618200D01*
X5752797Y4618500D01*
X5753189D01*
D01*
X5776811D01*
X5777203D01*
X5777926Y4618200D01*
X5778480Y4617646D01*
X5778779Y4616923D01*
Y4616532D01*
D01*
Y4587673D01*
Y4587282D01*
X5778480Y4586558D01*
X5777926Y4586004D01*
X5777203Y4585705D01*
X5776811D01*
D01*
X5753189D01*
X5752797D01*
X5752074Y4586004D01*
X5751520Y4586558D01*
X5751220Y4587282D01*
Y4587673D01*
D01*
D02*
G37*
D12*
X1660039Y3290000D02*
D03*
X1725000D02*
D03*
D13*
X3147362Y4365394D02*
D03*
X3167047D02*
D03*
X3186732D02*
D03*
X3206417D02*
D03*
X3226102D02*
D03*
X3245787D02*
D03*
X3265472D02*
D03*
X3285157D02*
D03*
X3304843D02*
D03*
X3324528D02*
D03*
X3344213D02*
D03*
X3363898D02*
D03*
X3383583D02*
D03*
X3403268D02*
D03*
X3422953D02*
D03*
X3442638D02*
D03*
Y3914606D02*
D03*
X3422953D02*
D03*
X3403268D02*
D03*
X3383583D02*
D03*
X3363898D02*
D03*
X3344213D02*
D03*
X3324528D02*
D03*
X3304843D02*
D03*
X3285157D02*
D03*
X3265472D02*
D03*
X3245787D02*
D03*
X3226102D02*
D03*
X3206417D02*
D03*
X3186732D02*
D03*
X3167047D02*
D03*
X3147362D02*
D03*
D14*
X3520394Y4287638D02*
D03*
Y4267953D02*
D03*
Y4248268D02*
D03*
Y4228583D02*
D03*
Y4208898D02*
D03*
Y4189213D02*
D03*
Y4169528D02*
D03*
Y4149842D02*
D03*
Y4130158D02*
D03*
Y4110472D02*
D03*
Y4090787D02*
D03*
Y4071102D02*
D03*
Y4051417D02*
D03*
Y4031732D02*
D03*
Y4012047D02*
D03*
Y3992362D02*
D03*
X3069606D02*
D03*
Y4012047D02*
D03*
Y4031732D02*
D03*
Y4051417D02*
D03*
Y4071102D02*
D03*
Y4090787D02*
D03*
Y4110472D02*
D03*
Y4130158D02*
D03*
Y4149842D02*
D03*
Y4169528D02*
D03*
Y4189213D02*
D03*
Y4208898D02*
D03*
Y4228583D02*
D03*
Y4248268D02*
D03*
Y4267953D02*
D03*
Y4287638D02*
D03*
D15*
X1739685Y4210905D02*
D03*
X2192441Y4124291D02*
D03*
X1739685Y3994370D02*
D03*
Y4037677D02*
D03*
Y3734528D02*
D03*
Y3777835D02*
D03*
Y4080984D02*
D03*
Y3907756D02*
D03*
Y4167598D02*
D03*
X2192441Y4080984D02*
D03*
X1739685Y4124291D02*
D03*
Y3864449D02*
D03*
Y3951063D02*
D03*
X2192441Y3821142D02*
D03*
Y3994370D02*
D03*
Y4037677D02*
D03*
X1739685Y3821142D02*
D03*
X2192441Y3864449D02*
D03*
Y3907756D02*
D03*
Y3951063D02*
D03*
Y3777835D02*
D03*
Y3734528D02*
D03*
Y4455000D02*
D03*
Y4498307D02*
D03*
X1740000Y4455000D02*
D03*
Y4498307D02*
D03*
D16*
X2095984Y3673504D02*
D03*
X2052677D02*
D03*
X1879449D02*
D03*
X2009370D02*
D03*
X1966063D02*
D03*
X1922756D02*
D03*
X1836142D02*
D03*
D17*
X3300000Y2244528D02*
D03*
Y2185472D02*
D03*
X5105000Y2409528D02*
D03*
Y2350472D02*
D03*
X2925000Y4739055D02*
D03*
Y4680000D02*
D03*
X3650000Y4739055D02*
D03*
Y4680000D02*
D03*
X3625000Y5074528D02*
D03*
Y5015472D02*
D03*
X3545000Y4739055D02*
D03*
Y4680000D02*
D03*
X3140000Y4844055D02*
D03*
Y4785000D02*
D03*
X3235000Y4844055D02*
D03*
Y4785000D02*
D03*
X3245000Y3220472D02*
D03*
Y3279528D02*
D03*
X4095000Y2249528D02*
D03*
Y2190472D02*
D03*
X2445000Y2929528D02*
D03*
Y2870472D02*
D03*
X2060000Y2189055D02*
D03*
Y2130000D02*
D03*
D18*
X4767802Y4770000D02*
D03*
X4708747D02*
D03*
X4264528Y3925000D02*
D03*
X4205472D02*
D03*
X4708747D02*
D03*
X4767802D02*
D03*
X4249528Y4435000D02*
D03*
X4190472D02*
D03*
X4708747Y4420000D02*
D03*
X4767802D02*
D03*
X4231051Y3200000D02*
D03*
X4171996D02*
D03*
X1665000Y3390000D02*
D03*
X1724055D02*
D03*
X5714055Y3589760D02*
D03*
X5655000D02*
D03*
X5339055Y4336000D02*
D03*
X5280000D02*
D03*
X6219528Y3716000D02*
D03*
X6160472D02*
D03*
X5185630Y3704281D02*
D03*
X5244685D02*
D03*
X5185157Y3522844D02*
D03*
X5244213D02*
D03*
X5260945Y4661551D02*
D03*
X5320000D02*
D03*
X2715945Y3972494D02*
D03*
X2775000D02*
D03*
D19*
X4015000Y4395000D02*
D03*
X3877205D02*
D03*
X4012795Y4220000D02*
D03*
X3875000D02*
D03*
X4012795Y4050000D02*
D03*
X3875000D02*
D03*
X2543898Y3825000D02*
D03*
X2406102D02*
D03*
X1356102Y3750000D02*
D03*
X1493898D02*
D03*
X1361102Y3850000D02*
D03*
X1498898D02*
D03*
D20*
X3921496Y4310000D02*
D03*
X3858504D02*
D03*
X3921496Y4140000D02*
D03*
X2392008Y3925000D02*
D03*
X2455000D02*
D03*
X1208504Y3750000D02*
D03*
X1271496D02*
D03*
X1208504Y3850000D02*
D03*
X1271496D02*
D03*
X3858504Y4140000D02*
D03*
X3930000Y4480000D02*
D03*
X3867008D02*
D03*
D21*
X5685000Y3724770D02*
D03*
D22*
X5597401Y3764140D02*
D03*
Y3744455D02*
D03*
Y3724770D02*
D03*
Y3705085D02*
D03*
X5772598Y3764140D02*
D03*
Y3744455D02*
D03*
Y3724770D02*
D03*
Y3705085D02*
D03*
Y3685400D02*
D03*
X5597401D02*
D03*
D23*
X5609055Y4226000D02*
D03*
X5490945D02*
D03*
X5475945Y4546551D02*
D03*
X5594055D02*
D03*
D24*
X6241339Y3531000D02*
D03*
X6158661D02*
D03*
X5168346Y3795000D02*
D03*
X5251024D02*
D03*
X6158661Y3621000D02*
D03*
X6241339D02*
D03*
X5249685Y3613563D02*
D03*
X5167008D02*
D03*
X6158661Y3811000D02*
D03*
X6241339D02*
D03*
D25*
X5833150Y4153756D02*
D03*
Y4177378D02*
D03*
Y4201000D02*
D03*
Y4224622D02*
D03*
Y4248244D02*
D03*
X5713071D02*
D03*
Y4224622D02*
D03*
Y4201000D02*
D03*
Y4177378D02*
D03*
Y4153756D02*
D03*
X5698071Y4514307D02*
D03*
Y4537929D02*
D03*
Y4561551D02*
D03*
Y4585173D02*
D03*
Y4608795D02*
D03*
X5818150Y4514307D02*
D03*
Y4537929D02*
D03*
Y4561551D02*
D03*
Y4585173D02*
D03*
Y4608795D02*
D03*
D27*
X5396024Y4226000D02*
D03*
X5273976D02*
D03*
X5258976Y4546551D02*
D03*
X5381024D02*
D03*
D28*
X3885000Y3690000D02*
D03*
X3912559D02*
D03*
X3885000Y3905000D02*
D03*
X3912559D02*
D03*
D29*
X2570000Y4502559D02*
D03*
Y4475000D02*
D03*
X2470000Y4502559D02*
D03*
Y4475000D02*
D03*
X2570000Y5267559D02*
D03*
Y5240000D02*
D03*
X2670000Y4503780D02*
D03*
Y4476221D02*
D03*
X3935000Y3265000D02*
D03*
Y3237441D02*
D03*
Y3382441D02*
D03*
Y3410000D02*
D03*
X3430000Y3601220D02*
D03*
Y3628780D02*
D03*
X3345000Y3600000D02*
D03*
Y3627559D02*
D03*
D30*
X4470000Y3625000D02*
D03*
X4550709D02*
D03*
X3815000Y3265000D02*
D03*
X3734291D02*
D03*
X3815354Y3380000D02*
D03*
X3734646D02*
D03*
D31*
X2478701Y4335000D02*
D03*
Y4235000D02*
D03*
X2691299Y4335000D02*
D03*
Y4235000D02*
D03*
X2478701Y4135000D02*
D03*
X2691299D02*
D03*
D32*
X2470000Y4767402D02*
D03*
X2570000D02*
D03*
X2470000Y4980000D02*
D03*
X2570000D02*
D03*
X2670000Y4767402D02*
D03*
Y4980000D02*
D03*
D33*
X4402795Y3937175D02*
D03*
Y3911585D02*
D03*
Y3885994D02*
D03*
Y3860403D02*
D03*
Y3834813D02*
D03*
Y3809222D02*
D03*
Y3783632D02*
D03*
Y3758041D02*
D03*
Y3732451D02*
D03*
Y3706860D02*
D03*
X4627205Y3937175D02*
D03*
Y3911585D02*
D03*
Y3885994D02*
D03*
Y3860403D02*
D03*
Y3834813D02*
D03*
Y3809222D02*
D03*
Y3783632D02*
D03*
Y3758041D02*
D03*
Y3732451D02*
D03*
Y3706860D02*
D03*
X4387795Y4436772D02*
D03*
Y4411181D02*
D03*
Y4385591D02*
D03*
Y4360000D02*
D03*
Y4334409D02*
D03*
Y4308819D02*
D03*
Y4283228D02*
D03*
X4612205Y4436772D02*
D03*
Y4411181D02*
D03*
Y4385591D02*
D03*
Y4360000D02*
D03*
Y4334409D02*
D03*
Y4308819D02*
D03*
Y4283228D02*
D03*
D34*
X4578228Y3373297D02*
D03*
X4655000D02*
D03*
D35*
X4577165Y3465000D02*
D03*
X4650000D02*
D03*
X2707165Y3870949D02*
D03*
X2780000D02*
D03*
D36*
X4692999Y3202402D02*
D03*
Y3127598D02*
D03*
X4771739Y3165000D02*
D03*
D37*
X4418288Y3202598D02*
D03*
D38*
Y3240000D02*
D03*
Y3277402D02*
D03*
X4326460D02*
D03*
Y3202598D02*
D03*
D39*
X1389291Y3358386D02*
D03*
Y3332795D02*
D03*
Y3307205D02*
D03*
Y3281614D02*
D03*
X1550709Y3358386D02*
D03*
Y3332795D02*
D03*
Y3307205D02*
D03*
Y3281614D02*
D03*
D40*
X1235000Y3360000D02*
D03*
Y3289134D02*
D03*
Y3505433D02*
D03*
Y3434567D02*
D03*
X4600000Y5184567D02*
D03*
Y5255433D02*
D03*
X4405000Y5179567D02*
D03*
Y5250433D02*
D03*
X4195000Y5184134D02*
D03*
Y5255000D02*
D03*
X3995000Y5180000D02*
D03*
Y5250866D02*
D03*
D41*
X4237941Y3291782D02*
D03*
X4171012D02*
D03*
D42*
X4534367Y3205000D02*
D03*
X4613107D02*
D03*
D43*
X5817165Y2970000D02*
D03*
X5462835D02*
D03*
D44*
X6125000Y3290000D02*
D03*
Y2947480D02*
D03*
D45*
X1527747Y4136929D02*
D03*
Y4003071D02*
D03*
X4605000Y4923071D02*
D03*
Y5056929D02*
D03*
X4405000Y4923071D02*
D03*
Y5056929D02*
D03*
X4195000Y4923071D02*
D03*
Y5056929D02*
D03*
X3995000Y4926142D02*
D03*
Y5060000D02*
D03*
X3355000Y3291929D02*
D03*
Y3158071D02*
D03*
D46*
X2036000Y3266081D02*
D03*
Y3403876D02*
D03*
X1906000Y3269102D02*
D03*
Y3406898D02*
D03*
D47*
X5542756Y3400000D02*
D03*
X5787244D02*
D03*
D48*
X6587008Y3460000D02*
D03*
X6462992D02*
D03*
X6587008Y3310000D02*
D03*
X6462992D02*
D03*
X6587008Y3600000D02*
D03*
X6462992D02*
D03*
D49*
X6067008Y4196000D02*
D03*
X5942992D02*
D03*
X6059016Y4521551D02*
D03*
X5935000D02*
D03*
D50*
X5834961Y4351000D02*
D03*
X5705039D02*
D03*
X5819961Y4700000D02*
D03*
X5690039D02*
D03*
D51*
X5248055Y3888000D02*
D03*
X5179000D02*
D03*
D52*
X1230000Y4095354D02*
D03*
Y4014646D02*
D03*
D53*
X1325000Y4345000D02*
D03*
Y4419803D02*
D03*
X1250197Y4382402D02*
D03*
D54*
X1428170Y4073498D02*
D03*
Y4006502D02*
D03*
D55*
X1337451Y4013583D02*
D03*
Y4086417D02*
D03*
X3030000Y4752835D02*
D03*
Y4680000D02*
D03*
X3750000Y4752835D02*
D03*
Y4680000D02*
D03*
D56*
X1906000Y3116504D02*
D03*
Y3179496D02*
D03*
X2036000Y3115008D02*
D03*
Y3178000D02*
D03*
D57*
X3145787Y4680000D02*
D03*
X3244213D02*
D03*
D58*
X3390000Y4705984D02*
D03*
Y5080000D02*
D03*
D59*
X3465000Y3208228D02*
D03*
Y3285000D02*
D03*
D60*
X4437992Y2305000D02*
D03*
X4790000D02*
D03*
X2452992Y2250000D02*
D03*
X2805000D02*
D03*
D61*
X4195000Y2185000D02*
D03*
Y2309016D02*
D03*
X4300000Y2185000D02*
D03*
Y2309016D02*
D03*
X2285000Y2117992D02*
D03*
Y2242008D02*
D03*
X2180000Y2117992D02*
D03*
Y2242008D02*
D03*
D62*
X5325000Y2024291D02*
D03*
Y1855000D02*
D03*
X5120000Y2025000D02*
D03*
Y1855709D02*
D03*
X3295000Y1969646D02*
D03*
Y1800354D02*
D03*
X3095000Y1969646D02*
D03*
Y1800354D02*
D03*
D63*
X5372805Y2339500D02*
D03*
Y2590500D02*
D03*
X5542815Y2595500D02*
D03*
Y2344500D02*
D03*
X3695000Y2354500D02*
D03*
Y2605500D02*
D03*
X3915000D02*
D03*
Y2354500D02*
D03*
D64*
X3088661Y2693490D02*
D03*
Y2719081D02*
D03*
Y2744671D02*
D03*
Y2770262D02*
D03*
X2921339Y2693490D02*
D03*
Y2719081D02*
D03*
Y2744671D02*
D03*
Y2770262D02*
D03*
D65*
X3005000Y2731876D02*
D03*
D66*
X2450000Y2775000D02*
D03*
X2550000D02*
D03*
Y2688386D02*
D03*
X2450000D02*
D03*
D67*
X3260000Y2795000D02*
D03*
X3340000D02*
D03*
X4780000Y2925000D02*
D03*
X4700000D02*
D03*
X3260000Y2885000D02*
D03*
X3340000D02*
D03*
X2980000Y2455000D02*
D03*
X3060000D02*
D03*
X4000000Y2910000D02*
D03*
X3920000D02*
D03*
D68*
X2670000Y2770000D02*
D03*
Y2690000D02*
D03*
X4930000Y2085000D02*
D03*
Y2165000D02*
D03*
X2765000Y2770000D02*
D03*
Y2690000D02*
D03*
D69*
X4799213Y2705000D02*
D03*
X4700787D02*
D03*
X4003425Y2708376D02*
D03*
X3905000D02*
D03*
D70*
X4777402Y2815000D02*
D03*
X4702599D02*
D03*
X3337402Y2700000D02*
D03*
X3262599D02*
D03*
X3337402Y2595000D02*
D03*
X3262599D02*
D03*
X3989803Y2805000D02*
D03*
X3915000D02*
D03*
D71*
X2980630Y2156890D02*
D03*
X3000315D02*
D03*
X3020000D02*
D03*
X3039685D02*
D03*
X3059370D02*
D03*
X2980630Y2196260D02*
D03*
X3000315D02*
D03*
X3020000D02*
D03*
X3039685D02*
D03*
X3059370D02*
D03*
X2980630Y2235630D02*
D03*
X3000315D02*
D03*
X3020000D02*
D03*
X3039685D02*
D03*
X3059370D02*
D03*
X2980630Y2275000D02*
D03*
X3000315D02*
D03*
X3020000D02*
D03*
X3039685D02*
D03*
X3059370D02*
D03*
X2980630Y2314370D02*
D03*
X3000315D02*
D03*
X3039685D02*
D03*
X3059370D02*
D03*
D84*
X7256000Y4490981D02*
X7295987D01*
X7275993D01*
Y4431000D01*
X7345971Y4490981D02*
X7325977D01*
X7315981Y4480984D01*
Y4440997D01*
X7325977Y4431000D01*
X7345971D01*
X7355968Y4440997D01*
Y4480984D01*
X7345971Y4490981D01*
X7375961Y4431000D02*
Y4490981D01*
X7405952D01*
X7415948Y4480984D01*
Y4460990D01*
X7405952Y4450993D01*
X7375961D01*
X7495922Y4431000D02*
Y4490981D01*
X7525913D01*
X7535909Y4480984D01*
Y4460990D01*
X7525913Y4450993D01*
X7495922D01*
X7595890Y4480984D02*
X7585893Y4490981D01*
X7565900D01*
X7555903Y4480984D01*
Y4470987D01*
X7565900Y4460990D01*
X7585893D01*
X7595890Y4450993D01*
Y4440997D01*
X7585893Y4431000D01*
X7565900D01*
X7555903Y4440997D01*
X7615884Y4490981D02*
X7655871D01*
X7635877D01*
Y4431000D01*
D154*
X4933858Y2345866D02*
D03*
Y2251378D02*
D03*
X4916142Y2345866D02*
D03*
Y2251378D02*
D03*
D155*
X4925000Y2322244D02*
D03*
Y2275000D02*
D03*
Y2298622D02*
D03*
%TF.MD5,364d154fe07653042268831226bf4411*%
M02*
