%TF.GenerationSoftware,Altium Limited,Altium Designer,21.0.9 (235)*%
G04 Layer_Physical_Order=2*
G04 Layer_Color=32768*
%FSLAX26Y26*%
%MOIN*%
%TF.SameCoordinates,617CA12B-F850-4EA5-9EC3-0E5FEE419536*%
%TF.FilePolarity,Negative*%
%TF.FileFunction,Copper,L2,Inr,Plane*%
%TF.Part,Single*%
G01*
G75*
%TA.AperFunction,NonConductor*%
%ADD84C,0.006000*%
%ADD107C,0.040000*%
%TA.AperFunction,ComponentPad*%
%ADD108C,0.080000*%
G04:AMPARAMS|DCode=109|XSize=80mil|YSize=80mil|CornerRadius=0mil|HoleSize=0mil|Usage=FLASHONLY|Rotation=0.000|XOffset=0mil|YOffset=0mil|HoleType=Round|Shape=Relief|Width=10mil|Gap=10mil|Entries=4|*
%AMTHD109*
7,0,0,0.080000,0.060000,0.010000,45*
%
%ADD109THD109*%
%TA.AperFunction,ViaPad*%
%ADD110C,0.165000*%
%TA.AperFunction,ComponentPad*%
%ADD111C,0.079370*%
%ADD112C,0.083307*%
G04:AMPARAMS|DCode=113|XSize=83.307mil|YSize=83.307mil|CornerRadius=0mil|HoleSize=0mil|Usage=FLASHONLY|Rotation=0.000|XOffset=0mil|YOffset=0mil|HoleType=Round|Shape=Relief|Width=10mil|Gap=10mil|Entries=4|*
%AMTHD113*
7,0,0,0.083307,0.063307,0.010000,45*
%
%ADD113THD113*%
%ADD114C,0.080157*%
G04:AMPARAMS|DCode=115|XSize=80.157mil|YSize=80.157mil|CornerRadius=0mil|HoleSize=0mil|Usage=FLASHONLY|Rotation=0.000|XOffset=0mil|YOffset=0mil|HoleType=Round|Shape=Relief|Width=10mil|Gap=10mil|Entries=4|*
%AMTHD115*
7,0,0,0.080157,0.060157,0.010000,45*
%
%ADD115THD115*%
G04:AMPARAMS|DCode=116|XSize=106.929mil|YSize=106.929mil|CornerRadius=0mil|HoleSize=0mil|Usage=FLASHONLY|Rotation=0.000|XOffset=0mil|YOffset=0mil|HoleType=Round|Shape=Relief|Width=10mil|Gap=10mil|Entries=4|*
%AMTHD116*
7,0,0,0.106929,0.086929,0.010000,45*
%
%ADD116THD116*%
G04:AMPARAMS|DCode=117|XSize=126.614mil|YSize=126.614mil|CornerRadius=0mil|HoleSize=0mil|Usage=FLASHONLY|Rotation=0.000|XOffset=0mil|YOffset=0mil|HoleType=Round|Shape=Relief|Width=10mil|Gap=10mil|Entries=4|*
%AMTHD117*
7,0,0,0.126614,0.106614,0.010000,45*
%
%ADD117THD117*%
%AMTHOVALD118*
21,1,0.047244,0.079370,0,0,270.0*
1,1,0.079370,0.000000,0.023622*
1,1,0.079370,0.000000,-0.023622*
21,0,0.047244,0.059370,0,0,270.0*
1,0,0.059370,0.000000,0.023622*
1,0,0.059370,0.000000,-0.023622*
4,0,4,-0.003535,0.020087,-0.031597,0.048148,-0.024526,0.055219,0.003535,0.027157,-0.003535,0.020087,0.0*
4,0,4,-0.003535,-0.027157,0.024526,-0.055219,0.031597,-0.048148,0.003535,-0.020087,-0.003535,-0.027157,0.0*
4,0,4,-0.003535,0.027157,0.024526,0.055219,0.031597,0.048148,0.003535,0.020087,-0.003535,0.027157,0.0*
4,0,4,-0.003535,-0.020087,-0.031597,-0.048148,-0.024526,-0.055219,0.003535,-0.027157,-0.003535,-0.020087,0.0*
%
%ADD118THOVALD118*%

%AMTHOVALD119*
21,1,0.082677,0.063622,0,0,180.0*
1,1,0.063622,0.041339,0.000000*
1,1,0.063622,-0.041339,0.000000*
21,0,0.082677,0.043622,0,0,180.0*
1,0,0.043622,0.041339,0.000000*
1,0,0.043622,-0.041339,0.000000*
4,0,4,0.037803,0.003535,0.060297,0.026029,0.067368,0.018958,0.044874,-0.003535,0.037803,0.003535,0.0*
4,0,4,-0.044874,0.003535,-0.067368,-0.018958,-0.060297,-0.026029,-0.037803,-0.003535,-0.044874,0.003535,0.0*
4,0,4,0.044874,0.003535,0.067368,-0.018958,0.060297,-0.026029,0.037803,-0.003535,0.044874,0.003535,0.0*
4,0,4,-0.037803,0.003535,-0.060297,0.026029,-0.067368,0.018958,-0.044874,-0.003535,-0.037803,0.003535,0.0*
%
%ADD119THOVALD119*%

%ADD120O,0.146299X0.063622*%
G04:AMPARAMS|DCode=121|XSize=197.48mil|YSize=197.48mil|CornerRadius=0mil|HoleSize=0mil|Usage=FLASHONLY|Rotation=0.000|XOffset=0mil|YOffset=0mil|HoleType=Round|Shape=Relief|Width=10mil|Gap=10mil|Entries=4|*
%AMTHD121*
7,0,0,0.197480,0.177480,0.010000,45*
%
%ADD121THD121*%
%ADD122C,0.197480*%
%ADD123C,0.063622*%
G04:AMPARAMS|DCode=124|XSize=63.622mil|YSize=63.622mil|CornerRadius=0mil|HoleSize=0mil|Usage=FLASHONLY|Rotation=0.000|XOffset=0mil|YOffset=0mil|HoleType=Round|Shape=Relief|Width=10mil|Gap=10mil|Entries=4|*
%AMTHD124*
7,0,0,0.063622,0.043622,0.010000,45*
%
%ADD124THD124*%
%ADD125C,0.091181*%
%TA.AperFunction,ViaPad*%
G04:AMPARAMS|DCode=126|XSize=48mil|YSize=48mil|CornerRadius=0mil|HoleSize=0mil|Usage=FLASHONLY|Rotation=0.000|XOffset=0mil|YOffset=0mil|HoleType=Round|Shape=Relief|Width=10mil|Gap=10mil|Entries=4|*
%AMTHD126*
7,0,0,0.048000,0.028000,0.010000,45*
%
%ADD126THD126*%
%ADD127C,0.054000*%
%ADD128C,0.048000*%
G04:AMPARAMS|DCode=129|XSize=47.874mil|YSize=47.874mil|CornerRadius=0mil|HoleSize=0mil|Usage=FLASHONLY|Rotation=0.000|XOffset=0mil|YOffset=0mil|HoleType=Round|Shape=Relief|Width=10mil|Gap=10mil|Entries=4|*
%AMTHD129*
7,0,0,0.047874,0.027874,0.010000,45*
%
%ADD129THD129*%
D84*
X7295987Y4080984D02*
X7285990Y4090981D01*
X7265997D01*
X7256000Y4080984D01*
Y4040997D01*
X7265997Y4031000D01*
X7285990D01*
X7295987Y4040997D01*
Y4060990D01*
X7275993D01*
X7315981Y4031000D02*
Y4090981D01*
X7355968Y4031000D01*
Y4090981D01*
X7375961D02*
Y4031000D01*
X7405952D01*
X7415948Y4040997D01*
Y4080984D01*
X7405952Y4090981D01*
X7375961D01*
X7495922Y4031000D02*
Y4090981D01*
X7525913D01*
X7535909Y4080984D01*
Y4060990D01*
X7525913Y4050994D01*
X7495922D01*
X7555903Y4090981D02*
Y4031000D01*
X7595890D01*
X7615884D02*
Y4070987D01*
X7635877Y4090981D01*
X7655871Y4070987D01*
Y4031000D01*
Y4060990D01*
X7615884D01*
X7675864Y4031000D02*
Y4090981D01*
X7715851Y4031000D01*
Y4090981D01*
X7775832D02*
X7735845D01*
Y4031000D01*
X7775832D01*
X7735845Y4060990D02*
X7755838D01*
D107*
X1146577Y1964940D02*
G03*
X1271577Y1839940I125000J0D01*
G01*
Y4618744D02*
G03*
X1146577Y4493744I0J-125000D01*
G01*
X1469968Y4618744D02*
G03*
X1864969Y5013745I0J395001D01*
G01*
X1989969Y5330143D02*
G03*
X1864969Y5205143I0J-125000D01*
G01*
X6129785D02*
G03*
X6004785Y5330143I-125000J0D01*
G01*
X6129785Y5013745D02*
G03*
X6524786Y4618744I395001J0D01*
G01*
X6848178Y4493744D02*
G03*
X6723178Y4618744I-125000J0D01*
G01*
Y1839940D02*
G03*
X6848178Y1964940I0J125000D01*
G01*
X6524786Y1839940D02*
G03*
X6129785Y1444940I0J-395001D01*
G01*
X6004785Y1128542D02*
G03*
X6129785Y1253542I0J125000D01*
G01*
X1864969D02*
G03*
X1989969Y1128542I125000J0D01*
G01*
X1864969Y1444940D02*
G03*
X1469968Y1839940I-395001J0D01*
G01*
X1146576Y1964940D02*
X1146577D01*
X1146576D02*
Y4493744D01*
X1146577Y4493744D01*
X1271577Y4618744D02*
X1469968D01*
X1864969Y5013745D02*
Y5205143D01*
X1989969Y5330143D02*
X6004785D01*
X6129785Y5013745D02*
Y5205143D01*
X6524786Y4618744D02*
X6723178D01*
X6848178Y1964940D02*
Y4493744D01*
X6524786Y1839940D02*
X6723178D01*
X6129785Y1253542D02*
Y1444940D01*
X1989969Y1128542D02*
X6004785D01*
X1864969Y1253542D02*
Y1444940D01*
X1271577Y1839940D02*
X1469968D01*
D108*
X6015000Y2395000D02*
D03*
X5135000Y4220000D02*
D03*
X5130000Y4650000D02*
D03*
X2765000Y2555000D02*
D03*
X1855000Y2820000D02*
D03*
X1755000D02*
D03*
X1655000D02*
D03*
X1555000D02*
D03*
D109*
X1955000D02*
D03*
D110*
X5778627Y1510592D02*
D03*
Y4948092D02*
D03*
X2216127D02*
D03*
Y1510592D02*
D03*
D111*
X6415000Y2521000D02*
D03*
X6015394Y2607220D02*
D03*
D112*
X4930000Y3245000D02*
D03*
Y3345000D02*
D03*
Y3645000D02*
D03*
Y3745000D02*
D03*
Y3845000D02*
D03*
Y4045000D02*
D03*
Y4145000D02*
D03*
Y4345000D02*
D03*
Y4545000D02*
D03*
Y4645000D02*
D03*
Y4445000D02*
D03*
Y4245000D02*
D03*
Y3945000D02*
D03*
Y3545000D02*
D03*
Y3445000D02*
D03*
D113*
Y4745000D02*
D03*
D114*
X4060000Y3280000D02*
D03*
Y3380000D02*
D03*
X4040000Y3899832D02*
D03*
Y3699832D02*
D03*
X2770000Y3255000D02*
D03*
Y3355000D02*
D03*
Y3455000D02*
D03*
X2455000Y3260000D02*
D03*
Y3460000D02*
D03*
D115*
X4060000Y3480000D02*
D03*
X4040000Y3799832D02*
D03*
X2455000Y3360000D02*
D03*
D116*
X6702795Y4151850D02*
D03*
Y3955000D02*
D03*
D117*
Y4360512D02*
D03*
Y3746339D02*
D03*
D118*
X6781535Y4053425D02*
D03*
D119*
X6368150Y4360512D02*
D03*
Y3746339D02*
D03*
X6421299Y4167598D02*
D03*
Y3939252D02*
D03*
D120*
X6565000Y4151850D02*
D03*
Y3955000D02*
D03*
D121*
X4360000Y1365000D02*
D03*
X2685000D02*
D03*
D122*
X5030000D02*
D03*
X3385000Y1370000D02*
D03*
D123*
X3395000Y3450000D02*
D03*
Y3400000D02*
D03*
X3345000Y3450000D02*
D03*
Y3400000D02*
D03*
X3295000Y3450000D02*
D03*
X3245000D02*
D03*
Y3400000D02*
D03*
X3195000Y3450000D02*
D03*
Y3400000D02*
D03*
X3145000Y3450000D02*
D03*
Y3400000D02*
D03*
X3095000Y3450000D02*
D03*
Y3400000D02*
D03*
D124*
X3295000D02*
D03*
D125*
X5818425Y2093425D02*
D03*
X5621575D02*
D03*
X5720000Y1798150D02*
D03*
X3758425Y2033425D02*
D03*
X3561575D02*
D03*
X3660000Y1738150D02*
D03*
D126*
X4766000Y4498000D02*
D03*
X4704000Y4847000D02*
D03*
X4408000Y4869000D02*
D03*
X4604000Y4875000D02*
D03*
X3243000Y3144000D02*
D03*
X3933000Y3196000D02*
D03*
X4171000Y3132000D02*
D03*
X4168000Y3353000D02*
D03*
X4916000Y2389000D02*
D03*
X4876000Y2274000D02*
D03*
X4975000Y2240000D02*
D03*
X5648000Y2346000D02*
D03*
X5105000Y2458000D02*
D03*
X3141000Y4522000D02*
D03*
X5133000Y3521000D02*
D03*
Y3704000D02*
D03*
X5125000Y3889000D02*
D03*
X5381000Y4663000D02*
D03*
X5879000Y4701000D02*
D03*
X5869000Y4473000D02*
D03*
X5875000Y4525000D02*
D03*
X6103000Y4522000D02*
D03*
X5382000Y4337000D02*
D03*
X6107000Y4196000D02*
D03*
X5894000Y4351000D02*
D03*
X5890000Y4113000D02*
D03*
X5897000Y4163000D02*
D03*
X6634000Y3315000D02*
D03*
X6638000Y3468000D02*
D03*
X6648000Y3598000D02*
D03*
X6281000Y3809000D02*
D03*
X6275000Y3700000D02*
D03*
X6287000Y3620000D02*
D03*
X5484000Y3690000D02*
D03*
X4930000Y2026000D02*
D03*
X4099000Y2140000D02*
D03*
X3916000Y2302000D02*
D03*
X3299000Y2289000D02*
D03*
X2912905Y2222095D02*
D03*
X2980000Y2095000D02*
D03*
X3060000Y2103000D02*
D03*
X4298000Y2141000D02*
D03*
X4194000Y2147000D02*
D03*
X2931000Y2455000D02*
D03*
X3011000Y2392000D02*
D03*
X2980000Y2354000D02*
D03*
X2061000Y2086000D02*
D03*
X2180000Y2088000D02*
D03*
X2285000Y2090000D02*
D03*
X3543307Y4330709D02*
D03*
X3228347Y4291339D02*
D03*
X3149606Y4015748D02*
D03*
X3307087Y4448819D02*
D03*
X1732284Y4251968D02*
D03*
X1692913Y4448819D02*
D03*
X2204724Y4409449D02*
D03*
Y4173228D02*
D03*
X1732284Y4566929D02*
D03*
X2204724D02*
D03*
X4645669Y3622047D02*
D03*
X4409449Y4251968D02*
D03*
X1417323Y3228347D02*
D03*
X2913386Y2834646D02*
D03*
X1574803Y3385827D02*
D03*
X2834646Y2755905D02*
D03*
X2559055Y2598425D02*
D03*
X2519685Y4960630D02*
D03*
X4488189Y3228347D02*
D03*
X2440945Y2834646D02*
D03*
X4409449Y4960630D02*
D03*
X3228347Y4881890D02*
D03*
X3622047Y5118110D02*
D03*
X3937008Y3937008D02*
D03*
X3149606Y4881890D02*
D03*
X3031496Y4842520D02*
D03*
X3385827Y2598425D02*
D03*
X2559055Y5196850D02*
D03*
X4094488Y2913386D02*
D03*
X4173228Y4881890D02*
D03*
X3307087Y3622047D02*
D03*
X4015748Y4881890D02*
D03*
X2519685Y4488189D02*
D03*
X3385827Y3622047D02*
D03*
X3700787Y4724409D02*
D03*
X3543307Y4803150D02*
D03*
X4173228Y4488189D02*
D03*
X3385827Y2677165D02*
D03*
X2755905Y2834646D02*
D03*
X2677165Y4409449D02*
D03*
X4881890Y2913386D02*
D03*
X4094488Y2795276D02*
D03*
X2913386Y4803150D02*
D03*
X1338583Y3937008D02*
D03*
X3779528Y4803150D02*
D03*
X2519685Y4448819D02*
D03*
X1338583Y4488189D02*
D03*
X2677165Y4015748D02*
D03*
X4645669Y3543307D02*
D03*
X1732284Y3464567D02*
D03*
X4842520Y2795276D02*
D03*
X5708661Y3385827D02*
D03*
X4763779Y4015748D02*
D03*
X4566929Y3543307D02*
D03*
X4173228Y3858268D02*
D03*
X3464567Y3149606D02*
D03*
X2598425Y3858268D02*
D03*
X1535433Y4212598D02*
D03*
X3858268Y3464567D02*
D03*
D127*
X5949000Y4055000D02*
D03*
D128*
X2716535Y2283465D02*
D03*
X4173228Y2244095D02*
D03*
X3543307Y3267716D02*
D03*
Y3740157D02*
D03*
X2519685Y4527559D02*
D03*
X3346457Y4291339D02*
D03*
X2244095Y3779528D02*
D03*
X3385827Y3661417D02*
D03*
X3346457Y3740157D02*
D03*
X2283465D02*
D03*
X3346457Y3700787D02*
D03*
X3464567Y4094488D02*
D03*
X3818898D02*
D03*
X1692913Y3937008D02*
D03*
X4685039Y3425197D02*
D03*
X1299213Y3307087D02*
D03*
X1732284Y3622047D02*
D03*
X1929134D02*
D03*
X3385827Y3976378D02*
D03*
X2992126Y4055118D02*
D03*
X2322835D02*
D03*
X2244095Y3937008D02*
D03*
X3149606Y4055118D02*
D03*
X2992126Y3976378D02*
D03*
X2244095D02*
D03*
Y4133858D02*
D03*
X3188976D02*
D03*
X1811024Y4173228D02*
D03*
Y4094488D02*
D03*
X3149606Y4291339D02*
D03*
X3070866Y3937008D02*
D03*
X1456693Y3346457D02*
D03*
X1496063D02*
D03*
X1653543D02*
D03*
X4251968Y4527559D02*
D03*
X2834646Y3897638D02*
D03*
X4448819Y3937008D02*
D03*
X3858268Y4685039D02*
D03*
X3464567Y4409449D02*
D03*
X1811024Y4055118D02*
D03*
X1299213Y3346457D02*
D03*
X4251968Y3858268D02*
D03*
X1889764Y3031496D02*
D03*
X3346457Y3228347D02*
D03*
X3897638Y5157480D02*
D03*
X1181102Y4173228D02*
D03*
X4724409Y4291339D02*
D03*
Y3976378D02*
D03*
X4291339Y3149606D02*
D03*
X1535433Y3188976D02*
D03*
X3818898Y4291339D02*
D03*
X4015748D02*
D03*
X4133858Y3740157D02*
D03*
X3937008Y3858268D02*
D03*
X2125984Y3661417D02*
D03*
X1535433Y4055118D02*
D03*
X5861000Y2706000D02*
D03*
X5107000Y3794000D02*
D03*
X2913386Y4212598D02*
D03*
X3149606D02*
D03*
X2598425Y4527559D02*
D03*
X3307087D02*
D03*
X3346457D02*
D03*
X2716535Y4606299D02*
D03*
X3622047Y3976378D02*
D03*
X3661417D02*
D03*
X2598425Y4094488D02*
D03*
X2283465Y4015748D02*
D03*
X2992126Y3385827D02*
D03*
X3149606Y3779528D02*
D03*
X3464567Y3503937D02*
D03*
X3425197Y3700787D02*
D03*
X4566929Y4370079D02*
D03*
X4685039Y4330709D02*
D03*
X4645669Y4015748D02*
D03*
X4685039Y3858268D02*
D03*
X3976378Y5000000D02*
D03*
X3425197Y3976378D02*
D03*
X2834646Y4133858D02*
D03*
X3425197Y4291339D02*
D03*
X2480315Y4173228D02*
D03*
X3464567Y4448819D02*
D03*
X2716535Y4291339D02*
D03*
X3464567Y4960630D02*
D03*
X2992126Y4173228D02*
D03*
X2519685D02*
D03*
X3385827Y4527559D02*
D03*
X2834646Y4330709D02*
D03*
X2559055D02*
D03*
X3188976Y4173228D02*
D03*
X4488189Y3700787D02*
D03*
X4566929Y4291339D02*
D03*
X3228347Y4055118D02*
D03*
X4488189Y3543307D02*
D03*
X3464567Y3622047D02*
D03*
X3188976Y4055118D02*
D03*
X2992126Y4094488D02*
D03*
X4173228Y4173228D02*
D03*
X3228347Y4015748D02*
D03*
X4606299Y4173228D02*
D03*
X3228347Y3582677D02*
D03*
X4330709Y4133858D02*
D03*
X3307087Y4055118D02*
D03*
Y3818898D02*
D03*
X4330709Y3976378D02*
D03*
X3307087Y3779528D02*
D03*
X4291339Y3858268D02*
D03*
X3346457Y4015748D02*
D03*
X4488189D02*
D03*
X3464567Y4133858D02*
D03*
X2401575Y2677165D02*
D03*
X3385827Y4094488D02*
D03*
X2874016Y2755905D02*
D03*
X3661417Y4251968D02*
D03*
X4133858D02*
D03*
X3464567Y4212598D02*
D03*
X4094488Y3858268D02*
D03*
X4448819Y3779528D02*
D03*
X3622047Y4251968D02*
D03*
X2165354Y3661417D02*
D03*
X2559055Y4094488D02*
D03*
X1968504D02*
D03*
D129*
X5685000Y3724770D02*
D03*
X5667283Y3701148D02*
D03*
Y3748392D02*
D03*
X5702717D02*
D03*
Y3701148D02*
D03*
X5780000Y4241551D02*
D03*
Y4201000D02*
D03*
Y4160449D02*
D03*
X5765000Y4602102D02*
D03*
Y4561551D02*
D03*
Y4521000D02*
D03*
X3024685Y2712191D02*
D03*
X2985315D02*
D03*
X3024685Y2751561D02*
D03*
X2985315D02*
D03*
%TF.MD5,fc8eed6ef4ccd7316a1de8aa5fa092a5*%
M02*
